<?xml version="1.0" standalone="no"?>
<!DOCTYPE svg PUBLIC "-//W3C//DTD SVG 20010904//EN"
 "http://www.w3.org/TR/2001/REC-SVG-20010904/DTD/svg10.dtd">
<svg version="1.0" xmlns="http://www.w3.org/2000/svg"
 width="1280.000000pt" height="932.000000pt" viewBox="0 0 1280.000000 932.000000"
 preserveAspectRatio="xMidYMid meet">
<metadata>
Created by potrace 1.15, written by Peter Selinger 2001-2017
</metadata>
<g transform="translate(0.000000,932.000000) scale(0.100000,-0.100000)"
fill="#000000" stroke="none">
<path d="M3050 9305 c-355 -73 -589 -332 -617 -683 l-6 -77 -54 -40 c-113 -83
-215 -236 -265 -395 -20 -65 -23 -96 -23 -225 0 -177 19 -262 91 -415 138
-292 376 -543 605 -638 75 -31 222 -59 260 -49 18 5 20 2 15 -18 -3 -13 -9
-30 -12 -39 -5 -13 -1 -15 24 -10 37 7 34 21 56 -262 2 -22 6 -62 10 -90 3
-27 8 -78 11 -114 3 -36 7 -76 10 -90 2 -14 7 -58 10 -99 11 -151 59 -382 123
-591 97 -314 172 -483 303 -677 38 -57 69 -104 69 -106 0 -3 -35 -7 -77 -11
-204 -18 -400 -76 -599 -176 -521 -262 -862 -742 -948 -1331 -9 -59 -16 -136
-16 -173 l0 -66 48 0 c26 0 53 -4 60 -8 7 -5 14 -33 16 -64 33 -419 254 -849
569 -1106 499 -408 1155 -490 1722 -217 333 160 599 427 754 756 49 104 105
259 117 326 6 33 8 35 37 29 41 -8 47 -15 58 -66 45 -200 254 -354 457 -338
l54 5 25 -56 c20 -45 83 -217 83 -227 0 -2 -12 -4 -27 -6 -37 -4 -72 -75 -73
-145 l0 -53 160 0 160 0 17 27 c12 17 19 52 21 100 l4 73 -51 0 c-48 0 -51 2
-70 37 -10 21 -39 97 -64 169 l-46 132 50 31 c57 38 119 120 151 200 17 45 22
77 22 161 0 114 -19 180 -71 248 l-25 33 89 101 c112 130 498 558 758 843 273
299 560 618 675 749 l95 109 18 -42 c10 -22 35 -95 56 -162 l39 -120 -66 -43
c-251 -161 -483 -426 -611 -696 -65 -138 -115 -300 -141 -457 -19 -111 -21
-154 -17 -318 3 -104 8 -200 12 -212 6 -19 13 -22 62 -20 l56 2 27 -111 c164
-660 729 -1146 1410 -1212 742 -71 1447 399 1674 1117 181 573 16 1214 -420
1632 -77 73 -209 174 -284 216 -28 15 -50 32 -50 36 0 4 9 26 21 48 11 23 18
46 16 53 -7 17 -203 99 -312 131 -113 32 -216 50 -377 65 -108 11 -148 10
-278 -5 -141 -16 -305 -48 -374 -75 -16 -6 -33 -7 -38 -2 -16 16 -76 247 -64
249 6 1 200 4 431 7 318 3 439 8 499 20 43 8 80 17 82 19 2 2 6 26 9 53 8 78
15 129 41 294 31 188 84 549 85 570 1 18 18 136 25 168 2 13 12 22 22 22 42 0
61 67 22 77 -24 6 -25 16 -4 34 29 24 35 56 18 102 -9 23 -20 64 -24 90 -14
75 -42 97 -130 104 -25 2 -60 4 -78 6 l-34 2 34 28 c50 43 72 49 115 31 52
-22 101 -12 206 44 126 66 150 103 107 167 -11 17 -30 45 -41 63 -14 21 -29
32 -45 32 -13 0 -24 -4 -24 -10 0 -5 7 -10 15 -10 8 0 15 -5 15 -10 0 -6 -17
-10 -37 -9 -21 1 -57 -1 -79 -6 -26 -4 -44 -3 -48 3 -4 7 15 13 49 17 43 6 55
11 55 25 0 30 -26 42 -80 38 -35 -2 -50 1 -50 9 0 27 -159 -90 -260 -192 -57
-58 -108 -105 -112 -105 -5 0 -8 14 -8 30 0 18 -5 30 -13 30 -13 0 -47 32 -60
56 -8 14 175 174 200 174 35 1 99 37 157 91 80 73 106 139 55 139 -11 0 -19 7
-19 18 0 26 -61 87 -71 71 -6 -10 -13 -10 -34 -1 -44 20 -62 14 -107 -38 -24
-27 -47 -50 -51 -50 -5 0 9 21 31 46 39 44 51 84 25 84 -7 0 -13 7 -13 15 0
24 -39 18 -49 -8 -11 -28 -68 -114 -82 -122 -25 -16 -37 -61 -27 -100 10 -39
9 -41 -37 -90 l-47 -50 8 65 c14 116 11 175 -11 200 -28 32 -82 52 -115 45
-17 -4 -40 0 -58 9 -34 17 -97 12 -123 -11 -13 -11 -32 -13 -77 -7 -53 6 -62
4 -81 -15 -25 -25 -26 -40 -7 -146 19 -106 55 -202 99 -267 18 -27 18 -28 -23
-145 -22 -65 -40 -129 -40 -141 0 -12 -4 -22 -10 -22 -13 0 -13 36 -1 59 11
19 3 36 -19 43 -10 3 -14 16 -11 46 2 36 -1 43 -22 53 -19 9 -30 8 -48 -3 -13
-7 -42 -13 -64 -13 l-40 0 0 80 c0 61 -4 88 -18 108 -24 37 -45 44 -62 21 -12
-16 -17 -17 -34 -6 -29 17 -29 17 -20 -30 4 -24 8 -46 9 -50 0 -12 -68 -9 -75
2 -4 6 -1 18 6 26 10 12 8 17 -7 29 -10 8 -22 15 -25 15 -13 0 -40 -82 -34
-102 8 -24 -11 -48 -40 -48 l-22 0 15 70 c16 74 13 91 -14 69 -12 -10 -15 -24
-11 -55 2 -24 0 -47 -6 -53 -8 -8 -7 -26 2 -62 7 -27 10 -53 7 -57 -4 -3 -25
15 -47 41 -33 38 -52 50 -106 67 -36 11 -81 29 -98 40 -41 25 -49 25 -42 -1 5
-19 3 -20 -66 -12 -107 12 -506 6 -540 -8 -53 -22 -74 -105 -38 -150 18 -23
22 -23 177 -20 180 3 219 5 321 16 52 5 77 4 87 -5 10 -8 33 -9 70 -5 31 4 56
3 56 -1 0 -5 -4 -35 -10 -67 -9 -55 -14 -64 -110 -168 -87 -94 -100 -113 -100
-144 0 -19 31 -128 69 -242 39 -114 72 -226 74 -248 3 -22 8 -47 11 -56 5 -11
-31 -85 -107 -220 -63 -112 -178 -323 -257 -469 -228 -424 -269 -489 -425
-668 -198 -230 -348 -348 -629 -501 -117 -64 -449 -221 -466 -221 -5 0 -27 48
-50 108 -75 193 -272 734 -307 847 -34 105 -77 204 -93 215 -7 5 -136 340
-224 584 l-35 96 47 24 c144 72 325 127 462 141 89 9 96 12 110 45 24 59 -17
134 -88 163 -48 19 -181 23 -297 9 -132 -17 -223 -15 -359 9 -87 16 -166 22
-282 23 l-162 1 -6 45 c-31 249 -71 453 -157 820 -39 162 -79 348 -90 414 -23
131 -18 151 25 122 31 -20 33 -8 6 44 -11 22 -20 41 -20 42 0 2 42 3 93 4 114
1 195 21 313 80 174 87 377 263 517 450 75 100 168 278 192 369 25 93 30 246
11 334 -63 297 -336 542 -660 592 -207 32 -452 -52 -617 -212 -48 -47 -79 -57
-79 -27 0 29 -70 157 -119 218 -112 139 -242 219 -417 255 -88 18 -215 18
-304 0z m753 -1764 c41 -85 123 -183 193 -232 48 -33 55 -52 24 -69 -27 -14
-25 -27 5 -34 15 -4 27 -15 29 -29 3 -12 17 -85 31 -162 15 -77 58 -273 96
-435 66 -279 134 -643 146 -776 5 -59 4 -61 -30 -87 -41 -31 -77 -100 -77
-146 0 -45 22 -82 76 -130 l47 -41 -21 -110 c-44 -224 -92 -319 -231 -463
-101 -105 -179 -163 -194 -148 -6 6 13 48 50 113 87 149 130 237 165 341 27
80 31 110 35 227 5 145 2 166 -55 380 -35 129 -68 321 -107 610 -32 241 -65
405 -108 546 -97 312 -119 378 -152 455 -19 46 -35 89 -35 95 0 7 12 16 28 22
l27 9 -32 16 c-18 10 -39 17 -48 17 -8 0 -15 3 -15 8 0 7 101 101 110 102 3 0
22 -35 43 -79z m-226 -82 c-6 -44 -10 -42 52 -23 34 11 79 -93 184 -426 82
-260 118 -429 151 -720 7 -58 34 -238 47 -315 6 -33 33 -152 61 -265 l51 -205
-5 -145 c-5 -121 -10 -158 -32 -223 -29 -86 -109 -250 -183 -372 l-48 -80 -80
0 -80 0 -77 115 c-110 163 -195 341 -267 560 -81 249 -128 445 -146 605 -3 28
-7 64 -10 80 -3 17 -7 63 -10 104 -3 40 -7 83 -10 95 -8 35 -35 363 -35 421 0
60 13 75 67 75 26 0 25 2 -19 27 -27 14 -48 31 -48 37 0 6 19 21 43 34 89 47
188 162 256 299 41 82 103 255 116 326 10 51 29 48 22 -4z m4231 -1165 c96
-122 188 -297 160 -306 -8 -3 -8 -10 1 -25 12 -23 15 -72 5 -97 -3 -8 -36 -26
-72 -40 -72 -27 -242 -76 -264 -76 -15 0 -110 218 -132 304 -19 76 -13 88 72
129 70 33 70 34 123 150 12 26 26 46 33 44 6 -2 39 -39 74 -83z m132 -507 c0
-10 51 -367 65 -454 16 -102 16 -102 -9 -195 -26 -98 -58 -182 -73 -191 -6 -4
-18 20 -28 51 -9 31 -68 203 -131 382 -62 178 -112 326 -111 327 4 4 262 81
275 82 6 1 12 -1 12 -2z m-3474 -442 c103 -45 217 -63 304 -49 34 6 63 7 66 3
20 -33 244 -668 240 -682 -2 -10 11 -61 30 -113 24 -68 31 -100 25 -112 -9
-16 -69 -75 -163 -161 l-37 -34 -71 66 c-194 180 -512 335 -802 392 l-86 17
95 91 c112 107 171 187 214 287 31 74 79 262 79 314 0 19 4 26 13 23 6 -3 49
-22 93 -42z m3209 -209 l69 -203 -159 -179 c-302 -339 -1093 -1212 -1306
-1440 -77 -83 -163 -183 -192 -224 l-16 -23 -45 21 c-60 28 -118 41 -187 42
l-56 0 -41 93 c-22 50 -42 100 -44 110 -2 15 31 33 182 101 577 257 816 431
1070 784 52 72 113 161 136 199 33 55 337 605 478 865 17 32 33 58 37 58 3 0
36 -92 74 -204z m390 -134 c14 -61 42 -176 65 -257 22 -81 40 -152 40 -160 0
-10 -84 -55 -104 -55 -12 0 -46 81 -86 207 l-43 131 42 98 c23 53 45 110 48
126 3 16 8 27 10 24 3 -2 15 -54 28 -114z m-4176 -692 c87 -9 247 -42 258 -54
4 -3 -312 -980 -353 -1091 -17 -46 -31 -71 -37 -65 -5 6 -182 834 -223 1047
-16 78 -25 145 -21 149 20 21 233 28 376 14z m5026 0 c101 -9 258 -40 271 -53
3 -3 -17 -74 -44 -159 -321 -980 -335 -1022 -343 -1003 -9 21 -222 1021 -241
1133 -6 34 -8 65 -4 69 7 7 119 19 201 21 28 1 100 -3 160 -8z m-3631 -302
c112 -314 263 -702 306 -788 l31 -62 -40 6 c-23 3 -59 9 -81 12 -22 3 -43 10
-46 15 -3 6 -14 52 -25 103 -57 280 -231 626 -405 807 l-35 36 93 80 c68 59
95 77 101 67 4 -7 50 -132 101 -276z m-1791 137 c16 -77 69 -329 117 -560 101
-476 107 -509 93 -504 -5 2 -195 210 -421 462 l-412 457 79 59 c43 32 124 81
179 109 100 52 295 124 321 119 10 -1 24 -46 44 -142z m5012 128 c3 -10 15
-58 25 -108 10 -49 64 -306 119 -570 56 -264 100 -488 99 -499 -2 -13 -34 17
-115 108 -128 145 -207 258 -256 366 -59 131 -175 507 -160 520 4 4 32 16 61
26 58 20 57 17 37 96 -6 23 -2 26 77 51 100 31 104 32 113 10z m-4170 -93 c97
-47 223 -130 301 -199 l39 -34 -105 -100 c-146 -138 -626 -586 -678 -632 -23
-21 -44 -36 -46 -34 -3 4 174 549 298 917 56 165 36 157 191 82z m5041 1 c125
-62 236 -138 339 -234 l60 -55 -25 -25 c-83 -81 -896 -807 -903 -807 -3 0 10
44 28 98 19 53 106 319 195 590 95 289 167 492 174 492 6 0 66 -27 132 -59z
m-1098 1 c3 -18 -4 -26 -32 -37 -48 -20 -56 -19 -56 10 0 16 9 29 28 39 36 20
56 16 60 -12z m-232 -109 c5 -15 71 -180 138 -348 l16 -40 -51 55 c-122 131
-229 255 -227 262 4 11 100 87 111 87 4 1 10 -7 13 -16z m-4756 -598 c162
-181 312 -349 334 -372 31 -35 35 -44 22 -49 -19 -7 -13 -9 -659 203 l-508
167 6 25 c26 103 160 320 276 445 l73 78 80 -83 c45 -46 214 -232 376 -414z
m4807 263 c88 -97 170 -199 216 -269 41 -63 129 -178 195 -256 67 -79 117
-143 112 -143 -32 0 -1071 339 -1089 356 -12 11 -5 32 47 136 66 136 153 260
245 352 l59 60 37 -40 c20 -22 100 -110 178 -196z m-3268 30 c80 -111 143
-231 186 -360 19 -58 35 -112 35 -119 0 -19 -163 -49 -265 -49 -113 0 -378
-18 -590 -40 -99 -10 -181 -18 -182 -16 -2 2 271 248 581 524 88 78 163 142
167 142 4 0 35 -37 68 -82z m5041 1 c100 -134 235 -435 217 -482 -3 -8 -42
-21 -94 -31 -48 -10 -277 -57 -508 -106 -540 -114 -586 -123 -591 -117 -7 7
894 816 909 817 4 0 34 -36 67 -81z m-6485 -683 c188 -61 220 -75 220 -91 0
-17 -13 -23 -75 -37 -124 -29 -1080 -228 -1094 -228 -22 0 -27 35 -32 206 -4
166 7 267 42 395 l16 56 351 -115 c194 -63 451 -147 572 -186z m4698 112 c314
-103 562 -188 565 -196 2 -7 1 -17 -4 -22 -5 -5 -245 -59 -534 -120 -609 -129
-638 -135 -644 -129 -18 18 -27 285 -14 409 12 113 44 240 60 240 6 0 263 -82
571 -182z m2029 1 c13 -53 17 -327 7 -394 -5 -33 -16 -93 -25 -133 l-16 -74
-31 5 c-34 4 -1136 363 -1145 372 -3 3 -3 7 -1 8 2 2 171 39 374 82 204 43
469 99 590 125 121 27 224 47 230 46 5 -1 13 -18 17 -37z m-6502 -290 c7 -11
10 -22 8 -23 -2 -2 -115 -104 -253 -227 -481 -432 -625 -559 -634 -559 -26 0
-166 215 -223 345 -25 56 -81 235 -76 240 4 3 1140 243 1155 244 7 1 17 -8 23
-20z m5041 0 c9 -18 8 -25 -7 -39 -11 -9 -194 -174 -409 -365 -214 -191 -406
-363 -426 -382 l-36 -34 -61 80 c-100 133 -180 293 -222 443 l-19 68 52 14
c29 8 259 57 512 110 253 53 489 103 525 111 36 7 68 14 72 14 4 1 12 -9 19
-20z m649 -109 c173 -55 415 -135 538 -177 207 -70 222 -77 216 -97 -3 -11
-30 -70 -59 -131 -61 -126 -149 -256 -229 -334 l-55 -55 -53 55 c-29 30 -127
137 -218 238 -91 102 -249 279 -352 394 -104 115 -188 215 -188 222 0 12 7 11
43 0 23 -7 184 -59 357 -115z m-5179 -251 c151 -168 315 -350 364 -405 50 -54
104 -116 120 -138 l29 -38 -29 -24 c-71 -57 -177 -126 -262 -168 -106 -53
-272 -111 -283 -99 -5 4 -56 235 -115 513 -58 278 -115 540 -125 583 -16 71
-16 78 -1 87 9 5 19 6 22 2 4 -4 130 -144 280 -313z m-101 306 c109 -14 165
-29 440 -120 173 -57 368 -121 433 -141 100 -32 117 -41 117 -58 -1 -73 -163
-347 -274 -462 l-66 -69 -62 65 c-51 52 -297 326 -687 762 -18 21 -32 38 -29
38 2 0 60 -7 128 -15z m5180 -347 c179 -200 360 -402 403 -449 l77 -87 -62
-50 c-127 -99 -305 -192 -456 -236 l-52 -15 -14 27 c-7 15 -18 54 -24 87 -6
33 -59 285 -117 559 -58 275 -103 506 -101 513 3 7 9 13 13 13 5 0 155 -163
333 -362z m-5530 332 c15 -8 17 -15 10 -33 -5 -12 -89 -264 -185 -559 -140
-427 -180 -538 -193 -538 -31 0 -207 86 -293 142 -88 58 -208 158 -234 195
-14 20 -9 26 128 146 78 69 275 244 437 391 162 146 299 266 303 266 5 0 17
-5 27 -10z m5034 4 c9 -3 16 -14 16 -23 0 -9 -81 -261 -179 -561 l-180 -545
-30 1 c-39 2 -193 78 -288 141 -39 26 -111 81 -158 122 l-86 74 38 38 c62 62
837 758 845 759 3 0 13 -3 22 -6z m-4934 -18 c0 -2 40 -192 89 -422 120 -564
154 -735 147 -742 -10 -9 -195 -31 -266 -31 -101 -1 -350 38 -372 58 -4 3 11
65 33 136 48 156 319 987 326 998 4 7 43 10 43 3z m5035 -4 c6 -4 65 -266 131
-582 105 -501 119 -576 105 -581 -9 -4 -71 -12 -137 -19 -98 -11 -144 -11
-235 -1 -120 13 -248 38 -262 51 -5 4 30 126 78 271 48 145 130 395 182 554
53 160 100 296 105 303 12 14 19 15 33 4z m-4233 -32 c86 -11 227 -26 313 -34
86 -7 161 -18 168 -25 8 -8 7 -28 -4 -73 -17 -72 -21 -73 -114 -38 -27 11
-150 51 -271 90 -239 75 -302 99 -269 100 11 0 91 -9 177 -20z"/>
<path d="M9430 6838 c0 -17 18 -44 24 -37 8 7 -5 49 -15 49 -5 0 -9 -6 -9 -12z"/>
<path d="M0 1127 c0 -129 1 -134 25 -157 33 -31 33 -72 0 -94 -25 -16 -25 -17
-25 -177 l0 -161 30 -35 c17 -18 30 -38 30 -44 0 -6 -13 -24 -30 -39 l-30 -28
0 -160 0 -159 34 -37 35 -36 6365 0 6366 0 0 630 0 630 -6400 0 -6400 0 0
-133z"/>
</g>
</svg>
