<?xml version="1.0" standalone="no"?>
<!DOCTYPE svg PUBLIC "-//W3C//DTD SVG 20010904//EN"
 "http://www.w3.org/TR/2001/REC-SVG-20010904/DTD/svg10.dtd">
<svg version="1.0" xmlns="http://www.w3.org/2000/svg"
 width="1280.000000pt" height="713.000000pt" viewBox="0 0 1280.000000 713.000000"
 preserveAspectRatio="xMidYMid meet">
<metadata>
Created by potrace 1.15, written by Peter Selinger 2001-2017
</metadata>
<g transform="translate(0.000000,713.000000) scale(0.100000,-0.100000)"
fill="#000000" stroke="none">
<path d="M7287 7120 c-545 -69 -1013 -396 -1251 -875 -368 -739 -128 -1617
567 -2069 168 -110 357 -186 569 -228 151 -30 424 -32 572 -4 504 93 932 410
1157 858 l39 78 393 0 392 0 47 -93 c302 -593 966 -941 1628 -853 256 34 477
119 700 267 128 85 334 291 419 419 374 564 374 1246 0 1810 -85 128 -291 334
-419 419 -379 252 -800 335 -1240 245 -409 -84 -798 -357 -1024 -718 -28 -45
-64 -110 -80 -144 l-30 -62 -393 0 -393 0 -39 78 c-221 439 -627 746 -1127
852 -112 24 -374 35 -487 20z m347 -977 c227 -56 413 -252 463 -487 19 -91 12
-237 -16 -326 -70 -220 -270 -395 -501 -436 -390 -69 -750 234 -750 631 0 323
236 590 560 635 68 10 166 3 244 -17z m3741 -5 c166 -47 317 -173 392 -328 51
-106 66 -171 66 -285 0 -114 -15 -179 -66 -285 -33 -67 -58 -102 -122 -165
-129 -129 -270 -189 -445 -189 -116 -1 -180 14 -289 66 -120 57 -232 169 -289
289 -51 108 -66 172 -66 284 0 112 15 176 66 284 33 68 56 101 122 166 175
173 397 231 631 163z"/>
<path d="M7373 5866 c-178 -58 -287 -230 -253 -400 7 -33 21 -78 32 -100 31
-60 102 -130 165 -161 51 -26 69 -29 148 -30 82 0 96 3 157 33 129 63 198 174
198 317 0 95 -25 163 -85 232 -87 100 -245 147 -362 109z"/>
<path d="M11107 5869 c-94 -22 -192 -104 -236 -199 -22 -46 -26 -69 -26 -145
0 -110 26 -174 101 -249 121 -122 301 -140 443 -45 134 90 192 256 141 404
-61 176 -242 277 -423 234z"/>
<path d="M5952 4072 c-210 -361 -292 -505 -290 -507 2 -2 44 -10 93 -20 241
-44 528 -176 725 -333 68 -55 187 -170 241 -235 l48 -57 25 42 c198 342 305
532 302 536 -3 2 -46 12 -98 22 -362 71 -691 260 -939 542 l-68 77 -39 -67z"/>
<path d="M1390 3195 c-356 -49 -656 -199 -916 -459 -188 -189 -311 -384 -389
-620 -160 -483 -91 -984 196 -1416 85 -128 291 -334 419 -419 379 -252 800
-335 1240 -245 409 84 798 357 1024 718 28 45 64 110 80 144 l30 62 393 0 393
0 39 -78 c354 -704 1181 -1047 1934 -801 398 130 745 430 931 804 368 739 128
1617 -567 2069 -168 110 -357 186 -569 228 -151 30 -424 32 -572 4 -504 -93
-932 -410 -1157 -858 l-39 -78 -393 0 -392 0 -47 93 c-303 595 -972 943 -1638
852z m367 -966 c26 -6 86 -29 132 -51 120 -57 232 -169 289 -289 51 -108 66
-172 66 -284 0 -112 -15 -176 -66 -284 -57 -120 -169 -232 -289 -289 -109 -52
-172 -66 -294 -64 -178 1 -317 61 -445 191 -83 83 -147 196 -171 301 -16 71
-16 219 0 290 48 208 224 398 429 465 111 36 236 41 349 14z m3773 -15 c321
-108 504 -442 420 -768 -57 -224 -235 -402 -460 -461 -85 -23 -235 -23 -319
-1 -298 79 -495 349 -478 656 10 169 68 299 189 421 166 167 424 227 648 153z"/>
<path d="M1501 1946 c-187 -61 -294 -269 -231 -451 86 -251 398 -325 584 -139
75 75 101 139 101 249 0 76 -4 99 -26 145 -33 71 -109 147 -179 178 -67 31
-182 39 -249 18z"/>
<path d="M5233 1946 c-159 -52 -253 -179 -253 -341 0 -142 70 -254 198 -317
59 -30 76 -33 152 -33 100 0 170 27 242 94 228 209 89 591 -221 607 -48 3 -92
-1 -118 -10z"/>
</g>
</svg>
