<?xml version="1.0" standalone="no"?>
<!DOCTYPE svg PUBLIC "-//W3C//DTD SVG 20010904//EN"
 "http://www.w3.org/TR/2001/REC-SVG-20010904/DTD/svg10.dtd">
<svg version="1.0" xmlns="http://www.w3.org/2000/svg"
 width="1280.000000pt" height="654.000000pt" viewBox="0 0 1280.000000 654.000000"
 preserveAspectRatio="xMidYMid meet">
<metadata>
Created by potrace 1.15, written by Peter Selinger 2001-2017
</metadata>
<g transform="translate(0.000000,654.000000) scale(0.100000,-0.100000)"
fill="#000000" stroke="none">
<path d="M2368 6525 c-96 -24 -177 -72 -254 -149 -121 -122 -183 -285 -171
-448 9 -110 7 -109 97 -88 41 10 77 16 79 14 2 -2 -8 -13 -22 -25 -35 -27 -36
-79 -3 -133 l24 -39 -24 -51 c-29 -62 -30 -101 -4 -143 25 -42 68 -63 129 -63
49 0 51 -1 67 -37 8 -21 23 -73 31 -116 26 -129 68 -172 158 -163 76 8 122 24
159 57 39 34 51 36 65 12 8 -15 -6 -34 -89 -114 -97 -94 -99 -97 -175 -254
-78 -161 -114 -222 -171 -285 -17 -19 -120 -163 -229 -320 -109 -157 -236
-338 -283 -404 l-85 -119 22 -16 21 -16 -37 -37 c-21 -20 -77 -59 -124 -87
-88 -51 -109 -77 -109 -135 0 -29 45 -111 61 -112 28 -1 50 -17 65 -50 18 -38
100 -118 113 -109 5 2 21 -1 36 -9 33 -17 95 -10 112 12 21 26 23 8 6 -47 -14
-41 -24 -55 -48 -65 -16 -7 -38 -22 -48 -33 -20 -23 -117 -342 -117 -386 0
-16 4 -36 9 -45 6 -11 4 -30 -6 -54 -12 -31 -20 -38 -42 -38 -57 0 -66 -9 -91
-81 -18 -53 -27 -68 -39 -65 -95 28 -287 40 -403 26 -627 -75 -1079 -602
-1044 -1215 16 -291 122 -536 320 -743 167 -174 352 -278 586 -328 105 -23
386 -26 500 -5 154 27 300 85 429 168 88 57 268 246 324 339 64 108 112 222
144 341 25 90 27 114 27 288 0 174 -2 198 -27 289 -34 126 -117 299 -194 401
-92 123 -230 244 -377 330 -18 11 -19 8 43 167 8 22 6 31 -10 51 -28 37 -24
54 15 61 19 4 39 13 46 21 7 8 16 15 20 15 4 0 285 -281 624 -625 l616 -625
-29 -40 c-41 -57 -66 -155 -57 -227 14 -112 16 -104 -42 -139 -46 -28 -63 -32
-145 -36 -106 -5 -148 -22 -167 -68 -11 -26 -10 -33 5 -50 26 -29 149 -76 244
-94 113 -22 186 -20 257 5 47 17 96 23 246 29 103 5 192 11 199 15 6 4 17 23
25 41 l14 34 223 0 c122 0 495 1 830 3 334 1 606 -2 604 -6 -4 -14 -49 -35
-111 -52 -72 -20 -119 -62 -114 -102 5 -46 44 -58 193 -58 150 0 203 13 311
74 41 24 119 55 193 76 148 43 181 59 181 85 0 38 20 19 56 -52 147 -293 394
-495 699 -574 182 -46 434 -43 630 7 355 92 641 392 742 777 37 143 43 348 13
492 -142 695 -879 1072 -1542 790 -56 -24 -184 -102 -255 -155 -10 -7 -33 10
-92 70 l-79 80 36 123 37 122 76 44 75 44 230 21 c444 40 969 57 1053 35 28
-8 36 -17 48 -54 9 -25 29 -62 45 -83 37 -46 180 -164 398 -327 334 -250 504
-397 605 -522 86 -108 227 -316 218 -321 -5 -2 -26 -8 -47 -11 -49 -9 -136
-93 -136 -130 0 -60 72 -95 227 -111 l62 -7 -23 -36 c-32 -51 -46 -98 -46
-149 0 -24 -4 -51 -9 -61 -20 -40 -28 -80 -19 -95 5 -9 23 -19 42 -22 19 -4
48 -22 70 -45 82 -84 206 -111 328 -72 47 16 100 22 208 26 154 6 316 13 495
21 61 3 162 8 225 10 63 3 161 7 217 10 76 3 111 1 137 -10 41 -17 134 -19
187 -5 20 6 54 22 75 37 42 28 111 47 214 58 36 4 72 11 81 16 14 7 19 1 28
-35 17 -69 96 -216 150 -278 248 -288 624 -363 953 -191 88 46 221 154 280
227 295 368 157 948 -279 1165 -113 56 -202 75 -348 75 -93 0 -148 -5 -194
-18 -131 -36 -258 -108 -354 -200 l-47 -46 -200 92 c-123 57 -199 97 -196 104
3 7 15 60 28 118 19 89 26 108 43 111 11 3 67 11 124 20 80 11 108 12 119 3
23 -19 178 -22 261 -4 108 23 207 86 135 86 -88 0 -190 76 -242 182 -88 180
-125 486 -92 761 9 74 17 107 26 107 7 0 25 10 40 23 26 23 29 23 68 9 55 -19
198 -26 332 -17 l109 8 -135 13 c-161 15 -263 37 -310 65 l-34 21 23 12 c18
10 33 10 74 -1 59 -15 374 -17 398 -2 11 7 9 9 -8 9 -12 0 -35 12 -50 26 -37
35 -118 72 -174 80 -26 4 -80 -1 -128 -10 -46 -8 -88 -13 -94 -9 -12 7 157 71
223 83 61 12 135 -4 195 -41 l50 -31 -28 29 c-76 80 -204 102 -374 64 -115
-26 -155 -27 -177 -3 -15 18 -15 19 8 30 17 7 35 8 58 1 38 -10 138 -10 218 1
30 4 52 8 48 9 -4 0 -42 6 -85 11 -88 12 -183 37 -183 48 0 4 25 17 55 30 69
28 139 29 183 2 47 -29 39 -8 -10 26 -37 26 -49 29 -117 29 -42 -1 -103 -4
-137 -9 l-61 -9 -24 34 c-18 26 -25 52 -30 116 -6 68 -11 87 -34 118 -143 187
-494 154 -584 -54 -14 -32 -23 -81 -27 -138 -6 -89 6 -150 50 -269 22 -60 83
-158 103 -165 13 -4 3 -15 -44 -47 -83 -57 -109 -90 -137 -183 -31 -100 -79
-166 -165 -226 -36 -26 -96 -71 -133 -100 -37 -29 -75 -53 -85 -53 -26 0 -214
-41 -238 -52 -62 -28 -86 -138 -40 -183 21 -22 33 -25 95 -25 38 0 70 -4 70
-9 0 -15 -70 -350 -86 -416 -20 -79 -45 -105 -100 -105 -50 0 -166 23 -286 56
-105 29 -140 44 -135 58 2 6 12 50 22 98 17 78 22 87 45 91 14 3 81 13 150 23
69 9 128 20 131 23 4 3 14 36 22 73 15 66 15 67 -11 102 -14 20 -31 36 -39 36
-17 0 -16 4 3 43 28 53 21 120 -24 248 -65 186 -100 371 -132 690 -16 168 -21
193 -46 240 -34 61 -98 121 -159 146 -50 20 -58 42 -43 104 7 25 16 39 27 39
32 0 79 38 90 73 l12 35 50 -34 c28 -19 58 -34 66 -34 26 0 72 30 97 63 22 29
26 44 26 105 0 42 5 74 11 78 22 13 2 104 -32 147 -18 22 -36 60 -41 84 -8 37
-17 49 -51 70 -23 14 -57 45 -76 69 -41 54 -56 63 -131 75 -32 5 -78 18 -102
29 -57 26 -156 26 -240 0 -78 -24 -159 -76 -253 -162 -39 -35 -86 -75 -105
-88 l-34 -24 42 -9 c42 -8 42 -9 42 -51 0 -53 27 -92 73 -102 31 -7 31 -8 7
-14 -23 -5 -25 -11 -28 -77 -3 -63 0 -74 23 -101 21 -26 25 -40 25 -100 0 -74
14 -119 51 -166 26 -33 91 -65 132 -66 15 0 27 -4 27 -9 0 -5 -30 -37 -66 -72
-66 -63 -119 -153 -109 -182 3 -7 -9 -24 -27 -37 -18 -13 -76 -63 -128 -110
-184 -165 -236 -207 -307 -250 -40 -23 -73 -46 -73 -51 0 -14 -55 -38 -112
-50 -29 -6 -68 -20 -86 -30 -18 -10 -46 -19 -61 -19 -16 0 -41 -10 -56 -22
-73 -57 -64 -160 16 -192 22 -9 39 -18 39 -21 0 -19 -33 -66 -43 -62 -117 48
-311 121 -377 140 -184 56 -231 61 -525 54 -247 -6 -589 -27 -725 -43 l-54 -7
122 92 c67 51 174 142 237 203 97 93 121 122 149 182 119 250 42 498 -214 690
-102 76 -164 141 -223 233 -61 93 -85 143 -173 355 -42 101 -92 214 -112 253
-43 81 -128 176 -218 242 l-64 47 38 12 c20 7 47 26 60 43 l23 29 53 -18 c30
-10 85 -23 124 -29 80 -12 474 -13 512 -1 17 5 -5 8 -65 9 -103 1 -291 17
-380 32 -73 12 -185 48 -185 59 0 4 21 11 48 15 76 11 220 63 311 111 101 55
120 54 218 -12 67 -45 68 -45 34 -10 -19 19 -58 48 -87 63 l-53 28 27 23 27
22 -36 -20 c-31 -17 -41 -19 -65 -9 -60 25 -208 15 -370 -24 -83 -20 -176 -37
-206 -37 -54 0 -56 1 -104 53 -85 90 -104 120 -104 165 0 57 -19 140 -42 187
-11 22 -21 58 -23 81 -2 47 -39 131 -83 191 -23 31 -43 45 -72 53 -30 8 -47
21 -64 48 -37 59 -52 68 -90 54 -50 -18 -63 -15 -110 28 -24 22 -51 40 -60 40
-9 0 -34 -11 -54 -25 -45 -30 -70 -31 -116 -4 -42 24 -59 18 -105 -38 -29 -35
-36 -38 -83 -38 l-52 0 -37 -65 c-25 -45 -43 -66 -58 -68 -48 -7 -101 -148
-101 -270 0 -64 4 -83 28 -126 20 -36 31 -72 36 -121 9 -94 44 -192 121 -343
89 -176 99 -208 99 -326 1 -91 2 -96 13 -60 6 22 12 58 12 82 1 23 4 42 9 42
4 0 15 -20 25 -44 10 -24 38 -74 63 -110 24 -37 44 -73 44 -81 0 -8 -26 -41
-59 -74 -68 -70 -43 -62 32 10 l51 49 33 -32 c40 -38 42 -32 8 18 -14 21 -24
43 -21 48 37 83 57 145 62 195 6 55 9 61 36 70 16 6 43 20 60 32 l31 22 18
-24 c24 -31 24 -42 -3 -65 -25 -22 -125 -228 -135 -276 -3 -18 -18 -51 -31
-73 -14 -22 -47 -86 -73 -142 -40 -84 -55 -106 -91 -131 -24 -16 -64 -52 -90
-80 -50 -53 -173 -233 -216 -317 l-26 -50 -8 60 c-10 76 -32 141 -62 185 -12
19 -29 53 -36 75 -19 59 -54 126 -199 379 -251 435 -372 610 -540 776 -102
102 -312 262 -465 357 -102 63 -259 91 -354 64 -28 -8 -32 -7 -32 9 0 14 12
23 40 31 22 7 44 17 50 24 5 6 13 51 17 100 7 80 10 90 30 95 34 8 108 74 127
113 43 92 6 199 -107 311 -205 205 -588 337 -809 281z m4220 -1314 c18 -11
-110 -64 -220 -91 -77 -19 -289 -40 -278 -27 7 7 303 104 355 116 52 12 126
13 143 2z m-881 -52 c40 -15 69 -44 124 -128 42 -63 46 -72 26 -67 -12 4 -47
12 -77 18 -30 6 -60 12 -67 14 -15 4 -50 72 -68 130 -13 43 -13 44 10 44 13 0
36 -5 52 -11z m278 -123 c65 -14 125 -41 125 -56 0 -20 -54 -50 -91 -50 -45 0
-84 29 -118 90 l-24 43 24 -7 c13 -4 51 -13 84 -20z m-912 -180 c3 -8 30 -33
59 -56 29 -23 56 -52 59 -64 8 -29 -7 -136 -25 -178 l-14 -33 -21 50 c-34 77
-60 164 -69 233 -8 57 -2 82 11 48z m-1972 -685 c48 -49 159 -151 246 -228 87
-77 164 -147 171 -156 12 -14 -1 -23 -116 -81 -257 -129 -657 -375 -780 -481
-62 -54 -95 -115 -95 -179 0 -96 54 -178 189 -288 35 -28 63 -53 61 -54 -2 -2
-187 21 -412 51 -226 30 -411 55 -411 55 -1 0 1 21 4 46 4 36 0 51 -17 75 -21
29 -22 32 -7 83 9 29 25 61 37 72 16 14 20 27 16 54 -2 19 2 52 10 74 17 49
18 46 -17 46 l-30 0 34 48 c19 26 46 58 60 71 25 23 28 24 58 9 l33 -15 145
137 c80 76 173 161 206 188 34 28 99 97 145 153 73 89 366 406 378 408 3 1 44
-39 92 -88z m2322 -96 c4 -25 16 -63 27 -85 11 -21 20 -44 20 -51 0 -6 -42
-54 -93 -107 -82 -85 -319 -357 -431 -494 l-38 -48 -97 0 c-76 0 -104 -4 -133
-19 l-36 -20 -11 42 c-8 32 -7 45 2 53 7 6 66 55 132 110 170 139 333 285 383
343 23 28 65 87 92 133 43 71 149 188 170 188 4 0 10 -20 13 -45z m467 -250
c26 -54 87 -273 78 -279 -2 -1 -50 -22 -108 -46 -58 -24 -168 -72 -245 -106
-130 -57 -191 -86 -493 -230 -131 -63 -190 -113 -222 -186 -45 -106 -21 -196
79 -297 31 -31 138 -119 239 -195 100 -77 181 -140 180 -142 -3 -2 -200 25
-1172 162 -176 24 -322 47 -324 49 -3 2 11 51 29 107 l34 103 100 83 c55 47
138 119 185 162 l85 77 121 32 c67 17 123 31 127 31 3 0 3 -9 0 -20 -3 -12 2
-39 12 -60 21 -46 39 -52 141 -49 38 2 75 -1 82 -5 7 -4 23 -1 36 7 12 8 33
17 47 19 15 2 30 15 40 35 17 34 103 113 123 113 7 0 46 31 87 68 41 38 160
138 264 224 198 161 339 300 390 380 35 56 42 53 85 -37z m-4013 -309 c15 -13
26 -26 23 -29 -23 -19 -132 -79 -158 -86 l-32 -10 0 39 c0 36 4 42 53 74 63
42 78 43 114 12z m9527 -171 c11 -8 17 -17 14 -20 -3 -3 -16 3 -29 14 -27 23
-14 28 15 6z m-9504 -105 c0 -5 -5 -10 -11 -10 -5 0 -7 5 -4 10 3 6 8 10 11
10 2 0 4 -4 4 -10z m-136 -76 c20 -8 21 -24 2 -24 -8 0 -16 7 -20 15 -6 17 -4
18 18 9z m9661 -4 c8 -13 -5 -13 -25 0 -13 8 -13 10 2 10 9 0 20 -4 23 -10z
m422 -15 c28 -8 62 -24 75 -36 l23 -20 -70 5 c-113 10 -225 28 -225 36 0 11
66 28 111 29 19 1 58 -6 86 -14z m-420 -115 c49 -29 53 -37 18 -46 -30 -7 -59
2 -50 16 3 5 2 10 -3 10 -4 0 -18 13 -30 29 l-21 29 22 -6 c12 -4 41 -18 64
-32z m-8026 -2 c-12 -18 -49 -81 -83 -141 -41 -72 -64 -104 -72 -99 -6 5 -48
38 -93 75 l-83 65 108 37 c59 19 136 49 172 64 36 16 67 29 68 30 2 1 -6 -14
-17 -31z m2400 -246 l-161 -168 -63 62 c-35 34 -88 75 -117 92 -33 19 -48 33
-40 36 8 2 85 21 170 42 85 20 198 52 250 70 52 18 101 33 108 33 8 1 -58 -75
-147 -167z m3387 -72 c17 -69 38 -147 46 -175 15 -48 15 -51 -9 -90 -35 -58
-92 -115 -160 -160 -33 -22 -87 -66 -121 -97 l-61 -58 -244 115 c-134 64 -250
119 -257 123 -16 8 -16 8 -7 88 l6 61 76 5 c67 5 79 8 99 32 13 14 32 26 43
26 11 0 23 9 26 21 7 20 12 21 91 16 72 -4 85 -2 100 14 11 12 15 28 11 47 -6
29 -5 30 96 68 56 21 131 50 167 65 35 15 65 27 66 26 1 -1 16 -58 32 -127z
m-6708 -71 c267 -35 461 -65 470 -73 8 -7 67 -55 130 -106 63 -52 118 -99 122
-105 10 -13 10 -195 1 -195 -12 0 -1216 532 -1228 542 -5 5 3 6 20 3 17 -3
235 -32 485 -66z m1327 -34 c-9 -30 -15 -35 -41 -35 l-31 1 40 34 c22 19 41
35 42 35 0 0 -4 -16 -10 -35z m-1234 -294 l645 -285 6 -150 c3 -83 9 -237 12
-342 l7 -190 -32 -14 c-32 -13 -33 -12 -87 41 -179 175 -1217 1231 -1207 1228
7 -2 302 -132 656 -288z m5298 170 c103 -35 291 -110 301 -119 9 -9 -32 -174
-43 -170 -17 7 -254 195 -305 242 -49 47 -67 76 -46 76 5 0 46 -13 93 -29z
m-4142 -7 c27 -6 30 -9 25 -33 -4 -14 -9 -29 -11 -34 -4 -7 -89 49 -99 65 -6
10 41 10 85 2z m576 -80 c220 -31 567 -79 770 -108 l370 -52 16 -35 c13 -26
24 -133 46 -448 l28 -414 -23 -15 c-20 -13 -57 -15 -206 -15 l-182 1 -560 247
c-307 136 -564 250 -571 254 -7 4 20 32 72 74 47 37 92 78 101 92 15 23 14 27
-9 78 -13 29 -39 64 -57 78 -17 13 -46 39 -63 58 -36 38 -119 81 -158 81 -21
0 -28 7 -39 39 -11 33 -10 46 5 90 13 40 21 51 38 51 12 0 202 -25 422 -56z
m6455 -11 c0 -59 -13 -135 -24 -138 -159 -47 -275 -115 -307 -181 -31 -65 -22
-105 71 -315 44 -100 78 -185 74 -188 -3 -3 -105 -8 -226 -11 l-220 -5 6 43
c3 24 20 99 36 167 17 68 48 206 69 307 32 157 40 183 57 186 62 11 101 27
124 52 23 24 36 29 83 31 31 1 60 -1 64 -4 3 -4 12 -2 20 4 8 8 33 9 68 5 50
-6 56 -4 71 19 9 14 14 32 10 40 -3 9 0 15 9 15 10 0 15 -10 15 -27z m-2166
-210 l247 -116 -6 -61 c-4 -34 -14 -91 -22 -129 -23 -98 -14 -164 37 -270 23
-49 40 -90 38 -93 -3 -2 -26 27 -53 64 -90 123 -256 277 -533 492 l-32 25 26
90 c34 120 32 115 43 115 5 0 120 -52 255 -117z m-7373 -97 c10 -10 -42 -564
-57 -614 -8 -30 -17 -52 -19 -50 -11 12 -184 632 -178 639 17 17 240 38 254
25z m107 -11 c28 -4 52 -9 52 -13 0 -14 -175 -482 -178 -474 -1 5 6 116 18
247 11 131 20 242 20 247 0 5 8 7 18 4 9 -2 41 -8 70 -11z m2279 -17 c-3 -8
-6 -5 -6 6 -1 11 2 17 5 13 3 -3 4 -12 1 -19z m-2568 -332 c92 -315 102 -369
73 -398 -4 -4 -38 11 -76 35 l-68 42 -154 260 -153 259 27 19 c74 50 240 122
253 108 3 -3 48 -150 98 -325z m6011 295 c0 -16 -9 -128 -19 -248 -11 -120
-23 -260 -27 -311 -4 -51 -10 -90 -14 -85 -9 11 -192 644 -187 649 8 8 116 22
180 23 l67 1 0 -29z m113 13 c20 -3 37 -11 37 -18 0 -14 -141 -700 -145 -704
-2 -2 -13 -1 -26 3 -25 8 -26 -32 10 405 29 347 27 332 59 326 15 -3 44 -8 65
-12z m-285 -335 c52 -176 92 -322 90 -324 -2 -2 -73 62 -158 142 -138 130
-162 159 -219 252 -35 58 -65 111 -68 117 -7 18 210 133 252 134 6 0 52 -144
103 -321z m445 286 c61 -24 143 -71 190 -109 l28 -23 -221 -282 c-122 -155
-220 -285 -217 -287 3 -3 103 120 222 273 120 153 220 280 222 282 6 8 103
-93 140 -147 32 -45 35 -54 22 -66 -11 -11 -274 -238 -350 -303 -9 -8 -63 -27
-120 -43 l-104 -29 -32 20 c-18 12 -33 24 -33 28 0 5 20 107 45 227 25 121 57
275 71 344 14 69 27 131 30 138 4 15 18 12 107 -23z m2176 18 c21 -5 22 -10
17 -47 -4 -23 -11 -58 -17 -78 l-10 -38 -94 47 -94 47 21 23 c36 39 121 61
177 46z m-7821 -75 c25 -18 50 -36 55 -39 7 -5 -213 -298 -270 -359 -7 -8 2
26 22 75 19 50 59 150 87 223 29 72 54 132 56 132 2 0 24 -15 50 -32z m-885
-254 c76 -130 137 -237 135 -239 -2 -1 -102 60 -223 137 -121 76 -227 143
-235 148 -12 7 4 28 76 99 49 50 94 91 100 91 5 -1 71 -107 147 -236z m5753
144 c21 -35 45 -74 53 -88 9 -14 -19 7 -61 45 -70 65 -75 71 -60 88 8 9 19 17
23 17 4 0 24 -28 45 -62z m-4665 -88 c27 -36 49 -68 49 -71 0 -8 -340 -304
-385 -336 -30 -22 -223 -79 -232 -69 -3 3 18 45 46 94 44 78 145 213 339 455
l54 69 40 -39 c22 -21 62 -67 89 -103z m7482 79 c56 -28 103 -52 105 -54 3 -2
-95 -441 -104 -465 -4 -13 -7 -12 -16 3 -21 38 -29 86 -43 247 -14 154 -31
237 -64 299 -18 33 7 27 122 -30z m-8017 -235 c-46 -126 -86 -236 -90 -244
-10 -27 6 74 18 106 29 82 150 373 153 370 2 -1 -35 -106 -81 -232z m9631 228
c8 -5 4 -36 -14 -114 -21 -89 -29 -107 -47 -112 -49 -13 -53 -9 -60 62 -3 37
-8 76 -11 87 -4 16 6 26 52 52 66 36 64 35 80 25z m-6487 -327 c173 -76 318
-141 322 -145 8 -6 -483 -4 -912 5 -140 2 -261 5 -267 5 -14 0 -18 104 -7 147
4 13 32 38 73 62 74 44 119 85 162 147 l29 43 142 -63 c79 -35 285 -125 458
-201z m1516 188 c-40 -80 -81 -205 -97 -297 -8 -46 -15 -66 -26 -66 -9 0 -12
6 -9 18 3 9 24 80 46 157 23 77 43 147 46 156 5 19 62 99 69 99 3 0 -10 -30
-29 -67z m394 22 c24 -25 41 -45 36 -45 -6 0 -79 46 -105 66 -5 4 9 24 18 24
4 0 27 -20 51 -45z m3446 -50 c73 -15 145 -25 166 -22 37 5 38 4 32 -21 -4
-15 -9 -30 -13 -34 -3 -3 -122 -9 -265 -13 -250 -7 -258 -7 -252 11 3 11 12
51 21 89 l16 71 83 -27 c46 -15 141 -40 212 -54z m-9133 -85 c147 -93 250
-164 256 -177 6 -13 8 -23 4 -23 -6 0 -596 230 -600 234 -7 6 74 126 83 123 6
-1 122 -72 257 -157z m5700 87 c53 -35 108 -83 155 -135 41 -45 71 -82 67 -82
-11 0 -370 143 -379 151 -9 8 52 119 66 119 5 0 45 -24 91 -53z m-4417 -108
c23 -59 30 -85 21 -88 -43 -15 -432 -119 -435 -116 -2 1 77 73 175 158 147
128 180 153 191 143 8 -8 29 -51 48 -97z m5778 10 c21 -45 35 -86 33 -93 -4
-10 -417 -130 -423 -123 -3 3 339 297 346 297 4 0 24 -36 44 -81z m-7093 -92
c283 -111 316 -127 336 -156 28 -41 19 -60 -34 -76 -38 -11 -48 -8 -347 116
-169 70 -309 128 -310 130 -3 4 34 109 39 109 1 0 143 -55 316 -123z m6024 52
c39 -39 61 -67 50 -61 -26 14 -142 132 -129 132 5 0 41 -32 79 -71z m16 -165
c32 -32 57 -60 54 -62 -2 -2 -32 -4 -67 -3 -56 0 -89 11 -285 92 -123 50 -223
95 -223 100 0 4 9 28 19 52 l20 45 211 -83 c204 -80 214 -85 271 -141z m4189
131 c0 -14 -4 -25 -10 -25 -5 0 -10 4 -10 9 0 5 -3 16 -6 25 -4 11 -1 16 10
16 10 0 16 -9 16 -25z m-266 -32 c39 -80 41 -93 13 -93 -17 0 -36 -14 -60 -43
-29 -35 -46 -46 -95 -60 -55 -15 -61 -20 -76 -57 -9 -22 -20 -40 -25 -40 -5 0
-213 56 -461 125 -248 69 -453 125 -456 125 -2 0 -4 8 -4 18 1 46 -5 45 437
57 230 7 482 13 560 13 l143 2 24 -47z m1402 -70 c-3 -65 -9 -160 -13 -212
l-6 -94 -26 30 c-14 16 -37 37 -51 45 -18 11 -41 53 -82 154 -31 77 -58 146
-60 153 -4 20 76 39 171 40 l74 1 -7 -117z m129 91 c28 -8 55 -17 61 -21 8 -6
-2 -59 -33 -178 -42 -158 -48 -174 -87 -219 l-42 -49 -18 28 c-17 26 -17 40
-6 234 6 113 13 212 16 219 4 13 20 11 109 -14z m-995 -69 c94 -47 170 -87
170 -90 0 -3 -15 -36 -34 -73 -18 -37 -39 -84 -45 -104 -11 -33 -16 -37 -39
-33 -15 2 -67 9 -117 15 -49 6 -95 16 -102 21 -13 12 -38 84 -47 141 -6 34 1
79 25 171 5 20 12 37 14 37 3 0 82 -38 175 -85z m-10566 -61 c154 -64 285
-119 291 -122 5 -3 -4 -9 -19 -13 -20 -6 -107 8 -290 47 -329 69 -306 63 -306
84 0 35 23 120 33 120 5 0 136 -52 291 -116z m5776 36 c96 -40 179 -76 184
-80 4 -5 -20 -7 -55 -5 -35 2 -120 7 -188 10 -68 4 -134 10 -146 15 -23 9 -23
10 -10 67 8 32 14 62 15 67 0 4 6 6 13 3 6 -3 91 -37 187 -77z m5462 -60 c31
-74 57 -138 57 -143 1 -4 -19 3 -44 16 -40 20 -53 36 -104 127 l-59 105 31 17
c18 10 39 16 47 15 8 -1 38 -58 72 -137z m-9804 65 c6 -27 14 -85 18 -127 5
-63 4 -78 -7 -78 -8 -1 -79 -9 -159 -20 l-145 -18 -145 40 c-80 23 -149 44
-153 48 -5 4 13 25 39 46 43 36 68 45 288 105 133 37 244 64 247 60 4 -3 12
-28 17 -56z m5776 38 c12 -42 26 -140 26 -184 0 -54 14 -48 -184 -70 l-116
-13 -137 38 c-76 21 -140 40 -142 42 -3 2 6 15 19 29 31 33 14 32 -20 0 -25
-24 -28 -24 -65 -12 l-38 13 66 18 c36 10 71 15 77 11 6 -4 19 0 28 8 15 14
424 133 464 136 9 1 19 -7 22 -16z m4602 -99 c97 -96 97 -90 3 -170 -70 -60
-93 -73 -177 -101 -52 -18 -98 -31 -100 -28 -2 2 2 22 9 44 9 25 55 88 118
161 57 67 101 123 99 125 -2 2 -46 -45 -97 -106 -52 -60 -96 -108 -98 -105 -3
3 57 241 72 284 8 22 101 -35 171 -104z m-5622 80 c5 -14 4 -15 -9 -4 -17 14
-19 20 -6 20 5 0 12 -7 15 -16z m4946 -84 c27 -49 50 -92 50 -94 0 -2 -49 19
-110 47 -60 28 -110 54 -110 58 0 11 104 88 112 83 4 -3 30 -45 58 -94z
m-10513 45 c-10 -44 -20 -55 -32 -36 -4 8 31 81 40 81 1 0 -2 -20 -8 -45z
m-191 -5 c24 -17 44 -33 44 -35 0 -11 -83 31 -91 47 -14 25 -4 23 47 -12z
m5834 -4 c7 -9 9 -16 6 -16 -15 0 -44 20 -50 35 -4 12 -2 13 13 6 10 -6 23
-17 31 -25z m-2520 -31 l525 -6 209 -92 c191 -84 230 -107 212 -124 -6 -7
-1382 23 -1522 33 l-81 6 -23 49 c-13 26 -34 58 -47 70 -12 13 -23 33 -23 45
0 27 12 30 135 27 50 -2 326 -5 615 -8z m-3290 -14 c0 -16 -14 -20 -27 -10
-19 17 -16 28 7 22 11 -3 20 -9 20 -12z m5832 -3 c-11 -11 -32 -3 -32 12 0 4
9 6 21 3 13 -4 17 -9 11 -15z m2917 -78 c178 -49 326 -92 329 -95 3 -3 -15 -5
-39 -5 -24 0 -84 -2 -134 -5 -570 -28 -525 -28 -525 0 0 13 -6 30 -14 38 -13
12 -12 23 1 78 21 92 21 91 41 85 10 -3 164 -46 341 -96z m-4420 80 l35 0 -34
-35 c-19 -19 -39 -35 -46 -35 -6 0 -49 17 -94 38 l-81 37 93 -2 c51 -1 109 -2
127 -3z m-4609 -113 c8 -3 -46 -6 -120 -6 -74 -1 -192 -4 -262 -8 l-128 -6 0
60 c0 33 2 62 5 65 5 4 475 -93 505 -105z m675 72 c-31 -27 -39 -30 -76 -24
-49 8 -44 15 29 37 81 23 87 22 47 -13z m4940 -11 c49 -10 91 -21 93 -22 2 -2
-74 -7 -168 -11 -94 -4 -174 -5 -177 -2 -13 14 8 56 30 59 40 6 130 -4 222
-24z m-856 -44 c1 -17 -6 -23 -34 -28 -37 -7 -80 8 -69 25 3 6 25 24 47 40
l42 30 6 -23 c4 -13 7 -33 8 -44z m1125 43 l41 -12 -65 -3 c-68 -4 -218 17
-202 27 17 10 183 1 226 -12z m102 -5 c-21 -2 -42 0 -47 5 -4 4 13 6 39 3 l47
-5 -39 -3z m4830 -7 c10 -8 14 -15 8 -15 -5 0 -19 7 -30 15 -10 8 -14 15 -8
15 5 0 19 -7 30 -15z m-4387 -12 c3 -2 -4 -12 -15 -23 -20 -20 -20 -20 -31 10
-11 29 -11 30 15 24 15 -4 29 -9 31 -11z m-5831 -2 l24 -6 -25 -23 -25 -23
-10 30 c-12 33 -9 35 36 22z m10447 -172 c19 -17 34 -33 32 -35 -2 -2 -55 3
-118 12 -63 8 -130 17 -150 19 -20 2 -64 17 -98 34 l-61 31 30 60 30 60 149
-75 c83 -41 166 -89 186 -106z m-10828 145 c-2 -2 -12 -1 -22 3 -18 6 -18 7 1
13 17 7 33 -5 21 -16z m4853 11 c10 -12 10 -15 -4 -15 -9 0 -16 7 -16 15 0 8
2 15 4 15 2 0 9 -7 16 -15z m1634 -64 c-3 -3 -64 -13 -137 -22 -131 -17 -132
-17 -149 3 -25 28 -23 42 11 71 l29 24 125 -36 c69 -20 123 -38 121 -40z
m4363 -19 c25 -34 11 -31 -74 12 -137 68 -159 94 -38 45 54 -22 105 -48 112
-57z m-10252 38 c44 -12 83 -25 88 -29 4 -4 -59 -15 -140 -24 -136 -16 -148
-16 -165 0 -26 23 -22 48 12 77 29 24 32 24 78 11 26 -7 83 -23 127 -35z
m-650 30 c4 -6 -6 -10 -22 -10 -22 0 -25 2 -13 10 19 12 27 12 35 0z m2273
-90 c-2 -11 -21 -16 -71 -20 -76 -6 -82 2 -51 63 31 61 34 62 81 15 24 -23 42
-50 41 -58z m9306 75 c9 -13 16 -26 16 -29 0 -4 -85 -34 -150 -53 -8 -3 12 20
45 51 33 30 63 55 66 56 4 0 14 -11 23 -25z m-8926 -20 c11 -24 10 -25 -18
-25 -28 0 -29 1 -18 25 6 14 14 25 18 25 4 0 12 -11 18 -25z m-2860 10 c-7 -7
-438 -125 -455 -125 -9 0 -13 19 -13 60 l0 60 183 3 c100 1 206 3 236 5 30 1
52 0 49 -3z m206 -8 l49 -12 -77 -67 c-42 -38 -84 -68 -93 -68 -8 0 -128 -25
-265 -55 -137 -30 -250 -55 -252 -55 -6 0 -27 112 -22 117 13 13 535 151 571
151 22 0 62 -5 89 -11z m53 7 c-3 -3 -12 -4 -19 -1 -8 3 -5 6 6 6 11 1 17 -2
13 -5z m5323 -10 c-155 -16 -180 -16 -180 -5 0 16 29 19 170 19 l135 -1 -125
-13z m1516 -79 c-4 -10 -23 -8 -88 11 -46 14 -101 30 -123 36 -39 11 -37 12
85 27 l125 16 3 -39 c2 -21 1 -44 -2 -51z m-5780 28 c-3 -25 -8 -48 -10 -50
-6 -6 -246 61 -246 68 0 6 147 25 219 27 l44 2 -7 -47z m-1054 -11 c-29 -40
-42 -49 -82 -56 l-35 -7 60 55 c62 56 94 61 57 8z m6683 -2 c77 -22 142 -40
144 -40 15 0 -55 -229 -73 -236 -13 -5 -445 159 -456 174 -38 45 -71 94 -68
98 5 4 248 40 293 43 11 0 83 -17 160 -39z m4267 -44 c19 -51 8 -61 -19 -18
-10 15 -30 39 -45 54 -40 38 -35 52 10 29 28 -14 41 -30 54 -65z m626 1 c14
-43 22 -80 20 -82 -2 -3 -77 -21 -166 -42 -154 -35 -164 -36 -208 -22 l-47 14
83 75 c72 65 93 78 173 106 51 18 99 32 107 31 9 -1 24 -33 38 -80z m-10753
47 c50 -14 120 -34 157 -45 l66 -19 -14 -63 c-19 -83 -54 -178 -68 -183 -7 -3
-115 36 -241 85 l-230 89 -42 53 c-24 30 -43 57 -43 60 0 3 71 15 158 26 86
11 159 21 162 22 3 0 46 -11 95 -25z m5360 16 c3 -5 1 -10 -4 -10 -6 0 -11 5
-11 10 0 6 2 10 4 10 3 0 8 -4 11 -10z m-5820 -9 c3 -5 1 -12 -5 -16 -5 -3
-10 1 -10 9 0 18 6 21 15 7z m5513 -22 c-7 -5 -22 -9 -32 -9 -18 0 -18 1 -1
20 14 16 21 17 32 8 11 -9 11 -13 1 -19z m-5820 -14 c-2 -1 -18 -5 -36 -8
l-33 -7 18 24 c17 22 19 23 36 8 9 -8 16 -16 15 -17z m5676 4 c-29 -28 -50
-35 -290 -88 -202 -45 -261 -55 -267 -45 -4 7 -10 33 -13 58 -6 40 -4 46 12
47 14 0 521 51 579 58 5 0 -4 -13 -21 -30z m84 12 c-12 -19 -37 -31 -67 -31
-10 0 -7 8 9 25 13 14 34 25 47 25 20 0 22 -2 11 -19z m3549 -16 c70 -19 128
-36 130 -39 2 -2 -4 -28 -14 -59 l-18 -55 -105 -6 c-172 -11 -567 -26 -685
-26 l-110 0 -23 51 c-13 28 -42 69 -64 91 -22 22 -38 41 -36 43 2 1 77 5 168
9 204 7 342 14 346 18 1 2 66 4 144 6 136 2 147 1 267 -33z m443 28 c-1 -24
-14 -53 -24 -53 -25 0 -116 31 -116 40 0 9 36 16 103 18 20 1 37 -1 37 -5z
m358 -18 c69 -7 73 -9 68 -29 -3 -11 -8 -45 -12 -73 -7 -57 -6 -56 -78 -47
-43 6 -47 9 -56 45 -6 21 -21 46 -34 56 -12 10 -28 28 -34 40 -11 20 -9 22 16
25 15 2 34 1 42 -3 8 -4 48 -10 88 -14z m-3925 -34 l37 -50 -40 14 c-62 22
-80 34 -80 55 0 16 9 22 40 29 3 0 22 -21 43 -48z m4224 37 c46 -17 41 -27 -7
-15 -22 6 -40 15 -40 19 0 11 8 10 47 -4z m543 -86 c0 -7 -5 -10 -10 -7 -11 7
-50 79 -50 91 0 13 59 -71 60 -84z m-10593 41 c47 -61 46 -63 -14 -38 -47 19
-59 28 -61 49 -5 42 39 35 75 -11z m5478 28 c-6 -4 -23 -13 -40 -19 -16 -5
-39 -14 -50 -18 -18 -7 -18 -6 -7 9 8 9 32 20 55 26 23 5 44 9 47 10 2 1 0 -3
-5 -8z m45 -11 c0 -5 -2 -10 -4 -10 -3 0 -8 5 -11 10 -3 6 -1 10 4 10 6 0 11
-4 11 -10z m5192 -15 c-4 -24 -38 -53 -48 -42 -4 4 43 67 51 67 1 0 0 -11 -3
-25z m-11073 11 c-2 -2 -28 -14 -57 -25 -37 -15 -52 -17 -50 -9 3 7 22 18 44
25 40 12 71 16 63 9z m10831 -26 c0 -15 -5 -12 -26 11 -19 22 -19 22 4 10 12
-6 22 -16 22 -21z m404 12 c-12 -9 -47 -39 -77 -65 -42 -37 -61 -47 -77 -42
-23 7 -26 33 -7 58 6 9 44 28 82 41 86 30 108 32 79 8z m-11184 -7 c0 -9 -21
-57 -46 -108 -43 -86 -58 -104 -237 -284 -105 -106 -196 -193 -202 -193 -5 1
-30 19 -53 40 -44 39 -44 39 -25 63 10 13 97 114 193 225 l174 202 86 34 c96
40 110 42 110 21z m5659 -1 c-14 -17 -41 -29 -87 -40 l-27 -7 19 22 c18 19 61
38 95 40 11 1 11 -2 0 -15z m368 8 c10 -6 36 -231 28 -240 -6 -7 -136 209
-130 218 3 5 16 10 28 10 12 0 29 5 37 10 18 12 22 12 37 2z m4423 -7 c27 -3
206 -83 199 -89 -2 -2 -84 -6 -181 -10 l-178 -6 0 37 c0 21 3 48 6 61 7 24 4
24 154 7z m-4664 -92 c-41 -80 -63 -105 -228 -271 l-183 -182 -48 42 -48 43
156 180 c195 225 205 234 240 241 29 5 55 12 120 31 17 5 32 8 33 7 2 -1 -17
-42 -42 -91z m101 81 c3 -10 -4 -26 -21 -42 l-26 -27 0 27 c0 37 10 58 26 58
8 0 17 -7 21 -16z m-6068 -10 c-14 -17 -72 -45 -119 -58 -22 -6 -20 -3 14 28
36 33 55 41 100 45 16 1 17 -1 5 -15z m241 -14 c0 -5 -11 -22 -25 -37 l-24
-28 -1 32 c0 49 9 64 31 52 10 -5 19 -14 19 -19z m147 22 c6 -4 14 -51 18
-112 4 -58 9 -114 12 -125 5 -18 3 -18 -9 -5 -30 31 -138 211 -133 221 4 5 16
9 28 9 12 0 29 5 37 10 18 12 31 12 47 2z m1819 -15 c2 -2 -8 -14 -22 -28 -21
-20 -27 -21 -34 -9 -5 8 -10 25 -10 37 0 19 3 21 31 13 18 -5 33 -11 35 -13z
m3513 -3 c-17 -17 -51 -32 -105 -45 -43 -11 -86 -22 -94 -25 -8 -3 -16 -5 -17
-5 -2 0 -17 -5 -35 -10 -18 -6 -46 -13 -63 -16 -16 -3 -37 -8 -45 -13 -8 -4
-32 -10 -52 -14 -31 -6 -37 -4 -43 14 -4 12 -4 24 -2 27 3 3 111 29 239 58
128 29 235 53 238 54 2 1 -7 -11 -21 -25z m585 -1 l67 -28 150 -195 151 -195
-50 -46 c-47 -44 -139 -109 -151 -109 -3 1 -54 77 -112 170 l-106 169 -7 113
c-4 62 -9 121 -12 131 -7 22 -9 22 70 -10z m4496 10 c11 3 22 2 25 -3 3 -4 38
-11 79 -15 42 -4 80 -12 86 -20 15 -18 3 -23 -65 -26 -50 -2 -72 3 -132 31
-72 32 -101 59 -43 38 17 -5 39 -8 50 -5z m-7245 -8 c363 -9 693 -18 732 -21
l73 -6 11 -41 c6 -23 22 -62 35 -86 24 -43 24 -45 7 -63 -18 -17 -64 -18 -866
-22 l-847 -3 0 24 c0 13 11 40 25 61 14 21 32 68 41 105 l17 67 56 0 c31 0
353 -7 716 -15z m1421 -42 c9 -56 -7 -55 -27 2 -11 31 -13 45 -5 48 17 7 24
-5 32 -50z m4720 41 c21 -5 62 -60 52 -69 -2 -1 -33 -5 -70 -7 -62 -4 -68 -2
-68 15 0 29 33 78 48 72 8 -3 25 -8 38 -11z m-9841 -34 c-33 -34 -69 -52 -233
-116 -106 -42 -195 -74 -197 -73 -6 7 -46 112 -43 114 2 1 480 109 508 114 2
1 -13 -17 -35 -39z m651 5 c46 -20 65 -41 207 -225 87 -111 157 -205 157 -210
0 -21 -194 -165 -209 -156 -5 3 -58 83 -118 178 l-110 173 -7 105 c-4 58 -10
120 -13 139 -5 31 -4 33 18 26 13 -4 47 -18 75 -30z m8022 -30 c-13 -13 -78
-13 -88 0 -8 10 -5 19 12 37 l23 25 29 -28 c17 -16 27 -31 24 -34z m-2363 -64
l76 -120 16 -195 c9 -107 13 -201 10 -209 -7 -19 -110 -37 -215 -37 l-82 0 0
28 c0 15 11 154 24 309 24 277 25 282 52 312 15 17 31 31 35 31 4 0 42 -54 84
-119z m2065 51 c-4 -2 -25 4 -46 13 -36 15 -37 15 -18 36 l18 20 28 -33 c15
-18 23 -34 18 -36z m2960 61 c-1 -18 -18 -35 -24 -24 -4 6 -4 16 -1 21 7 12
25 13 25 3z m-10849 -141 l79 -123 18 -215 c16 -198 17 -216 2 -224 -43 -23
-286 -38 -304 -19 -3 3 7 147 22 320 l27 316 29 37 c17 20 34 35 39 33 6 -2
45 -58 88 -125z m4199 121 c0 -8 -65 -63 -73 -63 -4 0 -27 57 -27 66 0 2 23 4
50 4 28 0 50 -3 50 -7z m1455 -39 c-23 -36 -30 -23 -9 18 10 18 19 27 22 20 2
-7 -4 -24 -13 -38z m-6215 -171 c-95 -109 -176 -202 -181 -207 -10 -11 -40 14
-70 55 l-19 27 150 137 c124 112 162 141 218 164 37 16 68 27 70 25 2 -1 -74
-92 -168 -201z m2910 192 c0 -8 -4 -15 -10 -15 -5 0 -10 7 -10 15 0 8 5 15 10
15 6 0 10 -7 10 -15z m3078 -2 c-106 -125 -294 -341 -305 -353 -13 -13 -17
-12 -39 15 -51 61 -55 53 94 187 136 124 162 144 211 159 46 13 56 11 39 -8z
m-5614 -54 c-25 -28 -28 -17 -7 26 16 33 18 35 21 16 2 -13 -4 -31 -14 -42z
m6466 -18 c102 -40 188 -76 192 -79 4 -4 -10 -37 -32 -72 -43 -71 -96 -138
-103 -130 -2 3 -53 68 -112 145 -59 77 -122 158 -139 179 -37 48 -48 51 194
-43z m5054 57 c9 -33 7 -121 -3 -136 -6 -10 -39 -3 -154 34 -81 26 -144 50
-141 53 5 5 254 67 280 70 7 0 14 -9 18 -21z m-10868 -79 c115 -45 212 -84
216 -88 4 -4 -9 -35 -30 -70 -38 -66 -107 -150 -114 -141 -18 21 -276 358
-282 368 -4 6 -5 12 -3 12 3 0 99 -36 213 -81z m10149 72 c-16 -7 -17 -9 -5
-13 8 -3 4 -3 -10 -1 -44 8 -47 23 -4 22 30 0 34 -2 19 -8z m-65 -11 c0 -11
-78 -11 -185 0 -63 6 -58 7 58 8 79 1 127 -2 127 -8z m-5270 -4 c0 -5 -240
-220 -249 -224 -8 -3 -65 97 -59 103 2 3 290 120 306 124 1 1 2 -1 2 -3z
m5648 -10 c17 -4 32 -11 32 -16 0 -11 -63 -19 -74 -9 -14 13 -16 37 -2 35 6
-1 26 -6 44 -10z m-5837 -46 c-68 -27 -128 -47 -133 -44 -24 15 10 39 72 50
24 5 44 11 115 33 17 5 39 10 50 10 11 0 -36 -22 -104 -49z m546 -247 c-13
-150 -27 -276 -30 -280 -10 -10 -143 23 -199 50 l-48 22 114 219 c105 200 177
308 183 274 2 -7 -7 -136 -20 -285z m2174 281 c18 -16 18 -18 -2 -45 -19 -26
-49 -40 -49 -21 0 17 21 82 27 82 4 0 15 -7 24 -16z m-8427 -42 c-22 -20 -82
-74 -132 -120 l-91 -83 -30 48 c-17 26 -31 53 -31 59 0 10 290 132 315 133 6
0 -8 -17 -31 -37z m442 -4 c-8 -53 -46 -521 -46 -555 0 -24 -2 -24 -42 -18
-59 10 -190 52 -210 67 -16 12 -7 33 103 243 109 207 169 302 192 304 5 1 6
-18 3 -41z m10118 20 c3 -7 7 -43 10 -79 l6 -65 -82 -12 c-46 -7 -97 -14 -113
-16 l-31 -4 28 56 c16 32 28 71 28 93 l0 39 75 0 c52 0 77 -4 79 -12z m1224
-40 c89 -28 162 -57 162 -63 0 -19 -41 -139 -50 -149 -6 -6 -60 12 -135 44
-115 49 -129 57 -172 109 -26 31 -53 64 -61 73 -13 15 -11 18 19 27 56 15 67
13 237 -41z m-913 33 l40 -7 -60 -12 c-33 -7 -70 -15 -82 -18 -20 -5 -23 -2
-23 20 0 24 3 26 43 25 23 0 60 -3 82 -8z m273 -8 c55 -4 80 -9 73 -16 -10
-10 -37 -15 -206 -42 -49 -8 -101 -17 -115 -19 -14 -2 -50 -8 -81 -11 -53 -7
-56 -6 -62 16 -3 13 -5 24 -4 26 2 1 50 13 107 26 114 27 162 30 288 20z m410
-58 c29 -36 51 -65 48 -65 -2 0 -26 9 -53 21 -26 11 -63 27 -82 35 l-34 14 28
30 c16 17 32 30 35 30 4 0 30 -29 58 -65z m-1213 33 c-14 -45 -37 -86 -60
-108 l-24 -22 -14 34 c-31 75 -31 74 20 96 66 28 86 28 78 0z m-360 3 c28 -6
30 -9 28 -47 -1 -22 -8 -55 -15 -74 l-14 -33 -32 33 c-33 32 -54 66 -66 108
-7 20 -4 22 31 21 21 -1 52 -4 68 -8z m-165 -18 c1 -31 37 -99 75 -142 21 -22
33 -41 29 -41 -68 -2 -462 -18 -599 -25 -287 -14 -505 -22 -505 -18 0 2 16 24
35 49 20 25 43 72 52 104 l16 58 181 7 c99 3 258 10 351 14 312 14 365 13 365
-6z m-4523 -15 c-3 -8 -6 -5 -6 6 -1 11 2 17 5 13 3 -3 4 -12 1 -19z m5995
-30 c-2 -18 -9 -39 -14 -45 -7 -9 -7 -13 0 -13 14 0 5 -30 -18 -60 -18 -23
-20 -24 -20 -4 0 11 6 29 14 39 8 11 12 25 9 31 -6 17 16 96 26 90 4 -3 6 -20
3 -38z m-5214 -145 c-51 -98 -98 -186 -104 -197 -11 -17 -14 -16 -69 19 l-58
37 159 159 c87 87 160 159 162 159 1 0 -39 -80 -90 -177z m2772 154 c0 -13 -6
-31 -12 -40 -12 -16 -15 -15 -42 7 l-30 23 30 15 c42 22 54 21 54 -5z m2330
15 c0 -8 -322 -146 -359 -154 -8 -2 -21 15 -32 39 l-18 43 22 5 c117 26 247
51 321 60 21 2 41 7 44 10 8 8 22 6 22 -3z m72 -52 c-15 -54 -28 -71 -140
-190 -68 -71 -127 -130 -130 -130 -4 0 -20 10 -35 23 l-28 22 128 150 c117
137 171 185 210 185 8 0 7 -17 -5 -60z m67 34 c-15 -18 -22 -13 -13 10 3 9 10
13 16 10 5 -3 4 -12 -3 -20z m103 -19 c-10 -22 -1 -42 98 -217 61 -106 110
-196 110 -199 0 -15 -161 -63 -171 -51 -8 9 -43 316 -41 367 1 21 -3 44 -7 50
-5 5 -8 28 -6 50 3 51 3 51 17 37 9 -9 9 -18 0 -37z m-28 -46 c7 -65 5 -97
-23 -244 -17 -94 -31 -173 -31 -177 0 -12 -78 -10 -85 2 -3 5 4 94 16 197 18
159 25 194 45 225 29 45 31 63 4 28 -11 -14 -20 -20 -20 -14 0 15 35 46 43 38
4 -4 9 1 13 10 13 35 29 7 38 -65z m148 35 c87 -36 87 -36 179 -151 l92 -114
-34 -35 c-45 -47 -117 -97 -132 -91 -7 3 -58 86 -115 186 -88 155 -103 186
-97 211 4 17 10 30 13 30 4 0 46 -16 94 -36z m-11316 -176 c-70 -135 -110
-203 -121 -202 -8 1 -38 16 -66 34 l-51 33 169 169 c92 92 169 168 171 168 2
0 -44 -91 -102 -202z m9946 155 c43 -42 45 -48 21 -58 -31 -11 -153 -18 -153
-7 0 15 70 102 83 102 6 0 28 -17 49 -37z m953 18 c-6 -5 -68 -50 -139 -101
-99 -71 -131 -89 -138 -78 -24 35 -29 51 -21 59 7 7 290 128 303 129 2 0 0 -4
-5 -9z m-4481 -172 c47 -75 86 -141 86 -147 0 -10 -151 -74 -158 -67 -3 3 -32
323 -32 355 0 21 8 10 104 -141z m2101 126 c56 -25 57 -26 40 -45 -22 -24 -95
-60 -122 -60 -22 0 -22 1 2 108 7 28 10 28 80 -3z m2274 -95 l-102 -121 -24
23 c-13 12 -22 28 -21 35 2 10 235 183 246 183 2 0 -43 -54 -99 -120z m-2439
76 c0 -13 3 -38 6 -55 6 -27 4 -31 -15 -31 -26 0 -92 32 -110 53 -10 13 -3 18
46 35 74 26 73 26 73 -2z m-7747 -157 c48 -75 87 -141 87 -146 0 -11 -97 -57
-142 -68 -20 -5 -28 -3 -28 6 0 8 -7 86 -15 174 -8 88 -15 171 -15 185 0 29
-9 41 113 -151z m10944 125 c59 -26 110 -48 112 -50 5 -5 -60 -104 -68 -104
-3 1 -33 35 -66 76 -86 108 -97 124 -92 124 3 0 54 -21 114 -46z m-544 -4 c3
-11 1 -18 -4 -14 -5 3 -9 -3 -9 -13 0 -10 -7 -28 -15 -40 -8 -12 -13 -27 -10
-35 5 -13 -38 -204 -48 -214 -3 -3 -21 3 -41 13 l-36 18 61 88 c34 49 59 90
57 93 -3 2 -29 -31 -58 -75 -67 -103 -68 -104 -108 -79 l-32 20 82 89 c46 49
99 107 118 129 19 22 36 39 36 40 1 0 4 -9 7 -20z m25 -170 c-11 -96 -21 -176
-22 -177 -1 -1 -19 2 -40 8 -27 8 -36 15 -32 27 2 9 16 69 31 132 16 65 38
132 52 153 13 22 26 37 28 35 2 -1 -6 -82 -17 -178z m167 -16 c23 -180 24
-174 -30 -174 -25 0 -45 3 -45 8 0 4 11 67 25 141 14 74 25 139 25 144 0 6 2
8 5 5 3 -3 12 -59 20 -124z"/>
</g>
</svg>
