<?xml version="1.0" standalone="no"?>
<!DOCTYPE svg PUBLIC "-//W3C//DTD SVG 20010904//EN"
 "http://www.w3.org/TR/2001/REC-SVG-20010904/DTD/svg10.dtd">
<svg version="1.0" xmlns="http://www.w3.org/2000/svg"
 width="1280.000000pt" height="757.000000pt" viewBox="0 0 1280.000000 757.000000"
 preserveAspectRatio="xMidYMid meet">
<metadata>
Created by potrace 1.15, written by Peter Selinger 2001-2017
</metadata>
<g transform="translate(0.000000,757.000000) scale(0.100000,-0.100000)"
fill="#000000" stroke="none">
<path d="M4285 7325 c-121 -135 -219 -250 -217 -256 1 -5 50 -93 108 -195
l106 -185 -57 -162 c-54 -153 -169 -475 -345 -972 -72 -203 -286 -806 -294
-831 -3 -6 -40 7 -92 32 -229 113 -522 195 -794 225 -117 12 -395 12 -515 -1
-455 -50 -893 -234 -1265 -533 -100 -81 -289 -273 -370 -375 -237 -303 -418
-687 -493 -1047 -43 -204 -52 -298 -51 -535 0 -231 12 -346 54 -541 80 -363
252 -723 488 -1024 83 -106 324 -341 437 -426 620 -468 1393 -615 2125 -404
914 263 1603 1053 1755 2015 26 160 31 512 11 680 -58 471 -246 920 -543 1290
-73 91 -258 282 -335 346 l-48 39 53 148 c28 81 55 146 59 144 4 -1 514 -587
1134 -1302 619 -715 1165 -1344 1211 -1397 l85 -98 -11 -62 c-20 -121 25 -243
120 -317 45 -36 141 -81 173 -81 8 0 17 -10 20 -22 12 -44 156 -618 156 -623
0 -3 -29 -5 -65 -5 l-65 0 0 -92 0 -91 135 6 c74 4 195 10 268 13 l134 7 -4
76 c-3 42 -6 82 -8 89 -3 8 -30 12 -88 12 l-83 0 -67 318 -66 317 27 20 c52
38 138 131 153 163 8 18 23 35 34 38 36 8 669 123 698 126 27 3 28 1 77 -146
252 -750 834 -1334 1578 -1583 748 -250 1560 -112 2207 376 121 91 369 336
452 446 283 376 437 741 509 1205 22 143 25 517 5 660 -101 734 -479 1355
-1071 1762 -321 221 -710 366 -1095 408 -126 13 -404 14 -526 0 -347 -38 -700
-151 -970 -310 -33 -20 -58 -29 -66 -24 -6 5 -168 207 -359 449 -191 242 -369
468 -397 503 l-49 63 62 172 c34 95 68 177 76 183 8 7 36 15 62 19 110 15 282
68 382 116 94 46 116 62 206 153 101 101 144 163 144 210 0 38 -10 55 -44 74
-44 24 -184 21 -1191 -28 -832 -41 -840 -41 -891 -66 -139 -66 -75 -170 172
-278 194 -85 553 -196 634 -196 36 0 36 -2 8 -96 l-23 -74 -1714 0 -1713 0 6
28 c4 15 49 180 101 367 51 187 103 376 115 420 l21 80 -96 177 c-111 204
-112 167 5 296 l65 72 418 0 417 0 0 63 c0 35 -3 98 -6 140 l-7 77 -476 0
-477 0 -219 -245z m3415 -1913 c0 -11 -10 -43 -128 -407 -61 -187 -134 -412
-162 -500 -60 -186 -205 -635 -432 -1335 -88 -272 -165 -511 -171 -530 -10
-33 -12 -27 -28 85 -27 184 -29 175 32 175 l52 0 -7 53 c-3 28 -6 69 -6 90 l0
37 -231 0 -232 0 7 -52 c3 -29 6 -68 6 -85 l0 -33 60 0 c50 0 60 -3 61 -17 0
-10 6 -80 13 -156 6 -75 9 -136 5 -135 -7 3 -64 69 -1343 1538 -506 580 -929
1066 -942 1080 l-24 26 26 82 25 82 392 3 c975 6 3027 6 3027 -1z m927 -1082
c-419 -441 -641 -924 -707 -1535 -7 -62 -10 -200 -8 -318 2 -133 -1 -207 -7
-207 -5 0 -179 -18 -385 -40 -206 -21 -375 -38 -377 -37 -1 2 34 115 78 252
45 138 138 430 209 650 71 220 169 526 218 680 182 566 272 846 357 1110 47
149 88 276 91 283 2 8 141 -154 313 -364 l309 -378 -91 -96z m-5959 175 c232
-29 500 -113 692 -217 41 -22 76 -42 78 -43 6 -5 -113 -336 -154 -429 -133
-300 -250 -465 -518 -731 -199 -197 -303 -285 -338 -285 -13 0 -47 -12 -76
-26 -133 -66 -184 -222 -118 -358 61 -125 209 -179 331 -122 80 37 131 108
142 197 6 49 7 50 122 146 145 122 406 381 495 493 162 204 327 493 424 740
22 58 44 105 49 105 4 -1 52 -50 106 -110 661 -739 702 -1829 98 -2620 -64
-85 -232 -256 -321 -328 -281 -227 -609 -370 -970 -423 -170 -25 -480 -15
-645 20 -754 160 -1340 724 -1535 1479 -80 312 -81 676 -3 997 162 667 669
1219 1314 1431 274 90 552 118 827 84z m7880 4 c471 -51 888 -256 1217 -600
304 -317 485 -689 549 -1130 20 -137 21 -419 1 -559 -71 -500 -324 -963 -697
-1276 -273 -228 -570 -369 -933 -441 -71 -14 -140 -18 -330 -18 -278 0 -369
14 -605 91 -492 161 -928 534 -1159 992 -55 109 -151 369 -139 376 2 1 323 64
713 140 391 77 794 155 896 175 162 33 190 36 220 25 87 -32 197 -6 265 61 45
45 84 133 84 189 0 120 -98 244 -209 264 -40 7 -46 15 -575 732 -295 399 -536
728 -536 731 0 12 224 111 325 144 126 42 302 81 425 94 52 6 109 13 125 15
69 8 273 5 363 -5z m-1008 -1174 c281 -374 507 -681 501 -683 -6 -2 -383 -66
-837 -141 l-827 -138 6 181 c15 415 74 689 207 961 83 170 171 296 304 433 95
98 101 102 117 85 9 -10 247 -324 529 -698z"/>
</g>
</svg>
