<?xml version="1.0" standalone="no"?>
<!DOCTYPE svg PUBLIC "-//W3C//DTD SVG 20010904//EN"
 "http://www.w3.org/TR/2001/REC-SVG-20010904/DTD/svg10.dtd">
<svg version="1.0" xmlns="http://www.w3.org/2000/svg"
 width="1280.000000pt" height="683.000000pt" viewBox="0 0 1280.000000 683.000000"
 preserveAspectRatio="xMidYMid meet">
<metadata>
Created by potrace 1.15, written by Peter Selinger 2001-2017
</metadata>
<g transform="translate(0.000000,683.000000) scale(0.100000,-0.100000)"
fill="#000000" stroke="none">
<path d="M8344 6816 c-18 -8 -114 -77 -215 -153 -101 -76 -205 -153 -231 -171
l-48 -33 -242 56 c-134 30 -346 79 -472 109 l-228 53 -14 -34 c-8 -18 -25 -79
-39 -135 -19 -79 -22 -104 -12 -110 34 -21 929 -225 1033 -235 83 -8 89 -5
339 191 61 47 113 86 117 86 4 0 28 -44 53 -97 108 -226 457 -1020 503 -1146
l22 -58 -28 -10 c-89 -36 -2409 -799 -2957 -974 -132 -42 -245 -78 -251 -80
-11 -3 -279 504 -506 957 l-84 168 30 5 c17 2 138 6 268 7 221 3 238 4 265 24
42 30 65 81 58 127 -12 86 -84 255 -122 289 -48 43 -586 268 -1107 463 -216
81 -234 84 -278 57 -49 -30 -149 -138 -184 -197 l-29 -50 0 -300 c0 -428 -20
-405 355 -416 135 -4 281 -8 325 -8 l81 -1 314 -607 c173 -334 315 -612 315
-617 0 -11 -225 -88 -241 -82 -6 2 -38 44 -72 94 -34 49 -100 138 -148 198
-647 811 -1372 1234 -2194 1282 -483 28 -937 -57 -1431 -268 -123 -53 -404
-190 -448 -219 -11 -7 0 -35 54 -138 l68 -129 201 101 c280 141 482 218 761
290 191 49 292 59 620 59 340 0 429 -9 615 -65 289 -87 485 -177 712 -329 194
-129 282 -203 483 -404 189 -190 313 -337 483 -572 122 -170 177 -224 226
-224 48 0 165 37 975 305 2564 848 2984 986 2999 983 18 -3 64 -106 55 -121
-3 -5 -51 -38 -107 -74 -619 -399 -978 -857 -1157 -1477 -373 -1291 337 -2638
1615 -3061 286 -95 521 -130 806 -121 412 13 672 70 995 218 794 363 1337
1098 1450 1961 19 151 20 466 1 613 -40 300 -120 557 -262 835 -347 683 -966
1152 -1716 1303 -198 39 -324 49 -565 43 -242 -5 -330 -17 -589 -77 -95 -22
-177 -40 -182 -40 -9 0 -24 31 -36 76 -8 25 23 40 159 79 272 77 547 112 805
102 714 -29 1269 -255 1734 -707 186 -181 338 -378 465 -603 18 -32 36 -57 40
-55 4 2 62 34 129 72 l122 70 -32 55 c-184 328 -499 692 -784 906 -279 211
-668 390 -1029 475 -264 62 -488 84 -786 77 -325 -8 -553 -44 -837 -135 -67
-22 -124 -37 -126 -33 -2 3 -89 197 -194 431 -378 844 -491 1083 -526 1118
-39 39 -94 50 -142 28z m-3811 -1040 c362 -137 667 -261 667 -271 0 -3 -207
-5 -460 -5 l-460 0 0 149 c0 153 6 211 22 211 4 0 109 -38 231 -84z m6027
-1111 c251 -36 543 -139 764 -269 279 -164 554 -429 739 -711 81 -124 197
-366 246 -511 72 -218 92 -338 98 -591 8 -320 -15 -511 -89 -743 -181 -570
-575 -1036 -1106 -1308 -234 -121 -493 -198 -747 -223 -74 -7 -200 -10 -330
-6 -173 4 -232 10 -338 32 -874 180 -1547 851 -1727 1720 -49 238 -49 640 0
884 65 320 227 663 440 931 140 176 407 407 602 521 122 71 112 74 164 -39
125 -265 644 -1417 644 -1428 0 -4 -21 -32 -46 -63 -153 -184 -161 -402 -23
-583 53 -70 129 -129 207 -160 47 -18 76 -22 167 -23 103 0 114 2 178 32 253
120 356 444 212 669 -73 113 -173 180 -327 218 l-92 22 -168 375 c-300 665
-508 1135 -508 1147 0 19 49 38 180 70 109 26 159 36 305 56 62 9 454 -5 555
-19z m-260 -1967 c99 -50 119 -170 42 -251 -38 -40 -74 -57 -122 -57 -88 0
-170 80 -170 166 0 44 38 113 77 143 39 28 115 28 173 -1z"/>
<path d="M2184 5015 c-472 -60 -892 -235 -1259 -525 -241 -190 -477 -480 -638
-780 -203 -381 -287 -722 -287 -1175 0 -263 24 -447 87 -665 277 -961 1076
-1658 2068 -1802 138 -20 541 -17 685 5 573 89 1044 331 1438 741 149 155 268
315 391 523 40 67 45 72 70 67 75 -18 429 -110 591 -154 102 -28 282 -76 400
-107 l215 -57 175 0 c156 -1 183 1 250 22 198 63 387 200 499 364 46 69 108
203 128 278 21 81 24 326 4 414 -35 156 -120 306 -245 432 -102 102 -176 153
-288 202 -144 62 -234 71 -1005 98 -249 8 -464 19 -479 23 -35 9 -39 18 -59
126 -51 282 -184 601 -359 864 -390 583 -988 974 -1681 1097 -127 23 -551 28
-701 9z m556 -289 c588 -71 1121 -373 1483 -841 133 -173 285 -456 345 -645
28 -88 82 -289 82 -306 0 -4 -91 -4 -202 0 -2113 69 -2044 69 -2186 1 -94 -45
-172 -121 -215 -212 -27 -58 -32 -82 -35 -164 -5 -115 13 -188 65 -266 44 -67
133 -147 198 -178 61 -30 630 -193 1852 -532 182 -50 283 -83 283 -91 0 -19
-103 -184 -172 -275 -336 -440 -833 -746 -1364 -837 -436 -75 -824 -34 -1213
126 -602 249 -1059 739 -1262 1354 -60 184 -86 317 -100 523 -28 413 44 783
223 1141 341 683 995 1130 1768 1209 89 9 346 5 450 -7z m-197 -2050 c18 -7
43 -26 57 -41 22 -24 25 -35 25 -107 l0 -80 -42 -37 c-76 -68 -134 -72 -209
-15 -94 72 -101 178 -17 255 15 15 35 29 43 32 29 11 111 7 143 -7z m1237 -16
c1452 -48 1703 -59 1697 -74 -3 -7 -34 -54 -71 -105 -119 -169 -148 -248 -154
-434 -5 -162 8 -262 48 -383 17 -48 30 -89 30 -91 0 -11 -79 8 -368 88 -180
50 -556 153 -837 230 -883 242 -1265 352 -1265 366 0 7 11 36 23 66 48 106 56
194 31 325 l-6 32 133 0 c74 0 406 -9 739 -20z m2594 -143 c160 -77 281 -220
332 -392 25 -86 23 -229 -6 -320 -35 -112 -78 -184 -160 -265 -83 -84 -163
-129 -271 -155 -255 -60 -545 68 -660 290 -51 99 -64 154 -64 275 0 117 21
195 78 305 48 90 164 202 260 249 96 47 149 56 301 51 111 -4 124 -7 190 -38z"/>
</g>
</svg>
