<?xml version="1.0" standalone="no"?>
<!DOCTYPE svg PUBLIC "-//W3C//DTD SVG 20010904//EN"
 "http://www.w3.org/TR/2001/REC-SVG-20010904/DTD/svg10.dtd">
<svg version="1.0" xmlns="http://www.w3.org/2000/svg"
 width="1280.000000pt" height="858.000000pt" viewBox="0 0 1280.000000 858.000000"
 preserveAspectRatio="xMidYMid meet">
<metadata>
Created by potrace 1.15, written by Peter Selinger 2001-2017
</metadata>
<g transform="translate(0.000000,858.000000) scale(0.100000,-0.100000)"
fill="#000000" stroke="none">
<path d="M8605 8561 c-123 -56 -151 -199 -60 -301 12 -14 32 -57 44 -96 21
-69 39 -95 101 -143 l25 -20 -38 -34 c-44 -41 -67 -91 -67 -147 0 -27 -9 -54
-27 -81 -20 -31 -27 -52 -26 -90 1 -82 48 -131 127 -131 48 0 77 12 116 47 14
12 37 25 52 29 26 6 27 4 87 -149 l61 -156 -24 -92 c-33 -127 -50 -307 -43
-449 5 -75 3 -119 -3 -123 -6 -4 -8 -21 -5 -38 6 -36 -9 -61 -43 -71 -26 -9
-26 -8 9 -130 12 -38 24 -65 27 -59 4 6 17 13 28 17 17 5 24 1 32 -21 24 -62
39 -130 32 -144 -4 -8 -11 -35 -14 -61 -6 -42 -10 -48 -42 -58 -45 -15 -43
-30 4 -30 37 -1 82 -27 82 -49 0 -6 -11 -17 -25 -23 -14 -6 -25 -15 -25 -19 0
-4 -16 -13 -35 -19 -39 -13 -39 -13 -25 -41 7 -12 21 -19 40 -19 17 0 30 -5
30 -11 0 -6 7 -8 16 -5 12 4 14 1 9 -14 -4 -14 2 -27 20 -44 25 -23 25 -25 8
-34 -35 -18 -272 -91 -1288 -397 -286 -86 -605 -183 -710 -215 -104 -32 -280
-85 -390 -119 -110 -33 -362 -109 -560 -170 -852 -259 -958 -288 -982 -273
-13 8 -46 81 -56 123 -5 19 -2 29 8 32 12 5 11 14 -4 59 -16 46 -22 53 -44 51
-19 -1 -28 5 -35 25 -128 356 -217 592 -237 630 -14 27 -23 55 -20 63 3 8 -4
41 -15 74 -11 32 -17 62 -13 65 5 4 40 19 78 35 100 41 169 87 257 173 l77 74
47 -16 c65 -22 92 -20 129 8 19 15 89 41 176 66 169 48 180 56 168 128 -20
128 -97 191 -260 213 -117 16 -323 -1 -794 -66 -214 -29 -496 -67 -625 -85
-375 -49 -383 -52 -424 -140 -16 -36 -20 -63 -19 -139 1 -87 3 -96 24 -113 13
-10 38 -32 55 -49 35 -35 168 -87 254 -98 30 -5 98 -14 150 -21 79 -11 101
-18 133 -43 46 -36 99 -56 148 -57 31 0 38 -5 49 -30 28 -67 113 -108 183 -89
22 6 43 7 47 2 3 -4 12 -33 19 -63 6 -30 57 -180 112 -333 55 -153 97 -282 94
-287 -3 -5 -28 -16 -55 -25 -27 -9 -52 -20 -55 -24 -4 -8 25 -95 36 -106 3 -3
25 2 49 10 23 8 48 15 55 15 15 0 90 -214 82 -234 -3 -7 -54 -47 -114 -88 -59
-41 -177 -125 -262 -187 -84 -61 -157 -111 -161 -111 -4 0 -46 17 -92 38 -45
21 -105 47 -133 57 -27 11 -67 30 -88 44 -37 24 -39 24 -67 8 -15 -9 -35 -17
-43 -17 -8 0 -17 -7 -21 -15 -4 -11 -13 -14 -32 -9 -25 6 -26 5 -22 -19 3 -18
-1 -32 -12 -42 -16 -15 -22 -13 -71 19 -124 83 -174 119 -182 132 -5 8 -13 12
-18 8 -6 -3 -27 5 -47 19 -39 27 -137 78 -218 114 -27 12 -70 31 -95 42 -25
12 -55 21 -67 21 -11 0 -23 4 -26 9 -3 4 -27 14 -53 21 -27 6 -57 16 -68 20
-38 16 -241 59 -304 65 -35 3 -67 7 -71 10 -6 4 -186 13 -295 16 -56 1 -225
-15 -325 -32 -86 -14 -332 -70 -345 -79 -5 -4 -32 -13 -60 -20 -27 -7 -54 -16
-60 -20 -5 -4 -34 -13 -63 -20 -28 -6 -55 -16 -58 -21 -3 -5 -40 -27 -82 -48
-117 -58 -167 -87 -287 -168 -164 -109 -208 -145 -351 -288 -143 -142 -210
-223 -299 -360 -32 -49 -66 -102 -76 -116 -37 -55 -159 -309 -159 -331 0 -8
-3 -18 -7 -22 -23 -23 -98 -280 -117 -406 -3 -19 -8 -48 -11 -65 -23 -131 -31
-378 -16 -514 6 -52 10 -97 9 -100 -1 -3 1 -13 5 -21 5 -13 17 -82 23 -135 1
-11 8 -38 14 -60 6 -22 15 -56 20 -75 5 -19 13 -51 19 -70 5 -19 13 -46 16
-60 4 -14 13 -38 20 -55 7 -16 23 -55 35 -85 36 -90 120 -261 156 -318 19 -29
34 -56 34 -61 0 -4 9 -16 20 -26 11 -10 20 -22 20 -27 0 -12 32 -53 97 -125
29 -32 53 -61 53 -64 0 -5 82 -97 109 -122 114 -108 357 -297 380 -297 5 0 22
-11 38 -24 44 -37 328 -178 368 -182 22 -2 101 -29 125 -43 8 -4 40 -13 70
-20 30 -7 71 -19 92 -26 119 -45 649 -67 868 -37 242 34 427 82 614 158 60 25
113 43 119 41 5 -1 22 9 38 24 16 15 43 30 59 34 16 3 34 13 41 21 7 9 33 27
58 40 67 36 113 66 149 94 17 14 55 43 83 65 137 107 378 348 413 413 5 10 21
31 35 47 15 17 34 40 42 51 8 12 33 49 57 83 23 35 42 70 42 80 0 10 11 29 25
43 14 14 37 52 51 84 14 32 41 90 61 128 21 44 32 78 29 92 -4 13 2 31 13 45
17 22 27 60 68 249 34 160 31 153 61 145 15 -4 41 -6 57 -5 17 1 42 1 58 1 15
0 35 0 45 -1 9 0 103 3 207 6 105 3 204 4 220 4 17 -1 40 -1 53 0 12 0 36 0
52 0 17 0 41 0 55 0 14 0 41 0 60 0 19 0 46 0 60 0 14 0 40 1 58 2 17 0 41 0
52 0 68 -2 148 7 157 16 7 7 30 12 51 12 27 0 48 8 69 25 16 14 42 25 57 25
18 0 34 9 48 29 12 16 35 31 52 34 20 4 35 16 45 35 8 16 29 35 46 42 22 9 33
22 37 42 3 16 19 39 34 51 16 11 29 29 29 40 0 23 15 52 41 78 13 13 17 27 13
43 -11 45 8 59 118 86 l103 26 3 37 c4 43 5 43 134 51 83 5 87 4 102 -19 9
-13 16 -31 16 -40 0 -8 1 -15 3 -16 1 0 52 -2 112 -5 81 -4 115 -10 128 -22
12 -11 20 -13 25 -5 9 14 322 15 340 1 8 -7 17 -6 28 2 8 7 41 14 73 15 66 2
81 8 81 36 0 30 26 86 60 129 35 44 38 66 10 75 -11 3 -20 10 -20 15 0 15 -46
22 -147 20 -88 -1 -102 1 -111 17 -9 14 -13 16 -23 6 -18 -18 -295 -18 -302 0
-3 9 -9 9 -26 -1 -11 -6 -46 -12 -77 -12 -59 0 -94 -12 -94 -34 0 -12 -151
-26 -286 -26 l-43 0 -16 58 c-9 31 -33 90 -53 130 -35 72 -35 74 -16 91 10 10
570 414 1244 897 760 545 1236 879 1254 882 16 3 94 51 174 108 80 57 148 104
151 104 24 -1 36 -24 36 -67 0 -40 3 -48 18 -45 9 2 17 -2 17 -8 0 -5 6 -10
14 -10 22 0 44 -83 51 -190 8 -117 30 -261 55 -360 19 -73 15 -100 -12 -100
-6 0 -49 -26 -96 -57 -48 -32 -97 -63 -110 -70 -12 -6 -34 -23 -50 -37 -15
-14 -70 -63 -122 -108 -52 -46 -116 -106 -141 -133 -101 -110 -259 -320 -259
-344 0 -5 -7 -15 -16 -22 -9 -7 -26 -33 -38 -59 -13 -25 -37 -72 -54 -105
-111 -216 -186 -462 -217 -715 -18 -138 -20 -416 -6 -525 18 -132 52 -309 62
-322 6 -6 8 -21 4 -32 -3 -12 1 -31 10 -45 9 -14 18 -35 20 -48 8 -68 163
-410 226 -500 11 -14 19 -28 19 -31 0 -5 92 -137 118 -168 167 -205 326 -353
512 -479 36 -24 77 -51 92 -61 42 -29 257 -139 271 -139 7 0 24 -6 39 -14 14
-8 43 -19 65 -26 21 -7 45 -19 53 -26 56 -48 338 -95 655 -109 178 -8 481 10
585 34 118 29 282 85 404 140 37 17 75 31 83 31 8 0 28 9 44 21 16 11 29 17
29 13 0 -3 7 0 16 7 18 15 32 24 91 56 22 12 45 29 52 37 8 9 19 16 25 16 14
0 122 79 156 114 14 14 29 26 33 26 11 0 237 228 272 274 17 22 41 51 54 65
21 24 43 54 93 130 10 14 23 34 30 43 34 48 125 223 168 323 12 28 26 59 30
70 5 11 16 44 24 74 9 29 20 59 25 65 5 6 11 27 14 46 2 19 12 67 21 105 10
39 19 80 21 92 2 13 6 40 9 60 46 293 33 636 -33 883 -12 43 -29 105 -41 145
-12 42 -49 144 -66 182 -8 17 -14 34 -14 37 0 9 -106 221 -136 271 -13 22 -31
54 -40 70 -9 17 -30 46 -45 66 -16 20 -29 40 -29 44 0 26 -341 373 -438 445
-33 25 -65 55 -71 68 -6 12 -18 22 -28 22 -9 0 -33 10 -52 23 -64 40 -75 47
-111 65 -47 23 -90 51 -120 78 -14 12 -45 24 -70 28 -25 4 -54 13 -65 20 -26
17 -130 56 -175 66 -19 4 -46 12 -60 18 -14 6 -61 18 -105 27 -44 10 -93 21
-110 25 -16 5 -55 11 -85 14 -30 4 -77 9 -105 13 -60 8 -370 8 -440 0 -27 -3
-75 -8 -105 -12 l-55 -7 -23 69 c-12 38 -22 79 -22 90 0 11 -8 27 -18 36 -16
15 -25 15 -83 3 -99 -22 -126 -34 -139 -66 -14 -33 -3 -61 35 -86 35 -23 38
-42 10 -66 -14 -12 -25 -28 -25 -35 0 -34 -28 -7 -49 50 -44 113 -109 247
-158 320 -26 40 -53 91 -59 115 -10 39 -9 44 13 68 12 14 23 27 23 30 0 3 -12
16 -26 29 -20 19 -38 63 -75 182 -26 87 -76 247 -110 357 -56 178 -60 199 -46
208 15 8 16 12 2 38 -8 16 -15 36 -15 45 0 8 -9 24 -19 34 -20 20 -20 20 0 26
10 4 17 10 14 15 -3 5 4 15 16 23 24 17 23 64 -1 58 -23 -5 -100 -2 -110 4
-23 14 -10 53 25 74 47 28 46 45 -4 36 -36 -6 -41 -3 -84 40 -48 48 -67 92
-67 158 0 32 4 39 27 48 15 6 42 8 60 4 25 -4 37 -1 55 17 13 13 60 33 121 50
92 25 101 26 112 11 15 -20 63 -10 72 15 3 9 15 24 25 33 18 14 19 20 8 57 -6
25 -17 42 -26 42 -10 0 -13 7 -8 25 10 38 -4 75 -31 85 -14 5 -25 15 -25 21 0
11 -25 8 -64 -7 -11 -4 -19 8 -32 53 -9 32 -61 180 -115 330 -55 149 -99 280
-99 291 0 18 43 152 55 172 4 6 17 4 36 -6 37 -18 62 -12 77 21 6 14 16 25 21
25 11 0 43 89 33 91 -4 1 -14 1 -23 0 -15 -2 -16 2 -4 36 8 21 34 77 58 126
78 150 103 249 73 279 -7 8 -13 27 -13 42 0 37 -18 47 -75 44 -26 -1 -51 1
-54 5 -14 14 -60 6 -102 -18 l-43 -24 -77 24 c-42 13 -96 29 -118 35 -35 9
-42 15 -48 42 -9 48 -90 121 -152 138 -29 7 -63 27 -84 46 -61 57 -131 69
-205 35z m623 -507 c23 -8 53 -14 65 -14 13 0 32 -6 42 -14 18 -13 17 -17 -31
-92 l-50 -79 -57 3 c-88 4 -103 13 -123 77 -17 54 -17 55 4 85 12 16 22 37 22
45 0 14 7 16 43 10 23 -4 61 -13 85 -21z m-150 -979 l43 -115 -7 -189 -7 -189
-22 10 c-11 5 -26 23 -32 39 -7 19 -18 29 -31 29 -29 0 -34 21 -39 175 -4 125
-1 166 22 280 3 17 8 40 11 53 2 12 8 22 12 22 4 0 26 -52 50 -115z m117 -297
c19 -50 15 -78 -10 -78 -8 0 -15 -5 -15 -12 0 -8 -3 -9 -10 -2 -7 7 -8 38 -4
83 8 79 13 80 39 9z m-4235 -817 c0 -21 -248 -161 -285 -161 -62 0 80 95 219
146 34 13 62 23 64 23 1 1 2 -3 2 -8z m4218 -531 c4 -47 -5 -55 -339 -293
l-276 -197 -94 -9 c-52 -6 -215 -16 -362 -22 -220 -11 -270 -10 -276 0 -7 11
-52 12 -222 6 -184 -6 -217 -10 -234 -25 -14 -12 -53 -21 -133 -30 -109 -12
-136 -10 -116 10 9 8 1026 316 1619 490 154 45 298 88 320 95 22 8 56 13 75
12 32 -2 35 -5 38 -37z m-778 -603 c-45 -35 -202 -150 -425 -311 -641 -461
-1731 -1239 -1742 -1243 -7 -3 -43 15 -80 40 -91 60 -132 80 -233 112 -72 24
-107 28 -232 33 -82 2 -148 8 -148 13 0 5 -6 9 -14 9 -8 0 -32 51 -61 133 -27
72 -63 164 -81 204 -18 39 -30 73 -28 76 2 2 -9 40 -26 84 l-29 81 47 30 c26
16 123 78 215 136 199 126 340 206 365 206 35 0 92 21 92 35 0 13 102 57 207
88 26 9 113 36 193 60 151 48 372 112 500 146 41 11 95 19 120 18 25 0 61 6
80 16 58 28 260 50 260 28 0 -18 56 -20 260 -10 263 13 559 24 680 27 76 1 92
-1 80 -11z m-2496 -346 c4 -5 -33 -30 -81 -56 -49 -26 -178 -105 -288 -175
-257 -163 -241 -155 -255 -129 -7 11 -20 46 -31 77 -16 47 -17 59 -6 75 9 14
98 48 313 118 297 97 338 107 348 90z m-918 -303 c21 -40 75 -200 70 -205 -2
-3 -37 -16 -77 -31 -68 -24 -86 -27 -226 -27 -93 0 -156 4 -163 11 -7 7 47 52
177 147 104 75 191 136 195 137 4 0 15 -14 24 -32z m-743 -145 c42 -20 77 -39
77 -42 -1 -6 -187 -137 -228 -160 -24 -13 -28 -10 -100 62 -65 65 -74 78 -63
91 8 9 20 16 28 16 8 0 28 14 45 30 16 17 36 30 44 30 7 0 19 9 26 19 11 18
14 18 52 5 23 -8 76 -31 119 -51z m-1828 -10 c3 -10 15 -205 25 -433 11 -228
22 -469 25 -535 l6 -120 -61 -107 c-33 -60 -64 -108 -68 -108 -4 1 -41 46 -82
102 l-74 101 -12 216 c-28 484 -45 873 -40 878 6 6 140 20 217 22 46 1 58 -2
64 -16z m8071 2 c8 -20 -38 -571 -53 -635 -4 -19 -18 13 -59 135 -30 88 -54
163 -54 167 0 3 9 9 19 13 21 6 41 53 41 96 0 18 7 32 20 39 34 18 23 80 -14
80 -32 0 -44 12 -60 58 -17 47 -16 48 39 55 73 10 116 7 121 -8z m287 -1 c14
-5 16 -14 11 -43 -19 -112 -63 -335 -125 -631 -38 -184 -72 -347 -75 -362 -3
-16 -9 -28 -14 -28 -5 0 -34 78 -66 173 l-58 172 28 310 c15 171 33 337 38
369 l11 59 116 -6 c64 -3 124 -9 134 -13z m-8095 -14 l52 -12 -5 -71 c-3 -40
-17 -191 -31 -336 -13 -145 -24 -271 -24 -280 0 -18 -153 -296 -176 -321 -12
-12 -14 -8 -14 30 0 25 -6 180 -14 345 -8 165 -18 383 -22 484 l-6 184 93 -6
c52 -3 118 -11 147 -17z m8362 -41 c53 -16 64 46 -115 -629 -132 -499 -122
-473 -202 -552 -38 -38 -71 -68 -74 -68 -3 0 -18 38 -34 85 l-29 84 27 143
c59 299 198 951 207 968 9 17 13 17 94 0 47 -11 103 -24 126 -31z m-8931 -11
c6 -29 20 -237 31 -463 11 -225 23 -436 26 -467 4 -34 2 -58 -4 -58 -5 0 -57
66 -114 148 l-106 147 -55 300 c-31 165 -57 320 -59 344 l-3 45 70 18 c92 25
144 36 177 37 24 1 27 -3 37 -51z m806 -5 c44 -14 84 -28 88 -33 12 -10 -28
-88 -178 -355 -75 -133 -131 -222 -133 -212 -7 37 48 578 64 626 5 16 44 10
159 -26z m-1110 -65 c9 -29 33 -150 55 -268 48 -265 53 -300 47 -300 -7 0
-303 409 -335 461 -28 46 -28 55 1 70 27 15 199 87 209 88 4 1 14 -23 23 -51z
m3363 -195 c50 -137 92 -254 94 -262 2 -8 -6 -17 -17 -19 -11 -2 -27 -10 -35
-18 -9 -7 -52 -20 -95 -28 -44 -8 -150 -32 -235 -54 -156 -40 -337 -81 -397
-90 -25 -3 -33 0 -33 11 0 17 -65 146 -115 227 -19 30 -42 69 -51 85 -9 17
-31 47 -47 68 -19 23 -27 41 -21 46 5 5 78 61 163 125 94 71 160 114 170 112
123 -37 306 -32 431 12 47 16 88 30 91 31 3 0 47 -110 97 -246z m6023 221
c105 -43 159 -73 159 -90 0 -9 -31 -95 -69 -192 -38 -98 -90 -233 -116 -302
-26 -69 -55 -138 -65 -155 -24 -38 -258 -271 -265 -264 -6 6 38 177 170 662
87 319 102 367 114 367 4 0 36 -12 72 -26z m-7988 -80 c48 -24 87 -49 87 -54
0 -18 -29 -58 -271 -370 -265 -342 -346 -443 -361 -449 -6 -2 -7 13 -4 40 3
24 11 98 17 163 l11 120 75 135 c99 177 230 406 259 453 l24 37 37 -16 c21 -8
77 -35 126 -59z m-1551 -196 c238 -331 270 -379 279 -416 18 -84 59 -315 56
-319 -5 -4 -615 641 -671 710 -21 25 -35 51 -31 57 16 26 222 153 236 145 3
-3 62 -82 131 -177z m9876 93 l72 -52 -38 -51 c-55 -75 -427 -429 -417 -398
14 47 174 456 205 523 l30 67 38 -19 c20 -11 70 -42 110 -70z m-1792 -297 c55
-181 108 -355 119 -387 10 -31 16 -59 13 -62 -5 -5 -380 526 -416 588 -13 22
-21 46 -18 54 7 18 179 144 191 140 5 -2 55 -152 111 -333z m-6363 299 c33
-23 41 -25 59 -14 11 7 22 11 24 9 7 -8 -105 -88 -123 -88 -11 0 -24 -5 -31
-12 -8 -8 -15 -8 -28 3 -15 12 -16 12 -10 -9 7 -19 4 -22 -22 -22 -26 0 -31
-4 -35 -32 -3 -18 -10 -55 -15 -82 -7 -37 -6 -55 5 -77 16 -31 32 -36 63 -17
15 10 22 10 31 1 8 -8 18 -9 31 -2 14 7 18 6 18 -6 0 -8 5 -15 10 -15 21 0 8
-24 -64 -118 -90 -118 -91 -119 -296 -272 -91 -68 -207 -157 -258 -198 -52
-40 -95 -72 -97 -70 -3 2 -1 47 4 100 l8 96 168 219 c278 360 498 633 509 633
5 0 27 -12 49 -27z m6872 -22 c3 -12 17 -21 33 -23 25 -3 29 -13 88 -193 l62
-191 -14 -159 c-9 -88 -18 -167 -21 -175 -11 -32 -124 236 -199 470 -40 129
-74 240 -74 247 0 7 10 13 23 13 12 1 36 7 52 15 40 18 43 18 50 -4z m1461
-123 c74 -66 114 -111 114 -124 -1 -9 -535 -431 -719 -567 -58 -44 -107 -75
-108 -70 -2 6 24 81 57 169 l61 159 252 247 c139 136 257 247 263 247 7 1 43
-27 80 -61z m-10332 -65 c383 -399 625 -666 631 -696 3 -18 16 -76 27 -130 12
-53 19 -100 15 -103 -3 -4 -56 6 -117 21 l-110 27 -323 332 c-177 183 -353
365 -391 405 l-69 72 34 36 c51 53 168 153 180 153 5 0 61 -53 123 -117z
m8055 50 c12 -16 51 -71 87 -123 209 -299 294 -423 290 -427 -4 -5 -232 138
-411 257 -125 83 -125 83 -125 72 0 -8 59 -48 455 -304 72 -47 141 -97 153
-113 21 -26 69 -162 61 -169 -4 -4 -443 181 -682 287 -81 36 -146 60 -144 54
1 -5 187 -90 413 -186 225 -97 414 -180 420 -183 6 -4 28 -65 49 -135 44 -147
56 -166 97 -158 32 8 38 -9 9 -25 -53 -28 -104 -14 -389 111 -254 112 -601
262 -679 295 -18 8 -33 10 -33 5 0 -5 15 -14 33 -22 56 -22 901 -390 911 -397
18 -11 -47 -23 -159 -28 l-110 -6 -370 90 c-330 81 -390 93 -374 78 4 -4 439
-110 633 -154 51 -12 63 -18 49 -23 -11 -4 -152 -21 -314 -38 -369 -39 -379
-41 -379 -50 0 -8 -31 -11 425 39 l360 40 88 -22 c48 -12 84 -25 80 -29 -8 -7
-389 -133 -740 -245 -101 -31 -183 -61 -183 -65 0 -5 6 -6 13 -4 6 2 111 36
232 74 121 39 331 107 468 151 136 44 255 80 265 80 24 0 295 -61 304 -69 12
-10 -78 -153 -124 -198 l-43 -42 -498 -135 c-438 -119 -559 -155 -522 -155 6
0 228 60 495 133 267 73 487 131 490 129 2 -2 -16 -23 -40 -47 -32 -32 -133
-92 -355 -211 -339 -183 -465 -254 -465 -262 0 -3 39 17 88 43 360 195 625
335 628 331 2 -2 -122 -133 -276 -292 -154 -158 -278 -290 -275 -294 4 -3 83
75 177 174 297 312 489 495 522 495 11 0 -17 -48 -220 -381 -183 -301 -289
-486 -267 -464 6 6 128 204 271 440 l261 430 116 63 c63 35 130 66 149 69 l34
5 13 -73 c17 -94 13 -212 -8 -253 -21 -42 -146 -224 -378 -551 -221 -311 -230
-325 -218 -325 5 0 37 42 72 93 184 266 525 739 528 730 4 -12 -37 -123 -197
-538 -133 -345 -151 -395 -141 -395 4 0 13 17 20 37 35 97 294 760 302 773 11
17 10 -2 -26 -455 -13 -171 -28 -350 -31 -398 -5 -64 -11 -90 -22 -94 -19 -8
-157 22 -262 57 -99 32 -253 102 -276 124 -8 9 -22 16 -30 16 -48 0 -305 200
-422 328 -98 107 -195 241 -188 259 3 7 0 13 -7 13 -15 0 -111 175 -145 264
-102 263 -144 577 -113 839 13 116 67 350 82 355 5 2 7 8 4 13 -7 11 72 202
97 234 12 15 25 22 36 19 16 -5 16 -5 0 6 -22 14 -18 25 58 143 58 89 75 104
108 98 5 -1 4 5 -4 13 -10 13 -10 19 1 34 22 29 163 172 170 172 4 0 16 -12
28 -27z m-5802 -55 c20 -16 16 -25 -21 -53 l-34 -26 -30 31 c-29 29 -30 30
-11 43 23 17 79 20 96 5z m8269 -131 c52 -67 118 -166 113 -171 -2 -2 -26 -15
-53 -30 -27 -15 -230 -157 -451 -315 -221 -159 -412 -294 -424 -300 -20 -11
-191 -34 -198 -27 -10 9 76 211 101 237 16 16 86 74 155 127 69 53 234 180
365 282 255 197 325 248 341 248 6 1 28 -22 51 -51z m-10419 -417 c162 -167
290 -306 284 -308 -6 -2 -87 15 -181 38 l-172 42 -66 58 c-104 88 -442 350
-453 350 -6 0 99 -87 233 -192 133 -106 236 -194 228 -196 -9 -1 -140 28 -292
66 -153 38 -280 67 -283 64 -3 -4 25 -13 62 -22 37 -10 173 -42 301 -73 128
-31 247 -64 265 -73 40 -20 247 -186 242 -194 -4 -6 -832 72 -961 91 l-82 12
24 90 c14 50 34 111 46 136 12 25 20 50 19 55 -3 14 101 215 125 242 12 12 20
25 17 28 -5 5 120 174 163 219 l27 29 79 -79 c44 -43 213 -215 375 -383z
m1903 346 c0 -16 -13 -35 -40 -56 -23 -18 -43 -31 -45 -28 -4 4 73 108 80 108
3 0 5 -11 5 -24z m473 -72 c31 -47 57 -90 57 -95 0 -32 -216 -122 -396 -164
-79 -19 -154 -37 -165 -40 -38 -13 -4 29 93 112 112 96 337 273 347 273 4 0
33 -39 64 -86z m6657 -179 c55 -169 58 -198 29 -300 l-11 -40 -35 40 c-19 22
-46 64 -60 94 l-26 54 12 136 c14 161 20 196 31 184 4 -4 31 -80 60 -168z
m-7863 -16 l-14 -136 -67 -87 c-37 -47 -70 -86 -72 -86 -2 0 -4 46 -4 103 l0
103 83 144 c94 167 95 166 74 -41z m-561 -11 l86 -118 5 -117 5 -118 -78 84
c-44 46 -82 89 -85 95 -8 14 -59 291 -59 319 0 26 -5 32 126 -145z m10007 37
l63 -124 -30 -11 c-50 -17 -328 -158 -498 -253 l-159 -88 -151 -15 c-83 -8
-161 -14 -172 -12 -36 5 827 628 870 628 7 0 42 -56 77 -125z m-1039 -32 c-66
-176 -96 -248 -107 -261 -16 -20 -178 -142 -187 -142 -4 0 -2 21 5 48 8 26 21
74 30 107 16 56 26 69 143 188 69 70 129 127 134 127 4 0 -4 -30 -18 -67z
m-5252 -9 c32 -9 58 -21 58 -25 0 -5 -19 -23 -42 -39 -71 -52 -111 -36 -133
53 -7 25 -5 27 26 27 18 0 59 -7 91 -16z m-2517 -112 c-85 -83 -111 -101 -169
-125 -71 -27 -96 -28 -60 -2 174 128 311 225 319 225 6 0 -35 -44 -90 -98z
m2163 17 c34 -89 32 -116 -10 -142 -26 -16 -247 -42 -258 -30 -14 14 19 100
63 165 45 67 38 64 168 87 3 1 20 -35 37 -80z m-372 -14 c21 -33 10 -64 -27
-72 -34 -7 -35 -8 -9 -40 14 -18 17 -30 10 -43 -7 -14 -28 -18 -107 -24 -54
-3 -137 -9 -185 -12 l-88 -7 0 26 c0 24 -26 41 -57 38 -12 -2 -29 56 -20 66 5
4 421 89 454 92 7 0 20 -10 29 -24z m7094 -27 c25 -68 67 -229 61 -232 -3 -2
-37 -3 -76 -4 -38 0 -188 -12 -333 -27 -144 -14 -269 -25 -278 -23 -15 3 476
271 551 300 57 23 62 22 75 -14z m-9691 -109 c1 -70 -1 -78 -31 -117 -18 -23
-36 -42 -39 -42 -10 0 -49 55 -49 69 0 6 24 53 52 106 60 108 66 106 67 -16z
m-207 -2 l67 -92 -28 -49 c-15 -28 -32 -51 -38 -53 -5 -2 -23 14 -40 35 -29
35 -31 46 -38 145 -4 60 -4 107 1 107 5 0 39 -42 76 -93z m353 -6 c-7 -90 -8
-91 -45 -121 -21 -17 -50 -30 -64 -30 -24 0 -26 4 -26 39 0 32 11 53 66 125
37 48 69 85 71 82 3 -3 2 -46 -2 -95z m7986 -14 l23 -68 -26 -25 -25 -26 -21
29 c-19 27 -19 31 -4 101 8 40 19 69 22 65 4 -5 18 -39 31 -76z m-8421 -159
c0 -43 -2 -48 -22 -48 -13 0 -39 5 -59 10 l-36 10 -22 100 c-33 157 -32 158
59 60 76 -81 80 -87 80 -132z m8573 125 c-41 -146 -62 -172 -88 -109 -25 59
-19 76 42 138 32 32 60 58 64 58 4 0 -4 -39 -18 -87z m-4653 15 c0 -12 -48 -9
-56 4 -4 6 1 17 12 25 16 12 20 11 31 -4 7 -9 13 -20 13 -25z m4789 -109 c-19
-50 -41 -94 -49 -99 -22 -11 -130 -20 -130 -11 0 40 30 78 113 142 49 38 92
67 95 65 2 -3 -11 -46 -29 -97z m-6969 56 c-4 -20 -21 -52 -37 -72 -15 -20
-30 -40 -33 -44 -5 -7 -420 -82 -425 -77 -11 12 -31 124 -23 129 5 3 78 18
161 33 84 15 190 36 237 46 127 28 130 27 120 -15z m-815 3 c-9 -29 -42 -58
-66 -58 -29 0 -23 15 18 49 45 37 57 39 48 9z m-1473 -27 c92 -23 169 -48 187
-60 32 -23 107 -109 100 -115 -2 -2 -57 2 -122 10 l-119 14 -114 91 c-63 50
-114 93 -114 95 0 8 29 3 182 -35z m1367 -16 c-26 -23 -53 -35 -113 -48 -43
-10 -82 -15 -85 -11 -3 3 12 22 34 41 32 27 46 33 68 29 17 -4 41 1 63 13 20
11 43 17 52 14 12 -5 8 -13 -19 -38z m-615 -47 c-3 -4 -18 -8 -34 -8 -16 0
-32 -4 -35 -10 -3 -5 -12 -10 -20 -10 -9 0 -5 15 14 50 l26 51 27 -32 c15 -18
25 -36 22 -41z m86 49 c0 -16 -9 -28 -26 -36 -36 -16 -37 -11 -8 27 30 38 34
39 34 9z m8182 -40 c22 -60 6 -73 -33 -26 -32 38 -35 49 -17 67 19 19 32 9 50
-41z m1582 6 c13 -65 26 -161 26 -195 l0 -38 -112 0 c-62 0 -297 11 -523 25
-225 14 -412 25 -415 25 -3 0 54 33 125 72 l130 73 305 31 c168 17 340 32 382
33 76 1 76 1 82 -26z m-9131 -42 c12 0 55 6 95 13 40 7 74 10 76 7 7 -13 28
-112 24 -116 -3 -4 -287 -45 -478 -71 l-45 -5 104 104 c92 94 109 106 150 114
45 8 46 8 49 -19 3 -21 9 -28 25 -27z m-873 8 c0 -4 -7 -9 -15 -13 -11 -4 -15
2 -15 27 1 30 1 31 15 13 8 -11 15 -23 15 -27z m-174 -48 c3 -14 8 -34 11 -45
5 -17 0 -18 -51 -14 -53 4 -61 9 -112 59 -29 29 -54 59 -54 65 0 8 31 4 100
-13 91 -23 101 -28 106 -52z m-996 23 c206 -19 430 -41 498 -49 l122 -14 122
-93 c67 -51 123 -98 125 -103 2 -6 -47 -32 -109 -59 l-111 -50 -451 48 c-516
53 -638 63 -616 47 8 -6 33 -11 56 -11 99 0 964 -90 964 -100 0 -11 -244 -118
-292 -129 -24 -5 -189 -15 -368 -21 -179 -5 -346 -13 -372 -16 -61 -8 -66 2
-70 151 l-3 119 30 7 30 7 -33 1 -32 1 5 58 c9 88 26 215 31 234 4 14 14 16
52 12 26 -3 216 -20 422 -40z m1800 -49 l-85 -85 -8 32 c-5 18 -13 38 -18 44
-7 9 2 29 27 63 5 6 159 38 163 34 3 -2 -33 -42 -79 -88z m3288 53 c10 -27 9
-35 -5 -50 -9 -10 -26 -18 -38 -18 -28 0 -108 57 -102 73 3 11 48 21 112 25
15 2 24 -7 33 -30z m5262 8 c0 -2 -55 -34 -122 -71 l-123 -66 -107 7 c-60 4
-108 9 -108 13 1 3 26 24 57 45 60 42 43 38 323 69 59 6 80 7 80 3z m-9291
-22 c37 -8 41 -24 7 -24 -14 0 -28 -5 -31 -10 -9 -15 -25 -2 -25 21 0 21 3 22
49 13z m8871 -44 c-50 -42 -97 -63 -126 -56 -20 5 -24 11 -18 29 3 12 10 26
15 32 9 9 79 21 139 23 24 1 24 0 -10 -28z m-5511 -21 l34 -40 -17 -82 c-27
-122 -39 -147 -74 -147 -35 0 -93 40 -151 106 -48 54 -98 151 -85 164 11 10
174 38 224 38 29 0 41 -7 69 -39z m5361 27 c0 -3 -4 -16 -10 -30 -8 -23 -15
-26 -59 -26 -35 0 -51 4 -55 16 -13 33 -13 33 102 42 12 1 22 0 22 -2z m-8977
-32 c92 -8 137 -35 137 -84 0 -35 -37 -83 -58 -75 -24 9 -221 159 -221 169 -1
4 14 6 32 2 17 -3 67 -8 110 -12z m165 -23 c11 -7 10 -10 -3 -15 -19 -7 -35 0
-35 15 0 11 20 12 38 0z m3037 -11 c3 -10 -1 -30 -10 -43 -17 -27 -12 -37 21
-37 30 0 49 -33 34 -59 -16 -30 -12 -43 10 -36 10 3 29 1 40 -5 17 -9 21 -19
18 -48 -3 -35 -2 -37 25 -34 36 5 57 -13 57 -49 0 -26 2 -28 42 -26 38 2 43
-1 52 -28 6 -16 11 -31 11 -32 1 -2 15 3 32 9 25 9 35 9 47 -1 34 -29 17 -36
-86 -39 -114 -3 -129 -3 -173 -3 -16 1 -43 1 -60 0 -16 0 -41 -1 -55 0 -14 0
-41 0 -60 -1 -19 0 -44 0 -55 0 -11 1 -88 0 -172 -2 -84 -1 -150 1 -147 6 3 4
8 92 10 195 3 103 7 189 8 191 7 6 331 60 368 61 28 1 38 -4 43 -19z m843 -50
c95 -59 111 -80 87 -116 -38 -58 -162 -121 -260 -131 -40 -4 -55 -1 -74 14
l-24 20 17 69 c38 153 32 143 89 169 29 13 59 24 67 24 9 1 53 -22 98 -49z
m5145 30 c37 0 67 -3 67 -8 0 -4 -26 -22 -58 -39 l-58 -32 -49 24 c-27 14 -54
25 -62 25 -18 0 -16 10 5 27 10 8 30 12 52 8 19 -2 65 -5 103 -5z m487 -25
c356 -20 571 -34 652 -41 66 -6 68 -7 73 -38 5 -27 -2 -124 -20 -286 -6 -53
-21 -124 -42 -198 -15 -52 -15 -53 -46 -47 -18 4 -206 46 -419 95 l-387 87
-116 74 c-112 72 -114 74 -81 77 36 3 874 -43 959 -53 26 -3 47 -2 47 3 0 9
-197 25 -515 42 -422 23 -541 30 -562 36 -20 5 -23 13 -23 52 0 27 -9 65 -22
91 -12 25 -17 46 -12 48 5 2 36 19 69 38 72 41 69 41 445 20z m-1440 -15 c0
-5 -13 -10 -30 -10 -16 0 -30 5 -30 10 0 6 14 10 30 10 17 0 30 -4 30 -10z
m-81 -14 c23 -13 22 -14 -38 -34 -60 -20 -65 -21 -134 -5 -40 8 -76 19 -80 23
-5 4 29 12 75 18 118 13 150 13 177 -2z m-5895 -52 c13 -49 1 -61 -67 -68 -93
-10 -546 -44 -677 -52 -106 -6 -122 -4 -204 20 -49 14 -91 28 -94 30 -7 7 32
14 142 25 55 6 103 8 108 5 4 -3 8 -14 8 -24 0 -27 9 -29 68 -18 40 8 56 17
64 34 6 12 20 25 32 28 11 2 129 12 261 20 273 18 325 22 341 24 7 1 15 -10
18 -24z m5997 1 c19 -14 46 -33 61 -42 16 -10 28 -21 28 -24 0 -7 -238 46
-247 54 -6 6 76 35 103 36 12 1 36 -10 55 -24z m-8161 -58 c0 -7 -21 -29 -46
-49 -48 -39 -73 -44 -139 -29 -29 7 -27 9 45 42 136 63 140 64 140 36z m1230
-64 c9 -4 -1 -9 -25 -14 -70 -14 -118 -10 -159 14 -80 45 -26 64 89 30 44 -13
87 -27 95 -30z m928 -17 c2 -27 -2 -80 -8 -117 l-11 -67 -87 2 c-63 2 -117 12
-197 35 -349 102 -451 134 -459 142 -6 5 6 9 30 10 21 0 167 11 324 24 157 12
312 22 345 21 l60 -1 3 -49z m-1298 35 c-25 -14 -160 -44 -167 -37 -11 11 6
19 70 32 76 15 119 17 97 5z m153 -15 c21 -13 35 -26 30 -29 -4 -2 -73 -8
-153 -12 -80 -3 -153 -9 -162 -11 -10 -3 -18 -1 -18 3 0 5 30 17 68 26 37 10
90 24 117 31 67 20 74 19 118 -8z m7301 16 c3 -5 -10 -24 -29 -42 -39 -38 -45
-31 -15 18 20 32 34 40 44 24z m70 -29 c3 -10 8 -35 11 -55 7 -36 6 -37 -42
-61 -45 -23 -148 -57 -172 -57 -24 0 -8 24 70 105 83 86 122 106 133 68z
m-8551 -19 c20 -4 37 -9 37 -13 -1 -3 -36 -30 -79 -59 l-79 -53 -122 3 -121 3
133 62 c133 61 161 68 231 57z m1761 -75 c154 -44 290 -83 300 -86 17 -5 17
-6 3 -14 -9 -6 -27 -5 -44 2 -20 7 -39 7 -69 -1 -30 -9 -47 -9 -62 -1 -14 7
-28 7 -51 -2 -24 -9 -38 -9 -62 0 -23 9 -37 9 -51 2 -11 -6 -34 -8 -52 -5 -17
4 -41 7 -54 6 -24 0 -312 149 -312 162 0 6 37 11 139 16 18 1 160 -34 315 -79z
m6852 56 c19 -15 19 -15 0 -30 -24 -18 -36 -11 -36 21 0 28 8 30 36 9z m-8534
-42 c-2 -27 -6 -49 -7 -51 -1 -2 -35 -2 -75 0 l-73 3 69 47 c38 26 74 47 80
47 8 1 10 -15 6 -46z m1331 -29 c78 -42 145 -79 149 -83 6 -5 -178 -11 -339
-10 -18 0 -46 0 -63 0 -56 -1 -90 -1 -112 0 -13 1 -37 -2 -55 -6 -29 -7 -33
-4 -56 31 -27 43 -54 111 -46 118 6 6 217 23 312 25 67 1 71 0 210 -75z m-552
14 c17 -24 37 -55 45 -71 14 -26 13 -28 -11 -39 -20 -9 -34 -9 -57 0 -19 7
-38 8 -54 2 -30 -12 -82 16 -65 33 6 6 11 23 11 37 0 36 25 68 58 73 15 2 30
5 34 6 5 0 22 -18 39 -41z m8529 -30 c55 -34 100 -65 100 -69 0 -4 -39 3 -86
15 -69 19 -93 31 -121 59 -25 24 -34 41 -29 52 8 22 15 19 136 -57z m-641 5
c2 -1 -20 -61 -49 -133 -29 -71 -56 -127 -61 -124 -11 6 -12 114 -2 204 6 58
8 63 37 75 27 12 34 11 51 -3 11 -9 22 -18 24 -19z m81 18 c0 -5 -6 -14 -14
-20 -12 -10 -17 -8 -26 8 -9 19 -8 21 15 21 14 0 25 -4 25 -9z m85 -3 c20 -9
31 -29 55 -106 17 -52 28 -97 26 -100 -6 -5 -176 145 -176 155 0 3 8 18 17 34
19 31 38 36 78 17z m356 -24 l24 -26 -30 7 c-65 15 -67 16 -54 31 17 20 32 17
60 -12z m-645 -21 c-3 -21 -6 -47 -6 -58 -1 -34 -18 5 -20 45 -3 48 -2 50 16
50 14 0 15 -7 10 -37z m-8522 -22 c15 -29 64 -75 88 -83 15 -5 -43 -126 -75
-155 -12 -11 -123 -83 -247 -158 -124 -76 -320 -200 -436 -274 -115 -75 -227
-145 -248 -156 l-38 -19 -32 39 c-34 43 -126 185 -126 196 0 13 89 78 343 250
141 96 325 220 407 276 141 96 154 102 208 106 145 9 140 9 156 -22z m8681 19
c7 -12 -52 -110 -66 -110 -5 0 2 25 16 56 14 31 25 58 25 60 0 8 19 3 25 -6z
m276 0 c36 -7 63 -7 84 0 41 13 146 -10 189 -42 40 -29 708 -682 745 -729 l29
-35 -32 -39 -33 -39 -66 62 c-72 67 -101 76 -119 37 -14 -31 2 -50 80 -102 28
-19 52 -41 52 -48 0 -15 -72 -75 -89 -75 -6 0 -11 -6 -11 -14 0 -13 -80 -80
-159 -132 l-44 -28 -26 31 c-58 70 -421 566 -497 680 -77 114 -125 213 -103
213 10 0 270 -230 573 -508 115 -106 212 -190 215 -186 3 3 -10 20 -29 37 -19
17 -204 185 -411 373 -413 376 -393 353 -406 489 -3 36 -4 65 -1 65 3 0 29 -5
59 -10z m-9211 -5 c0 -15 -848 -585 -871 -585 -12 0 -28 23 -49 67 -46 98 -71
164 -67 177 3 6 -2 18 -9 26 -15 18 -64 200 -64 240 0 16 7 30 16 34 30 12
714 37 714 27 0 -3 -96 -49 -213 -101 -338 -150 -380 -170 -375 -175 3 -3 34
8 69 24 35 16 177 80 314 142 245 111 252 113 340 119 127 9 195 11 195 5z
m9073 -166 c49 -68 87 -130 90 -150 14 -74 97 -975 97 -1044 l0 -53 -62 -11
c-35 -6 -98 -14 -140 -18 l-76 -6 -11 39 c-13 50 -171 1090 -171 1129 0 20 25
67 78 147 90 137 69 140 195 -33z m557 112 c72 -18 100 -32 248 -129 92 -60
244 -157 337 -215 94 -58 178 -114 188 -125 17 -19 17 -22 2 -54 -21 -43 -118
-188 -125 -188 -28 0 -775 729 -748 729 9 1 53 -8 98 -18z m-1190 -10 c0 -12
-58 -61 -73 -61 -6 0 4 16 23 35 34 35 50 43 50 26z m-6422 -32 c21 1 70 2
110 2 9 -1 86 1 170 3 l152 3 -6 -36 c-6 -38 -72 -240 -99 -304 -13 -32 -19
-37 -38 -31 -12 3 -29 12 -37 18 -17 14 -67 36 -80 36 -16 0 -40 -31 -40 -51
0 -22 67 -58 108 -59 36 0 37 -25 3 -80 -17 -28 -31 -53 -31 -55 0 -25 -195
-268 -277 -345 -138 -130 -204 -180 -345 -264 -65 -38 -77 -42 -81 -28 -3 13
-6 11 -14 -9 -8 -18 -33 -35 -90 -62 -44 -19 -93 -39 -109 -43 -16 -4 -31 -10
-34 -13 -3 -4 -25 -12 -50 -19 -125 -34 -160 -43 -220 -52 -36 -6 -90 -15
-120 -20 -110 -20 -483 -8 -521 16 -12 7 29 137 179 564 165 467 173 490 177
475 37 -130 37 -147 11 -352 -39 -302 -77 -636 -72 -640 2 -3 7 13 10 34 6 39
71 572 83 676 3 32 9 59 13 62 3 2 16 -42 29 -98 27 -123 150 -644 157 -670 3
-10 8 -17 10 -14 2 2 -39 188 -93 413 -55 236 -96 429 -95 457 0 59 10 117 20
117 4 -1 104 -198 222 -440 118 -241 216 -437 218 -435 5 5 -152 333 -319 667
-89 178 -119 247 -119 275 0 76 30 277 42 285 22 15 119 1 150 -22 16 -11 33
-18 39 -14 18 10 97 -26 104 -47 11 -33 1 -31 -49 7 -26 20 -50 34 -53 31 -2
-3 26 -29 65 -57 l69 -52 163 -424 c90 -233 165 -422 167 -420 4 4 -103 293
-231 621 -40 105 -72 192 -70 194 2 2 27 -12 55 -32 52 -36 81 -76 457 -635
30 -45 57 -80 60 -78 2 3 -89 142 -203 311 -114 168 -205 309 -202 311 3 3
139 -92 302 -211 163 -120 298 -215 300 -213 3 2 -134 105 -303 228 -169 123
-318 233 -331 244 -28 25 -105 136 -98 142 5 5 231 -92 622 -266 295 -131 298
-133 291 -122 -5 9 -266 126 -746 336 -168 73 -198 90 -222 122 -35 47 -35 51
0 53 51 2 97 4 117 2 11 0 139 1 285 3 l264 3 155 -84 c174 -95 304 -160 280
-141 -9 8 -98 56 -198 108 -99 52 -181 99 -181 103 0 14 44 26 70 20 14 -4 35
-5 48 -4z m8247 -104 c241 -58 271 -68 267 -92 -7 -37 -80 -198 -95 -207 -12
-7 -57 17 -189 99 -285 180 -463 296 -466 304 -3 8 153 -26 483 -104z m-9707
89 c-4 -21 -196 -199 -205 -191 -3 4 0 27 7 53 12 43 20 51 94 100 85 56 110
64 104 38z m-68 2 c0 -8 -101 -68 -106 -64 -2 3 0 17 5 31 7 17 19 27 38 30
44 6 63 7 63 3z m315 -9 c7 -16 -47 -176 -60 -178 -14 -2 -62 97 -71 145 -6
37 -6 39 17 33 13 -3 31 -2 39 3 22 14 70 12 75 -3z m-431 -24 c-10 -41 -22
-61 -44 -73 -26 -14 -25 -7 7 51 29 54 47 64 37 22z m279 -30 c27 -62 57 -184
57 -230 0 -15 -19 -80 -41 -143 -23 -63 -99 -279 -169 -480 -118 -334 -159
-449 -166 -459 -6 -8 -260 63 -276 78 -10 9 9 88 102 416 43 154 95 345 115
425 52 208 63 227 201 348 63 56 124 102 133 102 13 0 26 -19 44 -57z m8468
10 c29 -30 46 -73 31 -73 -9 0 -59 64 -86 108 -14 22 25 -2 55 -35z m-7935
-41 c17 -12 78 -102 72 -107 -7 -8 -71 43 -85 68 -21 38 -15 58 13 39z m-390
-92 c-5 -51 -13 -79 -20 -77 -6 2 -13 12 -15 22 -4 21 29 135 38 135 4 0 3
-36 -3 -80z m-446 62 c0 -5 -7 -31 -15 -59 -11 -38 -29 -63 -74 -106 -33 -32
-62 -57 -65 -57 -13 0 95 200 116 214 25 18 38 20 38 8z m-140 -150 c-57 -111
-70 -125 -419 -442 -213 -194 -279 -250 -291 -250 -10 0 -180 179 -180 189 0
4 28 28 62 52 89 62 861 549 871 549 4 0 -15 -44 -43 -98z m523 32 c-7 -18 -9
-16 -17 21 -6 28 -5 29 8 12 8 -11 12 -25 9 -33z m8060 -26 c4 -24 38 -245 76
-493 38 -247 73 -478 77 -512 l7 -63 -105 0 c-58 0 -120 3 -137 6 -30 6 -31 9
-31 55 0 27 9 151 20 277 11 125 26 324 35 442 19 273 27 330 44 330 5 0 11
-19 14 -42z m503 -202 c37 -110 107 -313 156 -451 48 -137 88 -262 88 -277 0
-25 -6 -29 -77 -51 -152 -48 -165 -45 -177 35 -16 110 -54 490 -92 913 l-7 70
21 -19 c14 -12 45 -91 88 -220z m-8527 178 c12 -28 4 -132 -9 -117 -4 4 -13
31 -19 60 -15 75 3 112 28 57z m-490 -96 c-44 -164 -206 -747 -230 -823 -15
-51 -24 -65 -39 -65 -31 0 -230 103 -230 119 0 7 84 178 186 380 185 362 188
367 258 433 39 38 74 68 78 68 4 0 -7 -51 -23 -112z m9269 -320 c128 -174 232
-320 232 -324 0 -4 7 -16 16 -26 14 -14 14 -20 4 -33 -11 -14 -207 -115 -222
-115 -3 0 -20 37 -38 83 -40 105 -260 756 -260 769 0 13 -8 24 268 -354z
m-9556 10 c-139 -274 -227 -434 -242 -443 -11 -7 -176 103 -206 136 -19 21
-19 21 106 143 120 116 456 416 467 416 2 0 -54 -114 -125 -252z"/>
<path d="M3150 905 c0 -5 5 -17 10 -25 5 -8 10 -10 10 -5 0 6 -5 17 -10 25 -5
8 -10 11 -10 5z"/>
</g>
</svg>
