<?xml version="1.0" standalone="no"?>
<!DOCTYPE svg PUBLIC "-//W3C//DTD SVG 20010904//EN"
 "http://www.w3.org/TR/2001/REC-SVG-20010904/DTD/svg10.dtd">
<svg version="1.0" xmlns="http://www.w3.org/2000/svg"
 width="950.000000pt" height="1280.000000pt" viewBox="0 0 950.000000 1280.000000"
 preserveAspectRatio="xMidYMid meet">
<metadata>
Created by potrace 1.15, written by Peter Selinger 2001-2017
</metadata>
<g transform="translate(0.000000,1280.000000) scale(0.100000,-0.100000)"
fill="#000000" stroke="none">
<path d="M4008 12765 c-44 -41 -51 -42 -138 -15 -86 26 -87 26 -86 -17 1 -34
-2 -38 -25 -41 -15 -2 -32 5 -44 18 -10 11 -31 20 -47 20 -25 0 -28 -3 -28
-32 0 -53 -13 -65 -53 -50 -18 7 -48 12 -66 12 -43 0 -101 -25 -101 -45 0 -9
-23 -43 -50 -76 -28 -33 -57 -73 -65 -89 -8 -16 -25 -30 -37 -32 -16 -2 -30
-18 -45 -50 -16 -34 -29 -48 -43 -48 -11 0 -20 -7 -20 -15 0 -9 -14 -43 -31
-76 -51 -103 -71 -199 -64 -308 6 -78 11 -97 29 -115 12 -12 34 -38 49 -58 19
-26 36 -38 52 -38 41 0 55 -25 55 -98 0 -72 9 -117 42 -202 31 -79 53 -107
109 -135 57 -29 56 -27 63 -195 2 -69 10 -143 18 -165 13 -38 15 -40 53 -40
22 1 55 4 73 9 26 6 33 4 38 -11 14 -46 32 -69 64 -79 48 -16 46 -43 -3 -60
-21 -7 -104 -27 -185 -44 -144 -31 -378 -105 -597 -190 -60 -23 -168 -59 -240
-80 -268 -76 -396 -170 -628 -459 -166 -209 -246 -327 -326 -486 -75 -148
-235 -403 -314 -500 -82 -100 -209 -235 -222 -235 -7 0 -18 7 -25 15 -8 9 -29
15 -55 15 -52 0 -95 -32 -125 -91 -39 -75 -18 -135 60 -174 27 -13 52 -30 57
-37 4 -7 8 -44 8 -83 0 -69 1 -70 31 -84 23 -10 33 -23 42 -57 11 -41 15 -45
57 -56 25 -7 45 -18 45 -25 0 -23 37 -51 78 -58 35 -6 43 -11 52 -41 14 -43
40 -60 105 -69 27 -4 66 -15 87 -26 48 -24 73 -24 115 2 l35 22 24 -24 c21
-22 23 -28 13 -62 -5 -20 -7 -42 -4 -47 10 -17 58 -11 94 11 32 19 34 19 53 2
28 -25 66 -103 84 -172 13 -52 14 -114 5 -466 l-9 -407 -64 -62 c-71 -69 -101
-123 -118 -213 -35 -199 86 -431 374 -711 64 -63 116 -118 116 -123 0 -6 -29
-63 -64 -127 -34 -64 -85 -160 -112 -212 -27 -52 -70 -123 -96 -158 -39 -51
-46 -67 -38 -82 12 -23 17 -21 -110 -60 -120 -37 -219 -84 -305 -145 -69 -48
-186 -168 -235 -240 -43 -63 -216 -390 -482 -912 -210 -413 -212 -416 -295
-484 -7 -5 -13 -29 -13 -53 0 -34 -20 -82 -96 -236 -206 -416 -289 -609 -388
-902 -74 -219 -89 -294 -90 -443 -1 -148 12 -189 80 -265 61 -68 104 -85 210
-85 86 0 95 2 170 40 66 33 100 60 204 165 69 69 157 168 196 220 39 52 98
133 133 179 104 141 284 418 382 586 51 88 118 198 149 245 63 94 150 250 230
410 29 58 156 302 283 543 126 241 241 468 254 505 76 208 80 421 13 653 -35
123 -36 135 -10 142 11 3 24 17 30 31 5 14 12 26 15 26 4 0 59 -44 123 -99
120 -101 490 -460 1173 -1137 l386 -383 -48 -10 c-27 -6 -75 -20 -106 -31 -56
-20 -60 -20 -132 -4 -79 19 -103 14 -109 -23 -4 -27 64 -73 125 -84 63 -12
105 -29 100 -42 -2 -6 -32 -21 -68 -34 -35 -14 -73 -33 -84 -43 -31 -28 -177
-98 -273 -130 -51 -17 -122 -32 -170 -36 -120 -10 -175 -53 -193 -150 -14 -72
-3 -108 44 -150 49 -45 127 -81 277 -128 63 -19 129 -44 147 -55 17 -11 54
-53 82 -94 l50 -75 116 -7 c143 -9 535 3 553 17 18 15 15 43 -9 89 -11 23 -18
44 -15 47 7 6 301 -17 323 -25 7 -3 16 -17 19 -32 4 -14 15 -35 24 -46 10 -11
21 -29 24 -40 9 -25 102 -94 139 -102 15 -3 27 -9 27 -14 0 -4 17 -11 38 -14
65 -11 293 -55 414 -80 64 -14 127 -25 140 -25 44 0 51 -13 43 -76 -11 -91 -7
-267 10 -396 72 -552 410 -1062 901 -1361 253 -154 484 -232 804 -272 610 -75
1248 144 1686 580 245 244 413 527 517 875 58 193 71 288 71 520 -1 292 -34
470 -134 714 -230 557 -696 966 -1275 1117 -232 60 -276 64 -672 61 l-362 -3
-27 43 c-15 24 -35 63 -45 88 -10 27 -24 46 -35 49 -11 2 -38 17 -62 34 -40
29 -41 32 -27 51 30 40 55 101 55 134 0 83 -49 135 -167 177 -250 89 -350 128
-380 146 -20 13 -49 49 -74 92 -23 40 -73 123 -111 185 -38 62 -155 263 -260
445 -105 183 -205 352 -222 376 -17 24 -37 52 -44 62 -21 28 -6 53 61 100 34
24 163 119 287 211 180 136 235 172 280 184 30 9 195 84 365 169 171 84 413
204 540 266 185 91 257 133 375 217 170 123 186 135 264 210 71 69 145 171
196 273 79 156 95 239 108 554 8 180 10 193 35 240 57 106 74 229 39 276 -10
13 -30 44 -44 69 -15 25 -72 95 -129 155 -121 131 -185 219 -246 339 -80 158
-274 437 -376 540 -144 145 -242 257 -265 302 -23 46 -65 85 -122 114 -44 23
-133 117 -241 257 -119 152 -265 280 -509 443 -211 141 -263 186 -665 570
-156 149 -215 186 -317 201 -146 20 -182 21 -248 4 -127 -33 -124 -33 -163 21
-46 63 -67 149 -73 306 -9 203 -40 371 -84 458 -10 19 -43 64 -74 99 -31 36
-56 68 -56 73 0 15 -69 78 -85 78 -12 0 -15 6 -10 20 6 17 2 20 -29 20 -27 0
-44 8 -70 35 -20 19 -40 35 -45 35 -6 0 -8 6 -5 13 2 7 -6 19 -18 25 -45 24
-93 64 -106 88 -7 13 -22 24 -33 24 -11 0 -32 9 -47 20 -15 11 -43 23 -62 26
-30 4 -41 -1 -72 -31z m383 -2622 c29 -38 88 -105 131 -149 l79 -82 -16 -55
c-22 -76 -14 -100 75 -215 90 -117 239 -265 375 -371 57 -45 149 -133 214
-204 62 -69 137 -142 166 -161 66 -44 109 -96 190 -232 56 -94 64 -115 63
-155 0 -38 6 -56 32 -93 32 -44 33 -47 28 -124 -9 -122 -39 -163 -148 -208
-103 -42 -190 -88 -288 -154 -90 -60 -236 -194 -298 -276 -18 -23 -58 -54 -93
-73 -34 -18 -112 -73 -174 -122 -132 -107 -195 -145 -325 -200 -255 -108 -405
-201 -533 -329 -100 -99 -124 -141 -140 -239 -9 -54 -16 -71 -28 -71 -27 0
-252 128 -734 416 -632 380 -719 433 -739 451 -14 13 -18 32 -18 93 0 153 -33
260 -115 375 -54 75 -54 75 -40 110 19 44 19 89 0 105 -14 12 -56 10 -102 -5
-30 -9 -72 37 -89 97 -6 24 -24 77 -39 118 -22 59 -29 98 -32 180 l-5 105 100
150 c109 164 203 277 333 399 111 105 167 171 244 287 70 106 127 161 227 221
89 53 145 73 333 119 241 60 776 214 1060 306 94 31 164 46 237 52 9 0 39 -28
69 -66z m-1850 -3020 c164 -98 296 -179 294 -181 -2 -2 -53 2 -114 8 -147 17
-344 8 -436 -18 -38 -11 -73 -18 -77 -16 -10 6 -10 197 -1 312 5 67 9 82 20
77 8 -3 149 -85 314 -182z m256 -233 c65 -11 141 -27 168 -35 28 -8 212 -111
410 -229 393 -234 404 -242 354 -291 -42 -42 -510 -382 -587 -426 -94 -54
-182 -64 -276 -30 -76 26 -83 33 -67 67 6 14 9 34 6 43 -5 17 -144 104 -185
116 -14 4 -36 15 -50 25 -43 29 -60 31 -102 9 l-40 -21 -55 38 c-67 46 -114
102 -150 180 -28 58 -28 63 -31 280 -3 193 -2 222 12 234 9 7 56 23 104 36
118 31 319 33 489 4z m-777 -282 c0 -217 25 -322 106 -440 43 -64 103 -121
167 -162 37 -23 42 -40 26 -88 -13 -40 -13 -41 20 -67 32 -27 40 -60 15 -68
-16 -5 -239 228 -313 327 -179 241 -206 440 -80 593 53 64 59 54 59 -95z
m1797 -515 c14 -32 41 -123 60 -203 19 -80 64 -262 100 -405 36 -143 73 -298
83 -345 10 -47 21 -97 25 -112 4 -16 4 -28 -1 -28 -21 0 -244 106 -276 131
-20 16 -58 33 -85 39 -26 6 -109 39 -183 74 -74 35 -301 139 -504 232 -202 93
-370 174 -373 180 -5 14 47 94 61 94 6 0 34 -9 62 -19 115 -44 252 -44 369 0
67 25 225 129 450 298 88 66 166 120 173 120 7 1 25 -25 39 -56z m-1094 -742
c95 -43 228 -104 297 -136 181 -82 509 -252 553 -287 20 -16 62 -38 92 -48 69
-24 424 -204 476 -242 65 -47 84 -88 123 -263 46 -209 66 -360 68 -520 3 -121
1 -133 -20 -167 -13 -21 -21 -42 -18 -47 9 -14 -5 -42 -19 -39 -7 2 -243 228
-526 503 -283 276 -633 615 -779 755 -146 139 -318 305 -382 368 l-117 114 16
32 c22 43 33 56 50 56 8 0 91 -36 186 -79z m2554 -598 c232 -231 415 -434 455
-507 9 -16 7 -18 -8 -13 -50 14 -721 339 -731 354 -9 12 -13 69 -13 202 0 181
5 231 20 231 4 0 129 -120 277 -267z m-3339 47 c23 -10 71 -40 107 -65 58 -42
65 -50 71 -90 9 -60 1 -77 -19 -39 -26 49 -110 120 -162 134 -27 8 -75 11
-121 8 -41 -3 -71 -1 -67 3 16 16 118 69 133 69 8 0 34 -9 58 -20z m3320 -634
c328 -156 353 -169 348 -183 -12 -30 -77 -123 -86 -123 -5 0 -21 18 -35 40
-23 37 -29 41 -64 39 -35 -3 -49 6 -177 111 -122 100 -234 204 -234 216 0 14
55 -8 248 -100z m-207 1 c62 -38 316 -248 328 -271 6 -11 15 -33 21 -49 5 -15
22 -33 37 -39 16 -7 30 -13 32 -15 2 -1 -19 -37 -46 -80 -28 -43 -54 -91 -58
-108 -6 -30 -141 -261 -157 -271 -5 -3 -20 3 -34 13 -14 10 -46 29 -72 43 -40
23 -47 32 -59 75 -7 28 -13 70 -13 95 0 27 -8 58 -21 79 -19 32 -20 44 -15
285 3 138 5 254 6 259 0 12 13 8 51 -16z m-3466 -174 c-8 -34 -48 -90 -53 -75
-5 16 41 102 55 102 3 0 2 -12 -2 -27z m-113 -145 c-7 -7 -12 -8 -12 -2 0 14
12 26 19 19 2 -3 -1 -11 -7 -17z m4365 7 c3 -9 0 -36 -7 -60 -11 -39 -10 -51
4 -90 13 -34 15 -49 6 -65 -13 -24 -26 -19 -83 35 l-39 36 23 37 c12 20 33 56
46 80 26 44 40 52 50 27z m-4336 -72 c-24 -46 -28 -28 -5 25 9 20 18 32 21 25
2 -6 -5 -29 -16 -50z m-68 -76 l-18 -52 -3 35 c-2 21 4 49 15 69 25 48 30 15
6 -52z m4457 68 c0 -8 -4 -15 -10 -15 -5 0 -10 7 -10 15 0 8 5 15 10 15 6 0
10 -7 10 -15z m-4512 -142 l-7 -88 -68 -62 c-73 -67 -93 -76 -93 -41 0 34 148
278 168 278 4 0 4 -39 0 -87z m4372 7 c19 -16 31 -30 25 -30 -16 0 -75 39 -75
50 0 16 13 11 50 -20z m-43 -32 c35 -32 31 -79 -9 -117 -32 -29 -178 -125
-183 -119 -3 3 130 225 147 245 14 17 18 17 45 -9z m-4347 -143 c-20 -54 -50
-103 -65 -109 -24 -9 -85 -7 -85 3 0 10 138 131 150 131 6 0 6 -10 0 -25z
m-190 -90 c-7 -9 -15 -13 -17 -11 -7 7 7 26 19 26 6 0 6 -6 -2 -15z m6302 -30
c6 -31 -3 -32 -39 0 l-28 24 31 1 c26 0 33 -5 36 -25z m234 11 c6 -16 -21
-116 -87 -323 -49 -157 -55 -169 -63 -123 -10 62 -26 239 -26 286 0 37 4 47
20 51 27 7 25 27 -5 47 -17 11 -25 26 -25 46 l0 30 90 0 c70 0 92 -3 96 -14z
m160 -17 c93 -18 93 -20 30 -140 -42 -82 -251 -455 -294 -528 -15 -26 -32 -1
-32 50 0 51 142 514 181 591 22 42 27 43 115 27z m-503 -15 c18 -10 46 -28 63
-40 17 -13 36 -24 42 -24 6 0 14 -5 18 -11 3 -6 16 -117 29 -246 21 -218 21
-238 7 -284 -9 -27 -21 -48 -26 -46 -16 5 -217 628 -210 649 7 22 35 23 77 2z
m-6084 -21 c-6 -15 -22 -50 -37 -76 -26 -48 -26 -49 -35 -23 -5 14 -5 44 0 68
7 33 14 44 33 49 47 13 50 11 39 -18z m-101 -37 c5 -64 -3 -71 -43 -39 -41 33
-43 46 -12 68 34 24 52 15 55 -29z m6991 -30 c17 -9 31 -20 31 -24 0 -32 -262
-707 -288 -741 -42 -57 -278 -198 -298 -178 -3 3 -11 71 -17 150 l-11 144 56
94 c30 52 119 207 198 344 78 138 149 255 158 262 11 9 27 7 77 -12 34 -13 76
-30 94 -39z m-805 -293 c58 -175 106 -331 106 -348 0 -32 -58 -234 -72 -249
-5 -6 -22 4 -44 25 -61 58 -183 208 -189 232 -3 12 -30 132 -60 267 -51 224
-54 246 -39 255 10 6 40 28 68 50 72 57 110 84 117 85 4 0 55 -143 113 -317z
m-6227 251 c37 -31 44 -41 41 -68 -2 -22 -9 -32 -23 -34 -27 -4 -115 45 -115
64 0 23 29 74 42 74 6 0 31 -16 55 -36z m7203 -54 c33 -22 60 -44 60 -48 0
-17 -79 -135 -220 -328 -151 -206 -200 -268 -207 -260 -7 7 226 597 253 644
29 50 29 50 114 -8z m-1325 -50 c9 -15 106 -433 101 -437 -2 -2 -25 22 -52 54
-27 32 -69 81 -93 108 -44 50 -134 220 -128 240 4 10 106 42 144 44 12 0 25
-4 28 -9z m1510 -91 c39 -37 55 -58 53 -73 -2 -14 -69 -65 -218 -167 -246
-168 -277 -188 -265 -168 11 18 243 338 295 407 24 31 48 52 59 52 11 0 45
-23 76 -51z m-7489 -38 c23 -10 44 -23 48 -29 9 -15 -33 -62 -55 -62 -26 0
-79 52 -79 78 0 38 24 41 86 13z m5698 -215 c86 -99 154 -181 152 -183 -2 -2
-94 54 -205 123 l-202 127 30 13 c35 15 54 47 46 77 -4 12 -9 31 -12 42 l-5
20 20 -20 c11 -11 90 -101 176 -199z m-5804 179 c0 -8 -4 -15 -10 -15 -5 0
-10 7 -10 15 0 8 5 15 10 15 6 0 10 -7 10 -15z m7742 -82 c19 -27 43 -60 52
-75 l18 -27 -59 -30 c-84 -42 -683 -274 -690 -267 -14 13 52 65 252 198 116
77 217 146 225 154 15 13 149 91 160 93 3 1 22 -20 42 -46z m-7738 15 c9 -12
16 -30 16 -39 0 -18 -126 -106 -137 -96 -8 8 55 128 75 145 22 17 29 15 46
-10z m60 -4 c18 -7 12 -24 -10 -24 -8 0 -14 7 -14 15 0 17 2 18 24 9z m16 -64
c-6 -11 -15 -20 -21 -20 -6 0 -6 7 1 20 6 11 15 20 21 20 6 0 6 -7 -1 -20z
m5683 -154 c137 -83 272 -172 301 -198 86 -76 153 -198 110 -198 -9 0 -25 6
-33 14 -9 8 -54 29 -101 46 -47 17 -120 44 -163 60 -44 16 -90 36 -103 45 -13
9 -50 24 -82 34 -64 20 -345 199 -356 227 -8 21 31 82 59 90 11 4 33 17 48 30
34 29 2 44 320 -150z m-5733 98 c0 -54 -114 -204 -154 -204 -19 0 -14 126 5
145 21 21 122 83 137 84 7 1 12 -10 12 -25z m7828 -71 c36 -52 73 -134 67
-152 -3 -9 -19 -27 -35 -39 -28 -21 -562 -332 -630 -367 -27 -14 -51 -16 -139
-11 -199 12 -231 16 -231 33 0 25 82 207 104 230 25 27 785 332 828 333 9 0
25 -12 36 -27z m-1238 -36 c0 -33 -11 -67 -21 -67 -10 0 -12 44 -3 77 8 28 24
20 24 -10z m-1257 -39 c30 -15 37 -23 25 -26 -10 -2 -28 4 -40 12 -12 9 -33
16 -45 16 -13 0 -23 5 -23 10 0 17 38 11 83 -12z m-5554 -114 c-12 -13 -24
-22 -26 -20 -5 5 14 80 30 121 12 29 12 29 15 -24 3 -44 -1 -58 -19 -77z
m5481 34 c57 -28 292 -118 305 -118 7 0 18 -7 26 -16 11 -13 9 -14 -17 -8 -16
4 -63 17 -104 31 -41 13 -113 35 -160 50 -115 35 -123 39 -109 64 5 11 13 19
17 17 4 -2 23 -11 42 -20z m1271 -31 c-8 -8 -11 -7 -11 4 0 20 13 34 18 19 3
-7 -1 -17 -7 -23z m-3632 -42 c-6 -5 -37 -10 -69 -10 -47 0 -64 4 -81 21 -36
36 -15 41 75 20 56 -14 81 -24 75 -31z m359 8 c3 -10 -13 -13 -59 -13 -38 0
-59 4 -53 9 23 22 105 25 112 4z m617 7 c9 -15 -3 -30 -20 -24 -23 9 -27 34
-5 34 10 0 22 -4 25 -10z m204 -11 c38 -13 41 -40 6 -74 -47 -48 -125 -20
-125 43 0 16 3 32 7 35 10 11 77 8 112 -4z m177 -1 c7 -11 -38 -58 -57 -58 -5
0 -9 16 -9 35 0 32 2 35 29 35 17 0 33 -5 37 -12z m3698 -71 c25 -86 20 -92
-92 -126 -182 -55 -572 -158 -572 -150 0 9 487 294 565 330 71 32 76 30 99
-54z m-1357 -8 l23 -74 -26 -22 c-14 -13 -31 -23 -38 -23 -22 0 -66 40 -66 61
0 29 59 141 72 137 7 -3 22 -38 35 -79z m-6797 48 c-1 -10 -65 -87 -73 -87 -2
0 -2 13 1 30 7 49 73 101 72 57z m4710 -3 c40 -15 74 -34 78 -42 5 -13 -22
-170 -31 -178 -4 -4 -164 30 -340 72 -44 10 -31 39 18 39 33 0 40 4 45 25 4
19 13 26 38 28 29 3 32 6 32 37 0 35 9 42 62 44 15 0 59 -11 98 -25z m1155
-54 c7 -12 -12 -12 -40 0 -18 8 -17 9 7 9 15 1 30 -3 33 -9z m1216 -37 c-58
-81 -134 -163 -150 -163 -26 0 -53 34 -49 62 3 25 83 83 153 111 60 24 70 22
46 -10z m-7215 -61 c-8 -15 -22 -35 -32 -43 -15 -13 -16 -12 -9 11 4 14 17 43
28 65 18 34 22 37 25 18 2 -12 -4 -35 -12 -51z m8324 -58 c6 -14 10 -57 10
-95 l0 -69 -87 0 c-112 0 -510 36 -501 45 8 9 519 140 561 144 4 1 12 -11 17
-25z m-1160 -34 c-15 -30 -25 -39 -32 -32 -8 8 -3 21 16 47 36 47 43 39 16
-15z m-1455 -57 c110 -36 204 -68 210 -71 17 -10 -36 -20 -115 -21 -62 -1
-294 38 -389 65 -15 5 -7 69 12 92 15 19 50 11 282 -65z m630 -24 c13 -13 -64
-12 -106 2 -76 25 -219 83 -219 89 0 9 312 -78 325 -91z m-6399 16 c-28 -36
-36 -42 -36 -26 0 13 51 73 58 67 2 -3 -7 -21 -22 -41z m7184 -31 c0 -9 -5
-14 -12 -12 -18 6 -21 28 -4 28 9 0 16 -7 16 -16z m158 -20 c34 -9 62 -20 62
-23 0 -6 -169 -43 -200 -44 -3 0 -6 6 -8 15 -4 22 47 80 67 74 9 -3 44 -12 79
-22z m172 6 c0 -13 -30 -13 -50 0 -11 7 -7 10 18 10 17 0 32 -4 32 -10z m-957
-19 c8 -8 8 -14 -1 -23 -9 -9 -26 -7 -72 7 -41 13 -57 21 -48 27 17 12 106 4
121 -11z m1461 -21 c171 -17 325 -34 341 -38 l30 -9 -2 -78 c-1 -43 -6 -82
-12 -88 -6 -6 -33 -4 -78 6 -74 17 -704 205 -711 212 -9 8 43 24 82 24 21 1
179 -13 350 -29z m-2518 -25 c18 -15 18 -15 -10 -13 -16 2 -31 9 -34 16 -5 17
20 15 44 -3z m1134 0 c11 -13 8 -15 -14 -15 -16 0 -26 5 -26 15 0 8 6 15 14
15 7 0 19 -7 26 -15z m-415 -31 c60 -19 116 -38 124 -40 8 -2 12 -6 9 -9 -2
-2 -93 13 -201 33 -109 21 -195 41 -191 45 4 4 39 7 78 7 54 0 97 -8 181 -36z
m1529 -33 c122 -38 268 -84 326 -101 126 -38 272 -89 284 -100 7 -7 -25 -145
-43 -180 -10 -18 -60 -15 -256 16 -82 13 -220 33 -305 45 -236 33 -221 27
-338 143 -57 55 -108 108 -113 117 -7 14 9 27 89 72 53 31 106 56 116 56 10 1
118 -30 240 -68z m-374 44 c0 -10 -102 -56 -118 -53 -36 7 -17 33 33 44 56 13
85 16 85 9z m-1581 -34 c69 -10 198 -36 404 -82 49 -11 98 -17 109 -13 12 4
18 2 14 -4 -3 -5 -36 -13 -73 -17 -38 -3 -219 -24 -403 -46 -184 -21 -345 -39
-357 -39 -24 0 -42 35 -26 51 5 5 47 14 92 19 90 10 111 20 111 55 0 38 -22
48 -82 35 -102 -22 -120 -23 -129 -9 -34 56 125 80 340 50z m1551 -170 c45
-49 81 -93 80 -98 -2 -12 -49 -6 -66 8 -24 19 -123 167 -116 173 12 12 23 3
102 -83z m-106 3 c21 -31 36 -57 34 -59 -2 -1 -27 8 -55 21 -53 23 -62 38 -47
78 11 29 30 17 68 -40z m-777 36 c49 0 41 -15 -52 -102 l-80 -75 -96 -17
c-155 -26 -155 -27 -13 85 123 98 164 122 192 113 8 -2 29 -4 49 -4z m-187
-14 c0 -8 -235 -200 -260 -213 -27 -13 -145 -37 -359 -73 -102 -17 -126 -19
-136 -8 -17 19 -50 177 -39 187 9 9 140 29 549 81 258 32 245 31 245 26z m350
-25 c13 -26 -2 -65 -32 -84 -21 -14 -131 -37 -171 -37 -31 0 -16 25 51 83 55
47 73 57 104 57 27 0 40 -5 48 -19z m68 -38 c-2 -27 -8 -39 -20 -41 -14 -3
-18 3 -18 25 0 28 15 53 33 53 4 0 7 -17 5 -37z m58 -19 c-5 -13 -10 -14 -18
-6 -6 6 -8 18 -4 28 5 13 10 14 18 6 6 -6 8 -18 4 -28z m369 16 c-3 -5 -10
-10 -16 -10 -5 0 -9 5 -9 10 0 6 7 10 16 10 8 0 12 -4 9 -10z m-18 -54 c27
-24 28 -27 31 -140 3 -98 1 -116 -11 -116 -25 0 -84 78 -96 126 -18 72 3 154
40 154 4 0 21 -11 36 -24z m-240 -18 c41 -39 31 -68 -58 -168 -44 -49 -83 -90
-86 -90 -10 0 7 221 18 242 22 40 91 49 126 16z m93 12 c0 -12 -28 -25 -36
-17 -9 9 6 27 22 27 8 0 14 -5 14 -10z m313 -16 c29 -4 57 -15 69 -28 22 -23
417 -611 461 -687 15 -25 27 -53 27 -61 0 -8 -35 -38 -77 -66 l-78 -52 -48 48
c-27 26 -103 112 -168 192 -66 80 -158 191 -204 248 l-85 103 0 153 c0 84 3
156 7 160 4 4 17 5 28 2 11 -2 42 -8 68 -12z m-583 -2 c0 -5 -11 -19 -25 -32
-25 -23 -25 -23 -25 -2 0 11 8 26 18 31 21 13 32 14 32 3z m-91 -34 c-1 -58
-34 -97 -320 -385 -163 -164 -306 -306 -318 -316 -13 -10 -30 -15 -40 -12 -23
7 -121 109 -121 125 0 7 125 138 278 292 l279 281 94 18 c134 24 149 24 148
-3z m391 -3 c0 -14 -4 -25 -10 -25 -11 0 -14 33 -3 43 11 11 13 8 13 -18z
m888 -65 c286 -45 392 -66 405 -79 8 -8 -54 -144 -72 -155 -13 -9 -101 24
-350 130 -204 87 -271 123 -271 145 0 4 8 5 18 3 9 -2 131 -22 270 -44z
m-1783 -171 c-200 -201 -317 -309 -334 -309 -11 0 -111 140 -111 156 0 24 351
309 393 319 43 11 222 43 242 44 13 1 -50 -70 -190 -210z m1430 167 c62 -32
151 -115 340 -316 54 -58 112 -122 127 -143 33 -43 30 -53 -29 -108 -67 -62
-69 -63 -93 -37 -30 32 -131 176 -305 432 -160 236 -160 235 -40 172z m-838
-60 c-3 -61 -12 -110 -25 -138 -19 -44 -97 -136 -107 -126 -3 3 3 43 14 89 10
46 24 110 31 142 11 56 57 127 83 127 6 0 8 -32 4 -94z m267 11 l20 -47 -43
-418 c-24 -229 -48 -433 -55 -452 l-12 -35 -69 3 c-98 3 -114 8 -121 38 -4 13
1 127 10 252 8 125 19 283 22 352 4 69 11 134 17 145 21 40 183 215 197 213 8
-2 23 -25 34 -51z m-1039 12 c-11 -17 -187 -161 -234 -191 -25 -15 -51 -28
-58 -28 -13 0 -73 120 -73 146 0 12 88 36 255 68 88 18 118 19 110 5z m640
-86 c-3 -21 -20 -96 -37 -166 l-30 -128 -138 -162 c-76 -89 -153 -177 -172
-195 l-35 -33 -69 47 c-107 72 -104 61 -33 145 62 72 508 529 517 529 2 0 1
-17 -3 -37z m1285 -13 c47 -21 109 -48 137 -59 29 -11 84 -36 123 -56 81 -41
86 -54 38 -113 -18 -22 -38 -48 -44 -57 -21 -36 -61 -9 -204 138 -76 78 -149
155 -161 171 l-22 28 24 -7 c13 -4 62 -24 109 -45z m-767 -6 c46 -52 59 -80
55 -122 l-3 -37 -32 60 c-36 70 -64 135 -57 135 2 0 19 -16 37 -36z m3 -151
l59 -118 3 -283 c4 -327 16 -297 -118 -297 l-85 0 -3 45 c-2 25 6 133 17 240
30 275 51 489 51 511 0 39 18 16 76 -98z m-420 -270 c-19 -300 -29 -380 -50
-401 -11 -12 -26 -10 -95 8 -45 12 -83 26 -86 30 -11 18 82 447 107 494 15 29
131 157 136 151 3 -2 -3 -129 -12 -282z m733 38 c105 -128 191 -238 191 -244
0 -6 7 -19 17 -29 19 -22 23 -18 -54 -57 -117 -58 -105 -69 -250 223 -122 246
-125 255 -119 300 4 26 11 46 16 44 4 -2 94 -108 199 -237z m-954 -120 c-31
-144 -61 -248 -76 -257 -18 -11 -149 57 -149 77 0 9 19 41 42 71 66 84 201
239 205 235 2 -3 -8 -59 -22 -126z m927 -255 c3 -29 1 -30 -75 -49 -57 -14
-81 -17 -89 -9 -13 13 -25 381 -13 409 5 13 28 -25 91 -152 46 -93 85 -183 86
-199z"/>
</g>
</svg>
