<?xml version="1.0" standalone="no"?>
<!DOCTYPE svg PUBLIC "-//W3C//DTD SVG 20010904//EN"
 "http://www.w3.org/TR/2001/REC-SVG-20010904/DTD/svg10.dtd">
<svg version="1.0" xmlns="http://www.w3.org/2000/svg"
 width="1280.000000pt" height="1105.000000pt" viewBox="0 0 1280.000000 1105.000000"
 preserveAspectRatio="xMidYMid meet">
<metadata>
Created by potrace 1.15, written by Peter Selinger 2001-2017
</metadata>
<g transform="translate(0.000000,1105.000000) scale(0.100000,-0.100000)"
fill="#000000" stroke="none">
<path d="M4155 10935 c-66 -63 -125 -114 -132 -115 -6 0 -75 40 -154 89 l-142
89 -86 -102 c-47 -56 -98 -116 -113 -134 l-26 -31 -159 73 -158 73 -46 -71
c-25 -39 -67 -104 -92 -143 -26 -40 -53 -73 -60 -73 -7 0 -83 22 -167 49 -85
28 -156 49 -157 47 -1 -1 -36 -72 -77 -157 l-74 -156 -171 32 c-95 18 -173 29
-175 26 -2 -3 -27 -77 -55 -163 l-53 -158 -71 1 c-40 1 -118 4 -175 8 -97 6
-103 5 -107 -14 -3 -11 -18 -87 -34 -168 -16 -82 -31 -150 -33 -152 -1 -1 -79
-8 -173 -15 -93 -7 -171 -13 -171 -13 -1 -1 -7 -78 -14 -172 -7 -93 -13 -171
-14 -173 -2 -1 -77 -17 -167 -35 l-164 -33 3 -176 3 -176 -158 -52 c-87 -29
-161 -54 -164 -56 -3 -2 8 -80 26 -174 l32 -171 -116 -56 c-64 -30 -135 -64
-158 -74 -23 -11 -40 -25 -38 -32 53 -164 95 -301 95 -312 0 -7 -65 -55 -144
-106 l-143 -93 45 -95 c24 -53 57 -124 73 -158 l28 -63 -132 -111 c-73 -62
-131 -115 -130 -119 1 -4 41 -68 88 -143 47 -75 85 -141 85 -147 0 -6 -51 -65
-114 -133 -98 -105 -113 -124 -103 -139 7 -9 56 -71 110 -137 l98 -119 -102
-142 -102 -142 127 -121 127 -122 -81 -147 c-44 -80 -80 -150 -80 -155 0 -5
61 -53 135 -107 74 -54 135 -102 135 -106 0 -5 -27 -79 -60 -166 -33 -86 -59
-158 -58 -159 2 -1 66 -37 143 -80 77 -42 144 -81 149 -85 5 -5 -8 -78 -32
-172 -23 -90 -38 -166 -34 -170 4 -3 70 -32 147 -62 77 -31 146 -60 154 -65
11 -7 10 -36 -6 -177 -11 -93 -19 -170 -18 -172 2 -2 76 -22 166 -46 l164 -43
3 -175 2 -176 38 -5 c20 -3 98 -13 173 -23 l137 -17 5 -36 c3 -20 14 -98 24
-173 l18 -138 174 -2 175 -3 44 -165 c24 -91 45 -166 47 -168 1 -1 78 7 170
18 92 12 171 17 175 13 4 -4 33 -73 65 -153 32 -80 61 -149 65 -153 4 -4 80
10 169 33 89 22 166 38 171 35 4 -3 43 -68 85 -145 42 -77 80 -142 85 -145 5
-3 71 19 147 49 76 29 148 56 160 60 18 6 34 -11 123 -131 56 -76 107 -137
112 -135 6 1 75 38 154 81 l144 79 118 -124 c66 -68 122 -124 125 -124 6 0
229 157 272 191 6 4 46 -22 95 -62 47 -38 109 -88 137 -110 l53 -41 121 113
c66 63 124 115 129 117 8 3 52 -23 217 -126 l82 -52 112 133 c61 72 115 131
120 130 4 -2 76 -34 159 -72 l151 -70 72 112 c40 62 82 127 92 145 11 17 24
32 30 32 5 0 82 -23 169 -50 87 -28 160 -49 161 -48 1 2 35 72 75 156 40 83
79 152 85 152 11 0 269 -45 312 -55 20 -5 25 7 72 147 l51 153 -242 242 c-134
134 -248 243 -255 243 -6 0 -46 -20 -88 -45 -408 -242 -888 -397 -1410 -457
-141 -16 -568 -16 -710 0 -456 52 -843 165 -1230 359 -832 417 -1467 1145
-1760 2018 -115 340 -167 616 -184 970 -60 1246 534 2420 1575 3113 859 572
1935 735 2943 446 440 -126 856 -344 1236 -648 133 -106 420 -394 529 -531
422 -531 674 -1135 758 -1820 17 -146 18 -644 0 -785 -66 -522 -225 -992 -480
-1420 l-21 -36 248 -248 249 -248 143 47 c79 26 146 49 148 51 2 1 -11 78 -28
170 -17 92 -28 171 -24 174 5 3 73 37 153 75 80 38 147 71 149 73 3 1 -19 77
-48 168 -29 92 -51 167 -49 169 2 1 65 42 141 90 75 48 140 91 142 95 3 4 -27
76 -65 159 -39 83 -70 155 -69 159 0 4 58 54 129 112 71 58 129 108 129 113 1
4 -40 72 -90 152 l-91 145 114 121 c62 66 113 127 113 134 0 8 -46 70 -102
139 -57 69 -103 128 -103 132 0 4 45 69 100 145 l99 138 -124 119 c-69 65
-125 121 -125 125 0 3 36 72 80 153 44 81 80 149 80 150 0 1 -60 46 -132 100
-73 53 -136 100 -140 103 -4 3 20 76 52 160 33 85 60 159 60 165 0 6 -67 48
-149 94 l-149 82 43 169 42 169 -164 68 c-128 52 -163 70 -159 83 8 30 39 321
34 326 -2 3 -77 24 -165 47 l-161 43 -7 176 -7 177 -92 11 c-232 29 -246 32
-251 55 -2 11 -11 75 -20 141 -8 66 -17 135 -20 153 l-6 32 -173 0 c-172 0
-174 0 -180 23 -3 12 -22 85 -42 162 -20 77 -39 143 -43 146 -3 4 -73 -2 -156
-12 -82 -10 -159 -18 -170 -19 -17 0 -31 26 -84 158 -35 86 -65 158 -66 160
-1 2 -75 -15 -163 -38 -89 -22 -165 -40 -170 -40 -5 0 -43 62 -86 138 -42 75
-80 143 -84 150 -7 10 -44 -1 -163 -48 -84 -33 -158 -60 -164 -60 -5 0 -54 61
-109 135 -54 74 -102 135 -107 135 -5 0 -75 -36 -156 -80 l-148 -80 -120 126
-120 127 -143 -102 -142 -102 -135 110 c-74 61 -136 111 -137 111 -2 -1 -57
-52 -123 -115z"/>
<path d="M2484 9323 c-290 -207 -588 -508 -778 -786 l-40 -58 196 -197 c655
-659 1015 -1243 1018 -1648 1 -254 -169 -628 -467 -1024 -165 -221 -524 -620
-676 -754 -37 -32 -67 -62 -67 -67 0 -10 83 -128 139 -199 128 -161 260 -301
411 -434 101 -90 311 -253 338 -264 8 -2 87 69 190 170 499 491 904 790 1277
943 298 123 519 117 842 -23 244 -106 598 -349 903 -620 47 -42 645 -633 1330
-1314 l1245 -1238 905 0 905 0 -1716 1718 c-943 944 -1747 1753 -1785 1797
-308 352 -546 725 -638 998 -45 136 -59 229 -53 351 19 404 373 966 1019 1620
l188 189 -47 66 c-197 278 -507 588 -786 785 l-67 48 -189 -184 c-319 -313
-562 -516 -831 -696 -249 -166 -505 -283 -698 -317 -101 -19 -160 -18 -268 0
-399 70 -913 409 -1505 992 -113 112 -208 203 -211 203 -3 0 -41 -25 -84 -57z
m2129 -1830 c153 -34 288 -106 404 -217 176 -167 268 -364 280 -601 18 -352
-172 -673 -490 -830 -216 -106 -447 -122 -674 -45 -440 150 -683 606 -567
1065 21 84 105 248 164 322 102 127 279 246 437 292 141 42 299 47 446 14z"/>
<path d="M4338 7349 c-296 -33 -545 -249 -618 -535 -24 -94 -26 -251 -5 -342
61 -259 255 -461 510 -534 91 -25 276 -31 355 -9 255 68 448 246 527 486 23
70 26 97 27 215 0 151 -15 221 -76 337 -139 264 -425 416 -720 382z"/>
<path d="M7593 1616 c-140 -34 -280 -142 -341 -261 -61 -121 -62 -133 -62
-540 0 -407 1 -419 63 -540 63 -125 217 -238 361 -264 42 -8 769 -11 2385 -11
2542 0 2383 -3 2509 57 77 37 200 160 235 235 54 115 58 158 55 552 -3 348 -4
363 -26 426 -55 153 -174 274 -327 332 l-60 23 -2370 2 c-1888 1 -2381 -1
-2422 -11z m2483 -126 c172 -22 322 -104 437 -239 175 -205 208 -510 81 -752
-69 -130 -171 -227 -309 -294 -109 -52 -181 -69 -300 -68 -262 2 -488 147
-605 388 -94 194 -92 393 8 595 98 200 296 341 521 370 80 10 88 10 167 0z
m-1299 -438 c163 -84 197 -297 68 -424 -43 -43 -127 -78 -185 -78 -59 0 -141
35 -182 77 -134 138 -88 362 88 433 62 25 152 22 211 -8z m2658 2 c95 -45 149
-132 150 -239 0 -60 -4 -78 -31 -125 -52 -93 -157 -148 -257 -136 -222 26
-315 289 -157 447 25 25 66 53 91 62 55 21 151 17 204 -9z m-3436 -82 c19 -9
48 -34 65 -55 27 -34 31 -46 31 -102 0 -56 -4 -68 -30 -101 -60 -74 -140 -93
-222 -53 -88 43 -120 157 -68 244 44 75 148 107 224 67z m4128 7 c59 -22 113
-100 113 -164 0 -46 -34 -109 -74 -140 -112 -85 -276 -2 -276 139 0 124 122
209 237 165z"/>
<path d="M9939 1150 c-112 -19 -201 -85 -251 -188 -29 -59 -33 -76 -33 -147 1
-60 6 -92 22 -127 62 -137 173 -209 321 -209 126 0 239 70 300 186 24 44 27
61 27 150 0 89 -3 106 -27 150 -70 133 -217 208 -359 185z"/>
</g>
</svg>
