<?xml version="1.0" standalone="no"?>
<!DOCTYPE svg PUBLIC "-//W3C//DTD SVG 20010904//EN"
 "http://www.w3.org/TR/2001/REC-SVG-20010904/DTD/svg10.dtd">
<svg version="1.0" xmlns="http://www.w3.org/2000/svg"
 width="1280.000000pt" height="738.000000pt" viewBox="0 0 1280.000000 738.000000"
 preserveAspectRatio="xMidYMid meet">
<metadata>
Created by potrace 1.15, written by Peter Selinger 2001-2017
</metadata>
<g transform="translate(0.000000,738.000000) scale(0.100000,-0.100000)"
fill="#000000" stroke="none">
<path d="M7814 7361 c-26 -12 -46 -16 -55 -10 -24 15 -93 10 -126 -11 -61 -37
-81 -116 -43 -177 19 -33 66 -63 95 -63 10 0 37 -23 62 -50 25 -28 56 -53 69
-56 28 -7 28 -3 9 -47 -8 -20 -15 -61 -15 -92 0 -52 3 -59 45 -104 l45 -48
-74 -46 -73 -47 -7 -81 c-8 -92 0 -109 47 -109 42 0 115 -37 123 -63 4 -11 3
-22 -2 -24 -33 -11 -249 -142 -301 -182 -100 -76 -503 -461 -873 -833 l-335
-338 -96 -24 c-52 -13 -133 -30 -179 -37 -101 -16 -469 -18 -852 -5 l-267 9
-77 134 c-50 89 -84 137 -99 143 -16 6 -78 106 -220 357 -109 191 -200 351
-202 355 -2 4 19 22 47 39 43 27 51 35 46 54 -5 20 2 28 52 55 52 29 242 211
242 232 0 4 44 8 98 8 172 0 292 33 325 89 40 69 12 99 -99 107 -140 10 -323
-28 -684 -144 -326 -105 -420 -129 -600 -152 -91 -12 -228 -35 -305 -51 -119
-24 -143 -32 -162 -54 -32 -37 -29 -77 8 -119 42 -49 109 -62 234 -47 147 17
172 15 250 -25 68 -35 72 -36 153 -30 l82 6 0 -26 c0 -24 2 -25 56 -22 l56 3
204 -355 c112 -195 204 -364 204 -375 0 -18 156 -301 375 -680 l93 -160 -9
-70 c-5 -38 -11 -117 -12 -175 -1 -58 -6 -108 -12 -113 -5 -4 -104 -4 -220 -1
-340 11 -438 -5 -673 -106 -59 -25 -77 -29 -88 -19 -11 9 -18 8 -33 -5 -18
-17 -20 -17 -31 4 -9 18 -8 25 5 40 19 21 14 52 -7 48 -7 -2 -12 2 -13 7 -1
20 -17 36 -31 31 -9 -4 -18 4 -24 19 -5 14 -15 25 -22 25 -7 0 -19 9 -26 21
-13 20 -14 20 -33 3 -18 -16 -20 -16 -39 1 -19 17 -19 20 -5 42 17 25 13 43
-11 43 -8 0 -14 6 -14 14 0 16 -27 29 -42 20 -5 -3 -12 3 -15 15 -5 20 -14 25
-40 22 -7 -1 -13 3 -13 9 0 18 -30 23 -43 7 -11 -14 -14 -14 -32 -1 -17 12
-18 18 -8 44 10 28 9 31 -12 36 -13 3 -26 13 -29 21 -4 9 -14 13 -26 10 -14
-3 -24 1 -31 15 -7 13 -18 18 -29 15 -11 -3 -21 1 -24 9 -7 19 -32 18 -40 -1
-11 -31 -28 -16 -22 20 7 35 2 40 -31 36 -7 -1 -13 5 -13 14 0 11 -9 15 -31
13 -21 -2 -34 3 -41 15 -6 11 -16 16 -28 12 -10 -3 -21 -1 -25 5 -9 15 -35 12
-35 -5 0 -8 -7 -15 -16 -15 -13 0 -15 7 -9 36 6 35 6 36 -19 30 -20 -5 -26 -3
-26 10 0 13 -6 15 -31 10 -24 -4 -35 -2 -44 11 -11 15 -15 15 -29 4 -9 -7 -16
-9 -16 -3 0 5 -9 12 -20 15 -13 3 -20 0 -20 -8 0 -19 -13 -25 -38 -18 -16 4
-22 13 -22 35 0 25 -3 29 -20 25 -10 -3 -24 1 -31 9 -14 17 -36 18 -41 2 -3
-7 -12 -6 -30 6 -17 11 -28 13 -33 7 -4 -8 -12 -8 -25 -1 -25 14 -27 13 -33
-11 -8 -31 -41 -21 -45 14 -3 25 -7 28 -28 23 -14 -4 -24 -2 -24 4 0 13 -33
13 -47 -1 -8 -8 -17 -7 -32 3 -18 11 -23 11 -30 -1 -7 -10 -13 -11 -30 -1 -20
10 -23 9 -28 -9 -8 -30 -49 -28 -57 3 -5 20 -12 23 -48 23 -24 0 -46 -5 -50
-11 -5 -8 -13 -8 -27 1 -16 10 -23 10 -33 0 -6 -8 -22 -11 -35 -9 -16 3 -23 0
-23 -11 0 -18 -21 -27 -67 -27 -26 0 -36 5 -40 20 -6 23 -23 26 -41 8 -9 -9
-12 -9 -12 0 0 7 -9 12 -20 12 -11 0 -20 -5 -20 -11 0 -7 -12 -9 -35 -5 -21 4
-35 3 -35 -3 0 -5 -12 -9 -27 -8 -25 2 -28 -1 -25 -25 3 -24 -1 -27 -40 -36
-45 -9 -68 -1 -68 24 0 18 -16 18 -32 1 -6 -8 -22 -11 -35 -9 -16 3 -23 0 -23
-12 0 -16 -11 -20 -39 -16 -8 1 -18 -4 -22 -12 -4 -7 -16 -13 -26 -13 -11 0
-19 -9 -21 -22 -4 -29 -29 -37 -42 -13 -11 21 -40 27 -40 9 0 -6 -6 -9 -12 -6
-18 6 -50 -12 -43 -24 4 -5 0 -9 -7 -10 -7 -1 -21 -2 -30 -3 -10 0 -18 -5 -17
-11 0 -5 -10 -13 -23 -16 -16 -4 -22 -12 -21 -27 3 -30 -36 -41 -54 -16 -14
18 -15 18 -28 0 -7 -10 -17 -16 -22 -13 -4 3 -17 -1 -28 -9 -10 -8 -15 -14
-11 -14 5 0 3 -6 -4 -14 -6 -8 -18 -12 -26 -9 -10 4 -17 -2 -21 -16 -3 -11 -9
-19 -13 -16 -11 7 -33 -22 -25 -35 10 -16 -23 -24 -41 -9 -14 11 -18 11 -29
-4 -7 -9 -20 -17 -29 -17 -9 0 -21 -11 -25 -24 -5 -13 -19 -26 -31 -29 -12 -3
-19 -10 -15 -16 3 -6 -5 -15 -19 -21 -27 -10 -36 -30 -14 -30 7 0 0 -12 -14
-27 -27 -26 -28 -26 -47 -9 -20 18 -21 18 -31 -8 -5 -15 -14 -25 -19 -22 -12
8 -34 -21 -26 -34 3 -5 -5 -14 -19 -20 -14 -5 -26 -15 -26 -22 0 -7 -9 -19
-21 -26 -15 -10 -18 -16 -10 -26 16 -19 -23 -53 -42 -37 -15 11 -33 0 -37 -24
-1 -5 -6 -9 -11 -8 -5 2 -12 -12 -17 -30 -4 -17 -15 -32 -23 -32 -8 0 -14 -9
-14 -20 0 -11 -8 -26 -18 -34 -10 -7 -16 -20 -13 -27 10 -25 -16 -54 -41 -48
-19 5 -23 2 -23 -15 0 -12 -6 -21 -14 -21 -17 0 -28 -24 -20 -44 3 -8 -4 -19
-16 -26 -13 -7 -19 -17 -16 -27 3 -8 -1 -21 -9 -30 -8 -8 -13 -18 -10 -23 3
-5 0 -20 -6 -33 -8 -17 -17 -23 -30 -20 -18 5 -24 -4 -20 -33 1 -7 -6 -15 -15
-18 -12 -4 -14 -13 -10 -31 5 -18 2 -27 -10 -32 -9 -3 -14 -13 -11 -23 2 -9
-1 -24 -8 -34 -7 -9 -11 -26 -8 -36 4 -15 0 -20 -16 -20 -20 0 -25 -9 -22 -37
1 -7 -2 -13 -7 -13 -14 0 -22 -38 -8 -44 7 -3 5 -9 -6 -18 -9 -8 -17 -27 -17
-43 0 -17 -1 -42 -1 -57 -1 -21 -6 -28 -21 -28 -18 0 -20 -4 -15 -25 4 -15 2
-25 -5 -25 -7 0 -9 -13 -4 -40 4 -22 3 -40 -2 -40 -5 0 -10 -30 -11 -67 -2
-49 -6 -71 -18 -80 -10 -7 -14 -19 -9 -32 4 -12 2 -21 -4 -21 -15 0 -14 -37 2
-43 9 -3 9 -9 -1 -26 -7 -12 -10 -26 -6 -32 3 -6 8 -33 9 -60 3 -38 1 -49 -11
-49 -16 0 -19 -26 -4 -35 8 -5 7 -12 -1 -22 -10 -12 -10 -19 0 -34 6 -11 9
-29 6 -40 -4 -10 -3 -24 1 -30 12 -20 16 -119 4 -119 -7 0 -8 -6 -1 -18 6 -10
8 -28 5 -39 -3 -11 1 -25 10 -32 11 -9 14 -22 10 -38 -4 -14 -2 -28 3 -32 5
-3 15 -31 20 -61 9 -45 9 -56 -4 -65 -14 -10 -13 -13 1 -27 9 -10 13 -24 9
-34 -4 -11 0 -22 12 -30 10 -7 15 -20 12 -28 -4 -9 0 -22 8 -30 8 -8 15 -18
15 -23 0 -5 9 -26 20 -48 15 -30 17 -41 8 -53 -10 -11 -9 -17 6 -27 10 -8 15
-18 12 -23 -8 -14 4 -43 15 -36 5 3 10 -1 11 -8 0 -7 2 -17 3 -23 2 -5 3 -16
4 -23 0 -7 6 -10 11 -7 6 3 10 -1 10 -9 0 -8 7 -22 17 -31 14 -14 14 -18 2
-26 -12 -8 -11 -12 5 -24 10 -7 16 -18 13 -22 -8 -12 10 -38 25 -38 7 0 14
-12 16 -27 2 -16 9 -28 18 -28 8 0 14 -6 14 -13 0 -8 9 -22 20 -32 11 -10 20
-26 19 -34 -3 -31 1 -41 16 -41 8 0 12 -6 9 -13 -5 -14 23 -45 35 -39 3 2 9
-7 12 -20 3 -13 11 -22 17 -20 7 1 12 -4 12 -10 0 -7 16 -28 35 -47 20 -19 34
-40 31 -48 -3 -7 3 -18 13 -25 10 -7 18 -17 17 -23 0 -5 12 -16 27 -23 15 -7
27 -20 27 -28 0 -8 7 -17 16 -21 26 -10 94 -75 88 -85 -3 -5 2 -12 13 -14 10
-3 23 -15 28 -27 6 -13 17 -21 28 -19 12 2 21 -4 24 -17 3 -12 14 -21 24 -21
11 0 19 -3 19 -8 0 -4 18 -18 40 -32 22 -14 40 -33 40 -42 0 -11 8 -18 20 -18
11 0 20 -7 20 -15 0 -8 6 -16 13 -17 6 0 17 -2 22 -3 6 -2 16 -3 23 -4 6 0 12
-8 12 -16 0 -8 6 -15 13 -15 25 0 117 -50 114 -62 -1 -6 7 -14 18 -16 11 -2
25 -11 31 -20 6 -9 18 -13 27 -9 9 3 24 -1 34 -11 9 -9 24 -17 32 -18 31 -1
81 -26 81 -40 0 -8 9 -14 21 -14 11 0 27 -7 36 -15 11 -12 19 -13 28 -5 9 8
17 6 29 -5 10 -10 24 -14 36 -10 11 4 20 2 20 -4 0 -6 11 -11 25 -11 13 0 33
-9 43 -20 12 -13 25 -18 35 -14 10 4 17 1 17 -6 0 -9 11 -10 35 -6 22 4 35 3
35 -4 0 -6 12 -10 28 -10 15 0 41 -2 57 -4 17 -2 38 -4 48 -5 9 0 17 -8 17
-17 0 -12 6 -15 22 -11 12 4 28 1 35 -5 10 -8 20 -7 39 3 18 9 27 10 32 2 4
-7 31 -10 70 -7 48 2 64 0 69 -11 6 -18 29 -20 37 -2 5 9 7 9 12 0 7 -16 44
-17 44 -2 0 7 11 9 27 6 15 -3 54 0 87 5 39 7 60 7 65 1 9 -16 93 -12 110 4
11 11 16 12 22 2 6 -10 11 -10 25 2 9 8 26 12 37 11 11 -2 23 0 26 6 3 5 21
12 39 15 24 5 34 3 38 -8 7 -17 34 -21 34 -5 0 5 13 7 29 4 21 -4 30 -2 35 11
4 11 12 14 27 10 14 -5 25 -2 30 6 4 8 14 14 21 15 34 3 39 5 33 13 -6 11 1
16 38 25 20 5 27 3 27 -9 0 -20 27 -19 38 1 6 11 12 13 16 6 9 -15 36 -4 36
14 0 14 11 18 43 15 10 -2 17 4 17 14 0 9 6 15 13 14 26 -3 37 2 37 18 0 14 2
14 20 -2 18 -16 20 -16 26 -1 3 9 17 16 30 16 13 0 28 9 34 21 7 11 18 18 25
15 15 -5 39 17 28 27 -3 4 4 7 16 7 14 0 25 9 31 25 11 29 25 32 39 7 10 -16
12 -16 27 3 8 11 22 19 30 17 8 -2 19 9 24 24 7 16 16 24 24 21 8 -3 20 1 26
9 7 8 9 14 4 14 -5 0 2 6 16 13 14 7 24 20 22 29 -1 8 10 23 25 33 25 17 27
17 39 1 11 -16 13 -16 26 1 7 10 22 23 32 28 10 6 18 15 18 20 -1 16 19 35 29
29 5 -3 12 3 16 13 4 10 15 24 25 31 10 7 16 18 12 23 -3 6 2 19 12 30 16 17
19 18 34 4 14 -12 19 -13 28 -3 6 7 11 18 11 23 1 6 4 10 9 10 17 1 33 18 28
31 -4 9 4 18 20 24 14 6 24 16 22 24 -2 8 6 21 17 29 15 12 17 18 7 29 -17 21
18 52 48 43 16 -5 23 -2 27 14 3 12 12 21 19 21 13 0 18 11 15 36 -1 6 10 19
24 28 14 9 23 21 20 27 -4 5 1 16 10 25 12 12 13 19 5 29 -19 23 5 57 35 49
19 -5 27 -1 32 12 4 11 13 25 20 33 8 7 11 21 8 31 -4 13 1 22 15 30 13 7 19
17 16 27 -3 8 1 22 10 31 15 14 15 17 -2 29 -22 16 -11 28 24 28 22 0 27 4 25
23 -2 14 3 22 13 22 12 0 15 7 11 26 -2 14 2 31 10 39 8 8 13 20 11 27 -1 7 3
23 10 36 11 19 10 23 -3 28 -8 3 -15 13 -15 21 0 12 7 14 31 9 29 -5 31 -4 27
17 -2 13 1 29 8 35 9 8 11 24 7 42 -4 20 -2 30 7 30 8 0 10 8 6 24 -4 15 -1
28 6 33 12 7 233 17 298 13 14 -1 33 -1 43 -1 9 0 52 0 95 0 42 0 88 1 102 1
14 1 33 1 43 0 51 -2 76 -1 120 9 26 6 68 15 93 20 26 4 51 15 55 24 5 8 25
21 44 27 19 6 37 19 40 30 3 10 19 23 35 30 16 7 32 21 35 31 4 11 20 26 36
34 16 9 29 22 29 29 0 7 14 30 30 51 17 21 30 48 30 60 0 12 7 28 15 35 8 7
15 19 15 27 0 11 30 14 173 13 l173 -2 100 -121 c96 -118 100 -122 142 -125
23 -2 40 -7 37 -13 -9 -14 21 -11 58 7 31 15 35 22 41 68 9 81 8 87 -29 122
-44 41 -95 136 -95 175 0 24 -8 34 -37 52 -68 40 -212 63 -228 37 -6 -10 -49
-9 -252 6 l-71 6 -5 41 c-3 23 -10 63 -15 89 l-9 46 121 84 c195 135 503 367
616 464 323 279 592 642 1252 1694 403 641 489 770 536 805 22 16 54 40 71 53
l30 23 26 -51 26 -52 -25 -23 c-46 -43 -30 -113 40 -174 34 -31 45 -33 84 -17
11 4 88 -133 325 -584 171 -325 312 -595 313 -601 2 -5 0 -9 -5 -8 -23 4 -35
-2 -29 -16 3 -9 0 -15 -8 -15 -21 0 -40 -27 -25 -35 7 -5 2 -15 -17 -30 -27
-22 -30 -22 -47 -7 -17 15 -18 14 -23 -4 -3 -11 -15 -24 -27 -29 -12 -6 -22
-15 -22 -22 0 -15 -13 -28 -28 -28 -7 0 -13 -9 -16 -20 -2 -11 -12 -26 -23
-34 -16 -10 -17 -15 -7 -22 22 -13 -18 -51 -42 -39 -25 14 -29 13 -29 -9 0
-10 -9 -21 -19 -24 -12 -3 -21 -15 -23 -33 -2 -18 -9 -29 -18 -29 -8 0 -15 -7
-15 -16 0 -9 -8 -24 -18 -33 -9 -10 -15 -22 -11 -27 3 -6 -2 -21 -11 -35 -12
-19 -20 -23 -29 -15 -15 13 -26 4 -26 -21 0 -10 -7 -18 -15 -18 -8 0 -15 -6
-16 -12 -1 -7 -2 -22 -3 -33 0 -11 -7 -19 -13 -18 -12 3 -18 -10 -14 -31 1 -5
-6 -17 -15 -27 -9 -10 -13 -22 -10 -28 11 -17 -13 -51 -34 -51 -12 0 -20 -7
-20 -16 0 -8 -7 -22 -15 -31 -9 -8 -13 -23 -10 -33 4 -12 -1 -22 -11 -28 -10
-6 -15 -17 -12 -29 3 -10 -1 -24 -9 -32 -8 -7 -11 -21 -8 -32 5 -15 1 -22 -14
-26 -12 -3 -21 -13 -21 -25 0 -11 -7 -26 -15 -35 -12 -11 -13 -19 -5 -28 8 -9
7 -17 -4 -27 -8 -8 -15 -27 -15 -41 -1 -15 -1 -39 -2 -53 -1 -17 -8 -28 -21
-32 -15 -3 -18 -10 -14 -28 4 -15 2 -24 -5 -24 -7 0 -9 -12 -5 -35 5 -23 3
-35 -4 -35 -6 0 -11 -10 -10 -22 1 -13 2 -47 1 -75 -1 -41 -5 -53 -17 -53 -10
0 -14 -7 -13 -22 2 -13 0 -29 -5 -36 -5 -8 -3 -24 5 -40 11 -20 11 -26 2 -29
-14 -5 -18 -33 -5 -33 15 0 8 -100 -8 -110 -12 -8 -13 -13 -2 -30 7 -12 8 -20
2 -20 -5 0 -10 -9 -10 -20 0 -11 5 -20 11 -20 7 0 9 -12 5 -35 -4 -19 -3 -35
1 -35 4 0 9 -27 11 -60 1 -37 -2 -60 -8 -60 -7 0 -7 -6 -1 -18 6 -10 7 -28 4
-40 -3 -15 0 -24 12 -28 12 -5 15 -14 11 -30 -4 -13 -2 -32 3 -41 18 -32 31
-117 19 -124 -7 -4 -8 -15 -3 -25 4 -11 7 -29 6 -41 -2 -15 3 -23 12 -23 17 0
30 -27 17 -35 -5 -3 -7 -12 -4 -20 4 -8 10 -12 15 -9 5 3 9 -5 9 -17 0 -12 6
-30 14 -38 19 -22 30 -61 17 -61 -16 0 -13 -30 3 -36 8 -3 12 -13 9 -24 -3
-12 3 -22 17 -30 15 -8 19 -17 15 -31 -4 -12 -1 -21 8 -25 9 -3 18 -16 21 -30
4 -13 11 -24 17 -24 8 0 8 -4 0 -14 -9 -11 -8 -18 4 -30 9 -9 14 -20 11 -25
-4 -5 7 -19 23 -31 18 -12 28 -26 25 -35 -4 -8 1 -18 10 -21 9 -3 16 -12 16
-19 0 -6 9 -20 20 -30 13 -11 18 -25 14 -37 -3 -11 0 -20 10 -24 9 -3 16 -15
16 -25 0 -11 10 -23 24 -29 14 -5 26 -19 28 -32 2 -13 9 -22 16 -21 6 2 12 -1
12 -5 0 -5 16 -25 35 -45 23 -23 33 -41 29 -52 -5 -11 0 -18 15 -22 13 -3 20
-11 17 -19 -6 -16 19 -38 34 -29 5 3 14 -5 20 -19 5 -14 14 -26 18 -26 18 0
87 -71 84 -86 -2 -9 6 -18 16 -21 11 -3 22 -13 25 -24 3 -11 14 -19 26 -19 11
0 25 -9 31 -20 6 -11 15 -20 20 -20 17 0 100 -64 100 -77 0 -8 8 -17 18 -20 9
-4 23 -14 29 -24 8 -10 21 -15 32 -12 13 3 23 -2 31 -17 6 -12 18 -19 25 -16
8 3 15 2 17 -3 2 -4 21 -16 43 -27 22 -12 40 -27 40 -35 0 -8 10 -14 23 -13
12 0 22 -5 22 -12 0 -14 28 -27 42 -18 5 3 18 -3 29 -15 10 -11 25 -18 33 -15
8 3 17 1 21 -5 3 -6 15 -11 25 -11 11 0 24 -9 30 -20 8 -15 17 -19 31 -15 14
5 19 2 19 -11 0 -13 6 -15 30 -10 23 4 32 1 37 -10 4 -10 13 -14 29 -10 12 3
26 2 29 -4 3 -5 17 -10 30 -10 13 0 28 -7 33 -17 6 -10 16 -14 26 -10 10 4 19
1 23 -9 4 -12 14 -14 39 -9 23 4 34 2 34 -6 0 -6 8 -9 19 -6 27 7 123 -10 132
-24 4 -7 16 -9 28 -6 12 3 21 0 21 -5 0 -7 15 -8 40 -4 25 4 40 2 40 -4 0 -5
7 -10 15 -10 8 0 15 4 15 9 0 11 103 1 111 -11 4 -6 16 -7 28 -3 12 4 21 2 21
-4 0 -6 9 -11 20 -11 11 0 20 5 20 11 0 7 12 9 35 5 19 -4 35 -3 35 1 0 4 25
9 55 11 32 1 55 -2 55 -8 0 -5 9 -10 20 -10 11 0 20 5 20 11 0 8 4 8 14 0 15
-12 46 -5 46 11 0 5 13 7 30 3 20 -4 30 -3 30 5 0 7 8 9 20 5 12 -4 26 -2 33
3 7 5 27 13 45 17 24 5 33 3 38 -9 7 -18 34 -22 34 -6 0 6 11 8 25 4 18 -4 27
-1 31 11 5 12 14 15 31 10 16 -4 25 -1 29 10 4 8 11 15 18 14 28 -3 46 2 46
15 0 22 50 30 64 10 11 -15 14 -15 28 0 9 9 23 13 31 10 10 -3 20 3 27 16 7
12 18 19 26 16 18 -7 45 4 38 15 -3 5 4 9 16 9 12 0 24 9 29 23 8 19 10 20 16
5 9 -22 31 -23 39 -2 3 8 10 13 15 10 14 -9 41 4 41 19 0 8 12 15 28 17 15 2
26 8 24 13 -2 6 7 12 20 15 13 3 23 12 23 20 0 21 25 34 38 21 16 -16 37 -13
37 5 0 9 6 14 13 11 16 -6 49 12 42 23 -6 10 14 24 35 25 8 0 15 6 15 13 0 6
5 12 10 13 18 1 36 22 31 36 -3 7 6 20 19 29 20 13 28 14 40 4 16 -13 35 -6
35 15 0 8 6 12 13 9 8 -3 20 2 27 11 7 8 9 15 5 15 -4 0 -2 7 5 15 7 8 16 13
20 10 4 -3 13 2 20 10 7 8 9 15 4 15 -5 0 2 7 14 16 15 10 21 22 17 33 -8 27
18 45 45 31 18 -10 22 -9 27 9 3 12 14 21 24 21 11 0 20 5 20 10 1 6 3 15 4
20 1 6 3 14 4 19 0 5 10 11 21 14 13 3 18 10 14 21 -4 10 -1 16 9 16 18 0 29
24 17 36 -5 5 0 20 11 33 15 19 22 21 34 11 16 -14 35 -5 35 16 0 8 7 14 15
14 8 0 16 6 17 13 0 6 2 17 3 22 2 6 3 16 4 23 0 6 8 12 16 12 8 0 15 8 15 17
0 9 8 25 17 35 14 15 15 21 4 27 -23 15 5 52 37 49 21 -2 27 1 27 17 1 11 6
19 13 17 7 -1 13 4 13 10 1 7 3 20 4 28 1 8 3 21 4 28 0 7 6 10 11 7 9 -6 14
8 11 28 -1 4 5 15 14 23 19 20 19 30 -1 38 -24 9 -5 28 22 22 23 -6 29 1 25
32 -1 6 6 12 15 12 13 0 15 6 10 30 -4 23 -1 32 10 37 11 4 14 13 10 29 -4 13
-2 24 3 24 5 0 11 9 14 20 3 13 0 20 -9 20 -8 0 -14 7 -14 15 0 10 10 15 31
15 26 0 30 3 26 20 -3 10 2 25 9 31 10 8 13 22 9 41 -4 18 -3 28 5 28 8 0 10
9 6 24 -3 14 -2 28 4 31 16 10 12 35 -6 35 -11 0 -14 8 -12 28 2 21 9 28 31
30 25 3 28 7 23 28 -4 15 -2 24 5 24 7 0 9 12 5 35 -4 22 -3 35 4 35 5 0 10 9
10 20 0 11 -5 20 -11 20 -8 0 -8 5 1 15 13 16 6 50 -9 40 -13 -8 -22 10 -15
29 3 9 17 16 31 16 21 0 24 4 20 21 -3 12 -1 29 6 39 8 13 8 22 0 32 -6 7 -10
36 -7 67 3 46 1 54 -16 58 -30 8 -27 51 5 59 26 7 34 28 13 38 -10 5 -10 7 0
12 17 8 15 24 -4 46 -14 15 -15 20 -3 34 11 14 11 18 -1 28 -9 6 -14 21 -12
34 3 17 -2 22 -17 22 -12 0 -21 4 -21 9 0 5 -3 16 -6 24 -3 10 5 18 25 25 28
10 44 42 21 42 -5 0 -7 13 -4 29 4 20 2 30 -10 34 -12 5 -15 14 -10 32 4 15 2
25 -5 25 -6 0 -11 13 -11 29 0 26 -3 30 -27 28 -24 -2 -29 2 -31 26 -2 15 1
27 5 27 5 0 18 6 28 14 16 11 17 17 7 29 -7 8 -12 19 -11 23 4 26 -3 44 -17
44 -11 0 -15 6 -11 20 3 11 -1 27 -9 34 -8 8 -14 21 -14 29 0 21 -11 27 -31
16 -29 -15 -23 4 7 22 24 15 25 17 9 33 -10 9 -15 20 -12 23 10 9 -13 44 -24
38 -5 -4 -10 0 -10 7 -1 7 -2 18 -4 23 -1 6 -3 16 -3 23 -1 7 -6 10 -12 7 -6
-3 -10 0 -10 7 0 28 -16 41 -38 29 -35 -18 -39 9 -7 37 28 24 28 25 9 39 -10
8 -18 21 -16 29 2 9 -6 18 -17 21 -21 5 -25 14 -22 41 1 8 -7 16 -18 19 -12 3
-21 11 -21 19 0 20 -19 27 -36 13 -12 -10 -17 -8 -29 7 -19 26 -19 34 6 60
l21 23 -21 13 c-12 7 -21 19 -21 26 0 7 -12 17 -26 22 -16 6 -24 16 -21 24 7
18 -11 36 -29 29 -8 -3 -14 1 -14 10 0 23 -18 31 -36 16 -12 -10 -18 -9 -31 4
-15 14 -15 18 1 42 18 27 14 45 -9 45 -9 0 -12 6 -9 15 4 9 -3 16 -21 21 -15
4 -30 17 -36 31 -5 14 -15 23 -21 21 -7 -3 -20 5 -30 16 -17 21 -17 21 -31 1
-15 -19 -16 -19 -36 -1 -19 17 -19 20 -5 49 13 24 13 31 3 38 -7 4 -16 6 -20
3 -4 -2 -9 5 -12 15 -3 12 -15 21 -33 23 -18 2 -29 9 -29 18 0 8 -7 15 -16 15
-9 0 -24 9 -34 19 -18 18 -19 18 -32 0 -11 -15 -17 -16 -31 -7 -16 10 -20 30
-11 63 3 9 -4 16 -18 18 -13 2 -23 10 -23 18 0 8 -6 14 -12 15 -7 1 -22 2 -33
3 -11 0 -19 7 -18 14 3 11 -9 16 -33 13 -6 -1 -17 6 -24 14 -17 20 -27 19 -35
-5 -10 -30 -26 -13 -23 23 2 24 -1 32 -13 32 -9 0 -23 8 -33 17 -9 10 -24 14
-33 11 -9 -4 -21 1 -29 11 -6 10 -18 16 -26 15 -7 -2 -23 3 -36 10 -21 11 -24
10 -29 -9 -8 -32 -28 -17 -25 19 2 27 -1 31 -23 31 -14 0 -25 5 -25 11 0 7
-11 9 -30 5 -22 -4 -32 -1 -36 9 -3 8 -18 14 -32 13 -15 -1 -34 2 -43 6 -12 5
-18 1 -22 -13 -4 -17 -9 -19 -29 -12 -16 6 -24 17 -26 40 -3 29 -6 32 -28 27
-15 -4 -24 -2 -24 5 0 7 -12 9 -35 5 -22 -4 -35 -3 -35 4 0 5 -9 10 -20 10
-11 0 -20 -5 -20 -12 0 -9 -3 -9 -12 0 -18 18 -35 15 -41 -7 -8 -32 -47 -16
-47 20 0 30 -17 38 -38 17 -7 -7 -12 -8 -12 -2 0 6 -36 10 -85 10 -76 1 -85
-1 -85 -18 0 -12 -7 -18 -24 -18 -18 0 -25 7 -30 30 -5 28 -8 30 -27 19 -17
-9 -23 -8 -30 2 -7 11 -14 11 -39 -4 -16 -10 -30 -13 -30 -8 0 6 -9 11 -20 11
-11 0 -20 -5 -20 -10 0 -6 -11 -8 -25 -4 -21 5 -25 3 -25 -15 0 -14 -6 -21
-19 -21 -10 0 -33 -3 -50 -6 -27 -6 -33 -3 -37 13 -4 16 -14 20 -50 21 -24 0
-44 -4 -44 -9 0 -6 -15 -7 -35 -3 -21 4 -35 2 -35 -4 0 -5 -11 -7 -25 -4 -22
4 -25 1 -25 -26 0 -28 -3 -30 -46 -37 -46 -6 -56 -2 -67 29 -2 6 -11 6 -23 1
-10 -5 -27 -9 -38 -10 -10 -2 -23 -10 -28 -19 -6 -11 -16 -15 -28 -11 -11 3
-22 0 -27 -9 -4 -8 -19 -16 -33 -18 -19 -2 -24 -8 -22 -25 2 -16 -2 -23 -12
-23 -9 0 -16 2 -16 4 0 31 -48 261 -74 357 -149 543 -507 1156 -985 1686
l-101 112 26 56 c32 70 30 144 -5 193 -27 38 -128 89 -196 98 -38 5 -59 14
-87 41 -20 20 -59 43 -90 53 l-53 17 -1 69 c0 81 -20 130 -70 173 -58 52 -140
64 -210 32z m603 -436 c77 -33 122 -102 108 -168 -16 -74 -55 -140 -55 -93 0
8 -21 33 -47 56 -35 31 -44 43 -34 50 10 6 3 16 -28 38 -23 17 -46 32 -50 34
-4 2 -11 28 -14 59 l-5 56 43 -8 c24 -4 61 -15 82 -24z m28 -291 c33 12 21
-17 -34 -86 -32 -40 -81 -95 -109 -122 l-51 -49 -23 47 c-13 28 -27 45 -35 42
-15 -6 -47 49 -38 64 3 5 -3 31 -14 56 -28 63 -27 67 15 39 36 -25 37 -25 63
-6 14 11 39 33 55 50 l30 31 63 -36 c35 -20 71 -33 78 -30z m125 -119 c506
-556 870 -1192 1013 -1770 42 -169 50 -233 32 -251 -8 -8 -19 -13 -24 -10 -14
9 -41 -4 -41 -19 0 -8 -12 -15 -27 -17 -17 -2 -27 -8 -25 -16 1 -7 -3 -12 -10
-11 -33 4 -40 -1 -34 -25 5 -19 1 -26 -15 -31 -15 -5 -25 -2 -31 9 -12 21 -38
21 -38 0 0 -9 -6 -14 -12 -11 -18 6 -50 -12 -43 -24 4 -5 3 -9 -2 -9 -10 1
-606 1123 -615 1159 -7 31 -107 221 -108 206 0 -5 -18 22 -40 60 -23 41 -37
77 -34 88 3 11 -42 109 -120 258 -69 133 -126 246 -126 253 0 6 30 40 66 76
37 36 85 89 107 118 22 29 43 51 47 50 4 -2 40 -39 80 -83z m-3950 -285 c-110
-97 -227 -158 -427 -224 -78 -25 -145 -46 -149 -46 -18 0 65 74 116 104 123
72 435 202 495 205 6 1 -10 -17 -35 -39z m3288 -312 c-94 -125 -217 -319 -538
-848 -641 -1057 -650 -1068 -959 -1231 -105 -55 -157 -101 -200 -175 -64 -111
-60 -105 -81 -94 -11 6 -20 17 -20 25 0 8 -4 15 -9 15 -5 0 -11 8 -13 18 -5
17 -11 18 -79 7 -69 -10 -74 -13 -71 -34 2 -20 0 -22 -13 -11 -9 8 -31 10 -62
6 -26 -3 -66 -8 -88 -11 -22 -2 -89 -12 -150 -20 -60 -9 -129 -18 -151 -22
l-42 -5 -10 48 c-6 27 -20 108 -33 179 l-22 130 26 51 c14 27 52 86 85 129
l59 80 228 130 c490 279 817 501 1255 851 292 233 592 498 800 708 57 58 106
106 109 106 2 0 -8 -15 -21 -32z m-2180 -1306 l25 -32 -144 -69 c-79 -38 -174
-83 -212 -99 l-67 -31 -24 37 c-12 20 -42 71 -66 112 -24 41 -50 85 -58 98
l-15 22 268 -2 267 -3 26 -33z m4802 -596 c0 -19 5 -38 10 -41 10 -6 15 -1025
5 -1025 -2 0 -21 11 -41 25 -47 32 -88 32 -131 -1 -19 -14 -36 -24 -37 -23 -2
2 -27 204 -55 449 -29 245 -56 469 -60 498 -6 40 -5 55 4 59 9 3 11 17 8 43
l-5 39 43 4 c24 2 92 4 152 5 l107 2 0 -34z m258 7 l93 -16 -6 -28 c-4 -15 -8
-40 -10 -56 -2 -15 -45 -161 -95 -323 -51 -162 -115 -371 -144 -463 l-51 -168
-3 493 c-2 357 1 499 9 515 6 12 9 34 6 48 l-5 27 57 -6 c31 -4 98 -14 149
-23z m-598 -78 c5 -11 11 -45 14 -75 3 -30 29 -244 56 -474 28 -231 49 -424
48 -428 -5 -14 -401 885 -403 912 -1 14 -7 35 -13 47 -11 20 -9 23 36 37 26 9
90 27 142 40 l95 24 9 -31 c4 -18 12 -41 16 -52z m-7840 15 c0 -22 5 -40 10
-40 7 0 10 -165 10 -474 l0 -474 -22 -6 c-13 -3 -45 -6 -71 -6 -34 0 -58 -7
-79 -21 -18 -13 -33 -18 -39 -12 -5 5 -35 225 -67 489 -45 372 -55 481 -46
487 8 5 11 20 7 42 -5 30 -3 35 18 39 39 9 89 13 187 14 l92 2 0 -40z m283 6
c52 -10 62 -16 60 -32 -2 -10 -3 -30 -4 -44 -1 -14 -32 -124 -70 -245 -37
-121 -97 -316 -133 -434 -37 -117 -69 -217 -72 -222 -21 -34 -24 29 -24 461 0
329 3 470 11 470 6 0 10 15 9 33 -1 17 -2 34 -1 38 1 7 147 -9 224 -25z m8427
-16 c60 -22 139 -55 158 -66 2 -1 -4 -16 -12 -32 -9 -17 -13 -37 -11 -45 5
-10 -338 -798 -386 -889 -9 -17 -11 -17 -35 -1 -22 14 -35 15 -97 5 -39 -6
-76 -8 -82 -4 -11 6 32 154 265 905 20 63 36 97 45 97 8 0 17 14 21 35 7 40 9
40 134 -5z m-9065 -2 c3 -13 10 -39 15 -58 5 -19 30 -210 55 -425 25 -214 48
-407 51 -427 5 -33 3 -38 -13 -38 -16 0 -53 74 -199 403 -98 221 -178 410
-177 420 2 10 -4 31 -12 46 l-14 29 107 30 c172 49 178 50 187 20z m992 -93
l53 -24 -16 -36 c-8 -20 -12 -40 -9 -45 6 -10 -260 -617 -279 -636 -6 -7 -55
-26 -108 -43 -53 -18 -98 -35 -100 -39 -2 -4 -22 -15 -46 -24 -40 -16 -43 -16
-38 0 16 49 209 672 236 760 21 67 36 102 46 102 8 0 14 4 14 9 0 5 4 21 10
35 l9 26 87 -31 c48 -17 111 -41 141 -54z m6883 5 c13 -11 378 -811 428 -939
4 -11 -12 -12 -89 -6 -88 7 -95 6 -113 -14 l-19 -21 -47 82 c-26 46 -127 235
-224 422 l-178 338 7 54 c3 29 12 58 20 64 7 6 49 29 92 50 l78 38 14 -26 c7
-15 21 -34 31 -42z m-8201 -27 c10 -21 22 -37 26 -35 9 4 375 -812 375 -834 0
-20 -12 -18 -66 11 -57 30 -99 32 -114 6 -16 -31 -12 -57 16 -90 24 -29 25
-32 9 -48 -15 -14 -18 -14 -26 -2 -4 8 -116 194 -247 414 -145 242 -236 404
-231 410 5 7 0 23 -11 40 l-20 30 38 23 c41 26 213 111 224 112 4 0 16 -17 27
-37z m9701 -34 c30 -18 76 -49 103 -67 l47 -34 -17 -26 c-10 -15 -22 -35 -28
-44 -14 -23 -649 -747 -653 -744 -6 6 398 901 408 904 6 2 17 19 25 38 16 39
3 42 115 -27z m-1754 5 c-3 -9 -6 -21 -6 -27 0 -7 -5 -4 -11 6 -11 18 -5 37
13 37 5 0 7 -7 4 -16z m-6477 -26 c78 -46 201 -131 201 -138 0 -4 -7 -14 -16
-21 -9 -7 -20 -22 -24 -34 -5 -11 -83 -105 -175 -210 l-167 -190 -90 -33 c-50
-18 -93 -31 -95 -29 -7 8 267 607 286 626 12 12 21 28 21 36 0 21 16 19 59 -7z
m1785 -68 c89 -15 114 -23 144 -48 36 -28 74 -92 87 -143 6 -26 6 -26 -92 -40
-54 -8 -100 -12 -103 -8 -3 4 -40 3 -82 -3 -69 -10 -78 -13 -78 -32 0 -38 -6
-66 -18 -78 -10 -10 -19 -5 -42 21 -25 27 -35 32 -57 26 -48 -12 -356 -56
-360 -51 -3 2 5 9 16 15 21 12 19 41 -4 41 -8 0 -11 8 -8 20 4 15 -2 22 -21
30 -15 5 -26 16 -25 22 3 27 -2 37 -16 32 -10 -4 -15 0 -15 13 0 10 -5 24 -10
29 -20 20 25 42 225 111 227 79 237 80 459 43z m-374 13 c-45 -18 -263 -93
-268 -93 -3 0 7 14 23 30 38 39 126 66 225 68 19 0 28 -2 20 -5z m-3194 -50
c9 -16 23 -32 29 -38 7 -5 117 -185 244 -399 148 -248 228 -393 222 -399 -11
-11 -703 607 -698 623 1 5 -11 20 -27 33 l-28 23 83 70 c90 75 140 113 150
114 4 0 15 -12 25 -27z m10344 -138 l85 -86 -27 -23 c-14 -13 -28 -30 -30 -39
-1 -8 -168 -164 -370 -345 l-368 -330 -52 20 c-66 24 -99 56 -101 96 -2 27 38
77 327 407 207 238 333 374 342 371 7 -3 23 8 34 25 l22 29 26 -19 c15 -11 65
-58 112 -106z m-2268 -41 c37 -71 65 -130 63 -132 -7 -7 -165 141 -165 154 0
7 -11 21 -24 31 l-24 18 31 33 c17 18 36 31 42 29 5 -2 40 -62 77 -133z
m-5955 32 l32 -29 -147 -82 c-129 -72 -247 -140 -332 -194 -23 -15 -23 -13 5
19 184 216 281 320 292 316 7 -3 23 8 35 24 l22 30 30 -27 c17 -15 45 -41 63
-57z m2463 -7 c0 -6 -4 -7 -10 -4 -5 3 -10 11 -10 16 0 6 5 7 10 4 6 -3 10
-11 10 -16z m-144 -26 c-11 -11 -19 6 -11 24 8 17 8 17 12 0 3 -10 2 -21 -1
-24z m-76 -4 c0 -5 -9 -9 -20 -9 -22 0 -23 1 -14 24 5 13 9 14 20 5 8 -6 14
-15 14 -20z m3555 11 c10 -11 23 -19 29 -17 11 4 48 -26 142 -114 50 -47 51
-49 57 -121 7 -81 41 -211 80 -306 14 -35 22 -62 17 -60 -4 2 -116 79 -249
173 -141 99 -241 176 -241 185 0 9 -13 24 -30 33 l-30 18 42 57 c64 88 139
172 152 172 7 0 21 -9 31 -20z m-3656 -14 c9 -11 7 -15 -9 -19 -15 -4 -20 0
-20 14 0 22 13 25 29 5z m518 -8 c-3 -8 -6 -5 -6 6 -1 11 2 17 5 13 3 -3 4
-12 1 -19z m-617 -19 c0 -5 -7 -9 -15 -9 -9 0 -12 6 -9 15 6 15 24 11 24 -6z
m-4430 -9 c14 -11 31 -20 38 -20 22 0 684 -602 671 -610 -8 -6 -6 -23 10 -64
11 -31 21 -61 21 -66 0 -6 -27 -23 -60 -39 l-61 -28 -389 274 c-215 151 -390
281 -390 288 0 8 -11 22 -25 31 -14 9 -25 22 -25 28 0 14 168 226 178 226 4 0
18 -9 32 -20z m2476 -15 c15 -20 25 -38 22 -41 -8 -8 -481 -164 -485 -160 -2
2 74 48 169 101 95 54 187 106 203 116 44 26 61 23 91 -16z m2381 -12 c-3 -10
-5 -2 -5 17 0 19 2 27 5 18 2 -10 2 -26 0 -35z m-134 5 c7 -25 3 -33 -12 -23
-13 8 -15 45 -2 45 5 0 11 -10 14 -22z m317 -16 c0 -38 -3 -41 -83 -94 l-83
-55 -141 -7 c-155 -9 -237 2 -275 35 -23 19 -23 19 -3 31 11 7 38 14 60 15 80
4 132 10 144 18 7 4 41 9 74 11 84 4 213 19 270 30 20 4 27 11 27 30 0 13 2
24 5 24 3 0 5 -17 5 -38z m-399 7 c8 -15 8 -24 0 -32 -15 -15 -46 16 -38 37 9
22 24 20 38 -5z m156 -1 c-3 -8 -6 -5 -6 6 -1 11 2 17 5 13 3 -3 4 -12 1 -19z
m-253 -14 c9 -25 7 -34 -9 -34 -12 0 -35 28 -35 44 0 14 38 5 44 -10z m-98 -8
c3 -8 1 -23 -5 -33 -9 -17 -10 -16 -19 7 -5 14 -8 28 -5 33 7 12 23 8 29 -7z
m6312 -34 c29 -36 132 -197 132 -206 0 -2 -14 -9 -30 -16 -17 -7 -34 -18 -38
-24 -4 -6 -133 -69 -287 -140 -154 -71 -355 -164 -447 -207 -93 -43 -168 -75
-167 -71 1 12 724 655 745 662 11 4 26 15 33 24 19 23 26 21 59 -22z m-8454
-130 c-88 -65 -275 -205 -417 -310 -274 -204 -276 -205 -306 -149 -7 14 -12
30 -10 35 7 19 292 341 308 348 28 12 566 193 575 194 4 0 -63 -53 -150 -118z
m1726 72 c0 -8 -5 -12 -10 -9 -6 4 -8 11 -5 16 9 14 15 11 15 -7z m60 6 c0 -5
-4 -10 -10 -10 -5 0 -10 5 -10 10 0 6 5 10 10 10 6 0 10 -4 10 -10z m-120 -16
c0 -8 -5 -12 -10 -9 -6 4 -8 11 -5 16 9 14 15 11 15 -7z m-50 -4 c0 -5 -4 -10
-10 -10 -5 0 -10 5 -10 10 0 6 5 10 10 10 6 0 10 -4 10 -10z m4681 -290 c79
-151 146 -278 147 -282 2 -5 -41 23 -96 61 l-99 70 -37 98 c-42 107 -71 218
-82 303 -6 49 -5 53 9 40 8 -8 79 -139 158 -290z m-4884 273 c4 -10 12 -24 19
-30 7 -7 14 -18 16 -24 3 -8 28 -6 88 6 47 9 98 18 114 20 16 2 32 8 35 14 4
6 12 6 21 1 8 -5 21 -5 32 1 10 6 23 7 29 4 5 -4 17 -1 25 6 8 6 17 10 19 7 3
-3 17 -81 30 -174 14 -93 28 -181 30 -195 l6 -25 -83 -3 c-95 -2 -161 -8 -200
-17 -24 -5 -29 -1 -49 37 -53 106 -138 218 -200 268 l-47 38 29 17 c17 10 35
29 41 42 13 28 36 31 45 7z m4273 -61 c25 -11 155 -99 290 -195 l245 -173 39
-74 c31 -59 35 -72 20 -66 -11 4 -172 57 -359 118 -187 60 -345 116 -351 124
-6 8 -25 17 -43 20 -17 4 -31 10 -31 15 0 12 84 186 110 227 11 19 24 32 28
30 4 -2 27 -14 52 -26z m-8165 -62 c7 -1 757 -524 784 -546 2 -2 2 -7 -1 -10
-4 -3 -64 13 -135 36 -621 201 -779 254 -786 265 -4 8 -21 16 -37 20 -17 4
-30 11 -30 16 0 11 95 202 117 236 l15 23 32 -19 c17 -11 36 -20 41 -21z
m2871 -22 c14 -26 13 -28 -18 -44 -18 -9 -35 -20 -38 -24 -3 -5 -95 -49 -205
-100 -110 -51 -209 -97 -220 -102 -40 -21 0 10 218 168 241 175 227 170 263
102z m-908 -3 c-11 -12 -143 -93 -146 -91 -1 2 2 14 8 28 8 16 30 31 68 45 60
21 79 26 70 18z m9179 -136 c24 -58 45 -119 49 -136 6 -28 3 -32 -29 -44 -20
-7 -34 -16 -31 -20 2 -4 -150 -58 -338 -119 -189 -61 -411 -133 -493 -161 -83
-27 -155 -49 -161 -49 -24 0 -37 56 -25 109 6 28 8 63 5 79 l-6 28 448 208
c298 138 450 203 454 195 5 -8 16 -7 36 5 16 8 34 14 39 12 6 -1 29 -50 52
-107z m-9210 72 c-85 -101 -201 -231 -204 -228 -2 2 11 36 29 75 31 67 39 76
113 126 44 30 82 55 83 55 2 1 -7 -12 -21 -28z m1698 9 c49 -23 64 -36 93 -77
21 -30 76 -162 70 -168 -2 -2 -38 -6 -80 -10 -76 -7 -78 -7 -78 15 0 18 -4 21
-25 18 -20 -4 -26 -1 -31 18 -7 26 10 54 32 54 16 0 19 26 3 35 -6 4 -8 13 -5
21 3 8 -4 22 -15 33 -11 10 -20 25 -19 32 4 27 0 40 -10 34 -5 -3 -10 -1 -10
4 0 16 30 13 75 -9z m-1839 -33 c-10 -24 -37 -52 -81 -84 -55 -40 -79 -50
-138 -60 -39 -6 -73 -10 -75 -8 -2 2 -1 12 2 23 4 11 23 24 49 32 70 21 100
39 94 60 -4 15 9 23 77 47 44 16 82 28 84 27 2 -1 -4 -18 -12 -37z m1033 -28
c-14 -7 -398 -273 -511 -352 -57 -41 -130 -60 -213 -58 -16 1 -43 -4 -58 -10
-58 -24 -33 1 90 92 115 84 157 106 413 225 157 73 287 127 289 122 2 -6 -3
-14 -10 -19z m-1089 -99 c-18 -36 -22 -39 -40 -27 -20 12 -19 13 12 39 45 38
52 35 28 -12z m6264 0 c14 -5 28 -5 31 -1 3 5 38 -1 77 -14 691 -220 708 -227
708 -279 0 -11 11 -56 25 -99 14 -43 25 -83 25 -90 0 -9 -118 10 -417 69 -529
105 -498 98 -496 111 1 6 -15 14 -37 18 -22 4 -40 10 -40 13 0 15 32 141 52
210 22 74 28 79 72 62z m-8144 -55 c19 0 234 -66 478 -145 419 -136 442 -145
442 -167 0 -13 5 -44 11 -69 10 -38 9 -51 -6 -84 -10 -22 -23 -40 -28 -40 -6
0 -230 43 -499 96 -362 72 -488 100 -488 110 0 8 -10 14 -22 14 -55 1 -54 25
4 228 21 71 22 73 47 66 14 -4 42 -8 61 -9z m9728 -28 l25 -25 -31 -98 c-23
-75 -32 -94 -37 -79 -4 11 -25 58 -46 104 -22 46 -39 89 -39 95 0 44 85 45
128 3z m-250 0 c31 -14 39 -41 21 -63 -10 -12 -24 -14 -63 -9 -64 9 -76 19
-76 63 l0 35 46 -7 c25 -3 58 -12 72 -19z m-7955 -18 c43 -23 57 -40 46 -60
-9 -18 -76 -69 -91 -69 -3 0 -16 16 -28 35 -22 36 -19 54 16 89 18 19 28 20
57 5z m1637 -20 c0 -13 -11 -25 -34 -34 -19 -8 -36 -18 -38 -23 -3 -10 -129
-54 -135 -48 -5 4 187 126 199 126 4 0 8 -9 8 -21z m5842 -57 c114 -79 119
-97 16 -63 -61 20 -65 24 -91 77 -15 30 -22 52 -15 48 7 -4 48 -32 90 -62z
m953 48 c4 -7 -141 -180 -151 -180 -2 0 -4 43 -4 96 0 52 4 93 9 90 4 -3 28
-2 52 2 46 8 86 5 94 -8z m-190 -229 c-12 -12 -19 -13 -33 -5 -27 17 -26 36
10 146 l33 103 3 -114 c2 -93 0 -118 -13 -130z m-5811 207 c11 -44 6 -55 -46
-90 -57 -39 -132 -66 -125 -45 2 7 13 13 25 15 22 3 33 42 12 42 -5 0 -7 13
-3 30 4 21 2 30 -7 30 -10 0 -9 4 1 16 9 11 23 14 44 11 18 -3 38 -1 46 4 24
15 46 10 53 -13z m-2171 -2 c17 -13 14 -18 -42 -78 -56 -58 -62 -62 -75 -45
-8 10 -20 15 -30 11 -14 -5 -16 2 -16 49 l0 54 43 10 c60 15 99 14 120 -1z
m9601 -96 c8 -47 18 -108 21 -136 l6 -51 -58 -7 c-32 -3 -242 -8 -468 -11
-225 -3 -443 -7 -483 -10 -41 -2 -71 -1 -68 2 14 14 951 312 954 304 2 -5 17
-4 35 4 40 17 41 15 61 -95z m-10149 70 l29 -30 -24 0 c-26 0 -60 26 -60 47 0
22 25 15 55 -17z m8790 -33 c21 -37 34 -97 21 -97 -2 0 -38 -16 -79 -35 l-76
-34 25 57 c14 31 35 78 46 105 11 26 24 47 29 47 4 0 20 -20 34 -43z m-8436
-33 c-18 -22 -30 -17 -20 9 5 12 13 31 17 42 7 18 8 17 12 -8 2 -16 -2 -35 -9
-43z m8319 -41 c-51 -111 -60 -123 -90 -123 -13 0 -18 8 -18 30 0 23 17 49 76
115 41 47 77 85 79 85 2 0 -19 -48 -47 -107z m-8053 37 c-2 -3 -24 -20 -49
-38 l-45 -33 15 38 c9 21 23 51 31 67 l15 29 18 -29 c11 -15 17 -30 15 -34z
m-305 21 c-12 -24 -29 -35 -38 -26 -4 3 4 15 18 25 31 24 33 24 20 1z m7988
-91 c1 -3 -11 -5 -28 -2 -23 3 -37 16 -60 53 -16 27 -30 52 -30 55 0 7 114
-95 118 -106z m-7778 51 c-21 -43 -36 -56 -44 -43 -5 8 50 82 60 82 2 0 -5
-18 -16 -39z m1446 -39 c9 -47 9 -65 0 -67 -6 -2 -117 -32 -246 -67 -216 -57
-245 -63 -355 -66 l-120 -3 176 110 c151 93 184 110 230 115 30 3 81 11 114
16 33 6 77 12 97 13 20 1 40 6 45 10 4 4 16 7 28 5 16 -2 22 -15 31 -66z
m5833 37 c23 -7 41 -15 41 -18 0 -3 5 -34 10 -69 8 -50 8 -68 -4 -89 -14 -27
-14 -27 -41 62 -19 63 -35 97 -54 113 -15 14 -19 21 -10 19 10 -3 35 -11 58
-18z m491 6 c7 -8 8 -15 2 -15 -5 0 -15 7 -22 15 -7 8 -8 15 -2 15 5 0 15 -7
22 -15z m-8294 -42 c16 -29 23 -48 16 -51 -6 -2 -8 -10 -5 -18 3 -9 -2 -14
-15 -14 -11 0 -22 -5 -24 -11 -4 -12 -148 27 -148 41 0 18 115 100 141 100 4
0 19 -21 35 -47z m8901 41 c-3 -3 -12 -4 -19 -1 -8 3 -5 6 6 6 11 1 17 -2 13
-5z m-8843 -43 c19 -21 19 -21 0 -21 -11 0 -28 13 -38 31 -18 30 -18 31 0 21
11 -6 28 -20 38 -31z m27 23 c17 -8 28 -18 25 -21 -3 -3 -20 4 -38 16 -39 24
-30 28 13 5z m8875 -25 c-8 -48 -32 -99 -47 -99 -27 0 -49 22 -49 50 0 21 10
37 37 59 53 44 67 41 59 -10z m-1608 -122 c232 -46 425 -87 429 -90 3 -4 4
-10 1 -13 -10 -10 -943 -105 -946 -96 -1 4 -18 6 -37 4 l-35 -4 0 105 c0 57 3
124 6 148 l6 45 77 -8 c42 -4 266 -45 499 -91z m1453 86 c-24 -45 -70 -76
-121 -81 -29 -3 -50 0 -50 5 0 8 160 91 178 93 1 0 -2 -8 -7 -17z m-7741 -12
c0 -9 -152 -121 -164 -121 -10 0 -46 64 -46 81 0 18 37 28 117 32 23 1 45 5
49 10 11 10 44 9 44 -2z m-1881 -130 c249 -49 455 -92 458 -94 6 -7 -47 -13
-517 -61 -239 -25 -459 -44 -487 -43 l-53 2 0 110 c0 61 3 127 6 148 l7 38 66
-5 c36 -3 270 -45 520 -95z m711 39 c0 -7 -60 -43 -65 -38 -2 1 -6 25 -10 51
l-8 49 41 -29 c23 -15 41 -30 42 -33z m31 30 c5 0 9 -4 9 -10 0 -14 -13 -12
-36 6 -17 14 -17 15 -1 10 10 -3 23 -6 28 -6z m39 -40 c0 -5 -2 -10 -4 -10 -3
0 -8 5 -11 10 -3 6 -1 10 4 10 6 0 11 -4 11 -10z m3604 -29 c-9 -10 -26 18
-18 30 5 9 9 8 14 -7 4 -10 6 -21 4 -23z m-3630 -3 c3 -14 0 -27 -9 -34 -10
-8 -11 -14 -4 -21 8 -8 -5 -13 -45 -18 -31 -4 -59 -5 -62 -3 -10 11 11 40 50
68 50 35 62 37 70 8z m10162 7 c5 -12 15 -14 40 -9 l34 6 0 -113 c0 -63 -3
-131 -6 -151 -6 -36 -8 -38 -44 -38 -21 0 -40 -4 -42 -8 -1 -5 -226 15 -498
44 -272 29 -505 53 -518 53 -22 1 -22 2 13 47 41 55 46 98 14 138 l-20 26 23
1 c13 1 199 5 413 8 215 4 434 8 488 9 79 2 99 -1 103 -13z m-2106 -15 c9 -18
8 -20 -15 -20 -23 0 -24 2 -13 20 7 11 14 20 15 20 1 0 7 -9 13 -20z m-4510 0
c0 -5 -5 -10 -11 -10 -5 0 -7 5 -4 10 3 6 8 10 11 10 2 0 4 -4 4 -10z m-2697
-17 c-7 -2 -21 -2 -30 0 -10 3 -4 5 12 5 17 0 24 -2 18 -5z m8183 -18 c7 -28
-21 -93 -47 -109 -12 -7 -32 -3 -70 14 -30 12 -70 29 -88 37 l-35 15 100 33
c122 41 132 42 140 10z m-6246 6 c0 -6 -4 -13 -10 -16 -5 -3 -10 1 -10 9 0 9
5 16 10 16 6 0 10 -4 10 -9z m-1362 -6 c-6 -7 -272 -84 -276 -80 -8 8 108 70
143 76 48 8 140 11 133 4z m-628 -9 c0 -2 -15 -9 -32 -15 -30 -10 -31 -9 -14
4 18 14 46 20 46 11z m70 -10 c0 -3 -58 -44 -97 -69 -7 -4 -16 0 -22 12 -10
17 -5 21 47 39 60 21 72 24 72 18z m7196 -6 c16 0 44 -27 44 -44 0 -20 -57
-48 -77 -37 -35 18 -55 49 -48 71 6 18 12 21 37 16 17 -3 36 -6 44 -6z m-5379
-34 c-2 -6 -16 -11 -30 -11 -31 -1 -39 31 -9 37 20 5 44 -11 39 -26z m5150 15
c0 -11 7 -35 18 -54 22 -41 15 -67 -18 -67 -47 0 -64 -44 -22 -60 29 -11 32
-26 8 -34 -10 -3 -207 -48 -437 -101 -286 -65 -422 -92 -426 -84 -5 7 -18 8
-43 1 -37 -10 -37 -10 -47 28 -10 36 -40 222 -40 247 0 7 17 15 38 19 20 4 40
11 43 16 3 4 210 30 460 57 250 27 457 49 461 50 4 0 6 -8 5 -18z m-5052 -11
c0 -22 -21 -22 -22 1 -1 12 3 19 10 16 7 -2 12 -10 12 -17z m157 -125 c-43
-39 -57 -32 -75 35 -10 33 -17 71 -17 85 0 23 5 20 60 -35 l59 -61 -27 -24z
m-2957 107 c-2 -2 -23 0 -47 4 l-43 8 35 6 c30 4 65 -7 55 -18z m8885 -24 c55
-23 98 -44 95 -46 -2 -2 -52 1 -112 8 -85 9 -112 15 -128 31 -20 20 -20 20 -1
35 28 20 35 19 146 -28z m-9221 -46 c-47 -53 -78 -114 -79 -154 0 -15 -4 -29
-8 -32 -5 -3 -179 -44 -388 -91 -253 -58 -384 -83 -394 -77 -8 5 -28 5 -45 1
-19 -6 -32 -4 -36 3 -8 13 -34 150 -45 234 l-6 51 40 7 c22 3 42 10 44 14 4
12 952 110 956 100 2 -4 -15 -29 -39 -56z m268 57 c34 -6 61 -15 58 -19 -3 -5
1 -10 7 -12 15 -5 -89 -68 -112 -68 -26 0 -40 22 -40 60 0 34 6 50 18 50 3 0
34 -5 69 -11z m2868 -18 c3 -5 1 -12 -5 -16 -5 -3 -10 1 -10 9 0 18 6 21 15 7z
m5918 -5 c4 -10 1 -13 -8 -9 -8 3 -12 9 -9 14 7 12 11 11 17 -5z m-6018 -6
c11 -17 -5 -31 -19 -17 -14 12 -12 27 4 27 5 0 12 -4 15 -10z m6041 -30 c6 0
47 -39 90 -87 79 -87 79 -87 34 -61 -25 14 -71 40 -103 58 -53 30 -77 58 -77
92 0 6 10 8 23 4 12 -3 27 -6 33 -6z m-8992 -59 c25 -30 46 -60 46 -67 0 -7
-33 -19 -77 -29 -43 -9 -86 -19 -95 -21 -39 -11 -12 78 42 140 18 20 34 35 35
34 2 -2 23 -27 49 -57z m2326 20 c0 -21 -3 -60 -7 -86 l-6 -47 -38 6 c-21 3
-39 2 -41 -4 -2 -6 -120 3 -318 24 -173 18 -308 36 -300 38 8 3 85 16 170 28
85 13 229 35 320 51 226 38 220 38 220 -10z m6821 24 l77 -7 7 -63 c4 -42 2
-71 -5 -85 l-12 -22 -30 28 c-68 66 -152 167 -133 161 11 -3 54 -8 96 -12z
m-6078 -10 c4 -8 2 -17 -2 -20 -5 -2 -11 4 -14 15 -6 23 8 27 16 5z m-112 -5
c20 -11 26 -45 9 -55 -16 -10 -12 -23 11 -30 16 -5 19 -12 15 -31 -5 -19 -2
-25 19 -30 22 -6 25 -10 20 -34 -6 -26 -3 -29 22 -32 23 -2 29 -8 31 -34 3
-27 6 -30 28 -26 21 4 24 1 24 -23 0 -21 4 -26 23 -25 40 4 47 0 47 -25 0 -28
3 -29 31 -15 16 9 21 7 28 -12 5 -13 7 -25 5 -27 -5 -6 -416 -9 -426 -4 -4 2
-5 10 -2 18 4 10 14 13 31 8 23 -5 25 -3 21 19 -3 14 1 33 8 43 10 13 10 21 1
36 -10 16 -9 21 3 29 12 8 13 13 2 30 -7 12 -8 20 -2 20 5 0 10 9 10 20 0 14
-7 20 -21 20 -15 0 -19 4 -15 16 3 9 6 20 6 25 0 5 12 9 26 9 23 0 25 3 20 25
-4 14 -2 25 4 25 5 0 10 9 10 20 0 11 -4 20 -10 20 -5 0 -10 7 -10 15 0 18 5
18 31 5z m6994 -69 c292 -31 461 -53 463 -60 2 -6 19 -11 39 -11 34 0 34 -1
28 -32 -3 -18 -20 -84 -37 -146 -28 -105 -32 -112 -52 -106 -11 4 -34 10 -51
14 -28 7 -924 387 -935 397 -3 3 15 2 40 -2 25 -3 252 -28 505 -54z m-6165 39
c0 -5 -8 -14 -19 -19 -14 -8 -23 -6 -36 9 -18 20 -17 20 18 20 21 0 37 -4 37
-10z m6072 -201 c302 -130 467 -206 465 -214 -3 -6 10 -17 29 -24 19 -7 34
-17 34 -22 0 -12 -104 -218 -123 -243 -14 -19 -16 -19 -40 -3 -13 9 -33 15
-43 15 -16 -1 -298 158 -762 429 l-94 55 22 24 c21 22 22 29 16 110 -7 78 -6
86 9 80 9 -3 228 -97 487 -207z m-1396 71 c-18 -25 -36 -45 -41 -45 -5 0 -13
15 -17 33 -7 27 -4 44 17 90 l27 57 23 -45 23 -45 -32 -45z m508 26 c14 -44
23 -82 20 -85 -11 -11 -52 51 -58 88 -9 53 -7 97 3 86 4 -6 20 -46 35 -89z
m-5874 80 c0 -11 -19 -15 -25 -6 -3 5 1 10 9 10 9 0 16 -2 16 -4z m430 -12
c22 -9 40 -21 40 -27 0 -5 -16 -38 -37 -73 -47 -81 -74 -89 -108 -30 -13 22
-31 59 -40 80 -16 38 -16 41 1 53 24 18 95 16 144 -3z m340 6 c0 -5 -5 -10
-11 -10 -5 0 -7 5 -4 10 3 6 8 10 11 10 2 0 4 -4 4 -10z m5252 -85 l67 -39
-36 -24 c-20 -14 -55 -27 -78 -30 l-42 -4 -23 63 c-12 35 -26 77 -30 92 l-9
28 42 -24 c23 -13 72 -41 109 -62z m-424 -39 c-29 -52 -54 -94 -55 -92 -2 1 5
38 14 80 15 71 20 80 53 101 19 12 36 19 38 14 2 -4 -20 -51 -50 -103z m-5433
84 c0 -22 -39 -19 -43 3 -3 15 1 18 20 15 12 -2 23 -10 23 -18z m-2934 -35
c18 12 9 -7 -27 -53 l-37 -47 5 47 c3 26 14 60 24 75 l19 28 3 -28 c2 -15 8
-25 13 -22z m-126 -40 l0 -70 -40 0 -40 0 2 48 c2 59 26 99 56 95 20 -3 22 -9
22 -73z m1694 39 c185 -19 338 -39 339 -45 2 -5 19 -9 38 -9 19 0 34 -3 34 -7
-1 -36 -70 -283 -79 -283 -47 4 -870 345 -871 362 0 8 50 14 139 16 35 1 215
-14 400 -34z m6169 -10 c-19 -29 -85 -71 -368 -235 -190 -109 -349 -197 -355
-195 -5 2 -24 -5 -41 -15 l-31 -19 -27 58 c-36 82 -76 190 -76 207 0 8 12 18
28 21 15 4 32 11 39 16 10 8 807 195 841 197 8 1 4 -12 -10 -35z m-4353 16
c-3 -5 -15 -10 -26 -10 -10 0 -19 5 -19 10 0 6 12 10 26 10 14 0 23 -4 19 -10z
m4636 -22 c-5 -24 -13 -34 -29 -36 -28 -4 -28 15 0 45 29 31 37 29 29 -9z
m194 22 c-3 -5 -20 -19 -38 -32 l-32 -23 23 33 c13 17 30 32 38 32 8 0 13 -4
9 -10z m248 -119 c15 -71 27 -134 27 -141 0 -20 -62 0 -97 30 -17 16 -41 31
-52 35 -20 6 -19 11 31 106 29 54 56 99 59 99 3 0 18 -58 32 -129z m-8768 106
c-30 -20 -152 -87 -159 -87 -3 0 -6 13 -6 29 0 28 3 29 83 49 102 25 106 25
82 9z m1710 -164 c274 -117 414 -182 411 -190 -3 -7 9 -17 29 -25 19 -6 35
-15 35 -18 0 -13 -60 -40 -88 -40 -17 0 -34 -4 -37 -10 -3 -5 -21 -10 -39 -10
-19 0 -46 -6 -61 -14 -15 -8 -33 -12 -40 -9 -7 2 -28 -3 -45 -12 -17 -9 -39
-14 -47 -11 -8 3 -24 0 -35 -8 -18 -13 -41 -2 -281 137 -365 209 -337 190
-337 237 0 22 9 54 20 72 11 18 20 43 20 56 0 49 57 31 495 -155z m6911 160
c-3 -10 -10 -47 -17 -83 -17 -94 -22 -100 -75 -100 -39 0 -51 5 -80 34 -19 19
-34 40 -34 48 1 21 125 109 138 96 7 -7 17 -5 33 6 30 21 42 20 35 -1z m-5487
-7 c19 -23 -4 -28 -24 -6 -15 17 -16 20 -3 20 9 0 21 -6 27 -14z m-3102 -55
c-2 -70 13 -92 74 -110 36 -11 39 -14 24 -25 -23 -17 -129 -3 -194 24 -46 20
-90 55 -80 64 4 4 172 105 176 106 0 0 0 -27 0 -59z m282 3 c-35 -37 -44 -29
-12 12 15 20 29 31 31 24 2 -6 -6 -22 -19 -36z m8474 31 c4 -8 2 -17 -3 -20
-6 -4 -10 3 -10 14 0 25 6 27 13 6z m-8975 -41 l-3 -37 -320 -185 c-176 -101
-335 -188 -353 -192 -18 -5 -39 -14 -48 -21 -21 -17 -27 -8 -73 107 -48 118
-59 164 -41 164 6 0 26 7 43 15 30 14 740 181 780 184 15 1 18 -5 15 -35z
m3369 0 c-9 -9 -28 6 -21 18 4 6 10 6 17 -1 6 -6 8 -13 4 -17z m553 16 c0 -5
-5 -10 -11 -10 -5 0 -7 5 -4 10 3 6 8 10 11 10 2 0 4 -4 4 -10z m835 -38 c-7
-7 -45 29 -45 41 0 6 11 0 25 -13 14 -13 23 -26 20 -28z m-4196 -64 c1 -25 -3
-28 -29 -28 -20 0 -40 9 -57 26 l-27 27 45 38 44 38 12 -37 c6 -20 12 -49 12
-64z m7801 92 c0 -6 11 -16 25 -22 30 -14 33 -28 4 -28 -15 0 -19 -5 -15 -17
3 -10 8 -30 11 -45 5 -19 11 -25 23 -21 29 10 9 -5 -348 -273 -193 -144 -354
-258 -366 -259 -12 0 -31 -8 -42 -18 -12 -11 -25 -16 -30 -13 -12 7 -100 136
-136 198 l-27 46 31 18 c16 10 30 23 30 29 0 6 154 100 342 208 l342 197 21
-20 c29 -27 67 -25 95 5 25 26 40 32 40 15z m-4942 -43 c3 -16 1 -17 -17 -5
-25 16 -27 31 -4 26 10 -2 19 -11 21 -21z m452 8 c-7 -9 -15 -13 -17 -11 -7 7
7 26 19 26 6 0 6 -6 -2 -15z m6050 -268 c223 -129 404 -239 403 -245 -1 -5 11
-15 27 -22 17 -7 30 -17 30 -23 0 -11 -85 -124 -143 -191 l-34 -40 -42 35
c-35 29 -564 590 -671 713 l-35 39 30 -16 c17 -9 212 -121 435 -250z m-6450
238 c0 -17 -2 -18 -25 -9 -13 5 -14 8 -3 15 19 13 28 11 28 -6z m360 5 c0 -5
-7 -10 -16 -10 -8 0 -12 5 -9 10 3 6 10 10 16 10 5 0 9 -4 9 -10z m5945 -357
c198 -213 339 -374 338 -384 -1 -9 9 -27 22 -39 23 -22 24 -25 8 -42 -9 -11
-30 -18 -50 -18 -44 0 -131 37 -161 68 -27 28 -75 27 -80 -1 -5 -25 34 -65 63
-64 28 0 85 -39 85 -58 0 -7 2 -20 5 -28 4 -9 -10 -24 -36 -42 l-43 -28 -22
27 c-13 14 -28 26 -33 26 -6 0 -136 173 -290 385 l-280 386 20 47 c43 103 63
129 104 131 6 1 163 -164 350 -366z m-9724 323 c36 -33 117 -66 163 -66 12 0
27 -4 33 -8 17 -11 -702 -547 -734 -548 -13 -1 -33 -10 -44 -20 -21 -19 -21
-19 -51 16 -16 19 -54 75 -85 124 -57 92 -57 90 -10 117 9 5 17 15 17 22 1 9
645 391 669 396 2 1 21 -14 42 -33z m3729 14 c0 -5 -7 -10 -15 -10 -8 0 -15 5
-15 10 0 6 7 10 15 10 8 0 15 -4 15 -10z m5415 -43 c31 -55 31 -59 -2 -51 -53
13 -83 34 -83 58 0 29 7 36 36 36 17 0 30 -12 49 -43z m-5535 23 c0 -5 -9 -10
-20 -10 -11 0 -20 5 -20 10 0 6 9 10 20 10 11 0 20 -4 20 -10z m5598 -29 c4
-39 -10 -35 -34 10 -15 30 -15 30 8 27 18 -2 24 -10 26 -37z m-8495 -24 c3
-21 3 -37 -1 -35 -61 30 -82 44 -82 55 0 7 11 13 24 13 14 0 28 5 32 11 10 16
21 -1 27 -44z m7462 -348 c-158 -217 -293 -396 -301 -399 -8 -3 -23 -18 -33
-34 l-19 -29 -106 106 -106 105 37 38 c42 42 804 616 810 610 2 -2 -125 -181
-282 -397z m330 335 c24 -63 49 -84 102 -84 24 0 43 -2 43 -4 0 -2 -105 -192
-234 -422 -157 -280 -239 -418 -249 -416 -8 1 -20 -11 -27 -28 -7 -16 -17 -30
-22 -30 -17 0 -196 112 -242 151 -5 4 1 21 13 38 12 16 20 35 19 41 -3 11 562
798 573 799 4 1 14 -20 24 -45z m462 4 c-3 -7 -5 -2 -5 12 0 14 2 19 5 13 2
-7 2 -19 0 -25z m-7372 -140 c229 -132 261 -153 247 -165 -9 -7 -32 -13 -50
-13 -18 0 -43 -7 -56 -15 -12 -8 -33 -15 -47 -14 -13 0 -33 -2 -45 -6 -17 -5
-43 17 -152 134 -73 77 -132 147 -132 154 0 8 -9 26 -20 40 -20 26 -25 37 -14
37 3 0 125 -68 269 -152z m-755 124 c0 -21 -18 -42 -37 -42 -11 0 -10 6 2 30
17 33 35 40 35 12z m-579 -9 c-31 -54 -558 -766 -566 -765 -5 0 -18 -13 -28
-29 l-19 -29 -26 19 c-15 11 -64 57 -109 103 l-83 83 48 46 c53 52 767 589
783 589 6 0 6 -6 0 -17z m115 -24 c25 -58 52 -89 75 -89 10 0 19 -3 19 -7 -2
-21 -469 -838 -479 -836 -6 2 -18 -12 -27 -30 -9 -17 -18 -33 -19 -35 -4 -5
-126 68 -193 115 l-63 45 21 32 c11 18 17 36 14 39 -3 3 125 186 286 406 263
363 294 401 319 401 23 0 31 -7 47 -41z m3078 25 c5 -12 2 -15 -10 -10 -8 3
-22 6 -30 6 -9 0 -12 5 -9 10 10 16 42 12 49 -6z m-2254 -64 c-24 -15 -37 -11
-16 5 11 8 22 12 25 9 3 -3 -1 -9 -9 -14z m7410 -376 c-44 -208 -90 -424 -102
-479 -12 -55 -27 -105 -35 -111 -7 -6 -13 -22 -13 -36 0 -14 -3 -27 -6 -30
-11 -12 -274 88 -274 104 0 5 5 18 11 29 6 11 12 29 14 40 2 10 103 195 223
411 121 216 227 408 236 426 10 19 20 32 22 29 2 -2 -32 -175 -76 -383z m193
346 c31 -22 70 -43 88 -47 31 -6 31 -6 26 -57 -3 -28 -23 -239 -43 -468 -29
-319 -41 -418 -51 -418 -8 0 -13 -14 -13 -39 l0 -39 -42 4 c-65 7 -242 35
-250 40 -18 11 6 178 66 459 37 171 81 376 98 458 25 117 35 147 48 147 9 0
42 -18 73 -40z m473 -210 c222 -651 229 -673 217 -677 -10 -4 -9 -13 2 -40 9
-20 14 -37 12 -39 -9 -9 -254 -74 -271 -72 -12 2 -23 14 -27 32 -5 16 -13 32
-18 35 -6 4 -40 146 -76 316 -36 171 -82 386 -102 479 l-35 168 28 24 c26 21
38 23 108 21 l78 -2 84 -245z m237 -134 c152 -211 277 -391 277 -399 0 -8 9
-25 19 -39 l20 -25 -62 -35 c-74 -43 -154 -83 -183 -92 -18 -6 -25 1 -48 46
-14 29 -59 152 -100 273 -41 121 -106 314 -145 429 -73 213 -76 226 -63 226 4
-1 132 -173 285 -384z m-8044 238 c68 -74 122 -136 120 -137 -39 -22 -53 -27
-75 -27 -14 0 -35 -5 -47 -12 -12 -6 -36 -11 -54 -10 -18 1 -35 -3 -38 -8 -3
-6 -23 -10 -44 -10 -35 0 -41 4 -89 72 -38 54 -50 78 -46 95 5 18 1 25 -20 33
-18 7 -26 17 -26 34 0 13 -6 27 -12 29 -8 3 -6 6 5 6 10 1 28 8 40 16 13 8 32
16 44 18 11 1 31 10 44 19 49 35 66 25 198 -118z m-500 116 c-9 -5 -47 -39
-85 -75 -63 -60 -69 -64 -76 -44 -7 17 0 29 38 63 59 52 83 65 114 65 20 0 22
-1 9 -9z m-343 -20 c15 -6 42 -24 60 -39 17 -16 38 -31 44 -33 18 -6 -68 -958
-87 -958 -9 0 -13 -14 -13 -41 l0 -42 -62 7 c-35 4 -102 14 -150 22 l-86 16 0
56 c0 32 15 129 34 217 88 425 166 781 172 787 6 5 30 13 54 17 4 0 19 -4 34
-9z m-216 -483 c-55 -257 -100 -473 -100 -481 0 -7 -7 -16 -15 -20 -8 -3 -15
-16 -15 -30 0 -14 -4 -27 -9 -30 -10 -7 -91 20 -203 66 l-77 31 15 28 c8 15
14 33 14 39 0 6 97 186 216 398 265 475 265 474 270 470 2 -3 -41 -214 -96
-471z m8650 -2 c96 -451 110 -549 82 -560 -9 -3 -76 -9 -148 -12 l-132 -6 0
54 c0 66 77 958 85 979 10 27 20 -15 113 -455z m-8278 341 c-7 -18 -12 -47
-12 -65 0 -26 3 -31 18 -27 14 5 21 -5 34 -52 33 -113 150 -688 153 -748 l2
-62 -51 -6 c-28 -3 -94 -6 -147 -6 l-97 0 0 53 c0 64 77 956 85 977 4 12 8 10
16 -8 8 -17 7 -32 -1 -56z m1508 27 c0 -12 -80 -156 -95 -171 -10 -12 -18 -11
-44 3 -17 8 -36 13 -41 10 -6 -4 -116 52 -139 71 -13 11 21 21 139 41 19 3 45
12 57 20 12 8 31 12 42 8 12 -4 30 0 43 9 24 17 38 20 38 9z m-280 -134 c49
-28 87 -55 85 -60 -3 -4 10 -16 29 -26 l35 -18 -53 -70 c-29 -38 -71 -90 -94
-115 l-40 -45 -24 21 c-12 12 -28 23 -34 25 -11 4 -237 244 -242 258 -3 10 59
31 91 31 14 0 29 5 32 10 3 6 23 10 43 10 20 0 46 7 56 15 11 8 21 15 23 15 2
0 44 -23 93 -51z m-757 -28 l18 -31 -29 0 c-16 0 -43 -3 -60 -6 -29 -6 -30 -6
-23 27 5 25 13 35 29 37 12 2 22 8 22 14 0 16 22 -5 43 -41z m510 -137 c69
-74 124 -141 121 -148 -2 -6 7 -23 21 -36 23 -22 24 -25 8 -42 -23 -26 -87
-23 -150 7 -29 13 -53 28 -53 33 0 14 -51 33 -71 27 -11 -4 -19 -14 -19 -24 0
-21 39 -59 61 -58 23 0 89 -42 89 -58 0 -7 3 -20 6 -28 3 -9 -10 -26 -37 -45
l-41 -31 -25 30 c-14 16 -30 29 -36 30 -12 0 -295 386 -297 404 0 6 19 13 42
17 76 12 132 25 159 36 15 6 29 8 32 5 3 -2 14 0 24 6 10 6 23 11 29 11 7 0
68 -61 137 -136z m-768 26 c14 0 28 7 31 15 9 22 40 28 77 14 33 -12 35 -15
122 -273 49 -143 90 -279 90 -301 1 -22 5 -48 9 -57 6 -14 -6 -21 -76 -42
-107 -33 -205 -55 -212 -48 -3 3 -6 16 -6 28 0 12 -7 29 -15 38 -9 9 -43 146
-85 343 -39 180 -73 336 -76 347 -5 14 9 8 54 -23 34 -23 73 -41 87 -41z m311
32 c22 -15 304 -413 304 -429 0 -9 9 -27 21 -39 l21 -22 -69 -40 c-37 -22 -97
-53 -133 -69 l-66 -30 -27 56 c-26 54 -197 543 -197 563 0 6 13 8 33 4 17 -3
39 -1 47 4 18 11 51 13 66 2z"/>
<path d="M7480 6731 c0 -11 26 -22 34 -14 12 12 5 23 -14 23 -11 0 -20 -4 -20
-9z"/>
</g>
</svg>
