<?xml version="1.0" standalone="no"?>
<!DOCTYPE svg PUBLIC "-//W3C//DTD SVG 20010904//EN"
 "http://www.w3.org/TR/2001/REC-SVG-20010904/DTD/svg10.dtd">
<svg version="1.0" xmlns="http://www.w3.org/2000/svg"
 width="1280.000000pt" height="778.000000pt" viewBox="0 0 1280.000000 778.000000"
 preserveAspectRatio="xMidYMid meet">
<metadata>
Created by potrace 1.15, written by Peter Selinger 2001-2017
</metadata>
<g transform="translate(0.000000,778.000000) scale(0.100000,-0.100000)"
fill="#000000" stroke="none">
<path d="M4635 7768 c-34 -20 -170 -27 -188 -9 -7 7 -19 5 -39 -5 -20 -10 -43
-13 -76 -8 -36 4 -51 2 -60 -9 -15 -18 -5 -48 13 -41 7 3 27 -7 45 -23 l32
-28 -22 -28 c-16 -20 -18 -28 -8 -31 93 -25 97 -39 28 -94 -79 -63 -148 -86
-251 -85 l-86 1 1 -57 c1 -39 -5 -66 -17 -84 -9 -14 -17 -35 -17 -46 0 -64
-44 -56 -73 14 -15 36 -16 50 -8 82 6 21 11 55 11 76 0 21 5 47 10 58 15 26
-8 34 -54 19 -63 -21 -131 -16 -173 12 -135 89 -203 118 -203 85 0 -39 -44
-149 -84 -211 -25 -37 -51 -84 -58 -102 l-12 -34 -176 5 c-316 10 -352 12
-605 29 l-250 18 -38 29 c-51 41 -128 75 -222 99 -93 24 -134 25 -182 5 -19
-8 -44 -15 -54 -15 -11 0 -19 -6 -19 -13 0 -7 -32 -36 -70 -66 -39 -29 -103
-83 -143 -120 -39 -37 -93 -82 -119 -100 -44 -29 -48 -35 -48 -73 0 -31 -12
-60 -52 -126 -28 -47 -60 -94 -71 -105 -10 -10 -16 -21 -13 -24 3 -3 -3 -22
-14 -43 -13 -26 -28 -39 -48 -43 -15 -3 -51 -23 -80 -44 -28 -21 -59 -43 -69
-50 -16 -10 -15 -11 7 -6 14 4 40 19 59 35 26 23 36 27 42 16 13 -21 10 -55
-6 -72 -8 -8 -15 -19 -15 -24 0 -5 -13 -12 -29 -15 -22 -5 -42 -25 -85 -86
-90 -127 -143 -161 -280 -183 -69 -11 -75 -13 -70 -33 4 -16 -1 -22 -27 -30
-18 -6 -41 -22 -52 -36 -19 -26 -19 -27 1 -70 55 -124 365 -334 937 -634 72
-38 147 -82 167 -98 32 -26 45 -29 110 -31 65 -1 73 -3 76 -21 4 -35 -12 -45
-132 -81 -318 -94 -635 -257 -876 -451 -469 -376 -801 -951 -886 -1533 -16
-111 -16 -243 0 -269 12 -19 44 15 58 61 11 37 14 39 42 34 17 -2 74 -12 127
-21 l96 -17 6 -196 c13 -405 92 -734 256 -1061 183 -363 422 -632 766 -859
250 -165 545 -281 949 -373 l99 -22 -7 -141 c-3 -78 -9 -192 -13 -254 l-6
-113 114 3 113 3 42 60 c23 33 89 143 148 245 59 101 109 186 111 188 2 3 55
13 117 23 315 51 529 128 805 290 367 216 664 564 849 992 42 99 56 121 71
118 10 -1 34 -4 54 -6 20 -2 46 -8 57 -14 11 -6 32 -11 45 -11 14 0 41 -7 60
-15 20 -8 47 -15 60 -15 13 0 38 -7 55 -16 18 -8 40 -13 50 -10 10 4 27 -1 38
-9 10 -8 35 -15 54 -15 19 0 44 -7 54 -15 11 -8 36 -15 56 -15 20 0 41 -5 48
-12 11 -11 63 -23 147 -35 22 -3 49 -12 60 -19 11 -8 35 -14 55 -14 19 0 44
-7 54 -15 11 -8 32 -15 47 -15 14 0 42 -6 60 -14 19 -7 40 -11 47 -9 7 3 24
-2 37 -11 13 -9 37 -16 54 -16 16 0 42 -7 57 -15 16 -8 43 -15 61 -15 17 0 35
-4 38 -10 3 -5 23 -10 43 -10 20 -1 48 -7 62 -15 14 -8 37 -14 51 -15 14 0 40
-7 58 -16 18 -9 42 -14 54 -11 12 3 31 -1 41 -9 11 -8 31 -14 44 -14 13 0 47
-7 76 -16 94 -30 112 -34 140 -34 15 0 37 -5 49 -12 12 -6 41 -15 65 -20 94
-18 128 -26 159 -38 18 -6 38 -10 45 -7 7 2 26 -2 42 -10 16 -8 41 -13 56 -10
15 3 32 1 38 -5 7 -7 38 -15 69 -20 32 -4 76 -12 98 -17 22 -6 53 -13 68 -17
18 -4 34 -1 45 8 12 10 45 16 107 17 49 1 95 7 102 13 7 6 26 8 41 5 16 -3 41
0 56 9 16 8 44 14 62 14 19 0 42 4 52 9 9 6 33 13 53 16 21 3 42 12 49 20 7 8
23 15 35 15 13 0 36 11 52 24 16 14 42 28 57 32 15 3 34 17 43 30 8 13 22 24
29 24 8 0 32 16 54 36 22 20 42 35 43 33 2 -2 13 -40 25 -84 29 -104 113 -273
199 -405 260 -396 654 -739 1038 -903 540 -231 1173 -254 1730 -65 499 170
936 517 1216 969 74 119 190 363 239 504 70 203 118 553 107 784 -31 641 -357
1254 -871 1641 -203 152 -459 289 -703 376 -73 26 -133 52 -133 58 1 6 14 67
29 135 20 84 35 129 47 138 24 17 64 16 130 -3 67 -19 86 -14 82 23 -3 25 -10
29 -173 75 -178 51 -236 81 -243 127 -3 18 1 21 36 21 22 0 82 -11 134 -25 83
-21 103 -23 164 -14 38 5 83 14 99 19 17 5 78 11 137 14 116 6 169 24 205 69
10 13 30 27 45 30 42 11 58 34 58 82 0 33 -5 47 -19 54 -17 9 -18 14 -7 46 7
19 24 48 38 63 35 37 42 65 24 99 -12 24 -12 31 0 48 8 10 14 26 14 34 0 9 14
28 32 42 33 27 39 53 39 167 0 24 5 32 19 32 10 0 28 12 40 28 17 21 21 36 17
66 -4 25 0 47 9 62 12 18 13 27 4 44 -10 18 -8 24 14 41 28 22 33 48 15 81 -9
16 -7 24 10 39 12 11 21 29 21 39 0 11 4 20 9 20 5 0 18 15 29 33 16 26 19 48
18 119 -1 73 1 90 16 103 10 8 18 26 18 40 0 22 4 25 34 25 32 0 66 20 66 39
0 5 -11 29 -25 55 -19 36 -23 52 -15 66 17 32 11 70 -15 94 -23 21 -81 41
-178 61 -23 5 -26 8 -17 25 5 10 10 27 10 38 0 24 34 55 90 80 38 17 42 21 25
27 -47 16 -64 29 -101 77 -21 27 -71 71 -109 98 -39 26 -80 58 -92 71 -11 13
-42 47 -67 74 l-47 50 7 -37 c5 -31 3 -37 -16 -43 -17 -5 -20 -12 -16 -31 5
-18 -1 -34 -18 -57 -23 -29 -31 -32 -83 -33 -119 -2 -115 -1 -102 -26 6 -13
24 -36 39 -53 35 -38 45 -100 25 -149 -14 -33 -18 -35 -48 -30 -53 9 -57 12
-57 43 0 16 -5 42 -11 58 l-12 28 -14 -48 c-16 -54 -26 -53 -64 9 -18 30 -147
119 -158 108 -4 -3 15 -111 26 -148 4 -16 1 -18 -18 -13 -13 3 -28 2 -33 -2
-6 -5 -42 -4 -81 1 -97 13 -118 15 -211 24 -80 7 -82 7 -155 66 -41 32 -84 61
-97 64 -25 7 -52 -11 -52 -33 0 -10 -6 -13 -17 -8 -207 81 -296 69 -326 -43
l-11 -43 -51 6 c-120 13 -215 6 -342 -29 -36 -10 -65 -11 -98 -5 -83 16 -145
-9 -185 -74 -19 -30 -89 -72 -101 -59 -10 9 -129 361 -129 379 0 24 -61 157
-78 170 -34 27 -149 50 -387 78 -190 22 -231 32 -248 59 -54 82 -200 41 -214
-60 -12 -90 100 -224 187 -224 11 0 38 16 60 36 l40 36 192 -16 c260 -22 266
-23 274 -49 3 -12 17 -39 32 -60 33 -49 132 -328 132 -373 0 -41 -10 -46 -150
-75 -512 -105 -1087 -376 -1532 -722 -349 -271 -693 -642 -923 -994 -37 -57
-68 -59 -82 -5 -9 33 -313 969 -473 1454 l-58 177 27 6 c25 5 345 53 636 95
215 32 430 68 540 93 l100 22 -2 35 c-1 19 -5 73 -10 119 -8 83 -8 84 -44 103
-53 27 -206 35 -284 13 -33 -9 -127 -20 -210 -26 -82 -5 -187 -16 -231 -24
-45 -8 -117 -15 -160 -15 -44 0 -135 -7 -204 -15 -235 -27 -365 -45 -405 -55
-22 -5 -92 -12 -155 -16 -95 -5 -145 -14 -285 -54 -93 -26 -183 -50 -199 -54
l-29 -7 6 45 c5 35 2 49 -14 70 l-21 26 26 31 c51 60 43 109 -22 136 -22 9
-80 17 -142 20 -58 3 -111 6 -118 9 -9 3 -4 16 17 47 37 54 64 72 121 82 28 5
54 18 73 36 16 16 38 29 50 30 15 0 17 2 7 6 -8 4 -32 19 -54 35 -21 15 -44
28 -51 28 -7 0 -23 9 -36 21 -15 13 -31 18 -46 15 -12 -4 -25 -1 -28 4 -4 6
-37 9 -81 7 -41 -2 -77 0 -80 5 -3 4 -12 8 -20 8 -17 0 -44 23 -44 37 0 28
137 116 195 125 41 7 19 34 -61 73 -45 22 -89 48 -99 57 -12 14 -21 16 -36 8
-13 -7 -25 -7 -38 0 -25 13 -51 12 -76 -2z m-2565 -419 c64 -17 159 -64 148
-74 -1 -1 -25 1 -53 5 -27 5 -113 9 -190 10 -77 0 -147 4 -155 10 -15 9 -16 9
35 25 8 2 15 13 15 24 0 11 6 22 13 25 19 8 104 -3 187 -25z m8471 -346 c112
-58 106 -63 -75 -63 -102 0 -156 4 -156 10 0 23 32 72 53 80 48 19 103 11 178
-27z m177 -15 c23 -18 41 -37 41 -41 1 -4 -20 -7 -46 -5 -48 3 -48 3 -51 41
-2 20 1 37 6 37 6 0 28 -15 50 -32z m-9240 -27 c11 -6 8 -16 -12 -46 -18 -25
-24 -45 -20 -59 9 -29 24 -46 40 -46 10 0 12 -11 7 -46 -5 -37 -2 -50 16 -74
17 -24 20 -38 15 -70 -6 -37 -4 -43 30 -74 27 -26 36 -43 36 -68 0 -18 9 -46
20 -63 16 -24 19 -40 14 -76 -4 -32 -1 -55 10 -77 9 -17 16 -47 16 -68 0 -28
8 -44 34 -70 25 -25 34 -43 34 -65 -1 -19 8 -39 25 -57 15 -16 27 -39 27 -53
0 -13 7 -37 16 -54 9 -16 16 -43 15 -58 -1 -15 3 -36 9 -47 6 -11 9 -20 7 -20
-2 0 -89 42 -193 93 -104 52 -217 106 -251 122 -54 24 -60 29 -48 42 12 11 22
12 56 3 23 -6 47 -9 55 -6 21 8 17 44 -7 57 -34 18 -109 90 -124 118 -12 24
-45 169 -45 195 0 6 16 -16 35 -49 34 -58 45 -63 25 -11 -14 39 -5 31 25 -19
27 -48 102 -113 166 -146 21 -10 42 -19 46 -19 4 0 -37 42 -92 94 l-100 94 55
-18 c88 -30 82 -13 -19 54 -38 25 -75 53 -82 62 -9 11 -14 47 -15 103 -1 47
-5 101 -9 119 -5 23 -2 39 10 58 23 36 34 21 42 -61 5 -53 12 -74 29 -92 46
-46 58 -23 20 41 -13 23 -32 72 -41 109 l-17 68 46 95 c45 94 60 107 94 85z
m8275 -142 c12 -6 32 -21 44 -32 l22 -20 -24 -29 c-37 -44 -29 -95 16 -110 9
-3 9 -9 0 -25 -15 -29 -14 -68 3 -82 11 -9 12 -18 3 -41 -9 -24 -8 -32 7 -49
14 -15 15 -24 7 -40 -17 -32 -13 -59 12 -72 12 -6 23 -12 24 -13 1 -1 -4 -20
-11 -41 -12 -34 -12 -44 1 -69 11 -20 12 -31 4 -39 -17 -17 -13 -42 9 -62 15
-13 17 -22 10 -36 -16 -28 -12 -45 16 -78 35 -42 39 -99 7 -114 -30 -13 -30
-55 -1 -92 22 -28 34 -120 16 -131 -12 -8 -9 -24 5 -24 6 -1 21 -20 32 -44 16
-32 18 -48 11 -69 -8 -21 -6 -34 6 -55 14 -24 14 -30 2 -46 -20 -28 -17 -59 8
-86 12 -13 24 -33 25 -44 2 -11 11 -28 19 -37 12 -13 14 -28 9 -58 -6 -38 -5
-41 33 -65 22 -14 43 -30 47 -36 4 -6 25 -10 48 -9 50 2 73 -7 116 -43 l32
-28 -21 -30 c-24 -34 -19 -32 -192 -54 -70 -9 -134 -19 -142 -22 -11 -4 -16 4
-20 28 -3 18 -17 110 -31 203 -36 240 -92 512 -115 560 -25 51 -270 906 -270
941 0 19 5 25 18 22 13 -2 18 -15 20 -51 l3 -48 37 3 37 3 3 55 c3 52 5 56 39
75 20 11 45 32 57 47 19 27 19 29 3 63 -18 38 -17 41 16 24z m-359 -241 c21
-33 148 -465 144 -491 -2 -16 -27 -35 -93 -70 -608 -326 -1095 -782 -1467
-1374 -146 -233 -317 -600 -393 -846 -27 -86 -29 -88 -54 -81 -55 14 -263 25
-281 14 -7 -5 -25 -4 -38 1 -17 6 -36 6 -55 -1 -16 -5 -47 -7 -68 -4 l-39 7
-165 502 c-91 276 -165 508 -165 516 0 43 214 335 393 534 264 296 562 557
872 765 409 273 783 434 1220 526 144 30 171 30 189 2z m-3236 -492 c85 -261
155 -482 155 -491 2 -14 -34 -28 -203 -76 -113 -33 -211 -57 -219 -54 -7 3
-77 -15 -156 -40 -201 -64 -279 -78 -397 -71 -94 6 -548 50 -635 61 -49 7 -58
25 -14 25 37 0 45 21 36 93 -6 48 -4 54 20 77 40 37 47 55 33 85 -10 22 -8 28
10 48 13 14 22 36 22 54 0 22 10 41 35 66 38 38 43 65 19 102 -15 23 -15 26 5
51 12 15 21 33 21 41 0 7 15 23 33 33 39 23 57 57 57 106 0 21 8 43 20 57 15
16 20 34 20 67 -1 25 4 63 10 85 6 22 14 50 17 63 3 12 15 24 27 27 11 2 125
6 251 9 158 4 288 13 415 30 102 13 203 24 225 25 l40 1 153 -474z m-4900 421
c7 -8 7 -18 1 -27 -8 -13 -10 -13 -19 0 -21 32 -5 55 18 27z m-353 -434 c221
-69 279 -90 385 -138 127 -57 239 -114 227 -115 -4 0 -56 15 -115 34 -221 71
-270 78 -303 45 -17 -17 -20 -29 -16 -60 3 -22 3 -39 0 -39 -8 0 -185 121
-265 181 -69 53 -118 104 -118 124 0 13 123 -6 205 -32z m8705 -200 c64 -179
146 -539 189 -839 25 -172 25 -174 3 -174 -72 0 -314 -86 -517 -185 -462 -224
-826 -569 -1124 -1067 -55 -92 -65 -97 -100 -54 -7 8 -30 17 -51 21 -21 4 -44
13 -50 21 -7 7 -28 16 -49 20 -20 4 -45 13 -56 20 -11 8 -35 14 -55 14 -19 0
-44 7 -54 15 -11 8 -35 15 -53 15 -18 0 -33 2 -33 4 0 3 19 58 41 123 275 781
804 1465 1505 1943 131 89 338 210 360 210 7 0 26 -39 44 -87z m-8265 -78 c82
-29 244 -100 462 -200 48 -22 83 -45 86 -55 3 -10 22 -27 43 -38 33 -17 36
-22 21 -27 -23 -10 -153 11 -225 36 -115 40 -484 245 -534 297 l-33 34 45 -7
c25 -4 86 -22 135 -40z m5316 -1232 c152 -456 273 -832 268 -837 -7 -7 -60
-14 -134 -17 -88 -3 -394 -32 -412 -39 -26 -11 -33 8 -33 95 0 76 -24 126 -65
138 -16 4 -92 6 -167 2 -118 -4 -138 -3 -138 9 0 32 -89 96 -133 96 -32 0
-117 -72 -117 -100 0 -15 -15 -18 -115 -22 -146 -7 -155 -13 -154 -107 0 -36
3 -97 8 -134 4 -38 3 -71 -2 -74 -9 -6 -129 -24 -162 -25 -11 0 -35 -5 -54
-10 -19 -6 -53 -12 -75 -14 -23 -2 -66 -6 -97 -10 l-57 -6 -22 69 c-61 183
-173 409 -291 584 l-59 88 57 40 c1192 817 1621 1101 1662 1101 13 0 77 -182
292 -827z m-631 773 c-8 -8 -154 -105 -325 -217 -170 -111 -498 -325 -728
-476 -229 -150 -421 -273 -425 -273 -5 0 -24 19 -42 43 -255 321 -650 595
-1090 756 -169 62 -168 61 -35 56 66 -3 331 -15 589 -26 l470 -20 30 -35 c25
-29 40 -37 77 -41 41 -5 50 -2 82 27 41 36 59 34 79 -7 18 -38 47 -36 73 4 19
30 23 31 60 25 22 -4 157 -7 300 -7 260 1 260 1 375 32 63 17 203 63 310 101
210 76 222 79 200 58z m-3302 -72 c2 -1 1 -57 -3 -124 l-8 -121 -31 3 -31 3
-3 128 -3 128 38 -7 c21 -4 40 -8 41 -10z m-164 -61 c4 -38 9 -92 11 -120 6
-62 14 -59 -148 -68 -139 -7 -317 -38 -471 -80 -654 -179 -1159 -630 -1430
-1278 -53 -126 -127 -350 -151 -459 l-17 -78 -71 5 c-40 3 -100 8 -135 11
l-62 6 0 38 c0 107 74 395 152 593 281 716 818 1186 1587 1391 l93 25 33 -25
c78 -59 133 -49 178 34 l27 50 68 7 c37 3 76 7 87 9 11 2 70 4 132 5 l111 1 6
-67z m536 -3 c345 -76 740 -270 1035 -507 99 -79 288 -268 333 -330 l23 -33
-81 -53 -82 -53 -126 126 c-201 200 -378 326 -617 441 -220 105 -461 180 -688
212 -54 8 -100 17 -103 19 -4 5 13 190 21 214 4 13 140 -4 285 -36z m7448
-196 c23 -8 49 -14 57 -14 25 0 17 -17 -12 -28 -35 -13 -253 -26 -253 -15 0 4
9 22 19 40 28 45 87 50 189 17z m-7975 -336 c1 -128 1 -271 1 -318 -2 -78 -82
-820 -90 -829 -2 -2 -6 -2 -7 0 -14 16 -648 1241 -645 1245 13 12 258 85 348
103 139 27 147 28 278 30 l112 1 3 -232z m447 186 c150 -28 417 -121 458 -158
10 -10 -21 -110 -154 -502 -91 -269 -191 -563 -221 -654 -31 -91 -60 -171 -65
-177 -13 -16 -338 -226 -343 -221 -2 2 0 76 6 163 11 187 89 1555 89 1568 0
11 125 1 230 -19z m-320 -124 c-5 -74 -14 -247 -20 -385 -7 -137 -17 -259 -21
-270 -4 -11 -8 112 -8 274 -1 227 3 315 15 390 15 85 30 139 38 129 2 -1 0
-64 -4 -138z m7929 134 c28 -6 31 -10 31 -44 0 -24 5 -40 15 -44 8 -3 15 -15
15 -26 0 -63 63 -107 131 -93 35 7 69 46 69 79 0 13 9 28 21 35 14 7 19 17 16
30 -7 26 13 33 60 22 29 -7 43 -18 60 -48 26 -46 29 -80 9 -92 -7 -4 -28 -52
-47 -106 l-33 -99 -30 7 c-211 43 -275 49 -506 50 -148 0 -271 -5 -333 -14
-54 -7 -99 -12 -101 -10 -8 8 -57 293 -52 304 3 10 121 31 271 48 54 7 372 7
404 1z m-780 -216 c12 -79 23 -151 24 -161 2 -16 -14 -23 -90 -43 -426 -110
-913 -441 -1210 -821 -58 -74 -184 -271 -195 -304 -7 -21 -46 1 -57 31 -6 19
-19 32 -36 36 -14 3 -32 19 -40 34 -9 18 -26 31 -45 35 -50 11 -48 41 9 141
272 482 757 914 1222 1087 101 38 338 105 375 106 20 1 23 -9 43 -141z m-8031
20 c22 -40 178 -333 346 -651 245 -462 306 -585 306 -615 0 -20 -9 -95 -20
-167 -11 -71 -20 -135 -20 -142 0 -7 -87 18 -222 63 l-223 74 -413 568 -414
567 54 48 c67 61 267 196 362 244 83 42 176 82 193 83 6 0 29 -33 51 -72z
m1972 -143 c52 -35 131 -93 176 -129 83 -67 244 -230 244 -247 0 -5 -98 -74
-217 -153 -120 -78 -368 -242 -550 -364 -183 -122 -333 -219 -333 -215 0 4 81
239 179 523 99 283 196 563 216 623 l38 107 76 -41 c42 -22 119 -69 171 -104z
m6675 -135 c17 -19 17 -27 1 -197 -9 -98 -21 -216 -26 -263 -5 -47 -26 -254
-45 -460 -20 -206 -39 -390 -43 -409 l-7 -34 -53 79 c-33 50 -62 109 -78 159
-20 66 -198 1094 -191 1102 6 5 146 24 237 32 162 14 185 13 205 -9z m383 -19
c45 -10 85 -20 88 -23 3 -4 -33 -145 -80 -315 -178 -646 -347 -1247 -351
-1252 -6 -6 -4 -9 -63 89 l-51 85 44 460 c24 253 54 566 66 695 21 225 23 236
48 264 l26 28 95 -6 c52 -4 132 -15 178 -25z m-953 -73 c13 -72 102 -713 99
-717 -4 -4 -424 628 -424 639 0 14 258 106 307 109 7 1 15 -14 18 -31z m1299
-24 c55 -18 105 -39 112 -46 11 -11 11 -24 -1 -76 -14 -59 -393 -1324 -398
-1327 -1 -1 -40 -29 -87 -62 -137 -97 -210 -144 -210 -137 0 4 27 111 59 238
33 127 89 346 125 486 96 374 203 793 227 887 25 96 8 92 173 37z m-9722 -414
c357 -489 422 -580 416 -585 -2 -2 -267 92 -588 209 l-584 212 -7 34 c-6 27
-1 47 23 94 63 126 185 296 296 414 53 57 63 63 93 60 32 -3 50 -25 351 -438z
m3199 232 c82 -124 203 -367 249 -497 l31 -90 -22 -18 c-15 -12 -31 -16 -50
-12 -17 4 -40 0 -58 -9 -16 -9 -36 -14 -43 -11 -7 3 -26 42 -42 88 -43 120
-144 316 -230 445 -42 62 -76 115 -76 117 0 9 154 104 162 99 4 -3 40 -53 79
-112z m6827 53 c193 -99 410 -254 542 -389 47 -49 52 -58 40 -70 -22 -22
-1104 -815 -1107 -812 -4 3 367 1249 388 1302 4 13 13 24 20 24 6 0 59 -25
117 -55z m-1982 38 c19 -7 483 -703 495 -742 4 -15 17 -77 29 -140 32 -174
107 -394 209 -615 23 -49 40 -90 39 -91 -8 -6 -448 122 -464 135 -10 8 -220
237 -467 509 -426 468 -449 495 -443 524 8 39 28 61 151 160 119 96 208 155
330 219 98 52 96 51 121 41z m-5096 -297 c92 -138 210 -380 210 -430 0 -17
-21 -26 -85 -38 -27 -5 -75 -13 -105 -19 -30 -5 -73 -12 -95 -15 -22 -3 -49
-9 -60 -14 -11 -5 -38 -11 -60 -14 -88 -11 -157 -25 -168 -34 -7 -6 -29 -10
-50 -10 -21 0 -44 -5 -52 -12 -8 -7 -24 -10 -36 -7 -12 3 -33 1 -48 -5 -28
-12 -99 -26 -171 -35 -25 -3 -49 -9 -54 -14 -6 -5 -28 -9 -50 -9 -23 -1 -52
-7 -65 -14 -13 -7 -32 -11 -41 -9 -9 3 -34 -3 -55 -11 -20 -9 -52 -16 -69 -16
-18 0 -36 -4 -41 -9 -6 -5 -30 -11 -55 -14 -80 -10 -145 -23 -159 -31 -15 -10
-125 -16 -116 -7 4 3 302 209 663 458 l657 452 23 -27 c13 -15 50 -67 82 -116z
m-1852 -418 l-3 -113 -24 40 -24 40 17 145 c27 228 31 240 34 113 1 -62 1
-164 0 -225z m3724 280 c9 -7 18 -26 21 -41 4 -24 0 -30 -22 -39 -14 -6 -46
-12 -71 -13 -25 -2 -72 -5 -105 -9 -33 -3 -78 -7 -100 -9 -22 -3 -50 -8 -62
-12 -21 -7 -23 -4 -23 26 0 19 -3 51 -6 72 l-7 37 180 0 c128 0 184 -4 195
-12z m-488 -30 c14 -92 14 -96 -13 -104 -40 -10 -152 -25 -189 -24 -18 0 -42
-5 -53 -11 -12 -6 -23 -8 -26 -5 -11 10 -31 141 -23 150 8 8 145 21 252 25 46
1 47 0 52 -31z m3472 -457 c482 -536 473 -527 453 -519 -15 6 -687 196 -1047
297 -132 37 -147 43 -177 78 -19 21 -34 49 -34 63 -1 49 164 318 284 463 91
110 54 137 521 -382z m-2016 410 c0 -13 -164 -39 -172 -27 -4 6 2 15 12 21 22
12 160 17 160 6z m-6004 -217 c330 -119 618 -223 640 -231 23 -7 50 -24 61
-36 44 -48 193 -262 185 -265 -11 -3 -1653 186 -1659 192 -5 5 43 219 73 325
23 79 87 231 97 231 3 0 274 -97 603 -216z m5704 186 c21 -33 9 -47 -77 -90
-177 -90 -366 -250 -455 -386 l-43 -65 -7 58 c-3 32 -8 148 -10 258 l-3 200
45 2 c46 1 117 7 218 17 31 3 76 6 100 6 24 0 49 3 57 7 8 5 48 8 90 8 56 0
78 -4 85 -15z m5242 -67 c63 -79 137 -188 196 -289 46 -79 122 -247 122 -269
0 -8 -24 -24 -52 -36 -80 -34 -303 -150 -708 -369 -201 -109 -391 -211 -423
-227 l-58 -29 -216 36 c-119 19 -218 40 -220 45 -1 6 21 89 50 185 l52 175
575 422 c408 300 583 422 601 423 21 0 38 -14 81 -67z m-5882 18 c0 -3 7 -73
15 -156 19 -197 19 -261 0 -269 -8 -3 -91 -8 -184 -12 l-169 -7 -6 44 c-11 81
-36 328 -36 354 0 22 4 25 33 24 52 -1 167 13 172 21 3 5 22 6 44 3 21 -3 46
-1 55 4 18 10 76 5 76 -6z m1145 -9 c-6 -5 -35 -14 -65 -22 -69 -16 -142 -53
-198 -98 -23 -19 -44 -33 -45 -31 -2 2 -11 28 -21 58 -22 64 -21 65 79 82 38
6 75 13 80 14 23 7 178 4 170 -3z m-1623 -202 c9 -85 18 -171 20 -190 l3 -35
-143 -3 c-81 -1 -150 2 -161 7 -22 12 -29 71 -33 246 l-2 110 40 2 c107 7 143
11 158 20 9 5 36 7 58 4 l42 -6 18 -155z m2028 99 c47 -22 106 -54 131 -70
l46 -29 -34 -93 c-19 -50 -36 -99 -39 -107 -3 -8 -16 19 -30 61 -32 100 -89
187 -158 239 -31 23 -56 45 -56 47 0 11 59 -10 140 -48z m105 41 c3 -5 2 -10
-4 -10 -5 0 -13 5 -16 10 -3 6 -2 10 4 10 5 0 13 -4 16 -10z m-475 -5 c0 -16
-83 -568 -92 -607 -9 -44 -12 -48 -39 -48 -28 0 -28 0 -105 237 -60 187 -75
242 -68 262 12 34 117 117 179 141 46 17 125 27 125 15z m171 -15 c13 -11 49
-39 79 -63 178 -139 214 -374 82 -539 -46 -59 -127 -121 -186 -143 l-45 -17
-35 27 c-23 18 -36 36 -36 51 0 12 -4 25 -9 29 -23 14 50 551 88 648 13 32 29
34 62 7z m-2174 -86 c6 -43 16 -146 21 -228 10 -179 8 -176 129 -176 l83 0 0
-27 c0 -16 -4 -34 -9 -42 -15 -23 -1 -41 33 -42 17 -1 42 -5 56 -9 23 -7 21
-8 -12 -9 -64 -2 -68 -6 -68 -81 0 -63 2 -69 22 -72 13 -2 24 -11 26 -20 3
-17 -17 -18 -316 -18 -282 0 -321 2 -326 16 -3 9 -6 65 -6 124 0 158 -35 398
-86 586 -6 23 15 31 97 39 20 1 47 6 60 10 13 4 40 9 59 11 70 6 159 20 165
26 3 3 18 3 33 -1 25 -7 28 -13 39 -87z m1548 -24 c42 -112 42 -115 27 -158
-10 -31 -13 -70 -10 -135 4 -88 11 -113 65 -234 4 -10 -76 -13 -381 -13 -313
0 -386 2 -386 13 0 7 25 63 55 123 89 179 217 322 383 429 82 53 170 95 191
92 8 -1 32 -50 56 -117z m1016 83 c13 -16 12 -17 -3 -4 -10 7 -18 15 -18 17 0
8 8 3 21 -13z m-3089 -61 c16 -16 66 -239 82 -362 9 -69 17 -179 18 -245 l3
-120 -90 4 c-49 2 -92 5 -94 7 -3 3 -8 68 -13 145 -8 144 -34 322 -68 467 -11
46 -20 88 -20 93 0 5 19 9 43 9 23 0 49 5 57 10 16 11 69 5 82 -8z m3178 3
c20 -24 6 -28 -15 -5 -10 11 -13 20 -8 20 6 0 16 -7 23 -15z m-3528 -60 c-1
-5 -42 -27 -90 -48 -403 -176 -863 -374 -1037 -447 l-210 -89 -195 35 c-107
20 -196 37 -198 39 -2 2 3 14 11 27 8 12 27 57 42 100 l27 76 47 6 c125 15
147 19 165 32 11 7 31 11 47 7 18 -3 38 1 54 11 15 10 34 14 45 11 11 -3 35 1
55 11 19 9 45 14 57 11 12 -4 36 0 52 8 17 7 49 16 71 19 84 11 141 22 155 31
8 5 28 8 43 6 15 -1 39 5 52 13 15 10 35 14 49 10 13 -3 37 1 53 10 16 8 43
14 59 14 17 -1 39 4 51 11 12 6 40 11 62 11 22 0 43 5 46 10 3 6 28 10 55 10
27 0 52 5 55 10 3 6 25 10 49 10 23 0 51 7 62 15 12 9 32 12 54 9 25 -4 40 -1
48 9 9 11 24 13 51 10 21 -3 47 0 57 6 22 13 60 10 56 -4z m3647 -45 c34 -33
61 -65 61 -71 0 -6 -29 19 -65 56 -36 37 -65 69 -65 71 0 10 13 0 69 -56z
m-134 0 c33 -34 31 -39 -19 -47 -42 -7 -56 13 -38 53 15 31 22 30 57 -6z
m-5591 -26 c27 -48 31 -85 20 -181 -7 -51 -7 -51 -45 -55 -46 -4 -45 -9 -29
140 12 105 18 142 24 142 3 0 16 -21 30 -46z m2154 -51 c44 -165 81 -458 66
-519 l-7 -27 -421 7 c-232 4 -493 11 -581 16 -153 8 -351 35 -368 50 -5 4 130
66 300 138 169 73 454 194 633 271 179 76 332 139 341 140 13 1 22 -19 37 -76z
m-2293 -195 c13 -12 -114 -138 -140 -138 -35 0 -60 26 -144 146 -45 63 -81
117 -81 119 0 6 354 -117 365 -127z m4765 -24 c28 -86 49 -158 46 -161 -9 -9
-58 51 -78 95 -24 53 -39 141 -31 187 3 19 7 35 9 35 1 0 26 -70 54 -156z
m3466 -35 c-24 -101 -50 -210 -57 -242 -10 -47 -15 -55 -25 -45 -10 10 0 58
54 245 36 128 67 231 69 229 2 -2 -16 -86 -41 -187z m-2576 66 c36 -30 49 -35
94 -35 38 0 57 -5 69 -18 15 -16 14 -24 -9 -102 -13 -47 -34 -134 -45 -195
-12 -60 -22 -111 -24 -113 -2 -2 -31 4 -66 13 -74 19 -184 20 -250 2 -25 -6
-68 -10 -95 -8 -48 3 -50 5 -75 55 l-25 51 68 34 c92 45 167 120 214 215 20
42 42 76 48 76 7 0 17 14 23 30 6 17 16 30 21 30 6 0 29 -16 52 -35z m430 -43
c0 -13 -3 -12 -15 4 -19 25 -19 40 0 24 8 -7 15 -20 15 -28z m-5582 19 c10 -6
9 -20 -9 -67 -12 -32 -24 -62 -28 -66 -10 -11 -84 80 -76 92 7 11 74 47 90 49
6 0 16 -3 23 -8z m3426 -23 c-10 -18 -25 -58 -35 -88 l-17 -55 -56 -3 c-45 -2
-56 0 -56 13 0 12 -12 15 -55 15 -30 0 -55 5 -55 10 0 6 25 10 55 10 59 0 78
16 59 49 -5 9 -8 28 -6 43 3 29 -4 27 150 36 l33 2 -17 -32z m2492 -58 c362
-98 874 -238 931 -255 49 -15 61 -25 179 -162 69 -80 122 -149 117 -154 -4 -4
-83 -49 -175 -99 l-167 -91 -158 21 c-87 11 -164 23 -170 25 -9 3 -13 34 -13
109 0 124 3 121 -122 137 -45 6 -85 12 -87 15 -3 2 2 17 11 32 11 19 13 33 7
44 -9 17 -44 20 -328 33 -63 3 -117 8 -120 10 -8 8 -41 -27 -42 -44 -1 -31
-31 64 -34 109 -5 74 -21 150 -33 162 -7 7 -12 26 -12 44 0 17 -9 43 -20 57
-23 29 -28 82 -6 74 7 -3 116 -33 242 -67z m-8009 -21 c186 -44 471 -112 633
-150 331 -79 333 -79 327 -85 -12 -12 -1203 -484 -1213 -480 -35 13 -91 307
-100 529 -6 134 0 267 11 267 3 0 157 -36 342 -81z m5243 61 c0 -6 -43 -10
-109 -10 -63 0 -112 4 -116 10 -4 6 35 10 109 10 71 0 116 -4 116 -10z m2359
-57 c67 -134 108 -328 77 -367 -13 -16 -24 -18 -115 -11 -92 6 -101 9 -101 27
0 60 90 408 105 408 3 0 18 -26 34 -57z m111 -4 c0 -18 -10 -8 -25 24 l-16 32
21 -24 c11 -13 20 -27 20 -32z m-7005 -44 c275 -30 513 -59 530 -63 27 -7 21
-11 -79 -50 l-107 -43 -432 101 c-238 55 -436 103 -442 105 -27 10 69 1 530
-50z m11059 -33 c75 -245 106 -596 60 -668 l-14 -20 -357 52 c-197 29 -473 69
-613 89 -140 20 -263 39 -273 43 -12 5 137 90 525 300 509 274 546 292 594
292 l51 0 27 -88z m-2149 -57 c26 -41 45 -82 43 -92 -3 -11 -21 16 -51 75 -26
50 -45 92 -43 92 3 0 26 -34 51 -75z m-8207 15 c6 0 8 -72 4 -123 -4 -35 -42
-40 -133 -17 -46 11 -99 26 -118 32 l-33 10 88 40 c121 55 157 67 172 62 8 -2
17 -4 20 -4z m828 -31 c74 -12 134 -26 134 -31 0 -6 -52 -9 -135 -6 -138 3
-154 8 -155 46 0 16 0 16 156 -9z m5534 -52 c0 -10 -4 -15 -10 -12 -5 3 -10
18 -10 33 0 21 2 24 10 12 5 -8 10 -23 10 -33z m2264 -64 c-13 -49 -32 -116
-41 -150 -21 -76 -33 -79 -91 -19 -23 24 -56 49 -73 56 -16 7 -28 16 -27 21 3
9 238 177 250 178 4 1 -4 -38 -18 -86z m-8829 -23 c82 -23 150 -42 152 -43 1
-2 -30 -120 -69 -264 l-71 -261 -490 -334 c-269 -183 -498 -337 -508 -342 -15
-7 -27 0 -61 39 -167 189 -305 416 -377 618 -17 49 -31 92 -31 97 0 4 147 68
327 141 181 73 468 191 638 261 171 69 317 127 325 127 8 1 82 -17 165 -39z
m6576 -23 c-8 -8 -11 -3 -11 19 1 25 2 27 11 11 8 -14 8 -22 0 -30z m1402 13
c169 -43 267 -73 267 -83 0 -5 -20 -31 -44 -57 -24 -25 -49 -63 -57 -83 -7
-20 -17 -37 -21 -37 -7 0 -216 240 -231 266 -10 18 -11 18 86 -6z m-7689 -104
c26 -30 45 -60 44 -67 -2 -8 7 -13 22 -13 22 -1 26 -6 30 -46 3 -25 9 -50 12
-56 5 -7 -54 -52 -154 -117 -89 -58 -163 -105 -165 -103 -2 2 51 194 108 389
25 84 40 86 103 13z m4743 22 c6 -7 13 -35 16 -63 13 -105 56 -188 117 -223
31 -18 31 -17 8 -112 -31 -124 -128 -241 -230 -277 -75 -26 -204 -23 -281 6
-116 45 -200 138 -239 264 -39 129 -11 255 81 358 36 41 43 44 102 50 129 12
416 10 426 -3z m-4167 -11 c8 -7 30 -32 49 -57 19 -25 39 -51 44 -57 7 -10 -1
-13 -34 -13 -63 1 -81 19 -87 85 -5 56 1 64 28 42z m1430 3 c249 -14 349 -33
396 -73 l26 -23 -27 -134 c-15 -74 -36 -168 -48 -208 -20 -71 -21 -73 -46 -66
-31 8 -99 22 -161 33 -25 4 -55 13 -67 19 -12 7 -35 12 -51 12 -16 0 -43 7
-61 16 -18 9 -41 14 -52 11 -11 -3 -32 1 -47 9 -15 8 -40 14 -55 14 -15 0 -41
7 -58 16 -16 8 -39 12 -50 9 -11 -4 -27 -1 -36 6 -8 7 -38 17 -67 21 -110 16
-152 24 -166 33 -14 9 -55 18 -155 34 -27 5 -65 14 -84 20 -19 6 -38 8 -42 5
-5 -3 -22 2 -38 11 -17 8 -45 15 -64 15 -18 0 -37 4 -42 9 -9 9 -62 22 -165
40 -80 15 -103 30 -157 100 -29 38 -49 71 -46 75 10 10 1172 7 1363 -4z m1912
-74 c25 -279 132 -516 320 -712 100 -105 221 -190 370 -262 65 -31 118 -60
118 -65 0 -4 -16 0 -36 8 -20 8 -51 15 -68 15 -18 0 -37 5 -42 10 -6 6 -35 15
-65 21 -120 22 -135 26 -157 38 -12 7 -31 9 -42 6 -10 -3 -33 1 -51 10 -17 9
-41 14 -54 11 -14 -4 -28 0 -35 9 -7 8 -29 15 -49 15 -20 0 -45 6 -56 14 -11
7 -38 16 -60 19 -84 12 -136 24 -147 35 -7 7 -28 12 -47 12 -20 0 -45 7 -55
15 -11 8 -37 15 -57 15 -21 0 -41 5 -44 10 -3 6 -25 10 -48 10 -23 0 -51 7
-61 15 -11 8 -34 15 -50 15 -17 0 -40 7 -50 15 -11 8 -35 15 -53 15 -19 0 -45
7 -58 16 -14 9 -33 13 -44 9 -12 -4 -30 0 -43 9 -12 9 -39 16 -59 16 -20 0
-42 7 -49 15 -7 9 -29 15 -51 15 -21 0 -41 5 -44 10 -3 6 -25 10 -49 10 -23 0
-51 7 -62 15 -10 8 -35 15 -54 15 -19 0 -44 7 -54 15 -11 8 -32 15 -47 15 -14
0 -44 7 -64 16 -21 8 -46 14 -55 11 -9 -2 -25 2 -35 9 -10 8 -38 14 -61 14
-25 0 -47 6 -54 15 -7 8 -21 15 -31 15 -11 0 -19 4 -19 9 0 6 16 74 35 153 20
79 43 196 52 260 l16 118 571 3 c314 1 616 2 671 2 l100 0 7 -79z m258 80 c0
-2 -15 -27 -34 -55 -49 -73 -70 -142 -70 -238 -1 -44 -4 -79 -8 -77 -22 14
-68 227 -68 316 l0 58 90 0 c50 0 90 -2 90 -4z m4543 -192 c92 -15 167 -30
167 -33 0 -3 -73 -43 -163 -88 l-162 -83 -26 32 c-22 26 -27 45 -32 107 -6 79
3 105 32 97 9 -3 91 -17 184 -32z m-8040 -54 c93 -30 100 -35 146 -90 114
-137 851 -1106 851 -1119 0 -15 -203 -158 -311 -219 -65 -37 -182 -87 -226
-96 l-30 -7 -246 415 c-136 228 -249 420 -252 428 -4 10 -55 681 -55 721 0 5
6 7 13 5 6 -3 56 -20 110 -38z m7124 28 c6 -7 13 -42 15 -78 3 -36 13 -81 22
-99 10 -18 16 -34 14 -36 -4 -4 -359 63 -365 68 -6 7 270 157 288 157 9 0 21
-6 26 -12z m-2004 -38 c2 -3 9 -61 16 -130 6 -69 20 -165 30 -215 11 -49 17
-93 15 -97 -2 -3 -35 -17 -72 -29 -132 -44 -278 -25 -384 50 -99 71 -158 187
-159 312 -1 63 2 71 31 106 l32 38 243 -15 c134 -8 245 -17 248 -20z m1107 10
c104 -16 110 -19 110 -41 0 -17 -5 -20 -27 -15 -16 3 -61 8 -100 11 -69 7 -73
9 -73 31 0 27 1 27 90 14z m2468 -45 c910 -133 952 -140 965 -162 6 -11 -9
-128 -28 -225 -22 -112 -58 -231 -100 -329 -34 -82 -38 -87 -71 -92 -27 -5
-124 19 -392 94 -197 55 -463 129 -592 165 -362 100 -311 73 -440 240 -61 80
-113 150 -116 157 -4 12 357 206 384 207 7 0 182 -25 390 -55z m-8442 30 c10
-8 33 -15 50 -15 17 0 48 -7 69 -15 20 -9 45 -13 56 -10 11 4 27 1 35 -6 15
-12 63 -23 159 -35 22 -3 55 -12 74 -21 19 -8 46 -13 61 -9 18 3 33 0 40 -9 7
-8 29 -15 50 -15 20 0 51 -7 68 -16 18 -8 41 -13 52 -9 11 4 29 0 42 -9 12 -9
41 -16 65 -16 23 0 45 -4 48 -10 3 -5 24 -10 46 -10 22 0 51 -7 64 -16 13 -9
37 -14 52 -13 15 2 38 -2 50 -9 12 -7 37 -12 55 -12 18 -1 44 -7 58 -15 14 -8
42 -14 62 -15 20 0 39 -4 42 -9 3 -5 22 -12 41 -15 19 -4 35 -8 35 -10 0 -9
-40 -117 -56 -149 -13 -27 -22 -36 -33 -31 -9 3 -101 37 -206 74 -364 130
-1036 376 -1120 410 -28 11 -28 13 -10 20 28 12 29 12 51 -5z m-736 -90 c0
-16 -7 -133 -15 -260 -8 -126 -26 -421 -40 -655 -37 -624 -37 -630 -44 -630
-3 0 -51 7 -106 15 -194 29 -445 110 -552 178 l-42 27 19 57 c16 48 215 705
307 1013 14 47 33 92 42 102 9 9 97 69 196 133 l180 116 28 -32 c16 -20 27
-45 27 -64z m5841 58 c7 -17 8 -63 5 -118 -3 -49 -6 -97 -7 -106 0 -9 -13 -29
-29 -44 l-28 -27 -6 29 c-5 24 -25 243 -26 281 0 7 15 12 40 12 35 0 42 -4 51
-27z m93 -75 c-2 -50 -8 -96 -14 -102 -13 -13 -12 -17 -15 97 -2 88 -1 97 15
97 17 0 18 -9 14 -92z m384 67 c19 -7 15 -45 -5 -45 -9 0 -54 5 -100 12 -74
11 -96 22 -78 40 5 5 162 -1 183 -7z m293 -25 c222 -30 209 -26 209 -60 0 -36
7 -36 -185 -10 -114 15 -150 23 -161 37 -12 16 -19 53 -11 53 2 0 68 -9 148
-20z m-5246 -246 c352 -129 641 -237 643 -239 6 -6 -72 -152 -120 -222 -27
-40 -81 -112 -122 -160 -73 -88 -229 -243 -243 -243 -8 1 -835 1093 -841 1111
-2 6 6 5 20 -1 12 -5 311 -116 663 -246z m3628 189 c19 -180 130 -333 284
-394 78 -31 237 -33 331 -5 95 29 97 11 7 -61 -197 -156 -398 -231 -645 -240
-335 -13 -660 117 -877 350 -95 102 -97 114 -11 67 91 -48 171 -70 263 -70 91
0 157 20 225 67 91 64 159 173 179 288 l6 40 80 -3 c44 -1 94 2 110 7 17 5 33
10 36 10 3 1 9 -25 12 -56z m2016 2 c51 -7 95 -15 97 -17 2 -2 -53 -35 -122
-72 -69 -38 -127 -66 -130 -63 -3 3 0 41 7 86 14 94 3 88 148 66z m392 -61
c154 -30 189 -40 188 -53 0 -9 -26 -102 -57 -208 l-57 -191 -525 -413 c-289
-226 -536 -419 -549 -427 -23 -16 -25 -14 -95 58 -89 93 -181 217 -253 339
-54 91 -128 249 -121 256 5 5 1272 674 1277 675 2 0 88 -16 192 -36z m1047
-146 c55 -73 100 -133 99 -135 -2 -2 -221 57 -337 91 -63 18 -65 45 -8 103 45
47 88 72 124 73 15 0 48 -35 122 -132z m-696 46 c40 -31 73 -60 73 -64 0 -5
-62 -56 -137 -114 -76 -58 -138 -102 -138 -98 0 9 45 178 71 265 25 84 35 85
131 11z m-1771 0 c-12 -15 -21 -32 -21 -39 0 -7 -13 -29 -30 -50 -16 -21 -30
-43 -30 -49 -1 -12 -70 -90 -75 -84 -2 2 22 40 53 85 31 44 70 105 86 134 16
30 31 48 33 42 3 -7 -5 -25 -16 -39z m213 20 c82 -15 94 -20 120 -51 29 -34
29 -35 90 -28 34 4 68 13 76 20 12 10 37 9 128 -3 61 -9 112 -18 112 -21 0 -6
-98 -58 -562 -303 -182 -96 -230 -118 -245 -110 -23 13 -64 146 -56 183 3 15
15 31 29 38 13 6 30 23 36 38 7 16 25 43 40 61 15 18 28 38 28 43 0 6 11 24
25 41 14 16 25 39 25 50 0 25 27 58 48 58 8 0 55 -7 106 -16z m-6730 -136
c-59 -218 -289 -986 -298 -996 -15 -14 -217 106 -341 202 -96 76 -277 245
-273 257 3 9 919 629 930 629 3 0 -5 -42 -18 -92z m8604 20 l54 -23 -6 -60
c-4 -33 -9 -104 -13 -157 -3 -54 -9 -98 -12 -98 -6 1 -201 333 -197 337 1 2
27 7 57 12 30 5 56 9 59 10 3 1 29 -9 58 -21z m-103 -231 c100 -160 119 -198
118 -227 -2 -19 -9 -114 -18 -210 -19 -224 -84 -1003 -87 -1055 l-3 -40 -110
2 c-125 2 -236 15 -379 44 -96 19 -268 70 -294 87 -7 5 -17 36 -23 69 -11 60
-10 62 91 409 170 586 251 858 258 870 10 16 305 243 317 243 6 0 64 -86 130
-192z m430 133 c110 -29 206 -57 213 -63 18 -14 750 -959 787 -1015 l29 -44
-21 -16 c-159 -128 -271 -202 -411 -272 -86 -44 -103 -49 -124 -40 -16 8 -139
194 -376 569 l-352 558 0 57 c0 63 19 293 26 315 2 7 10 11 17 9 6 -3 102 -29
212 -58z m502 -139 c98 -28 360 -100 583 -161 415 -113 460 -127 460 -140 0
-4 -35 -65 -77 -136 -90 -150 -191 -287 -293 -396 -57 -63 -77 -78 -100 -78
-34 0 -8 -31 -426 510 -363 470 -348 450 -336 450 6 0 91 -22 189 -49z m-3212
-40 c-3 -6 -14 -11 -23 -11 -15 1 -15 2 2 15 21 16 32 13 21 -4z m-81 -56 c-4
-8 -14 -15 -23 -15 -14 1 -13 3 3 15 25 19 27 19 20 0z m1687 -547 c-83 -288
-162 -558 -174 -602 -13 -43 -31 -82 -40 -87 -66 -37 -647 341 -647 421 0 12
175 155 502 409 276 215 503 389 506 387 2 -3 -64 -240 -147 -528z m-1771 492
c0 -5 -10 -10 -22 -10 -19 0 -20 2 -8 10 19 13 30 13 30 0z m-87 -41 c-11 -12
-29 -19 -39 -17 -15 4 -12 8 16 20 47 22 48 21 23 -3z m-4778 -362 c113 -186
209 -345 211 -352 10 -24 -191 -89 -337 -109 l-37 -4 -6 81 c-3 45 -15 208
-26 362 -11 154 -22 302 -25 329 -2 29 -1 46 4 40 5 -5 102 -161 216 -347z
m4685 328 c-7 -8 -22 -15 -34 -14 -18 0 -16 3 9 14 39 18 40 18 25 0z m-110
-29 c0 -3 -4 -8 -10 -11 -5 -3 -10 -1 -10 4 0 6 5 11 10 11 6 0 10 -2 10 -4z
m3233 -541 l328 -524 -15 -29 c-12 -23 -31 -35 -88 -56 -145 -51 -352 -97
-530 -116 -144 -15 -138 -16 -138 28 0 29 59 731 96 1150 4 39 10 72 13 72 3
-1 154 -237 334 -525z m-8237 65 c13 -161 21 -296 18 -301 -3 -5 -23 -9 -45
-9 -30 0 -39 4 -39 18 -1 50 34 591 38 588 2 -3 15 -136 28 -296z"/>
</g>
</svg>
