<?xml version="1.0" standalone="no"?>
<!DOCTYPE svg PUBLIC "-//W3C//DTD SVG 20010904//EN"
 "http://www.w3.org/TR/2001/REC-SVG-20010904/DTD/svg10.dtd">
<svg version="1.0" xmlns="http://www.w3.org/2000/svg"
 width="1280.000000pt" height="871.000000pt" viewBox="0 0 1280.000000 871.000000"
 preserveAspectRatio="xMidYMid meet">
<metadata>
Created by potrace 1.15, written by Peter Selinger 2001-2017
</metadata>
<g transform="translate(0.000000,871.000000) scale(0.100000,-0.100000)"
fill="#000000" stroke="none">
<path d="M9001 8692 c-72 -36 -85 -79 -69 -222 l8 -65 -191 -80 c-157 -66
-197 -86 -220 -115 -36 -43 -37 -73 -3 -95 24 -16 30 -16 91 -1 70 18 87 15
78 -15 -5 -14 0 -20 20 -25 l26 -7 -32 -33 c-26 -27 -30 -37 -21 -46 23 -23
11 -37 -77 -87 l-88 -51 -89 6 c-89 6 -89 6 -128 -25 -21 -17 -42 -31 -46 -31
-21 0 -60 -52 -60 -79 0 -25 5 -31 38 -42 20 -6 43 -16 50 -22 16 -13 15 -52
-2 -66 -8 -7 -18 -26 -22 -43 -7 -37 13 -58 56 -58 24 0 28 -7 60 -105 31 -96
33 -108 22 -153 -6 -28 -9 -65 -5 -84 7 -45 -10 -76 -45 -84 -31 -8 -529 -188
-907 -329 -561 -209 -858 -317 -1575 -575 -410 -147 -783 -282 -829 -299 -129
-47 -159 -41 -179 39 -10 39 -10 46 5 55 9 6 30 22 46 36 53 46 9 94 -76 83
l-43 -6 -77 268 c-43 148 -110 382 -150 519 l-73 250 -57 20 c-31 11 -57 23
-57 27 0 8 37 15 135 23 61 5 85 14 203 77 l134 71 87 -7 c47 -4 151 -23 230
-43 142 -36 144 -36 177 -18 36 19 59 69 47 101 -17 47 -67 93 -133 123 -90
40 -199 56 -500 76 -135 8 -337 25 -450 36 -197 19 -265 32 -520 99 -134 35
-227 39 -280 12 -66 -32 -107 -162 -53 -170 16 -2 23 -13 30 -49 7 -42 13 -49
53 -70 25 -13 64 -39 87 -59 62 -51 208 -132 261 -146 26 -6 60 -22 75 -35 16
-12 34 -23 41 -23 19 0 76 -58 116 -119 l35 -52 75 3 74 3 49 -160 c172 -570
247 -819 244 -820 -1 -1 -27 -12 -57 -23 -49 -18 -55 -23 -52 -47 6 -56 20
-75 54 -76 41 -2 40 -2 59 6 13 5 22 -11 44 -82 38 -123 34 -135 -117 -293
-66 -69 -125 -125 -131 -125 -21 -1 -37 -16 -50 -46 -14 -33 -175 -182 -255
-235 -29 -20 -50 -39 -47 -44 6 -10 -33 -40 -52 -40 -7 0 -13 7 -13 15 0 8 -7
15 -15 15 -8 0 -23 8 -33 18 -29 29 -70 52 -92 52 -11 0 -20 5 -20 10 0 6 -29
24 -65 40 -36 16 -65 34 -65 40 0 5 -8 10 -19 10 -10 0 -24 7 -31 15 -7 8 -16
12 -21 9 -12 -7 -42 10 -37 22 1 5 -9 10 -25 12 -15 2 -31 12 -37 22 -6 11
-17 16 -29 13 -10 -3 -22 0 -25 6 -4 6 -18 11 -30 11 -13 0 -29 7 -36 15 -7 9
-15 13 -18 11 -2 -3 -20 1 -39 9 -18 8 -40 12 -48 9 -8 -4 -15 -1 -15 5 0 6
-9 11 -21 11 -11 0 -30 5 -41 11 -11 6 -30 12 -42 13 -25 3 -124 26 -146 34
-8 3 -24 6 -35 8 -74 8 -114 14 -144 23 -67 20 -384 30 -556 18 -123 -9 -346
-47 -445 -77 -36 -11 -73 -20 -82 -20 -9 0 -19 -4 -22 -8 -3 -5 -30 -14 -60
-21 -30 -7 -60 -18 -66 -26 -6 -8 -17 -12 -25 -9 -7 3 -16 1 -20 -5 -3 -6 -14
-11 -24 -11 -10 0 -29 -8 -42 -18 -13 -10 -43 -24 -67 -32 -23 -7 -47 -19 -53
-27 -6 -7 -20 -13 -30 -13 -10 0 -21 -5 -24 -11 -4 -5 -18 -14 -31 -19 -41
-16 -264 -151 -264 -160 0 -5 -10 -12 -22 -15 -13 -4 -39 -23 -58 -44 -19 -20
-64 -60 -100 -88 -36 -28 -86 -73 -112 -99 -26 -27 -55 -56 -63 -64 -51 -49
-135 -142 -135 -150 0 -4 -29 -43 -66 -86 -36 -44 -78 -107 -95 -141 -16 -34
-34 -65 -39 -68 -6 -3 -10 -17 -10 -31 0 -13 -4 -24 -9 -24 -11 0 -51 -66 -51
-85 0 -8 -13 -34 -30 -58 -16 -25 -30 -56 -30 -70 0 -14 -4 -28 -9 -32 -14 -8
-41 -65 -41 -87 0 -10 -7 -33 -16 -50 -9 -16 -22 -56 -30 -87 -8 -31 -19 -60
-25 -66 -5 -5 -9 -23 -9 -39 0 -17 -6 -48 -14 -71 -45 -130 -66 -321 -66 -580
1 -224 10 -328 44 -475 8 -36 20 -87 26 -115 6 -27 15 -59 20 -70 5 -11 12
-38 15 -60 4 -22 13 -51 20 -65 7 -14 19 -45 26 -70 7 -25 19 -52 26 -61 7 -8
13 -22 13 -30 0 -16 143 -304 162 -327 6 -7 21 -32 33 -55 32 -64 188 -260
300 -375 80 -84 192 -185 270 -245 6 -4 28 -21 50 -38 44 -34 166 -116 205
-138 97 -53 274 -141 285 -141 7 0 18 -7 25 -15 7 -8 16 -12 22 -9 5 3 19 -1
31 -8 12 -8 42 -20 67 -27 25 -7 54 -17 65 -22 18 -8 78 -25 155 -44 14 -4 34
-10 45 -15 45 -19 66 -22 190 -34 76 -7 257 -11 435 -10 262 2 323 5 430 23
68 12 130 27 137 32 12 11 38 16 98 21 18 2 33 10 38 22 5 13 14 17 31 12 16
-4 26 -1 30 9 3 8 16 15 30 15 14 0 28 5 31 10 3 6 15 10 26 10 11 0 31 7 44
16 14 9 31 14 39 11 8 -3 17 1 20 9 3 8 16 14 30 14 13 0 26 7 30 15 3 8 16
15 30 15 13 0 26 7 30 15 3 8 13 15 22 15 9 0 27 9 41 20 14 11 31 20 38 20 7
0 15 7 19 15 3 8 14 15 25 15 11 0 24 6 28 13 4 7 20 18 36 24 15 7 27 17 27
23 0 5 8 10 18 10 10 0 25 9 35 20 9 11 23 20 29 20 7 0 19 9 26 20 7 11 18
20 25 20 7 0 20 8 29 18 34 34 55 52 62 52 4 0 29 23 55 50 26 28 53 50 59 50
6 0 14 9 17 20 3 11 11 20 16 20 5 0 19 11 31 25 12 14 28 25 35 25 7 0 13 7
13 17 0 9 20 35 45 59 25 23 45 47 45 53 0 6 9 15 20 21 11 6 20 17 20 25 0 8
9 19 20 25 11 6 20 16 20 21 0 11 33 56 65 90 8 9 15 18 15 22 0 9 59 95 70
102 5 3 7 12 3 20 -3 8 0 15 6 15 6 0 17 15 26 33 8 17 19 39 24 47 22 32 121
249 121 264 0 8 4 17 10 21 5 3 6 13 3 22 -9 24 17 11 41 -20 l20 -27 -23 -55
c-18 -44 -22 -65 -16 -102 7 -45 43 -93 71 -93 22 0 41 -27 48 -68 9 -58 26
-68 72 -42 21 11 44 20 50 20 17 0 20 166 3 186 -12 15 26 64 185 231 83 88
117 103 124 55 3 -20 7 -22 37 -16 27 5 35 2 44 -15 10 -17 15 -19 39 -10 23
9 29 7 48 -16 18 -23 22 -24 34 -11 16 21 50 20 65 -1 11 -15 14 -14 34 6 21
21 24 22 48 6 21 -14 27 -15 34 -4 5 8 9 17 9 22 0 15 49 6 59 -10 8 -16 11
-15 20 10 13 33 36 44 56 27 17 -14 17 -15 33 24 11 25 17 28 42 22 26 -5 30
-3 30 18 0 32 22 48 56 40 24 -6 26 -5 22 14 -8 28 14 57 37 49 15 -6 16 -3
11 27 -5 28 -3 37 11 44 10 5 24 7 32 4 10 -3 12 3 6 27 -8 37 7 61 38 61 19
0 19 1 4 18 -24 26 -21 49 9 65 23 12 24 15 10 26 -23 19 -20 46 7 64 l22 16
-22 16 c-13 9 -23 22 -23 30 0 8 10 21 23 30 15 12 18 19 9 22 -7 3 -19 12
-28 20 -13 14 -13 18 1 40 9 14 15 26 13 28 -2 1 -14 8 -26 15 -23 11 -24 21
-7 62 5 12 1 17 -17 20 -20 3 -23 8 -21 40 2 33 -1 37 -24 40 -25 3 -20 10 92
153 65 83 156 196 203 252 l85 101 28 -21 c21 -15 29 -29 29 -52 0 -26 6 -34
37 -49 l38 -18 33 38 32 38 -20 21 c-12 13 -18 29 -14 38 4 11 1 17 -9 17 -9
0 -20 6 -24 14 -4 8 -19 16 -33 18 -26 3 -43 30 -54 84 -7 33 45 112 785 1176
776 1117 687 996 864 1176 106 108 190 183 248 223 100 69 132 74 156 24 8
-16 18 -32 24 -34 21 -8 47 -42 47 -63 0 -12 14 -52 31 -89 31 -66 31 -67 76
-72 25 -2 52 -11 59 -19 8 -8 33 -57 55 -109 23 -52 44 -96 49 -99 13 -9 181
-513 178 -535 -2 -12 -12 -21 -26 -23 -13 -2 -26 -10 -29 -18 -3 -8 -18 -14
-33 -14 -16 0 -30 -7 -34 -15 -3 -8 -14 -15 -24 -15 -11 0 -25 -7 -32 -15 -7
-8 -20 -15 -29 -15 -9 0 -22 -9 -29 -21 -9 -13 -20 -19 -32 -16 -12 3 -20 -2
-23 -14 -3 -11 -14 -19 -25 -19 -12 0 -23 -9 -27 -20 -4 -13 -15 -20 -31 -20
-17 0 -24 -5 -24 -20 0 -15 -7 -20 -25 -20 -15 0 -25 -6 -25 -14 0 -8 -9 -18
-20 -21 -11 -3 -23 -17 -26 -31 -3 -13 -11 -24 -16 -24 -6 0 -29 -19 -51 -42
-23 -24 -51 -48 -62 -54 -12 -6 -19 -19 -18 -32 2 -12 -2 -22 -8 -22 -15 0
-89 -77 -82 -84 4 -3 -1 -6 -10 -6 -8 0 -18 -9 -22 -19 -3 -11 -12 -22 -20
-25 -8 -3 -15 -12 -15 -21 0 -8 -4 -15 -10 -15 -5 0 -10 -7 -10 -15 0 -8 -7
-15 -15 -15 -8 0 -15 -7 -15 -15 0 -8 -18 -33 -40 -55 -22 -22 -40 -47 -40
-55 0 -7 -7 -21 -16 -29 -8 -9 -13 -16 -9 -16 4 0 -7 -12 -24 -26 -17 -14 -31
-32 -31 -39 0 -7 -7 -18 -15 -25 -8 -7 -15 -20 -15 -29 0 -9 -9 -24 -20 -34
-11 -9 -20 -23 -20 -31 0 -7 -7 -19 -15 -26 -8 -7 -15 -21 -15 -32 0 -10 -7
-21 -16 -25 -8 -3 -13 -12 -10 -20 3 -7 -2 -21 -12 -31 -9 -10 -19 -27 -20
-37 -2 -11 -8 -24 -13 -30 -5 -5 -9 -19 -9 -31 0 -12 -7 -27 -15 -34 -8 -7
-15 -23 -15 -36 0 -13 -5 -24 -11 -24 -6 0 -8 -8 -4 -20 4 -12 -2 -30 -14 -47
-11 -15 -22 -37 -24 -48 -1 -11 -5 -24 -8 -30 -8 -12 -20 -78 -25 -125 -1 -19
-10 -39 -18 -45 -9 -7 -13 -20 -10 -32 3 -11 -1 -27 -9 -34 -8 -7 -12 -21 -9
-31 2 -10 1 -26 -3 -35 -5 -10 -7 -26 -6 -36 1 -10 -3 -25 -9 -32 -7 -8 -9
-26 -6 -39 3 -14 3 -27 -1 -29 -5 -3 -7 -27 -6 -54 0 -26 2 -121 3 -210 1 -90
6 -163 11 -163 5 0 4 -12 -1 -26 -6 -15 -6 -32 -1 -42 4 -9 6 -23 4 -30 -3 -7
0 -26 7 -42 7 -16 14 -53 17 -82 6 -77 9 -93 15 -104 3 -5 9 -35 13 -67 4 -31
11 -60 16 -63 5 -3 9 -15 9 -26 0 -20 12 -63 30 -113 4 -11 14 -40 21 -65 7
-25 16 -49 21 -54 4 -6 8 -18 8 -27 0 -10 6 -30 14 -46 8 -15 25 -50 36 -78
38 -85 40 -89 60 -120 11 -16 27 -44 35 -61 8 -17 22 -34 31 -38 9 -3 14 -12
11 -20 -6 -14 11 -41 53 -85 13 -14 23 -31 22 -38 -2 -7 7 -22 19 -34 15 -15
18 -23 9 -29 -8 -5 11 -32 57 -82 37 -41 84 -92 104 -114 57 -62 205 -202 283
-267 39 -33 73 -63 74 -68 2 -5 9 -9 17 -9 7 0 32 -18 56 -40 24 -22 50 -40
58 -40 8 0 19 -7 26 -16 13 -19 81 -60 173 -105 34 -17 62 -35 62 -40 0 -5 7
-9 15 -9 8 0 25 -10 36 -21 12 -12 29 -23 38 -24 19 -2 68 -21 95 -36 10 -6
28 -12 40 -15 11 -2 22 -8 24 -14 3 -9 215 -81 251 -85 9 -1 28 -6 43 -13 38
-16 130 -31 228 -37 111 -6 628 -7 688 0 26 2 96 10 155 16 111 11 232 44 352
95 78 33 103 43 140 55 22 7 47 19 57 27 9 7 22 12 30 11 15 -3 67 20 86 38 7
7 22 13 33 13 10 0 19 4 19 10 0 5 12 13 28 16 15 4 33 16 40 26 7 10 22 18
33 18 10 0 19 4 19 9 0 5 14 14 30 20 17 5 30 15 30 20 0 6 11 13 24 17 14 3
32 14 42 25 9 10 22 19 28 19 6 0 17 9 24 21 8 12 19 18 28 15 8 -3 14 1 14 9
0 8 4 15 9 15 5 0 22 14 38 30 15 17 32 30 38 30 6 0 16 9 23 20 7 11 18 20
25 20 8 0 19 11 25 25 6 14 16 25 22 25 5 0 24 16 42 36 18 19 39 41 46 47 59
55 82 81 82 93 0 13 6 15 26 13 4 0 12 10 18 23 7 13 19 22 29 20 12 -2 17 4
17 23 0 15 14 41 35 64 19 21 35 44 35 51 0 7 16 32 35 56 19 23 35 47 35 53
0 6 8 19 18 29 26 26 62 87 62 106 0 9 7 16 16 16 10 0 14 6 11 14 -3 8 3 23
13 34 10 11 17 22 14 25 -3 3 8 31 25 62 17 32 31 66 31 77 0 10 11 36 25 58
14 21 23 45 20 52 -3 7 6 35 20 62 14 27 25 61 25 75 0 14 7 40 16 56 9 17 16
43 15 58 -1 16 8 49 19 74 11 26 18 55 14 65 -3 10 -1 25 5 31 11 14 30 135
37 237 9 133 0 482 -12 502 -4 6 -11 45 -16 87 -21 172 -24 191 -36 203 -7 7
-12 27 -12 46 0 18 -8 52 -19 75 -10 23 -22 58 -26 77 -4 19 -13 44 -20 55 -7
11 -16 36 -20 55 -4 19 -15 49 -25 65 -10 17 -23 47 -30 69 -7 21 -23 54 -36
74 -13 19 -24 42 -24 50 0 8 -11 29 -23 46 -13 17 -29 48 -36 68 -7 20 -19 42
-27 49 -9 7 -27 35 -40 61 -14 27 -31 51 -39 54 -7 3 -16 16 -19 28 -3 13 -31
49 -61 80 -30 32 -55 61 -55 64 0 10 -38 42 -49 42 -6 0 -13 9 -16 20 -9 28
-54 80 -69 80 -7 0 -18 11 -26 24 -7 13 -49 56 -94 96 -44 39 -100 89 -123
111 -23 21 -48 39 -56 39 -8 0 -22 11 -30 24 -9 12 -32 31 -52 40 -20 10 -46
27 -57 38 -10 10 -39 28 -64 38 -24 11 -44 23 -44 28 0 5 -25 19 -55 32 -30
13 -55 27 -55 32 0 4 -5 8 -11 8 -6 0 -24 9 -40 21 -16 11 -33 18 -38 14 -5
-3 -12 -1 -15 4 -11 17 -90 52 -108 48 -10 -3 -22 2 -27 11 -11 19 -89 44 -97
30 -4 -5 -13 -3 -22 5 -16 13 -44 22 -101 32 -13 2 -28 8 -34 14 -6 6 -23 11
-38 11 -15 0 -31 5 -34 11 -4 6 -14 8 -22 5 -9 -4 -21 -2 -28 4 -7 5 -39 11
-71 11 -32 1 -64 5 -70 10 -6 5 -33 10 -61 13 -28 2 -55 6 -60 9 -13 8 -102
12 -109 4 -4 -3 -16 -1 -27 4 -41 22 -455 -1 -587 -32 -25 -6 -57 -11 -72 -10
-15 0 -30 -4 -33 -9 -4 -6 -19 -10 -36 -10 -16 0 -29 -4 -29 -10 0 -22 -19 -8
-25 19 -13 61 151 378 298 576 177 237 268 389 319 535 31 89 68 275 68 342 0
133 -51 322 -121 446 -42 74 -147 209 -195 252 -28 24 -38 40 -36 58 7 51 -41
75 -180 87 l-78 7 6 36 c3 23 -1 55 -10 82 -22 64 -20 93 12 150 26 49 26 51
8 65 -15 11 -128 62 -233 105 -13 5 -23 17 -23 26 0 18 -27 43 -47 44 -7 0
-34 14 -60 30 -26 17 -54 28 -62 25 -20 -8 -61 22 -61 44 0 10 -9 26 -20 36
-16 14 -20 31 -21 79 0 82 -17 126 -58 153 -41 27 -84 29 -130 5z m287 -560
c6 -18 -15 -14 -22 4 -4 10 -1 14 6 12 6 -2 14 -10 16 -16z m257 -40 c0 -7
-13 -21 -30 -32 -28 -18 -31 -19 -42 -4 -20 28 2 56 40 52 18 -2 32 -9 32 -16z
m105 -54 c0 -20 -1 -19 -20 5 -11 14 -20 28 -20 31 0 4 9 2 20 -4 11 -6 20
-20 20 -32z m-90 15 c0 -10 -64 -92 -72 -93 -19 0 -5 37 24 67 30 31 48 41 48
26z m90 -92 c-1 -29 -59 -111 -79 -111 -11 0 -23 5 -26 10 -3 6 -15 10 -26 10
-35 0 -24 52 27 120 l45 61 30 -37 c16 -20 29 -44 29 -53z m-292 -2 c43 -39
34 -50 -13 -15 -19 15 -40 24 -45 21 -6 -3 -7 1 -4 9 9 23 25 19 62 -15z m-42
-40 c42 -25 43 -39 4 -39 -28 0 -50 22 -50 49 0 16 8 14 46 -10z m364 -56 c0
-28 -4 -33 -23 -33 -35 0 -39 10 -17 38 11 13 20 32 20 41 0 14 2 14 10 1 5
-8 10 -30 10 -47z m-425 16 c11 -17 -1 -21 -15 -4 -8 9 -8 15 -2 15 6 0 14 -5
17 -11z m-49 -34 c-25 -19 -37 -19 -30 0 4 8 16 15 28 15 21 -1 21 -1 2 -15z
m653 -132 c31 -20 12 -33 -51 -33 -25 0 -102 -16 -170 -35 -115 -34 -123 -35
-135 -19 -17 24 -16 39 3 55 9 7 29 33 46 57 26 37 34 42 56 38 15 -3 33 -2
41 3 15 10 165 -37 210 -66z m-569 57 c0 -5 -9 -10 -20 -10 -11 0 -20 5 -20
10 0 6 9 10 20 10 11 0 20 -4 20 -10z m619 -13 c27 -13 40 -37 19 -36 -7 0
-40 14 -73 30 l-60 29 45 -5 c24 -3 55 -11 69 -18z m-522 -18 c10 -10 -8 -71
-41 -139 -70 -143 -150 -269 -170 -270 -4 0 -6 34 -4 76 3 69 6 78 31 96 19
14 27 29 28 51 0 20 13 49 34 77 19 25 45 62 57 82 23 38 45 47 65 27z m-579
-60 c-1 -28 -3 -30 -27 -24 -36 9 -37 12 -16 35 27 29 44 25 43 -11z m438 14
c-18 -48 -42 -93 -49 -93 -12 0 -67 56 -67 68 0 11 73 40 104 41 13 1 16 -4
12 -16z m735 -70 c186 -172 289 -407 291 -661 2 -253 -78 -437 -381 -872 -124
-178 -224 -347 -257 -434 l-18 -50 -14 33 -13 33 -86 -3 -85 -4 -50 140 c-35
99 -51 159 -54 205 -2 36 -14 106 -26 155 -21 83 -26 91 -55 105 -39 18 -42
30 -9 30 13 0 31 -10 39 -22 14 -20 18 -21 26 -8 13 18 5 51 -17 68 -22 17
-78 15 -142 -4 -53 -16 -54 -16 -71 7 -13 17 -16 35 -12 74 7 72 -12 161 -43
203 l-27 35 74 -7 c257 -24 472 103 555 329 58 158 48 328 -30 512 -14 34 -26
64 -26 67 0 2 12 7 28 10 58 14 218 69 231 80 11 9 68 28 103 35 4 0 35 -25
69 -56z m-500 -11 c7 -19 4 -24 -18 -33 -14 -5 -27 -8 -28 -7 -1 2 2 18 7 36
10 37 27 38 39 4z m-831 -23 c50 -7 75 -7 89 1 16 8 28 7 48 -3 34 -18 188
-57 222 -57 13 0 35 10 48 22 l22 21 41 -27 c39 -26 40 -28 33 -64 -4 -20 -7
-74 -6 -118 l3 -82 -77 -86 c-66 -74 -222 -216 -237 -216 -3 0 -26 66 -52 148
-44 139 -49 150 -97 198 -44 45 -56 65 -84 150 -32 97 -38 124 -27 124 3 0 36
-5 74 -11z m740 -37 c0 -5 -11 -19 -25 -32 -29 -27 -32 -21 -9 15 16 24 34 33
34 17z m159 -61 c52 -121 78 -287 62 -392 -20 -128 -96 -268 -180 -331 -89
-67 -243 -107 -367 -93 -78 8 -80 18 -19 82 46 48 114 157 127 203 14 54 39
112 64 150 14 21 23 44 19 49 -3 6 7 30 23 53 49 71 91 157 112 228 18 61 23
69 58 83 65 26 77 23 101 -32z m-192 -50 c-3 -16 -16 -44 -27 -63 l-22 -33 7
40 c6 39 29 85 41 85 4 0 4 -13 1 -29z m-122 -136 c-7 -28 -16 -63 -20 -80 -7
-27 -8 -28 -15 -10 -15 37 -10 69 16 107 15 21 28 37 30 35 2 -1 -3 -25 -11
-52z m-4675 -22 c-20 -9 -70 -17 -120 -19 -47 -2 -78 -1 -70 2 29 9 165 32
195 33 l30 0 -35 -16z m4613 -83 c3 -14 0 -33 -8 -43 -7 -10 -10 -27 -7 -39 4
-17 -19 -44 -118 -140 -68 -65 -131 -123 -141 -128 -14 -8 -20 -3 -33 36 l-15
45 152 152 c84 84 155 150 158 147 4 -3 9 -16 12 -30z m-49 -205 c-4 -8 -11
-15 -16 -15 -6 0 -5 6 2 15 7 8 14 15 16 15 2 0 1 -7 -2 -15z m-48 -52 c-30
-59 -56 -123 -56 -135 0 -18 -50 -118 -59 -118 -6 0 -61 103 -61 115 0 5 181
165 186 165 3 0 -2 -12 -10 -27z m-921 -303 c4 -6 -11 -10 -37 -10 -31 0 -39
3 -28 10 20 13 57 13 65 0z m-32 -52 c-6 -7 -166 -232 -357 -500 -191 -269
-354 -488 -362 -488 -8 0 -14 7 -14 15 0 7 -7 18 -16 23 -15 8 -15 13 5 48 21
37 21 41 7 75 -14 33 -20 37 -73 47 -107 21 -227 25 -319 12 -93 -13 -265 -60
-318 -87 -56 -27 -133 -84 -153 -111 -22 -30 -381 -545 -692 -992 -268 -387
-297 -432 -306 -477 l-7 -38 -19 44 c-11 24 -35 69 -54 100 -54 88 -54 101 -2
140 110 82 140 171 113 327 -27 157 -131 476 -197 606 -58 114 -139 156 -307
160 -57 1 -63 4 -68 25 -4 13 -4 26 -1 29 11 11 459 164 481 164 13 0 26 7 30
15 3 8 10 15 16 15 7 0 231 76 498 169 601 208 771 264 788 257 8 -3 22 3 31
12 20 21 611 247 778 299 257 79 341 102 360 97 11 -3 29 2 40 10 26 20 133
23 118 4z m-3397 -1290 c1 -102 4 -122 33 -203 19 -49 47 -116 63 -148 16 -32
31 -75 34 -95 7 -55 14 -72 29 -72 8 0 19 -8 24 -17 9 -16 10 -15 11 5 0 46
25 15 49 -62 17 -55 21 -80 13 -85 -16 -10 5 -81 23 -81 9 0 24 -31 40 -87 15
-49 35 -115 45 -148 38 -121 209 -692 229 -763 l20 -73 -37 3 c-29 2 -38 8
-44 28 -7 24 -7 24 -4 -3 4 -33 -17 -46 -45 -29 -36 23 -42 15 -37 -48 2 -33
7 -62 11 -66 3 -4 24 8 45 25 44 34 52 37 52 18 0 -14 -35 -47 -50 -47 -6 0
-10 -4 -10 -10 0 -5 -5 -10 -11 -10 -6 0 -30 -18 -52 -40 -22 -23 -46 -44 -53
-48 -7 -4 -40 -52 -73 -107 -63 -103 -84 -122 -31 -28 l30 53 -26 10 c-23 9
-26 15 -21 44 3 18 1 39 -3 46 -5 8 -4 22 1 32 6 12 6 18 -1 18 -5 0 -10 15
-10 33 0 19 -3 37 -7 41 -4 3 -8 32 -10 63 -2 31 -8 62 -14 69 -6 7 -9 21 -8
31 1 10 0 25 -3 33 -3 8 -11 35 -18 60 -6 25 -16 53 -21 62 -5 10 -9 27 -9 37
0 11 -4 23 -10 26 -5 3 -10 17 -10 30 0 13 -4 27 -10 30 -5 3 -10 19 -10 36 0
16 -3 29 -7 29 -15 0 -45 89 -38 111 5 13 3 19 -3 15 -12 -7 -35 19 -30 36 2
6 -4 20 -15 31 -10 10 -16 25 -13 33 3 8 -1 14 -9 14 -7 0 -16 14 -20 30 -4
17 -11 30 -16 30 -5 0 -9 6 -9 14 0 7 -9 25 -21 40 -11 15 -18 33 -15 41 3 8
-3 16 -15 20 -16 6 -24 22 -20 47 0 4 -8 10 -19 13 -13 4 -20 15 -20 31 0 14
-6 24 -14 24 -16 0 -29 27 -20 41 3 5 -2 9 -11 9 -9 0 -18 12 -21 30 -4 17
-12 30 -19 30 -15 0 -47 35 -39 43 4 3 -1 13 -10 22 -9 9 -14 21 -11 26 4 5
-3 9 -15 9 -12 0 -25 10 -31 24 -6 13 -20 27 -31 29 -11 3 -22 15 -25 26 -3
12 -12 21 -20 21 -8 0 -17 9 -20 19 -3 11 -13 21 -24 24 -10 3 -22 13 -26 24
-3 10 -11 21 -17 25 -11 7 114 153 409 477 55 60 100 110 100 110 0 1 0 -50 1
-111z m72 -25 c23 -77 30 -119 26 -145 -5 -31 -2 -41 18 -60 27 -25 82 -184
67 -193 -21 -13 -119 191 -147 307 -14 54 -16 198 -4 198 5 0 23 -48 40 -107z
m5679 -206 c9 -10 7 -193 -7 -851 l-10 -448 -41 -67 -41 -66 -72 -1 -72 0 -43
69 -42 70 8 641 c4 353 12 647 17 655 7 10 39 12 152 9 78 -2 146 -7 151 -11z
m-343 -28 c11 -56 7 -1229 -4 -1229 -7 0 -7 -6 0 -19 11 -22 14 -141 3 -141
-9 0 -98 273 -99 304 -1 12 -10 39 -21 61 -22 43 -98 270 -107 320 -16 80 -83
615 -82 650 1 39 2 40 51 52 63 16 157 30 211 32 39 1 42 -1 48 -30z m611 -16
c33 -9 69 -21 80 -27 11 -5 25 -9 31 -8 15 3 141 -42 226 -80 l67 -31 -21 -41
c-25 -50 -376 -616 -393 -634 -10 -11 -12 -10 -9 10 3 12 29 180 59 371 30
192 58 354 61 360 4 7 1 7 -7 -1 -9 -8 -35 -150 -75 -405 l-61 -392 -109 -172
c-60 -95 -111 -172 -114 -173 -3 0 -4 26 -3 57 1 32 7 303 13 603 6 300 13
559 16 576 l6 31 86 -14 c48 -7 114 -21 147 -30z m-906 -318 c17 -126 34 -241
36 -255 13 -62 -17 20 -85 233 -41 129 -73 248 -73 275 -2 46 -2 47 33 52 34
5 35 3 47 -35 6 -22 25 -143 42 -270z m-7171 299 c15 -4 22 -14 22 -30 0 -28
-150 -646 -159 -656 -8 -9 -151 615 -151 660 l0 32 133 0 c72 0 142 -3 155 -6z
m-315 -46 c9 -24 50 -191 92 -373 l77 -330 -33 -118 c-18 -64 -34 -116 -35
-114 -2 1 -87 180 -190 397 -178 377 -241 526 -229 539 10 9 196 39 251 40
l51 1 16 -42z m462 27 c28 -4 87 -16 131 -27 l82 -20 -10 -36 c-10 -36 -403
-859 -418 -875 -4 -5 -20 44 -35 108 l-27 116 87 352 c47 194 88 362 91 375 3
17 10 21 27 18 12 -3 45 -8 72 -11z m-808 -62 c3 -10 11 -25 18 -33 6 -8 105
-212 219 -452 l207 -437 -41 -163 c-23 -90 -49 -171 -57 -181 -9 -9 -21 -27
-27 -39 -6 -13 -19 -24 -28 -26 -15 -3 -322 211 -348 243 -9 10 -224 872 -244
973 -6 33 -5 34 62 64 73 34 174 66 210 67 13 1 25 -6 29 -16z m1228 -53 l120
-47 -3 -34 c-1 -19 -23 -104 -48 -189 -25 -85 -47 -162 -50 -172 -3 -9 -33
-34 -68 -56 -131 -82 -344 -249 -449 -351 -115 -112 -127 -116 -127 -44 0 30
280 624 408 865 54 102 36 100 217 28z m8028 -52 c40 -23 98 -59 130 -80 l57
-39 -17 -31 c-15 -24 -492 -595 -695 -830 -28 -32 -48 -58 -45 -58 6 0 208
232 563 645 224 260 217 254 250 234 36 -22 204 -179 204 -190 0 -18 -59 -89
-454 -542 l-389 -446 -94 -32 c-52 -17 -95 -29 -96 -27 -1 2 -16 19 -34 38
l-32 35 18 113 c15 88 24 119 42 140 l24 27 -24 -20 -24 -20 6 25 c3 14 18
106 33 205 l27 180 205 325 c207 327 250 390 265 390 5 0 41 -19 80 -42z
m-9585 -22 c14 -31 245 -937 240 -942 -2 -1 -46 29 -98 69 l-95 72 -167 335
c-91 184 -167 337 -167 340 -3 15 234 149 265 150 6 0 16 -11 22 -24z m7675
-164 c30 -95 51 -172 47 -170 -13 5 -219 272 -220 283 0 13 103 74 111 66 4
-3 31 -84 62 -179z m-5864 122 c47 -25 96 -53 109 -63 l24 -17 -59 -44 c-79
-60 -285 -201 -288 -198 -5 5 90 322 103 346 7 12 15 22 19 22 3 0 44 -20 92
-46z m5820 -204 c53 -69 105 -136 113 -150 9 -14 40 -92 68 -175 l53 -150 2
-169 c1 -123 -1 -165 -9 -154 -6 7 -137 169 -291 358 -154 190 -293 362 -309
383 l-28 39 43 44 c24 24 48 44 53 44 6 0 27 -19 47 -42 37 -43 37 -43 58 -24
29 27 27 40 -16 75 -20 17 -35 32 -32 35 2 2 24 20 49 39 l45 36 28 -32 c15
-18 72 -88 126 -157z m-5665 78 c-38 -45 -438 -458 -440 -455 -2 1 9 48 24
104 l28 102 169 117 c94 64 183 128 199 141 34 28 47 22 20 -9z m-2236 -45
c48 -83 284 -554 280 -558 -5 -5 -509 375 -539 407 l-26 26 41 41 c56 55 178
150 193 151 7 0 30 -30 51 -67z m7518 -105 c33 -36 604 -744 618 -767 5 -8 14
-43 21 -77 14 -77 17 -76 -108 -31 l-88 32 -322 295 c-178 162 -333 308 -346
323 l-23 28 44 56 c56 73 151 173 164 173 5 0 24 -15 40 -32z m-5017 -42 l22
-23 -68 -50 c-115 -85 -213 -153 -219 -153 -3 0 47 56 111 125 65 69 121 125
124 125 4 0 18 -11 30 -24z m7887 -53 c28 -32 72 -87 98 -123 l48 -65 -59 -55
c-32 -30 -183 -162 -334 -292 l-276 -237 -184 -59 c-101 -33 -185 -58 -187
-56 -2 1 164 195 368 431 330 380 452 513 470 513 3 0 28 -26 56 -57z m-10676
32 c7 -8 16 -15 21 -15 5 0 136 -94 291 -209 l283 -209 58 -118 c31 -64 56
-118 55 -120 -2 -1 -193 87 -425 196 -394 186 -503 242 -503 260 0 22 182 230
201 230 4 0 12 -7 19 -15z m2981 -184 c27 -35 49 -72 49 -81 0 -11 -17 -25
-47 -38 -27 -11 -113 -50 -192 -87 -79 -36 -144 -65 -145 -63 -2 2 -14 23 -28
48 -15 26 -45 70 -67 100 -23 30 -41 57 -41 60 0 6 31 28 234 172 l81 57 54
-52 c29 -29 75 -81 102 -116z m-882 62 c-11 -38 -25 -88 -31 -112 -10 -38 -44
-79 -245 -290 -129 -135 -237 -247 -241 -248 -4 -2 -22 49 -41 112 l-35 116
60 60 c97 99 230 210 388 323 82 58 152 106 157 106 4 0 -1 -30 -12 -67z
m5809 -363 c166 -151 300 -275 299 -277 -2 -1 -163 59 -358 133 -194 75 -375
143 -401 153 -82 30 -84 34 -41 110 20 36 57 96 81 133 l45 68 36 -23 c21 -12
173 -146 339 -297z m-6468 176 l23 -105 -23 -56 c-12 -30 -26 -58 -31 -61 -5
-3 -20 21 -35 53 -21 49 -24 63 -15 93 32 114 52 180 55 180 2 0 13 -47 26
-104z m9489 -93 c28 -57 51 -108 51 -113 0 -5 -15 -16 -32 -25 -36 -18 -740
-246 -745 -241 -5 4 533 466 586 503 l46 32 21 -26 c12 -14 45 -72 73 -130z
m-11116 125 c15 -6 226 -103 469 -217 l441 -206 90 -193 c49 -106 88 -194 86
-196 -2 -2 -113 -10 -247 -19 l-243 -16 -387 278 c-213 154 -397 290 -410 304
l-23 25 39 79 c53 104 118 187 140 178 9 -4 29 -12 45 -17z m3260 -50 c33 -45
127 -221 127 -239 0 -8 -15 -23 -32 -33 -18 -11 -104 -66 -191 -122 l-158
-104 -10 28 c-6 15 -21 54 -33 87 -13 33 -44 102 -70 152 l-46 93 70 31 c39
18 121 56 183 85 62 30 117 54 124 54 7 0 23 -15 36 -32z m6486 -95 c-10 -65
-24 -153 -30 -197 -11 -76 -13 -80 -76 -153 -36 -41 -63 -76 -60 -79 2 -3 28
25 57 61 30 36 55 63 57 61 2 -2 -4 -45 -13 -95 l-17 -91 -36 21 c-20 12 -48
29 -63 38 -27 16 -28 18 -28 107 l0 91 101 164 c94 152 118 189 124 189 1 0
-6 -53 -16 -117z m-7170 -52 c28 -41 48 -78 44 -81 -20 -17 -314 -142 -320
-136 -17 17 47 117 131 203 49 51 91 92 92 90 1 -1 25 -35 53 -76z m6201 -351
c0 -38 -26 -24 -73 37 -47 63 -48 64 -57 166 -5 56 -9 127 -9 157 0 53 3 48
70 -144 38 -109 69 -206 69 -216z m-4220 318 c1 -19 -18 -6 -24 16 -3 13 -8
32 -12 43 -3 10 4 2 15 -17 11 -19 20 -38 21 -42z m-2981 -48 c1 -21 -58 -144
-66 -137 -3 4 -14 2 -24 -4 -13 -7 -19 -6 -19 1 0 11 28 127 52 215 l11 40 23
-50 c12 -27 23 -57 23 -65z m94 63 c6 -34 -49 -106 -59 -78 -7 18 35 117 46
110 4 -3 10 -17 13 -32z m-731 -62 c58 -44 66 -56 84 -149 l6 -32 -51 22 c-51
21 -54 23 -107 129 -30 60 -54 112 -54 115 0 4 15 -5 33 -18 17 -13 58 -44 89
-67z m3763 23 c51 -71 132 -155 208 -215 41 -33 51 -37 74 -28 14 5 29 7 32 3
3 -3 5 -29 5 -58 -2 -55 -37 -140 -78 -184 -21 -24 -67 -52 -84 -52 -5 0 -19
43 -31 94 -16 65 -45 140 -92 238 -63 128 -69 145 -58 166 10 18 10 25 1 31
-11 7 -36 71 -27 71 2 0 24 -30 50 -66z m3267 -90 c227 -86 428 -162 446 -170
18 -7 80 -55 137 -106 99 -89 120 -113 93 -103 -7 2 -274 55 -593 116 -690
133 -625 119 -625 130 0 37 106 289 121 289 5 0 195 -70 421 -156z m-7774
-232 c204 -146 372 -269 372 -272 0 -7 -133 -20 -212 -20 -39 0 -101 24 -345
130 -164 72 -304 129 -311 128 -7 -2 116 -59 273 -128 158 -68 288 -128 291
-131 10 -17 -664 -54 -681 -37 -9 9 11 154 33 232 11 39 22 60 36 65 16 7 17
9 3 14 -12 5 -14 12 -7 34 30 94 56 166 81 221 l28 63 33 -17 c18 -9 201 -136
406 -282z m11005 281 c3 -10 21 -58 40 -108 19 -49 38 -108 41 -130 7 -39 6
-41 -26 -53 -37 -14 -1131 -185 -1154 -180 -9 2 39 50 117 117 l132 114 406
128 c223 70 413 128 422 128 9 1 19 -7 22 -16z m-9509 -20 c4 -16 9 -36 13
-47 4 -15 -1 -13 -31 10 -33 26 -34 30 -19 46 22 25 30 23 37 -9z m984 -33
c18 -33 51 -106 72 -162 21 -57 45 -107 54 -113 10 -6 29 -6 56 1 22 6 40 8
40 5 -1 -3 -31 -26 -68 -51 -37 -25 -114 -78 -172 -118 -112 -77 -120 -79
-240 -68 -25 2 -81 6 -125 9 -121 8 -179 17 -186 29 -4 6 21 70 56 142 117
245 97 219 194 262 47 22 126 58 176 81 49 22 95 42 100 42 6 1 25 -26 43 -59z
m-1085 3 c-14 -21 -42 -35 -29 -14 3 4 10 21 16 37 9 21 13 25 20 14 5 -8 2
-22 -7 -37z m1866 -97 c21 -56 42 -122 46 -147 l6 -44 -78 -29 c-43 -16 -178
-73 -301 -128 l-223 -98 -82 5 c-45 3 -104 7 -132 10 -27 3 -68 5 -90 4 -22 0
-37 2 -35 4 3 2 49 34 102 70 649 441 715 482 734 466 7 -6 31 -57 53 -113z
m-2278 -3 c82 -60 147 -112 145 -118 -6 -22 -38 -14 -147 36 -63 28 -118 55
-122 59 -5 4 -13 27 -18 51 -5 24 -12 52 -15 62 -3 9 -2 17 1 17 4 0 74 -48
156 -107z m1108 60 c-6 -15 -15 -33 -21 -41 -13 -15 -68 -45 -73 -40 -5 5 90
108 98 108 4 0 2 -12 -4 -27z m2326 -25 c4 -24 13 -65 21 -92 27 -96 13 -89
-20 9 -18 55 -31 106 -28 113 8 24 20 11 27 -30z m4671 -95 c-2 -2 -17 0 -34
3 -31 6 -32 8 -32 58 l0 51 35 -55 c18 -30 32 -56 31 -57z m239 23 l-7 -65
-27 16 c-14 10 -28 18 -30 20 -2 1 11 25 29 53 18 28 35 49 37 46 3 -2 2 -34
-2 -70z m-8531 22 l45 -21 31 -136 c17 -75 33 -142 35 -148 3 -7 2 -13 -1 -13
-4 0 -164 327 -164 336 0 7 9 4 54 -18z m660 7 c14 -36 -47 -105 -93 -105 -50
0 -41 32 19 69 28 17 50 35 50 41 0 15 17 12 24 -5z m3484 4 l24 1 -23 -38
c-13 -20 -35 -56 -50 -80 l-27 -43 -4 68 c-4 74 11 110 41 97 9 -4 26 -6 39
-5z m-3398 -42 c0 -20 -1 -20 -16 -5 -9 9 -13 21 -9 27 10 16 25 3 25 -22z
m500 16 c0 -4 -32 -74 -72 -156 -61 -125 -74 -146 -84 -132 -12 17 -4 69 32
193 14 47 21 55 62 77 50 26 62 29 62 18z m2504 -129 c9 -34 16 -68 16 -75 -2
-37 -80 161 -80 200 0 30 48 -64 64 -125z m3965 68 c36 -47 36 -46 4 -56 -18
-6 -25 -2 -32 16 -12 34 -22 103 -12 92 4 -5 22 -28 40 -52z m-7414 -59 c91
-39 98 -44 90 -65 -6 -15 -84 -55 -120 -60 -11 -2 -26 -16 -33 -31 -8 -16 -21
-31 -30 -34 -10 -2 -27 -10 -40 -16 -14 -6 -26 -7 -30 -1 -8 9 -72 278 -72
301 0 8 29 -1 78 -23 42 -20 113 -52 157 -71z m6780 -34 c319 -60 582 -109
585 -109 3 0 6 -30 7 -66 2 -36 7 -73 13 -83 5 -11 7 -47 3 -84 -5 -57 -10
-70 -39 -98 l-32 -31 -584 128 c-320 70 -594 128 -608 129 -60 4 -60 4 -60 36
0 34 35 215 51 266 12 39 -69 49 664 -88z m507 59 c61 -21 80 -45 52 -65 -28
-20 -36 -16 -94 43 -31 32 -46 54 -35 49 11 -4 46 -16 77 -27z m1713 4 c-11
-11 -71 -63 -133 -117 l-114 -98 -116 -18 c-64 -10 -117 -17 -118 -16 -2 1 27
35 64 75 l67 73 180 59 c99 32 182 59 185 59 2 1 -4 -7 -15 -17z m-8215 -80
l-22 -81 -38 27 -38 27 56 57 c31 32 58 56 60 54 2 -2 -6 -40 -18 -84z m7308
47 c-2 -6 -8 -10 -13 -10 -5 0 -11 4 -13 10 -2 6 4 11 13 11 9 0 15 -5 13 -11z
m65 -10 c12 -6 30 -18 39 -26 16 -14 15 -18 -14 -54 -17 -22 -35 -39 -40 -39
-4 0 -19 22 -32 48 -34 68 -12 101 47 71z m-98 -18 c6 -19 -31 -91 -47 -91 -4
0 -15 11 -24 25 -15 23 -15 26 6 55 24 34 56 39 65 11z m1959 -28 c18 -57 36
-169 36 -235 0 -46 -1 -48 -29 -48 -24 0 -909 -138 -1181 -184 l-85 -15 -102
37 -103 37 0 46 0 47 101 88 101 87 596 93 c328 51 609 93 624 93 23 1 28 -5
42 -46z m-7785 -30 c13 -53 30 -161 33 -208 l3 -40 -80 3 c-150 7 -205 11
-400 28 -38 3 -85 6 -104 6 -19 -1 -30 3 -25 8 17 17 526 238 551 239 7 1 16
-16 22 -36z m5871 -13 c25 -48 25 -59 -1 -89 -19 -23 -20 -23 -41 -5 -21 19
-21 19 -9 -3 16 -31 7 -29 -14 3 -9 15 -12 23 -6 20 14 -9 14 7 0 21 -8 8 -4
22 13 52 12 22 26 41 30 41 4 0 17 -18 28 -40z m-570 11 c5 -11 10 -32 10 -46
0 -26 -2 -27 -37 -20 -46 8 -43 6 -46 41 -2 22 3 29 23 35 38 11 39 10 50 -10z
m679 -107 c-17 -21 -27 -17 -44 16 -16 30 -15 32 17 73 l33 41 3 -58 c2 -34
-2 -64 -9 -72z m89 91 c29 -20 50 -40 47 -45 -3 -5 -24 -14 -46 -20 -22 -6
-47 -14 -55 -17 -11 -4 -14 7 -14 56 0 34 3 61 8 61 4 0 31 -16 60 -35z m301
8 c-7 -10 -33 -39 -58 -65 -42 -45 -46 -47 -63 -31 -10 9 -18 26 -18 39 0 19
11 26 73 47 39 14 74 26 76 26 2 1 -2 -7 -10 -16z m-7921 -73 c17 -11 32 -27
32 -35 0 -23 -13 -18 -50 20 -38 39 -31 45 18 15z m6852 -8 c0 -11 -39 -47
-44 -41 -2 2 -7 14 -10 27 -7 19 -4 22 23 22 17 0 31 -4 31 -8z m630 -33 c0
-10 -61 -30 -72 -23 -5 4 3 19 18 36 26 27 30 28 41 12 7 -10 13 -21 13 -25z
m184 27 c-3 -8 -22 -17 -42 -21 -20 -3 -45 -8 -54 -11 -10 -3 -18 -1 -18 4 0
8 80 39 107 41 7 1 10 -5 7 -13z m371 -26 c-8 -12 -152 -130 -159 -130 -3 0
-6 6 -6 13 0 7 -9 30 -19 50 -23 45 -27 42 94 61 50 7 91 14 93 15 2 0 0 -3
-3 -9z m-8908 -31 c6 -6 9 -19 6 -29 -5 -19 -20 -24 -229 -79 l-111 -29 -74
54 c-40 30 -71 55 -69 55 5 1 400 34 446 38 11 0 25 -4 31 -10z m53 2 c0 -17
-18 -21 -24 -6 -3 9 0 15 9 15 8 0 15 -4 15 -9z m8315 -1 c3 -5 -1 -10 -9 -10
-8 0 -18 5 -21 10 -3 6 1 10 9 10 8 0 18 -4 21 -10z m-1479 -145 c324 -69 597
-128 608 -131 17 -6 17 -7 3 -15 -8 -5 -62 -25 -119 -45 l-103 -36 -518 13
c-284 7 -512 16 -505 21 10 5 8 8 -4 8 -16 0 -18 12 -18 103 0 56 3 126 6 155
6 48 9 52 34 52 15 0 292 -56 616 -125z m1627 77 c-3 -23 -9 -42 -12 -42 -4 0
-22 16 -40 34 l-34 35 24 5 c33 7 64 12 66 11 1 0 -1 -19 -4 -43z m102 38 c9
-15 -76 -113 -87 -102 -6 6 -7 32 -3 61 l7 51 38 0 c22 0 42 -5 45 -10z
m-9046 -57 l75 -57 -49 -13 c-28 -7 -58 -13 -68 -13 -23 0 -268 112 -261 119
6 6 106 17 183 19 39 2 53 -4 120 -55z m1661 32 c52 -4 105 -8 118 -9 12 0 22
-3 22 -6 0 -3 -29 -24 -65 -47 l-65 -43 -91 22 c-86 21 -91 24 -105 56 -8 19
-14 35 -14 36 0 3 111 -2 200 -9z m-1885 -57 c74 -33 135 -64 135 -68 0 -3
-210 -57 -467 -119 -443 -108 -511 -126 -500 -137 2 -3 230 52 505 120 l500
126 87 -41 c47 -22 85 -44 83 -47 -2 -4 -21 -41 -43 -82 -36 -69 -40 -83 -45
-174 -5 -99 -5 -99 -40 -126 l-35 -28 -445 -37 c-464 -39 -555 -44 -572 -27
-8 8 -48 241 -48 285 0 9 8 18 18 18 14 1 14 2 1 6 -13 3 -17 25 -22 108 -4
57 -4 131 -1 164 l7 59 51 8 c52 7 590 50 659 53 27 1 76 -17 172 -61z m3825
46 c0 -21 -60 -74 -83 -74 -14 0 -6 12 30 45 26 24 49 44 51 45 1 0 2 -7 2
-16z m5489 -64 c1 -48 -12 -54 -65 -31 l-48 22 45 45 44 45 12 -28 c7 -15 12
-39 12 -53z m-7076 47 c48 -2 90 -7 94 -10 3 -4 -33 -25 -81 -47 l-87 -40
-120 7 c-133 7 -132 5 -44 64 42 29 58 34 100 32 28 -1 90 -4 138 -6z m321
-27 c43 -6 82 -7 87 -4 5 3 40 1 77 -5 37 -5 126 -13 197 -16 146 -7 187 -12
197 -29 10 -15 10 -86 1 -86 -20 0 -814 61 -863 66 l-54 6 98 43 c105 46 92
45 260 25z m-1934 -42 c0 -9 -10 -24 -22 -32 -17 -12 -20 -18 -10 -28 17 -17
15 -57 -3 -64 -9 -4 -14 -14 -13 -23 2 -9 -3 -16 -10 -16 -19 0 -122 78 -119
90 2 6 38 34 82 62 79 53 94 55 95 11z m7897 -15 c2 -6 -15 -15 -37 -21 -35
-9 -41 -8 -36 5 3 8 6 28 6 45 l0 31 32 -25 c18 -14 33 -29 35 -35z m2383 -90
c0 -76 -3 -149 -7 -162 l-6 -24 -486 6 -486 5 -150 61 c-82 33 -148 61 -145
62 37 10 1198 187 1233 188 l47 1 0 -137z m-1617 58 c-2 -6 2 -11 7 -11 6 0
10 -4 10 -9 0 -10 -63 19 -92 42 -31 24 -20 27 30 8 26 -11 46 -24 45 -30z
m-8931 13 c43 -30 45 -35 20 -57 -17 -15 -23 -14 -97 21 l-78 37 39 12 c58 17
74 16 116 -13z m8869 -11 c34 -20 33 -28 -7 -59 l-29 -23 -1 50 c0 27 1 49 4
49 2 0 17 -8 33 -17z m-5301 -46 c0 -17 -20 -37 -37 -37 -16 0 -17 22 -1 38
16 16 38 15 38 -1z m5364 7 c12 -4 16 -20 16 -54 0 -41 -3 -49 -22 -54 -44
-11 -73 -6 -87 16 -13 21 -11 25 30 60 24 21 45 38 46 38 1 0 8 -3 17 -6z
m-8784 -58 c71 -52 47 -60 -45 -13 -63 31 -66 34 -50 50 19 19 18 19 95 -37z
m8973 25 c37 -14 67 -28 67 -32 0 -4 -23 -10 -51 -14 -66 -9 -99 7 -99 48 0
16 4 27 8 25 4 -1 38 -14 75 -27z m-5409 -46 c-6 -15 -45 -21 -57 -8 -4 4 5
19 20 35 26 27 28 28 35 8 4 -11 5 -27 2 -35z m-3612 -6 c37 -18 68 -35 68
-39 0 -4 -54 -58 -120 -120 l-120 -112 0 54 c0 30 7 77 15 104 14 49 68 144
81 144 4 0 38 -14 76 -31z m8168 14 c-1 -5 -6 -17 -13 -29 -11 -19 -16 -19
-67 -9 l-55 11 45 16 c49 18 90 23 90 11z m-455 -13 c8 -13 66 -13 99 0 42 15
30 3 -26 -30 -50 -28 -59 -30 -162 -30 -60 0 -106 3 -102 8 8 8 154 60 173 61
6 1 15 -3 18 -9z m475 -21 c-6 -10 -15 -19 -21 -19 -6 0 -8 3 -6 8 2 4 7 15
10 25 4 10 11 15 17 12 7 -4 7 -13 0 -26z m1088 -26 l143 -58 -135 -3 -135 -3
-73 47 c-40 26 -68 49 -62 51 11 4 91 20 109 22 6 1 74 -25 153 -56z m-9128
37 c0 -5 -4 -10 -10 -10 -5 0 -10 5 -10 10 0 6 5 10 10 10 6 0 10 -4 10 -10z
m7698 -38 c3 -19 0 -20 -35 -15 -49 8 -50 9 -16 27 34 19 47 16 51 -12z m235
11 c40 -9 75 -16 80 -15 11 3 9 -16 -3 -23 -5 -3 -10 -3 -10 2 0 4 -43 7 -96
5 -124 -4 -148 22 -46 47 2 1 35 -7 75 -16z m141 2 c4 -10 -1 -15 -14 -15 -20
0 -26 11 -13 23 10 11 20 8 27 -8z m832 -30 l69 -45 -102 0 -102 0 5 33 c3 17
7 38 10 45 7 24 51 12 120 -33z m-8926 10 c0 -7 9 -17 20 -20 11 -3 20 -14 20
-23 0 -9 -41 -69 -91 -132 -84 -107 -94 -115 -132 -122 -88 -14 -95 -12 -103
29 l-7 37 129 122 c81 77 134 120 143 116 10 -4 12 -1 6 8 -5 9 -4 11 3 6 7
-4 12 -13 12 -21z m7023 -1 c147 -4 264 -10 260 -14 -9 -8 -878 -287 -907
-292 -17 -3 -22 7 -32 57 -7 33 -18 98 -25 145 -6 47 -12 89 -13 95 -3 25 40
25 717 9z m532 -34 c-59 -36 -981 -558 -1033 -584 -30 -15 -55 -26 -57 -24 -8
8 -50 122 -75 203 -25 81 -27 91 -13 102 12 9 910 309 975 326 4 1 58 1 120
-1 l112 -3 -29 -19z m520 20 c-3 -5 -10 -10 -16 -10 -5 0 -9 5 -9 10 0 6 7 10
16 10 8 0 12 -4 9 -10z m515 -9 c15 -29 13 -31 -32 -31 l-41 0 23 25 c28 30
36 31 50 6z m-4413 -59 c-6 -51 -11 -59 -32 -42 -10 8 -13 20 -8 34 4 12 8 32
9 46 1 14 3 27 3 29 1 2 8 -3 17 -10 12 -10 15 -25 11 -57z m3580 19 c18 -20
37 -54 44 -76 6 -22 27 -57 46 -77 l36 -37 -32 -50 c-38 -59 -26 -52 -746
-416 l-469 -237 -24 28 c-23 29 -114 200 -126 239 -8 26 -25 15 609 377 l520
297 55 -6 c47 -5 60 -12 87 -42z m218 30 c35 -7 26 -16 -27 -25 -34 -6 -108
13 -108 28 0 8 97 5 135 -3z m-6787 -50 l22 -30 -33 -9 c-17 -6 -44 -13 -59
-16 l-27 -6 27 45 c15 24 32 45 38 45 5 0 20 -13 32 -29z m38 21 c16 -11 25
-42 12 -42 -14 0 -48 30 -48 42 0 10 21 10 36 0z m6968 -47 l6 -40 -14 35
c-17 41 -20 68 -7 55 5 -6 12 -28 15 -50z m-29 6 c10 -22 15 -47 12 -55 -3 -8
-30 -29 -59 -46 -29 -18 -44 -29 -34 -26 16 6 17 4 6 -9 -17 -21 -21 -20 -100
28 -72 43 -93 74 -70 102 7 8 23 15 36 15 l23 0 -21 -35 c-11 -20 -18 -39 -14
-42 3 -4 6 0 7 8 0 8 3 6 8 -5 6 -16 10 -10 21 27 7 26 15 47 19 48 13 2 136
26 142 28 3 0 14 -17 24 -38z m72 27 c15 -7 30 -13 32 -15 2 -1 -7 -12 -20
-23 -22 -20 -23 -20 -2 -11 12 6 25 16 28 21 8 13 25 13 25 0 0 -5 -13 -16
-29 -25 -31 -15 -61 -11 -61 9 0 6 -3 21 -6 34 -7 25 -5 26 33 10z m384 -15
c15 -38 1 -73 -40 -100 l-34 -23 -36 22 c-53 32 -53 31 -31 81 l21 47 55 0
c50 0 55 -2 65 -27z m950 -324 c296 -187 539 -343 539 -346 0 -20 -149 -263
-161 -263 -18 0 -108 50 -499 280 -217 127 -454 266 -527 308 -131 77 -131 77
-173 150 -23 40 -44 71 -47 68 -3 -3 9 -30 27 -60 34 -60 33 -65 -5 -40 -38
24 -47 75 -24 121 10 20 19 43 19 51 0 8 9 27 21 43 l20 29 136 0 135 0 539
-341z m218 167 c238 -95 436 -177 441 -182 13 -13 -76 -259 -105 -292 -2 -2
-25 7 -52 21 -51 25 -981 602 -997 618 -6 5 45 9 135 9 l146 0 432 -174z m450
164 c35 -5 65 -11 68 -13 6 -7 -23 -174 -44 -248 -14 -52 -19 -59 -37 -53 -43
12 -801 308 -810 316 -14 11 744 10 823 -2z m-8644 -20 c24 -8 16 -9 -34 -5
-35 3 -95 5 -133 5 -49 0 -67 3 -62 11 8 13 181 5 229 -11z m6872 -7 c-20 -47
-58 -119 -51 -98 4 11 6 28 6 38 0 9 3 17 8 17 5 0 7 6 4 14 -7 19 13 56 31
56 12 0 13 -5 2 -27z m-8407 -8 c6 -8 9 -23 5 -35 -5 -15 -1 -22 19 -30 18 -7
26 -17 26 -34 0 -13 3 -31 6 -39 4 -12 -11 -16 -83 -22 -48 -3 -100 -9 -115
-11 -16 -3 -28 -2 -28 3 0 16 132 183 145 183 7 0 18 -7 25 -15z m8360 -1 c0
-11 -5 -14 -16 -10 -15 6 -15 4 -3 -11 12 -17 12 -17 -5 -1 -10 9 -15 21 -12
27 11 17 36 13 36 -5z m-104 -29 c-8 -40 -43 -122 -56 -130 -12 -7 -20 8 -35
64 l-12 46 51 27 c28 15 53 27 55 28 2 0 0 -16 -3 -35z m-6918 -161 c-3 -2
-53 1 -113 8 l-108 12 -31 44 c-17 24 -31 49 -31 55 0 7 29 20 65 29 l65 17
78 -80 c44 -44 77 -82 75 -85z m217 148 c23 -13 187 -47 350 -71 103 -15 114
-19 172 -61 34 -25 89 -62 123 -83 34 -21 60 -40 59 -41 -2 -2 -124 12 -271
29 -147 18 -347 41 -444 51 l-176 18 -74 80 c-70 76 -73 81 -52 88 36 11 290
3 313 -10z m902 -26 c3 -3 2 -9 -2 -15 -10 -17 -274 -14 -306 3 -14 7 -50 16
-80 20 -69 9 -99 16 -99 25 0 7 480 -25 487 -33z m1671 -11 c-4 -30 -30 -24
-41 9 -7 21 -6 30 4 37 18 11 41 -18 37 -46z m4209 -33 c-11 -70 -19 -79 -52
-64 -31 14 -31 27 0 98 24 54 26 56 44 40 16 -14 17 -23 8 -74z m-182 -19 c7
-49 7 -50 -21 -56 -28 -6 -114 26 -114 41 0 4 26 26 57 50 64 48 68 47 78 -35z
m-7069 -30 c-2 -3 -36 -1 -75 3 l-71 7 19 31 c11 17 30 36 42 43 21 11 26 8
56 -34 18 -26 31 -48 29 -50z m7353 78 c17 -13 20 -20 12 -26 -7 -4 -20 0 -30
9 -25 23 -38 20 -16 -4 21 -23 21 -22 -22 -44 -39 -19 -40 -16 -12 41 23 48
33 51 68 24z m181 -73 c0 -11 -12 -10 -30 2 -13 9 -13 11 0 19 14 9 29 -2 30
-21z m-6272 16 c82 -6 92 -9 92 -27 0 -27 -30 -140 -40 -151 -13 -13 -320 160
-320 180 0 6 165 5 268 -2z m-2718 -28 c0 -13 -40 -30 -49 -21 -2 3 4 14 14
25 18 20 35 18 35 -4z m3379 18 c30 -6 31 -8 15 -25 -16 -17 -15 -19 10 -28
28 -11 36 -47 14 -69 -9 -9 -8 -12 3 -16 47 -14 51 -17 46 -34 -12 -43 -11
-47 11 -50 29 -4 28 -7 -10 -59 l-33 -44 -97 3 c-99 3 -120 10 -100 30 7 7 12
24 12 39 0 15 5 31 10 34 6 3 8 16 4 29 -3 14 1 27 10 35 8 7 12 19 9 27 -3 8
-2 22 2 32 5 9 7 25 6 35 -1 10 3 24 9 32 7 8 9 19 5 25 -7 11 26 13 74 4z
m4846 -4 c7 -11 -38 -60 -55 -60 -7 0 -7 7 1 23 24 46 41 58 54 37z m786 -85
c9 -28 15 -52 13 -54 -2 -2 -33 22 -70 54 -65 58 -66 58 -42 71 37 20 79 -10
99 -71z m-7569 59 c34 -5 45 -15 99 -90 34 -47 59 -87 57 -89 -2 -3 -60 11
-129 31 -68 19 -148 42 -176 50 -63 17 -67 33 -20 81 34 36 36 36 169 17z
m-1014 -21 c-3 -27 -8 -29 -143 -66 -186 -50 -202 -46 -140 36 39 51 33 49
223 55 l63 2 -3 -27z m1187 2 c44 -4 90 -9 102 -12 21 -5 250 -240 242 -248
-3 -2 -58 11 -124 30 -66 18 -139 38 -162 44 -36 10 -49 22 -100 94 -80 111
-79 110 -57 104 11 -3 55 -8 99 -12z m6678 9 c5 -5 -24 -33 -75 -73 -16 -12
-17 -11 -7 20 7 19 19 40 27 47 17 13 45 16 55 6z m-8143 -8 c0 -2 -13 -20
-29 -40 l-29 -37 -21 30 c-31 43 -27 51 29 51 28 0 50 -2 50 -4z m8811 -68
l81 -73 104 -330 c57 -181 103 -333 104 -336 0 -12 -327 -137 -333 -128 -2 2
-61 161 -131 353 l-127 349 12 70 c7 38 17 74 23 79 19 15 161 87 173 88 7 0
49 -33 94 -72z m-9071 54 c0 -4 -48 -55 -107 -114 l-108 -106 -250 -67 c-137
-37 -275 -74 -305 -81 -55 -15 -67 -21 -59 -28 2 -2 132 31 288 75 157 43 286
78 287 76 7 -7 -443 -447 -457 -447 -15 0 -77 94 -129 198 -30 61 -30 65 -13
78 17 13 17 14 -5 11 -21 -2 -28 9 -63 98 -58 150 -73 206 -57 216 20 12 56
16 488 54 400 34 468 40 483 43 4 1 7 -1 7 -6z m148 -37 c35 -49 38 -60 21
-70 -14 -9 -300 -85 -319 -85 -8 0 30 45 85 100 94 94 102 100 140 100 37 0
44 -4 73 -45z m8437 -23 c72 -5 63 7 85 -118 l10 -61 -229 -544 c-288 -684
-281 -669 -297 -669 -50 0 -294 112 -294 135 0 8 99 288 221 622 l220 608 60
47 60 47 50 -32 c40 -24 65 -32 114 -35z m662 -65 c30 -54 56 -105 57 -113 1
-7 11 -24 23 -36 30 -33 225 -397 218 -408 -7 -11 -153 -100 -165 -100 -5 0
-16 24 -24 53 -9 28 -53 170 -99 315 -46 144 -81 262 -78 262 4 0 30 -21 59
-46 29 -26 55 -44 58 -42 2 3 -27 31 -65 63 -62 51 -71 64 -85 114 -21 74 -21
73 15 53 20 -12 48 -48 86 -115z m-7077 88 c549 -62 700 -87 700 -115 0 -36
-105 -290 -120 -290 -6 0 -61 15 -123 34 -95 29 -342 98 -483 135 -33 9 -59
31 -150 132 -60 66 -111 125 -113 130 -2 6 10 8 30 5 19 -3 135 -17 259 -31z
m2360 5 c0 -10 -4 -21 -9 -24 -12 -8 -22 20 -15 39 8 19 24 9 24 -15z m3772
-11 c-9 -24 -34 -55 -61 -77 -88 -71 -88 -71 -56 -17 16 28 36 62 44 77 13 22
60 55 83 57 3 1 -1 -17 -10 -40z m-6962 11 c0 -5 -10 -10 -22 -10 -19 0 -20 2
-8 10 19 13 30 13 30 0z m-814 -106 c-6 -28 -12 -32 -49 -40 -23 -4 -53 -7
-67 -5 -30 2 -150 59 -150 70 0 5 60 24 133 43 l132 35 3 -36 c2 -19 1 -49 -2
-67z m790 81 c24 -6 27 -33 39 -275 l5 -105 -58 61 c-67 70 -74 90 -76 217 -2
79 0 90 18 103 11 8 27 12 36 10 8 -3 25 -7 36 -11z m6902 -4 c-1 -4 -25 -43
-53 -85 -47 -73 -69 -93 -425 -378 -206 -165 -394 -321 -418 -347 l-42 -46
-48 54 c-64 73 -162 204 -162 216 0 9 1122 592 1143 594 5 1 7 -3 5 -8z m488
-28 c13 -31 14 -44 4 -78 -11 -34 -14 -37 -20 -20 -4 11 -10 46 -14 78 -9 67
6 77 30 20z m1060 -281 c280 -167 524 -317 543 -332 l34 -29 -44 -58 c-24 -32
-69 -84 -100 -116 -48 -50 -60 -57 -76 -49 -10 6 -190 162 -399 346 l-379 336
-57 102 c-60 109 -66 124 -44 111 7 -4 242 -144 522 -311z m-1021 298 c3 -5 2
-17 -3 -26 -9 -17 -14 -13 -25 19 -7 18 17 25 28 7z m-7185 -55 c90 -25 170
-51 177 -58 8 -7 96 -132 197 -278 138 -197 182 -267 174 -277 -6 -7 -19 -10
-30 -6 -11 3 -34 -1 -52 -9 -17 -8 -49 -20 -71 -25 -22 -6 -62 -17 -90 -24
-27 -7 -56 -11 -62 -10 -7 2 -27 -5 -44 -14 -31 -16 -32 -15 -59 13 -24 25
-232 252 -301 328 -27 30 -27 32 -34 224 -7 186 -7 193 11 187 11 -3 93 -26
184 -51z m7214 2 c-7 -49 -24 -65 -24 -22 0 24 20 78 27 72 2 -2 0 -25 -3 -50z
m-4264 34 c0 -5 -21 -32 -46 -60 -49 -55 -78 -66 -72 -28 2 17 11 23 36 25 29
3 33 7 28 25 -3 11 0 27 6 34 12 15 48 18 48 4z m-3945 -40 c13 -27 13 -31 -1
-45 -22 -23 -24 -21 -24 29 0 25 2 45 5 45 2 0 11 -13 20 -29z m7690 -48
c-120 -334 -415 -1126 -420 -1131 -7 -8 -91 36 -203 105 -62 39 -72 49 -66 67
4 11 130 220 282 464 273 439 275 443 350 502 41 33 76 60 78 60 2 0 -7 -30
-21 -67z m-8019 46 c4 -7 48 -31 98 -56 50 -24 98 -48 106 -53 8 -6 27 -14 43
-20 27 -10 27 -10 21 -82 -12 -138 12 -106 -379 -498 -198 -198 -361 -360
-363 -360 -3 0 -27 17 -55 37 l-50 37 53 46 c41 36 51 51 48 70 -6 45 -41 37
-89 -19 -23 -28 -46 -51 -51 -51 -19 0 -89 74 -85 90 4 16 588 801 630 848 22
23 61 29 73 11z m-384 -396 c-160 -214 -305 -401 -322 -418 l-31 -30 -44 50
c-25 28 -70 83 -101 122 l-56 73 30 37 c16 21 128 135 248 253 l219 215 170
47 c94 25 172 44 174 42 2 -2 -127 -178 -287 -391z m953 377 c3 -5 -1 -10 -9
-10 -9 0 -16 5 -16 10 0 6 4 10 9 10 6 0 13 -4 16 -10z m7935 -137 c-7 -40
-16 -73 -20 -73 -8 0 -20 60 -20 102 0 15 8 47 17 70 l17 42 9 -34 c6 -23 5
-60 -3 -107z m-7998 73 c-11 -45 -42 -37 -42 11 0 13 7 23 18 25 22 5 31 -8
24 -36z m1200 -16 l158 -43 143 -151 c201 -211 218 -231 190 -224 -12 3 -30 0
-40 -8 -10 -7 -31 -14 -46 -14 -15 0 -41 -7 -58 -15 -16 -9 -34 -13 -39 -10
-6 3 -20 -1 -32 -9 -12 -9 -36 -16 -53 -16 -27 0 -39 14 -135 150 -237 339
-273 393 -259 388 7 -2 85 -24 171 -48z m-1252 -8 c0 -34 -9 -46 -85 -122 -46
-46 -87 -81 -90 -78 -6 6 9 176 17 183 2 2 23 -1 47 -6 48 -11 59 -5 66 31 5
25 24 42 37 34 4 -3 8 -22 8 -42z m3680 28 c0 -5 -12 -10 -26 -10 -14 0 -23 4
-19 10 3 6 15 10 26 10 10 0 19 -4 19 -10z m-3490 -38 c0 -13 -12 -22 -22 -16
-10 6 -1 24 13 24 5 0 9 -4 9 -8z m-116 -17 c7 -19 35 -19 56 0 15 14 19 14
29 1 10 -12 -1 -32 -61 -112 l-73 -98 -3 98 c-3 98 5 126 33 126 7 0 15 -7 19
-15z m366 -5 c0 -5 -7 -10 -16 -10 -8 0 -12 5 -9 10 3 6 10 10 16 10 5 0 9 -4
9 -10z m7765 -333 c97 -266 114 -319 104 -335 -10 -15 -8 -39 6 -111 18 -94
30 -111 70 -108 15 2 28 -24 71 -143 60 -165 64 -186 32 -193 -68 -16 -229
-38 -258 -35 -31 3 -35 7 -42 43 -5 22 -40 267 -79 545 l-70 505 17 89 c11 59
20 83 25 73 5 -8 61 -157 124 -330z m-4760 316 c8 19 59 24 70 7 4 -6 14 -9
23 -8 9 2 18 -5 20 -14 5 -24 -38 -33 -83 -18 -31 10 -39 9 -54 -4 -21 -20
-65 -21 -80 -3 -8 11 -7 18 7 30 24 21 65 25 79 7 10 -13 12 -13 18 3z m3924
-20 c-72 -117 -487 -773 -505 -798 l-22 -29 -56 43 c-30 24 -84 69 -118 101
l-63 58 21 23 c12 13 20 29 18 34 -2 8 731 605 744 605 2 0 -7 -17 -19 -37z
m566 -596 c-47 -265 -94 -513 -103 -551 l-16 -68 -55 6 c-67 8 -238 43 -252
52 -6 3 -8 17 -5 30 6 21 132 323 427 1019 l64 150 13 -78 14 -78 -87 -482z
m-7693 598 c8 -17 19 -25 32 -24 32 4 60 -8 75 -32 12 -20 10 -24 -18 -46 -17
-14 -31 -31 -31 -38 0 -8 -9 -19 -20 -25 -11 -6 -23 -22 -26 -36 -3 -13 -14
-30 -24 -37 -9 -6 -20 -22 -24 -34 -4 -12 -20 -31 -35 -42 -16 -11 -34 -34
-41 -50 -7 -17 -20 -33 -29 -36 -9 -3 -24 -18 -33 -35 -9 -16 -21 -30 -26 -30
-5 0 -12 60 -14 133 l-5 132 75 100 c41 55 77 102 79 104 2 3 15 -6 30 -20 19
-17 23 -18 12 -4 -30 37 -31 45 -9 45 12 0 25 -10 32 -25z m1463 -49 c250 -70
345 -102 345 -117 0 -5 -9 -27 -20 -48 -22 -44 -74 -81 -114 -81 -15 0 -38 -7
-51 -16 -14 -9 -32 -13 -41 -10 -9 4 -23 1 -31 -6 -12 -9 -38 13 -147 128
-173 182 -201 214 -185 214 8 0 118 -29 244 -64z m1075 45 l35 -7 -35 -19
c-39 -22 -100 -28 -100 -11 0 6 -5 18 -10 26 -9 13 -11 13 -19 0 -12 -18 -26
-7 -18 14 6 15 59 14 147 -3z m-2780 -40 c0 -21 3 -65 6 -97 l6 -59 -107 -143
c-59 -78 -110 -141 -112 -138 -2 2 1 71 8 152 l12 149 85 88 c47 48 89 87 94
87 4 0 8 -17 8 -39z m9265 -484 c61 -54 121 -112 135 -129 l24 -31 -54 -49
c-30 -27 -85 -69 -123 -95 l-67 -47 -18 24 c-25 34 -162 270 -162 280 0 4 17
22 38 39 66 54 72 61 72 75 0 17 -128 156 -143 156 -7 0 -30 -14 -51 -30 -22
-17 -40 -29 -41 -27 -9 11 -185 336 -185 341 0 4 105 -87 233 -201 127 -114
282 -252 342 -306z m-8805 487 c0 -8 -5 -12 -10 -9 -6 4 -8 11 -5 16 9 14 15
11 15 -7z m220 -179 c0 -27 3 -108 6 -180 l6 -130 -100 146 -100 145 7 60 c4
32 18 79 31 104 l23 45 63 -70 c61 -66 64 -72 64 -120z m-340 23 c0 -20 -68
-148 -107 -200 -19 -27 -41 -48 -49 -48 -8 0 -25 -7 -38 -16 -14 -9 -27 -11
-30 -6 -3 6 1 12 9 16 8 3 15 12 15 21 0 9 15 31 33 49 66 69 97 107 97 121 0
8 9 19 19 25 11 5 23 19 26 30 7 22 25 27 25 8z m540 -186 c87 -94 130 -146
123 -153 -9 -9 -74 -24 -156 -36 -20 -3 -40 -9 -43 -14 -3 -5 -21 -9 -39 -9
-54 0 -61 26 -69 235 l-7 180 29 -30 c16 -16 89 -94 162 -173z m7226 -339 c38
-271 65 -496 60 -500 -11 -11 -156 -16 -242 -8 l-74 7 0 31 c-1 55 175 999
182 980 4 -10 37 -239 74 -510z m-8326 351 l-13 -157 -199 -273 -200 -274 -31
16 c-61 32 -172 97 -205 121 -28 21 -31 27 -21 46 14 27 671 688 677 682 3 -3
-1 -75 -8 -161z m238 -109 l-3 -60 -45 0 c-57 -1 -70 -9 -70 -46 0 -25 6 -32
41 -45 26 -11 49 -30 64 -54 23 -36 24 -48 31 -298 4 -143 4 -267 1 -275 -4
-12 -18 -12 -94 -2 -94 14 -177 32 -205 47 -14 6 -16 18 -13 56 3 26 17 175
31 332 l25 285 42 60 c22 33 73 103 111 155 l71 95 8 -95 c4 -52 6 -122 5
-155z m437 6 c-9 -102 -18 -191 -20 -197 -2 -7 -21 -14 -42 -17 -21 -4 -56 -9
-78 -13 -37 -5 -38 -5 -21 9 11 8 17 21 13 30 -3 8 1 21 9 27 16 14 19 46 4
55 -6 4 -8 16 -5 27 4 11 0 26 -9 37 -15 16 -12 24 39 105 30 48 69 105 87
128 31 37 33 39 36 18 2 -13 -4 -107 -13 -209z m238 -110 c2 -21 -3 -27 -23
-29 -14 -2 -30 -8 -37 -14 -14 -12 -118 -37 -153 -38 l-26 0 12 148 c7 81 16
171 19 200 l7 53 100 -147 c56 -82 100 -158 101 -173z m1257 244 c0 -10 -53
-85 -60 -85 -15 0 -61 43 -57 53 5 16 117 46 117 32z m-106 -86 l26 -31 -32
-45 c-18 -26 -64 -80 -103 -120 l-70 -75 -33 34 c-47 48 -151 191 -146 200 3
5 16 8 29 8 13 0 34 4 47 9 13 4 50 16 83 25 33 10 78 23 100 30 46 15 62 10
99 -35z m-296 -163 c45 -63 82 -121 82 -129 0 -13 -124 -125 -196 -176 -27
-19 -39 -23 -52 -15 -9 6 -81 82 -159 169 -118 132 -140 161 -127 168 17 10
89 31 154 47 19 5 64 17 100 28 112 34 106 37 198 -92z m-1812 -271 c-29 -293
-34 -325 -51 -332 -13 -4 -144 39 -235 78 -43 18 -50 25 -44 43 6 19 105 163
290 424 41 58 60 78 62 65 2 -10 -9 -136 -22 -278z m1413 183 c142 -164 211
-248 211 -259 0 -12 -100 -77 -195 -126 l-75 -38 -25 30 c-43 53 -285 413
-285 424 0 6 12 11 27 11 15 0 40 4 57 9 17 5 49 14 71 20 22 5 56 14 75 19
19 6 38 10 42 11 4 1 48 -45 97 -101z m7914 -46 c41 -75 78 -146 81 -158 5
-18 -5 -28 -61 -65 -59 -38 -88 -54 -185 -101 -13 -6 -20 -1 -32 24 -16 34
-106 296 -106 309 0 4 24 19 53 32 28 13 77 43 107 65 30 22 58 38 62 36 3 -2
40 -66 81 -142z m-8285 37 c53 -69 272 -402 272 -413 0 -29 -277 -127 -292
-103 -4 6 -10 34 -13 62 -4 37 -35 458 -35 478 0 1 11 2 25 2 13 -1 33 -12 43
-26z m-66 -227 c24 -336 26 -307 -25 -321 -46 -11 -235 -41 -262 -41 -12 0
-15 15 -15 73 0 71 35 466 42 472 2 2 26 9 53 16 28 6 65 17 82 25 18 7 39 11
47 8 8 -3 23 -1 33 4 10 6 20 8 23 6 2 -3 12 -112 22 -242z m8076 58 c23 -69
44 -145 47 -170 l6 -45 -78 -32 c-100 -41 -171 -63 -199 -63 -18 0 -28 11 -44
48 -28 61 -103 273 -98 277 1 1 35 12 74 24 40 12 109 39 155 61 46 21 87 36
90 32 4 -4 25 -63 47 -132z m-8362 83 c-3 -27 -13 -138 -22 -248 -8 -110 -19
-213 -23 -230 l-7 -30 -147 0 c-94 0 -151 5 -158 12 -7 7 -12 100 -16 269 -2
143 -1 254 4 248 13 -18 70 -44 97 -44 14 0 37 5 53 12 15 6 42 12 58 14 37 4
115 23 135 35 28 15 32 9 26 -38z"/>
<path d="M4981 4504 c0 -11 3 -14 6 -6 3 7 2 16 -1 19 -3 4 -6 -2 -5 -13z"/>
<path d="M4991 4464 c0 -11 3 -14 6 -6 3 7 2 16 -1 19 -3 4 -6 -2 -5 -13z"/>
<path d="M5006 4410 c4 -19 11 -44 15 -55 6 -14 7 -9 3 15 -4 19 -11 44 -15
55 -6 14 -7 9 -3 -15z"/>
<path d="M5036 4300 c4 -19 11 -44 15 -55 6 -14 7 -9 3 15 -4 19 -11 44 -15
55 -6 14 -7 9 -3 -15z"/>
<path d="M5061 4204 c0 -11 3 -14 6 -6 3 7 2 16 -1 19 -3 4 -6 -2 -5 -13z"/>
<path d="M5071 4170 c0 -8 4 -24 9 -35 5 -13 9 -14 9 -5 0 8 -4 24 -9 35 -5
13 -9 14 -9 5z"/>
<path d="M5091 4094 c0 -11 3 -14 6 -6 3 7 2 16 -1 19 -3 4 -6 -2 -5 -13z"/>
<path d="M10050 3930 c6 -11 13 -20 16 -20 2 0 0 9 -6 20 -6 11 -13 20 -16 20
-2 0 0 -9 6 -20z"/>
<path d="M10095 3850 c9 -16 18 -30 21 -30 2 0 -2 14 -11 30 -9 17 -18 30 -21
30 -2 0 2 -13 11 -30z"/>
<path d="M2494 2207 c16 -20 30 -37 33 -37 7 0 -36 58 -49 66 -7 4 1 -9 16
-29z"/>
</g>
</svg>
