<?xml version="1.0" standalone="no"?>
<!DOCTYPE svg PUBLIC "-//W3C//DTD SVG 20010904//EN"
 "http://www.w3.org/TR/2001/REC-SVG-20010904/DTD/svg10.dtd">
<svg version="1.0" xmlns="http://www.w3.org/2000/svg"
 width="1280.000000pt" height="764.000000pt" viewBox="0 0 1280.000000 764.000000"
 preserveAspectRatio="xMidYMid meet">
<metadata>
Created by potrace 1.15, written by Peter Selinger 2001-2017
</metadata>
<g transform="translate(0.000000,764.000000) scale(0.100000,-0.100000)"
fill="#000000" stroke="none">
<path d="M9320 7634 c-14 -2 -90 -8 -170 -14 -80 -6 -197 -15 -260 -20 -63 -6
-196 -17 -295 -25 -554 -46 -605 -51 -653 -70 -50 -20 -87 -61 -103 -114 -15
-51 5 -116 44 -145 28 -20 40 -21 495 -25 l467 -3 38 -33 38 -33 -219 -483
-219 -484 -2527 -3 -2528 -2 6 37 c3 21 8 81 11 133 3 52 14 223 25 380 30
435 30 443 -27 469 -40 18 -64 12 -99 -24 l-33 -36 -233 65 c-128 36 -300 83
-383 105 -82 23 -165 48 -182 58 -29 14 -35 14 -50 1 -97 -81 -166 -146 -208
-197 -38 -46 -57 -61 -85 -66 -80 -15 -145 -77 -164 -158 -11 -46 12 -108 58
-153 74 -74 165 -79 242 -12 45 39 65 78 67 131 1 37 9 49 87 131 l87 90 354
-99 c195 -54 364 -100 376 -103 16 -3 23 -11 23 -29 0 -39 -69 -1062 -76
-1120 l-5 -53 -87 0 c-146 1 -445 19 -454 28 -5 5 9 14 31 21 67 20 153 133
166 218 5 31 1 46 -23 84 -33 51 -112 109 -151 110 -14 0 -138 6 -276 13 -137
7 -253 10 -257 7 -4 -3 -4 -117 -1 -253 6 -245 6 -248 27 -248 12 0 73 7 136
16 63 9 116 12 117 7 20 -57 92 -111 131 -99 10 3 65 -6 122 -20 88 -22 136
-27 303 -31 109 -3 200 -9 202 -14 3 -4 -4 -107 -15 -229 -11 -122 -20 -225
-20 -229 0 -4 -51 3 -112 16 -190 38 -303 48 -533 47 -452 -1 -845 -96 -1257
-305 -249 -127 -487 -298 -678 -489 -105 -106 -250 -276 -249 -295 0 -10 87
-81 111 -90 9 -4 37 24 78 77 140 178 343 361 565 510 108 72 421 238 449 238
6 0 -59 -35 -145 -78 -754 -375 -1247 -1054 -1369 -1886 -77 -521 10 -1033
255 -1503 382 -733 1078 -1220 1898 -1328 773 -102 1542 161 2100 720 643 642
882 1601 618 2480 -16 55 -28 101 -26 103 6 6 65 -193 90 -302 12 -56 28 -151
35 -212 7 -60 14 -114 15 -120 2 -7 25 -8 71 -3 38 5 74 8 79 8 21 1 -15 248
-62 435 -47 187 -100 330 -193 521 -143 291 -326 542 -571 780 -260 253 -539
435 -864 566 -92 37 -121 53 -123 68 -2 11 6 127 17 258 22 255 40 488 43 566
1 26 5 46 8 45 6 -3 386 -387 1855 -1873 1063 -1076 1025 -1036 1025 -1064 0
-28 -36 -81 -56 -81 -8 0 -14 -8 -14 -19 0 -27 -27 -88 -42 -93 -6 -2 -13 -23
-14 -45 -1 -22 -8 -51 -15 -64 -7 -13 -13 -45 -14 -71 -1 -26 -8 -54 -15 -63
-10 -12 -10 -18 0 -30 7 -8 11 -35 9 -62 -1 -26 3 -60 9 -76 6 -15 13 -42 15
-60 2 -17 14 -53 26 -80 12 -26 19 -51 16 -57 -3 -5 1 -12 8 -17 20 -12 57
-69 57 -87 0 -9 6 -16 13 -16 7 0 18 -9 25 -20 11 -18 -2 -36 -140 -195 -102
-118 -157 -174 -167 -171 -9 3 -62 12 -119 21 -98 16 -103 16 -135 -2 -26 -15
-35 -29 -45 -72 -15 -61 -5 -102 32 -126 24 -16 520 -105 582 -105 51 0 81 21
94 68 26 97 -6 145 -112 165 l-66 12 108 125 c60 69 115 126 124 128 19 4 96
-35 96 -49 0 -6 6 -9 14 -6 20 8 97 -14 103 -29 3 -8 10 -11 16 -7 19 11 91 3
108 -13 11 -10 19 -12 24 -5 9 15 88 14 103 -1 9 -9 15 -8 24 4 16 19 82 30
96 16 8 -8 15 -8 26 1 16 14 427 63 437 52 3 -3 16 -42 28 -86 79 -278 258
-617 457 -864 351 -435 888 -757 1449 -870 184 -37 278 -46 490 -46 212 0 306
9 490 46 572 114 1106 438 1463 886 222 278 404 654 485 998 49 207 62 323 62
565 0 308 -31 502 -124 780 -65 192 -65 192 -40 140 68 -145 145 -437 170
-649 l12 -103 76 7 c42 4 79 11 82 16 3 5 46 15 95 21 49 6 90 12 91 12 1 1
-12 78 -28 171 -16 94 -34 202 -40 240 -9 57 -20 84 -61 147 l-50 78 -42 -7
c-22 -4 -56 -8 -74 -8 -33 0 -34 2 -67 85 -242 622 -720 1153 -1310 1455 -230
118 -520 210 -790 251 -167 26 -560 26 -725 1 -153 -24 -319 -61 -459 -103
-62 -19 -118 -36 -123 -37 -9 -2 -62 125 -288 701 -111 282 -122 316 -113 345
6 18 112 257 237 533 l227 501 52 -5 c62 -5 176 18 239 48 62 29 131 99 165
168 48 98 33 215 -38 296 -42 48 -93 61 -189 50z m-6435 -394 c182 -50 353
-98 380 -106 l51 -14 -4 -41 c-3 -33 -7 -39 -21 -34 -28 12 -655 186 -680 189
-16 2 -32 19 -53 54 -17 30 -24 50 -16 47 7 -2 162 -45 343 -95z m6163 -155
c17 -5 22 -12 17 -23 -3 -10 -102 -227 -218 -484 -149 -329 -214 -462 -219
-449 -3 10 -18 27 -32 39 -15 11 -22 22 -17 24 11 3 411 878 411 898 0 6 8 9
18 6 9 -2 27 -7 40 -11z m-6511 -904 c160 -8 187 -12 217 -30 40 -25 91 -81
101 -110 6 -20 -11 -101 -22 -101 -3 0 -3 8 -1 18 5 16 -15 17 -314 17 -275 0
-318 -2 -319 -15 -3 -29 -17 105 -18 172 l-1 68 88 -5 c48 -3 169 -10 269 -14z
m5853 -191 c0 -11 -143 -324 -830 -1815 -211 -456 -392 -852 -404 -878 -19
-43 -24 -47 -35 -33 -10 11 -18 13 -31 6 -30 -16 -62 -12 -87 12 -18 17 -26
19 -35 10 -15 -15 -80 -16 -96 0 -9 9 -16 7 -31 -6 -20 -18 -75 -25 -103 -12
-11 5 -18 2 -23 -12 -7 -24 -56 -44 -76 -31 -24 15 -38 10 -45 -15 -7 -28 -41
-46 -77 -39 -22 4 -27 1 -33 -21 -3 -14 -10 -26 -14 -26 -6 0 -927 929 -2664
2688 l-180 182 2382 0 c1642 0 2382 -3 2382 -10z m300 -430 c68 -173 149 -380
180 -460 l57 -145 -71 -31 c-419 -183 -804 -483 -1059 -825 l-27 -36 54 -41
c30 -23 58 -43 63 -44 5 -2 46 42 90 97 45 55 121 138 169 185 l88 85 -90 -95
c-157 -167 -290 -343 -379 -505 -21 -38 -39 -71 -40 -73 -5 -6 -175 41 -171
47 4 6 689 1492 889 1929 61 133 114 239 118 235 3 -5 62 -150 129 -323z
m-5860 -560 c107 -13 293 -50 311 -61 31 -19 -4 -17 -107 6 -222 50 -566 70
-779 46 -166 -20 -194 -21 -110 -6 189 35 478 41 685 15z m7437 -16 c-3 -3
-12 -4 -19 -1 -8 3 -5 6 6 6 11 1 17 -2 13 -5z m90 -10 c-3 -3 -12 -4 -19 -1
-8 3 -5 6 6 6 11 1 17 -2 13 -5z m-8342 -19 c-27 -7 -59 -13 -70 -13 -11 0 3
6 30 13 28 7 59 13 70 13 11 0 -2 -6 -30 -13z m8388 8 c-7 -2 -19 -2 -25 0 -7
3 -2 5 12 5 14 0 19 -2 13 -5z m147 -28 c176 -45 472 -158 526 -201 11 -8 -5
-3 -34 11 -147 72 -333 139 -513 185 -63 16 -106 29 -96 30 10 0 63 -11 117
-25z m-7820 5 c108 -11 232 -32 338 -56 l72 -16 0 -39 c0 -21 -3 -39 -8 -39
-4 0 -57 11 -117 25 -366 83 -793 71 -1150 -31 -912 -262 -1572 -1015 -1704
-1944 -48 -333 -33 -617 49 -934 86 -333 268 -678 502 -951 352 -410 824 -680
1364 -780 686 -127 1365 45 1919 486 638 507 971 1345 860 2164 -90 663 -475
1275 -1035 1650 -112 75 -287 167 -418 221 l-94 37 7 36 c4 20 8 37 10 39 1 1
38 -11 81 -28 819 -322 1408 -1075 1530 -1955 22 -160 22 -459 0 -624 -72
-539 -295 -1009 -660 -1388 -389 -405 -903 -665 -1458 -739 -147 -19 -429 -22
-578 -4 -848 98 -1559 597 -1931 1355 -156 320 -226 576 -248 920 -46 680 212
1381 682 1858 406 412 955 680 1507 736 120 12 368 12 480 1z m7448 0 c313
-34 584 -115 874 -262 724 -365 1204 -1053 1319 -1888 20 -139 17 -469 -4
-610 -82 -540 -308 -1004 -672 -1379 -209 -214 -396 -350 -670 -487 -255 -126
-508 -203 -805 -245 -112 -16 -440 -16 -560 -1 -469 61 -916 250 -1275 539
-360 290 -644 712 -789 1171 -34 110 -34 112 12 112 l39 0 17 -62 c40 -144
123 -340 208 -490 300 -533 789 -923 1381 -1102 124 -37 264 -68 402 -88 134
-19 455 -16 600 6 822 123 1500 628 1836 1366 97 213 158 420 195 660 25 159
25 482 1 640 -40 264 -109 486 -226 725 -209 426 -498 742 -901 985 -499 301
-1089 408 -1663 299 -60 -11 -163 -36 -230 -55 -67 -20 -128 -37 -135 -38 -7
0 -20 14 -27 32 -14 32 -14 33 13 43 119 46 411 112 562 128 123 12 385 13
498 1z m-8261 -6 c-3 -3 -12 -4 -19 -1 -8 3 -5 6 6 6 11 1 17 -2 13 -5z m-52
-14 c-11 -5 -27 -9 -35 -9 -9 0 -8 4 5 9 11 5 27 9 35 9 9 0 8 -4 -5 -9z m-88
-26 c-3 -3 -12 -4 -19 -1 -8 3 -5 6 6 6 11 1 17 -2 13 -5z m-47 -14 c-8 -5
-22 -9 -30 -9 -10 0 -8 3 5 9 27 12 43 12 25 0z m1755 -58 c183 -78 454 -243
575 -352 19 -17 -5 -1 -54 35 -173 128 -395 251 -588 326 -49 19 -88 38 -88
42 0 11 28 2 155 -51z m-1840 29 c-47 -21 -92 -36 -85 -28 7 8 103 46 115 46
6 0 -8 -8 -30 -18z m8272 -383 c-23 -1063 -29 -1325 -35 -1426 l-7 -113 -148
318 c-128 272 -272 623 -492 1193 -18 47 -42 108 -54 137 l-20 52 62 20 c176
58 387 99 567 111 63 4 119 8 124 9 6 0 7 -121 3 -301z m345 271 c187 -27 528
-123 528 -149 0 -4 -48 -131 -106 -281 -58 -151 -128 -330 -154 -399 -26 -69
-98 -255 -160 -415 -62 -159 -144 -371 -182 -470 -38 -99 -72 -183 -76 -186
-4 -4 -19 -9 -34 -13 -24 -5 -28 -3 -28 14 0 23 -10 26 -29 8 -10 -11 -15 -9
-26 6 -11 15 -18 16 -28 8 -10 -9 -20 -9 -41 1 l-27 12 6 170 c7 226 23 922
30 1320 3 176 8 338 11 360 l4 40 88 -3 c48 -1 149 -12 224 -23z m-7477 6 c66
-8 132 -18 146 -23 l26 -7 -169 -923 c-155 -855 -170 -926 -195 -963 -27 -37
-30 -39 -84 -39 -101 0 -85 -62 -259 985 -83 501 -153 920 -155 931 -5 21 1
23 83 34 48 6 94 13 102 15 50 10 402 3 505 -10z m6231 -12 c4 -16 8 -32 8
-36 1 -4 -37 -25 -84 -46 -413 -183 -801 -530 -1033 -923 l-52 -89 -35 6 c-19
4 -36 8 -38 10 -7 7 53 112 123 216 185 273 396 484 670 667 98 65 394 222
420 222 7 0 16 -12 21 -27z m-6943 -35 c10 -41 298 -1781 295 -1784 -7 -6
-1079 1487 -1073 1496 10 15 201 120 296 161 115 50 243 95 354 124 113 30
122 30 128 3z m1010 -9 c29 -8 37 -15 37 -33 0 -36 -57 -456 -86 -626 -35
-215 -178 -845 -200 -881 -15 -26 -178 -238 -181 -236 -2 3 316 1764 323 1785
4 14 22 12 107 -9z m442 -169 c138 -69 248 -136 243 -150 -2 -7 -558 -737
-643 -845 l-16 -20 5 20 c55 218 106 502 151 840 14 105 27 204 30 222 l6 32
52 -20 c29 -11 106 -46 172 -79z m5693 -305 c78 -198 226 -576 330 -840 104
-264 188 -481 187 -483 -4 -5 -258 30 -271 37 -7 3 -260 271 -563 595 l-551
590 23 24 c41 46 197 172 285 230 160 108 398 231 413 214 3 -4 70 -169 147
-367z m1743 302 c188 -95 375 -225 515 -357 l56 -53 -29 -28 c-53 -53 -1338
-1197 -1341 -1194 -3 3 30 93 198 525 67 173 144 371 170 440 26 69 92 238
145 375 53 138 106 274 117 303 11 28 25 52 32 52 6 0 68 -28 137 -63z m-6821
-112 c13 -14 21 -25 18 -25 -2 0 -15 11 -28 25 -13 14 -21 25 -18 25 2 0 15
-11 28 -25z m-2433 -621 c722 -997 675 -929 680 -978 5 -40 3 -43 -26 -55 -17
-8 -47 -31 -67 -53 -33 -37 -40 -40 -75 -35 -31 4 -181 109 -803 563 -421 308
-766 564 -766 570 0 22 171 223 279 327 112 108 318 270 335 264 6 -2 205
-273 443 -603z m2171 519 c181 -134 542 -538 509 -570 -7 -6 -334 -240 -728
-521 -752 -535 -817 -575 -765 -474 36 71 114 338 172 582 14 63 31 124 37
134 12 25 688 906 694 906 2 0 39 -26 81 -57z m5016 -802 c290 -310 525 -565
524 -566 -2 -2 -124 14 -273 35 l-270 38 -514 188 c-282 103 -509 190 -504
191 5 2 47 -5 93 -16 78 -19 86 -19 117 -4 40 19 51 37 59 96 9 67 -13 102
-78 122 -28 8 -58 15 -65 15 -23 0 -14 24 42 113 71 114 162 233 243 319 63
66 66 68 83 51 9 -10 254 -272 543 -582z m2704 537 c135 -143 263 -331 363
-532 38 -77 68 -140 66 -142 -1 -1 -365 -169 -810 -373 l-807 -371 -80 0 -80
0 6 25 c5 20 2 25 -14 25 -15 0 -18 5 -14 25 3 20 0 25 -18 25 -17 0 -20 4
-15 20 5 16 2 20 -19 20 -19 0 -26 5 -26 19 0 11 -6 21 -12 24 -10 3 -9 8 2
22 8 10 324 294 702 632 378 337 690 618 693 623 9 15 10 14 63 -42z m-10215
-814 c405 -296 735 -540 733 -542 -3 -2 -60 6 -128 17 -215 36 -1022 168
-1343 220 -171 28 -320 53 -332 56 l-22 5 30 111 c55 206 137 397 252 591 29
48 57 86 63 84 6 -2 342 -246 747 -542z m3079 413 c109 -191 210 -445 251
-629 l15 -67 -32 -6 c-17 -3 -287 -39 -601 -80 -313 -42 -687 -91 -829 -110
-143 -19 -261 -33 -263 -32 -3 4 1398 1005 1407 1006 3 1 26 -36 52 -82z
m7766 -122 c-3 -3 -9 2 -12 12 -6 14 -5 15 5 6 7 -7 10 -15 7 -18z m-7420 -20
c-3 -3 -9 2 -12 12 -6 14 -5 15 5 6 7 -7 10 -15 7 -18z m2706 -11 c20 -3 38
-10 41 -14 6 -9 -203 -250 -217 -250 -12 0 -14 -6 57 153 38 84 63 126 71 123
7 -3 29 -8 48 -12z m-2684 -39 c0 -5 -5 -3 -10 5 -5 8 -10 20 -10 25 0 6 5 3
10 -5 5 -8 10 -19 10 -25z m34 -85 c3 -14 -3 -7 -13 15 -11 22 -20 45 -20 50
0 15 26 -37 33 -65z m2848 -41 c-10 -24 -25 -66 -33 -92 -13 -47 -15 -48 -49
-45 -25 2 -35 8 -35 19 0 16 125 172 132 165 2 -2 -5 -23 -15 -47z m589 -124
c249 -91 455 -168 458 -171 3 -4 -3 -4 -14 -1 -11 3 -54 11 -95 16 -288 39
-875 122 -877 125 -2 2 1 14 6 27 5 13 22 57 36 97 15 39 28 72 30 72 2 0 207
-74 456 -165z m3767 61 c70 -192 116 -414 128 -619 l7 -117 -44 0 c-24 0 -159
7 -299 15 -618 36 -1332 75 -1366 75 -22 0 -34 4 -29 9 6 4 278 131 605 281
327 151 676 311 775 357 99 45 183 83 187 83 3 0 20 -38 36 -84z m-5179 -40
c9 -11 5 -15 -20 -20 -40 -8 -50 1 -25 20 25 17 31 18 45 0z m116 -7 c11 -17
-1 -21 -34 -14 -17 4 -29 11 -25 16 7 12 51 11 59 -2z m99 -24 c-3 -7 -15 -10
-30 -7 -18 3 -22 8 -14 17 13 16 50 8 44 -10z m-314 6 c0 -8 -61 -22 -69 -15
-1 1 0 7 4 13 8 13 65 15 65 2z m3018 -168 c45 -98 66 -153 57 -153 -10 0 -85
169 -133 300 -17 48 15 -14 76 -147z m-3128 138 c0 -5 -8 -11 -17 -14 -10 -2
-26 -8 -36 -12 -13 -5 -16 -3 -11 8 8 21 64 37 64 18z m381 -38 c7 -7 -15 -65
-72 -189 -45 -98 -85 -182 -88 -186 -4 -4 -48 75 -99 177 l-92 184 38 10 c20
5 46 12 57 15 35 9 245 0 256 -11z m586 3 c0 -1 -7 -35 -18 -76 -10 -41 -24
-109 -30 -150 -12 -74 -22 -100 -36 -87 -3 4 1 23 10 42 23 48 22 52 -18 59
-38 7 -38 9 -13 111 29 122 25 114 66 108 20 -3 38 -6 39 -7z m-1087 -26 c-27
-21 -40 -25 -40 -12 0 15 24 32 45 32 19 0 18 -2 -5 -20z m936 -35 c-10 -43
-16 -50 -39 -53 -15 -2 -27 1 -27 6 0 10 73 103 77 99 1 -2 -4 -25 -11 -52z
m889 -41 l620 -86 300 -110 c165 -60 307 -111 315 -114 11 -5 12 -8 3 -11 -9
-3 -10 -10 -3 -23 8 -15 6 -20 -10 -25 -15 -5 -19 -12 -14 -31 5 -18 2 -24
-11 -24 -12 0 -15 -5 -11 -16 7 -18 88 -18 -1189 6 -269 6 -541 10 -602 10
l-113 0 6 63 c15 162 68 447 83 447 3 0 285 -39 626 -86z m-5571 39 c-15 -62
-77 -240 -100 -285 l-24 -48 -30 15 c-38 20 -39 23 -26 75 8 30 41 83 96 157
47 61 86 112 88 112 1 1 -1 -11 -4 -26z m3833 -55 c12 -35 25 -72 29 -83 4
-11 -20 6 -55 40 -33 33 -61 62 -61 65 0 5 51 39 60 40 3 0 15 -28 27 -62z
m825 -63 c-5 -31 -16 -32 -37 -2 -15 21 -14 22 7 28 31 8 36 4 30 -26z m-6597
-85 c1247 -204 1289 -211 1320 -230 l31 -19 -3 -98 -2 -98 -54 -36 c-48 -31
-67 -37 -178 -51 -68 -9 -479 -67 -913 -128 -590 -83 -791 -108 -797 -99 -35
57 -45 525 -15 718 21 135 22 140 44 135 9 -2 265 -45 567 -94z m5498 94 c3
-3 3 -13 0 -21 -5 -12 -7 -12 -14 -1 -15 23 -4 40 14 22z m1034 -68 c18 -27
33 -52 33 -56 0 -7 -260 -103 -266 -98 -6 7 179 209 189 205 6 -2 26 -25 44
-51z m-2673 17 c35 -116 41 -523 12 -718 -10 -66 -22 -124 -26 -128 -4 -5
-410 57 -901 138 l-893 147 -68 51 -67 52 -1 61 0 60 80 58 81 58 857 113
c471 62 868 115 882 118 14 2 28 5 32 6 4 0 9 -7 12 -16z m4576 -8 l175 -24
52 -58 c28 -32 50 -59 48 -61 -2 -3 -395 138 -440 158 -29 13 -27 12 165 -15z
m-2723 -157 c100 -100 160 -167 155 -175 -5 -8 -415 -213 -427 -213 -1 0 -8
27 -15 60 -19 89 -8 239 22 322 24 65 83 168 97 168 3 0 79 -73 168 -162z
m-265 123 c-17 -31 -32 -32 -32 -2 0 22 9 31 31 31 17 0 17 -2 1 -29z m1218
12 c-1 -5 -7 -19 -15 -33 l-14 -25 -1 33 c0 22 5 32 15 32 8 0 15 -3 15 -7z
m2216 -45 c4 -5 2 -8 -4 -8 -7 0 -12 -7 -12 -15 0 -9 -9 -15 -25 -15 -18 0
-25 -5 -25 -20 0 -13 -7 -20 -20 -20 -11 0 -20 -5 -20 -12 0 -14 -39 21 -90
82 l-38 46 113 -16 c62 -8 117 -18 121 -22z m-7146 -33 c0 -8 -7 -15 -16 -15
-14 0 -14 3 -4 15 7 8 14 15 16 15 2 0 4 -7 4 -15z m-185 -5 c3 -5 1 -10 -4
-10 -6 0 -11 5 -11 10 0 6 2 10 4 10 3 0 8 -4 11 -10z m3851 -25 c-13 -40 -22
-44 -32 -13 -4 15 -1 25 12 35 28 20 32 16 20 -22z m1301 -1 c2 -6 -5 -18 -15
-27 -18 -16 -19 -15 -29 17 -10 33 -10 33 15 27 14 -4 27 -12 29 -17z m-4965
-55 c21 -11 38 -24 38 -29 0 -5 -16 -21 -36 -36 -29 -22 -37 -25 -44 -14 -15
24 -110 18 -147 -8 -114 -81 -57 -262 83 -262 42 0 111 37 107 57 -1 5 17 20
40 33 23 13 53 32 66 44 l24 21 -7 -45 c-10 -65 -53 -129 -110 -165 -43 -26
-59 -30 -121 -30 -62 0 -78 4 -121 30 -122 76 -149 237 -57 345 75 87 185 110
285 59z m7428 1 c76 -39 118 -101 127 -186 14 -136 -94 -254 -233 -254 -74 0
-149 41 -191 104 -33 49 -43 96 -20 96 33 0 86 -13 82 -20 -7 -12 34 -59 65
-75 90 -46 210 25 210 123 0 70 -65 150 -112 138 -13 -3 -23 8 -38 41 -11 25
-20 50 -20 55 0 15 87 0 130 -22z m-2605 -66 l-6 -34 -102 1 -102 0 105 53
c97 50 105 52 108 34 2 -11 1 -36 -3 -54z m2386 29 c21 -52 28 -84 18 -78 -5
4 -14 3 -20 -1 -8 -4 -7 -9 2 -15 9 -5 -10 -9 -49 -9 l-63 0 17 33 c14 28 72
97 81 97 2 0 8 -12 14 -27z m-3578 -15 c-8 -42 -7 -41 -27 -19 -16 17 -16 20
-1 35 25 25 35 19 28 -16z m1256 -52 c-5 -6 -9 7 -8 35 l1 44 8 -35 c5 -20 5
-39 -1 -44z m71 44 c0 -16 -2 -30 -4 -30 -2 0 -6 14 -8 30 -3 17 -1 30 4 30 4
0 8 -13 8 -30z m-4680 16 c0 -2 -12 -11 -26 -21 -25 -16 -25 -16 -14 4 9 17
40 30 40 17z m7460 -71 c0 -7 -72 -36 -78 -31 -2 3 -2 12 1 21 4 9 19 15 42
15 19 0 35 -2 35 -5z m-4122 -55 c-3 -19 -5 -20 -23 -6 -20 14 -20 14 0 36 17
19 21 20 23 6 2 -9 2 -25 0 -36z m5071 5 c436 -25 817 -45 847 -45 l54 0 0
-54 c0 -128 -29 -337 -69 -494 -24 -92 -78 -258 -94 -288 -12 -22 -23 -18
-865 290 l-853 312 -40 47 c-28 32 -36 47 -25 47 19 0 21 11 5 27 -8 8 -6 14
10 22 18 10 19 14 8 32 -10 17 -9 22 6 30 17 10 17 12 3 28 -15 16 -15 19 2
34 35 31 106 57 162 57 31 0 413 -20 849 -45z m-3865 -151 l6 -115 -35 -53
c-64 -97 -220 -223 -237 -192 -4 8 -39 105 -77 216 -68 195 -70 202 -55 233
l15 32 188 -3 188 -3 7 -115z m68 72 c-2 -20 -8 -39 -13 -42 -10 -6 -13 69 -3
79 13 13 20 -3 16 -37z m1535 14 c531 -10 597 -15 524 -46 -28 -12 -119 -9
-649 16 -833 41 -964 49 -637 44 138 -3 481 -9 762 -14z m-437 -35 c415 -19
782 -38 815 -43 l59 -7 -374 -167 -375 -167 -492 -53 c-432 -47 -494 -52 -498
-38 -25 85 -65 381 -65 483 l0 39 88 -6 c48 -3 427 -22 842 -41z m-2360 -12
c0 -16 -5 -20 -20 -16 -22 6 -26 33 -8 51 15 15 28 -2 28 -35z m1328 -9 c-6
-32 -25 -26 -20 6 3 21 8 28 14 22 6 -6 8 -18 6 -28z m-4733 -39 l40 -35 -35
6 c-82 13 -80 12 -68 39 6 14 14 25 17 25 3 -1 24 -16 46 -35z m-585 -16 c0
-4 -16 -9 -36 -11 l-37 -4 29 22 c26 22 43 18 44 -7z m7353 25 c3 -4 2 -15 -3
-25 -8 -14 -6 -19 11 -24 14 -5 19 -13 16 -26 -3 -10 -1 -20 4 -20 5 -1 15 -2
22 -3 6 -1 11 -11 9 -24 -3 -18 2 -22 21 -22 20 0 24 -4 20 -20 -4 -15 0 -20
13 -21 16 0 14 -4 -9 -22 -26 -20 -71 -27 -460 -69 -237 -26 -433 -46 -434
-45 -1 2 161 75 360 164 330 148 410 177 430 157z m-2622 -205 c75 -150 97
-204 88 -210 -21 -13 -131 -29 -196 -29 -96 0 -310 65 -301 91 4 11 298 349
303 349 3 0 50 -91 106 -201z m-716 144 c5 -19 2 -23 -15 -23 -26 0 -37 25
-20 46 15 17 24 10 35 -23z m1305 -14 c0 -4 -13 -12 -30 -18 -16 -5 -30 -9
-30 -7 0 2 5 17 11 35 11 31 12 31 30 15 11 -9 19 -20 19 -25z m-4712 11 l64
-11 656 -501 c362 -276 687 -525 724 -553 l66 -52 -60 -79 c-136 -176 -290
-326 -477 -463 -68 -49 -87 -59 -97 -49 -6 7 -250 358 -542 779 -461 666 -531
772 -537 812 -5 30 -4 47 3 47 6 0 30 20 54 45 30 30 49 43 63 40 11 -3 49 -9
83 -15z m-568 -18 c14 -15 38 -37 54 -48 29 -21 29 -21 15 -65 -12 -37 -522
-730 -1084 -1476 l-62 -82 -79 61 c-175 135 -327 292 -462 477 l-63 86 28 20
c15 11 358 250 763 532 476 332 746 513 765 516 81 11 100 7 125 -21z m4224
-49 c-37 -43 -73 -84 -80 -92 -10 -11 -18 -6 -43 29 -17 24 -31 49 -31 55 0
11 173 80 209 84 7 0 -17 -34 -55 -76z m-4435 53 c-17 -15 -1464 -1019 -1473
-1022 -26 -10 -178 288 -244 481 -29 83 -84 287 -79 291 2 2 1759 251 1786
253 8 0 12 -1 10 -3z m1760 -146 c469 -77 858 -140 864 -140 33 0 -72 -330
-168 -525 -64 -131 -144 -265 -157 -265 -5 0 -293 217 -641 483 -347 266 -663
506 -701 535 -38 29 -65 52 -60 52 5 0 393 -63 863 -140z m6426 129 c11 -17 2
-18 -25 -4 -24 14 -24 14 -3 15 12 0 25 -5 28 -11z m23 -47 c26 -14 747 -808
1181 -1301 l56 -64 -55 -49 c-158 -143 -350 -273 -548 -370 -68 -33 -125 -58
-126 -56 -14 18 -766 1727 -766 1740 0 11 5 15 14 12 9 -3 17 3 21 15 5 17 10
19 25 11 16 -9 21 -6 26 14 4 17 11 22 25 19 14 -4 19 0 19 16 0 16 6 21 25
21 14 0 25 5 25 11 0 12 30 5 78 -19z m-3991 -40 c-29 -5 -41 12 -27 38 l12
22 17 -28 c17 -28 17 -29 -2 -32z m1287 -8 c4 -36 15 -109 26 -162 11 -53 18
-97 17 -98 -1 -1 -18 -4 -37 -6 l-35 -3 -16 65 c-9 36 -20 89 -24 118 -6 46
-5 52 12 52 38 0 47 15 29 50 -21 42 -20 50 3 50 15 0 19 -11 25 -66z m-64 3
c0 -5 -4 -5 -10 -2 -5 3 -10 14 -10 23 0 15 2 15 10 2 5 -8 10 -19 10 -23z
m-4906 -10 c23 -30 31 -72 91 -473 36 -241 98 -664 139 -939 52 -348 71 -502
64 -506 -55 -34 -526 -45 -708 -16 -160 25 -210 37 -210 52 0 7 43 217 95 466
53 250 139 661 192 914 110 529 111 531 192 523 36 -4 106 3 118 11 1 0 13
-14 27 -32z m8576 -272 c448 -164 818 -300 822 -304 11 -10 -106 -239 -176
-346 -76 -116 -159 -224 -234 -305 -60 -65 -60 -65 -80 -45 -11 11 -273 304
-583 650 -310 347 -567 632 -571 633 -5 2 -8 8 -8 13 0 6 3 8 8 6 4 -3 374
-139 822 -302z m-1430 255 c0 -5 -4 -10 -10 -10 -5 0 -10 5 -10 10 0 6 5 10
10 10 6 0 10 -4 10 -10z m40 6 c0 -2 -7 -7 -16 -10 -8 -3 -12 -2 -9 4 6 10 25
14 25 6z m-3446 -64 c-33 -4 -36 0 -28 34 l7 28 24 -30 23 -29 -26 -3z m1095
1 c1 -8 -11 -13 -30 -13 l-30 0 22 32 c21 28 23 29 30 12 4 -10 8 -25 8 -31z
m2542 -300 c-6 -169 -16 -411 -21 -538 -32 -742 -40 -955 -40 -997 l0 -48 -48
0 c-147 0 -421 44 -590 96 -122 36 -272 96 -272 108 0 6 156 384 346 842 l347
831 111 12 c70 8 116 17 126 27 13 12 17 12 34 -5 19 -19 19 -28 7 -328z
m-7750 -194 c-55 -261 -139 -664 -188 -896 -62 -297 -92 -423 -101 -423 -29 0
-313 101 -406 144 -128 60 -308 167 -304 181 4 14 1092 1474 1096 1470 1 -1
-42 -215 -97 -476z m964 -283 c400 -579 514 -750 504 -757 -116 -76 -317 -173
-464 -224 -79 -27 -298 -86 -303 -81 -1 2 -61 398 -132 882 -72 483 -133 895
-136 914 -4 22 -3 31 3 25 5 -5 243 -347 528 -759z m6403 755 c-7 -18 -1283
-1181 -1293 -1178 -20 7 -187 214 -256 317 -69 104 -209 366 -209 392 0 9 155
83 397 191 l398 178 480 53 c264 30 482 54 483 55 2 0 2 -3 0 -8z m69 -18 c-8
-16 -164 -388 -347 -828 -183 -440 -334 -801 -335 -803 -5 -6 -187 89 -267
139 -138 85 -393 290 -386 309 7 21 1315 1209 1331 1210 16 0 16 -3 4 -27z
m733 -856 c294 -663 361 -820 349 -828 -30 -20 -270 -91 -384 -114 -121 -25
-409 -54 -421 -43 -5 5 14 517 46 1253 5 121 12 305 16 409 6 158 9 185 19
165 7 -13 176 -392 375 -842z m-3040 812 c0 -12 -7 -14 -30 -11 -36 5 -38 14
-7 35 23 16 37 7 37 -24z m111 -27 c6 -31 13 -62 16 -68 5 -14 -21 -20 -119
-30 l-68 -6 0 46 c0 46 0 46 28 39 61 -15 67 -12 66 37 l-2 46 34 -4 c31 -4
34 -7 45 -60z m-203 -27 c2 -40 2 -39 -33 -23 -32 14 -31 19 3 40 15 9 27 17
28 17 0 1 1 -15 2 -34z m-738 1 c0 -2 -7 -7 -16 -10 -8 -3 -12 -2 -9 4 6 10
25 14 25 6z m1695 -144 c-426 -191 -395 -178 -406 -161 -8 14 -70 194 -73 213
-1 8 687 92 779 95 18 0 -100 -58 -300 -147z m-1620 108 l28 -11 -21 -15 c-26
-18 -38 -13 -44 21 -3 13 -2 22 2 20 4 -2 20 -9 35 -15z m559 -17 c-9 -37 -8
-37 -39 -17 l-27 17 29 13 c41 18 44 17 37 -13z m115 -29 c2 -2 -14 -4 -37 -4
-35 0 -42 3 -42 19 0 19 2 19 38 4 20 -8 39 -17 41 -19z m-556 7 c17 -6 16 -8
-8 -21 -23 -12 -28 -12 -35 0 -6 8 -10 18 -10 23 0 9 29 8 53 -2z m337 -12
c-7 -13 -19 -19 -32 -17 -30 4 -34 26 -6 31 48 9 49 8 38 -14z m-228 -21 l-22
-22 -22 22 -22 22 44 0 44 0 -22 -22z m118 7 c-15 -18 -51 -16 -58 3 -2 8 8
12 33 12 33 0 36 -2 25 -15z"/>
</g>
</svg>
