<?xml version="1.0" standalone="no"?>
<!DOCTYPE svg PUBLIC "-//W3C//DTD SVG 20010904//EN"
 "http://www.w3.org/TR/2001/REC-SVG-20010904/DTD/svg10.dtd">
<svg version="1.0" xmlns="http://www.w3.org/2000/svg"
 width="1160.000000pt" height="1280.000000pt" viewBox="0 0 1160.000000 1280.000000"
 preserveAspectRatio="xMidYMid meet">
<metadata>
Created by potrace 1.15, written by Peter Selinger 2001-2017
</metadata>
<g transform="translate(0.000000,1280.000000) scale(0.100000,-0.100000)"
fill="#000000" stroke="none">
<path d="M5507 12789 c-23 -14 -47 -69 -47 -108 0 -39 25 -55 122 -80 90 -23
307 -57 428 -67 96 -8 148 -29 180 -73 31 -45 85 -169 100 -230 17 -73 8 -214
-21 -326 l-24 -90 -7 101 c-8 124 -35 208 -112 344 -72 127 -95 153 -159 184
-89 43 -215 60 -459 61 -210 0 -218 -1 -239 -22 -27 -26 -37 -109 -17 -135 20
-28 198 -42 393 -33 216 11 215 11 258 -9 45 -22 144 -163 173 -247 20 -56 21
-97 13 -429 -3 -143 -3 -147 33 -265 20 -66 68 -199 108 -295 l72 -175 3 -360
c2 -198 5 -378 7 -400 3 -38 1 -40 -27 -43 -513 -45 -1075 -178 -1538 -365
-94 -38 -119 -38 -145 3 -10 17 -7 19 46 24 117 12 260 44 357 81 256 95 775
389 775 438 0 45 -121 87 -270 94 -83 4 -153 -1 -335 -26 -126 -17 -282 -35
-345 -41 -382 -33 -819 21 -1046 130 -47 22 -98 43 -113 46 -77 16 -180 -56
-216 -150 l-18 -47 39 -40 c44 -45 212 -159 349 -237 103 -58 115 -76 111
-176 -2 -89 15 -106 108 -106 60 0 76 -3 91 -20 11 -13 31 -20 52 -20 32 0 36
-4 59 -55 14 -30 27 -69 30 -87 5 -32 3 -34 -64 -69 -312 -164 -672 -438 -983
-748 -389 -389 -683 -805 -938 -1326 -476 -970 -709 -2136 -711 -3545 l-1
-295 -38 -125 -38 -125 -149 3 c-279 7 -513 -56 -726 -194 -384 -248 -604
-625 -624 -1069 -18 -373 117 -723 382 -989 452 -454 1166 -494 1671 -94 267
212 442 500 498 822 20 115 20 335 -1 451 -60 349 -265 668 -553 860 -90 60
-235 135 -261 135 -6 0 -8 10 -5 23 42 179 54 248 46 269 -9 24 0 289 19 588
167 2580 908 4223 2276 5041 484 289 1053 481 1849 624 110 20 236 42 280 50
62 12 81 12 87 2 4 -6 4 -15 0 -18 -4 -4 -72 -17 -152 -29 -884 -132 -1668
-489 -2385 -1085 -918 -764 -1521 -1832 -1710 -3025 -49 -313 -70 -824 -46
-1140 108 -1423 790 -2694 1906 -3555 602 -464 1333 -782 2088 -910 284 -48
448 -60 792 -59 354 1 539 17 843 74 716 134 1376 424 1960 859 377 281 754
656 1029 1023 801 1067 1134 2440 917 3778 -145 897 -533 1736 -1122 2425
-115 134 -401 419 -537 535 -674 574 -1497 949 -2365 1079 -206 30 -353 42
-610 49 l-235 7 -8 125 c-7 116 -9 126 -32 145 l-25 21 6 169 c9 248 -18 642
-47 698 -6 9 -26 25 -47 35 -35 16 -38 22 -64 112 -52 180 -72 304 -72 450 0
124 2 145 34 255 30 107 34 133 34 245 1 138 -6 168 -76 349 -46 118 -93 178
-168 216 -93 47 -293 99 -499 130 -118 18 -169 19 -194 4z m1493 -3223 c0 -24
-45 -504 -100 -1067 -118 -1202 -123 -1259 -127 -1239 -1 8 -7 159 -13 335
-16 493 -49 1316 -65 1665 -8 173 -15 323 -15 333 0 15 14 17 160 17 l160 0 0
-44z m350 8 c74 -9 139 -20 143 -24 5 -4 -96 -518 -223 -1141 -258 -1266 -448
-2189 -454 -2204 -5 -15 -15 186 -27 550 l-11 330 124 1259 123 1259 95 -6
c52 -3 156 -13 230 -23z m-1046 -251 c4 -142 13 -537 22 -878 8 -341 23 -966
34 -1390 11 -423 19 -806 19 -850 -2 -97 -4 -77 -179 1845 -71 784 -132 1444
-135 1466 l-6 42 68 9 c37 6 91 11 119 12 l51 1 7 -257z m-246 100 c6 -71 83
-915 171 -1878 153 -1685 179 -2004 160 -1960 -7 18 -770 3829 -773 3864 -1 9
19 19 54 29 90 23 323 71 351 71 l26 1 11 -127z m1592 102 c87 -17 321 -73
327 -79 4 -3 -143 -487 -582 -1916 -467 -1523 -560 -1820 -567 -1820 -3 0 -7
71 -7 158 -1 86 -4 171 -7 187 -3 18 132 692 351 1755 195 948 355 1728 355
1732 0 5 10 6 23 4 12 -3 60 -13 107 -21z m-2075 -97 c3 -13 12 -59 21 -103 8
-44 183 -890 389 -1880 205 -990 383 -1848 394 -1906 16 -79 21 -135 19 -220
l-3 -114 -33 77 c-18 42 -122 373 -233 735 -110 362 -295 969 -410 1348 -116
380 -296 967 -400 1307 -104 339 -189 620 -189 625 0 12 384 147 432 152 4 1
10 -9 13 -21z m2595 -40 c69 -22 159 -53 201 -69 l77 -30 -130 -307 c-823
-1946 -1469 -3464 -1480 -3477 -4 -5 -8 23 -8 64 0 68 33 178 489 1655 269
869 534 1724 588 1898 90 293 99 317 118 312 11 -3 76 -24 145 -46z m-3041
-235 c22 -71 206 -659 409 -1308 315 -1005 499 -1591 692 -2214 21 -68 35
-120 31 -115 -5 5 -163 356 -351 779 -557 1253 -1235 2768 -1246 2787 -8 13
378 197 413 198 6 0 30 -57 52 -127z m3481 67 c134 -59 311 -151 306 -158 -2
-4 -205 -367 -451 -807 -931 -1663 -1602 -2854 -1616 -2870 -5 -5 -9 8 -9 32
0 32 156 405 705 1689 388 907 756 1767 817 1911 103 241 113 260 132 253 12
-4 64 -27 116 -50z m-3791 -577 c107 -236 279 -612 382 -838 1044 -2290 1108
-2433 1147 -2560 17 -54 30 -100 29 -102 -2 -1 -282 478 -622 1065 -340 587
-823 1418 -1073 1846 -249 428 -450 782 -445 785 72 49 371 229 383 230 3 1
93 -191 199 -426z m4215 361 c108 -62 296 -185 296 -193 -1 -6 -1812 -2607
-2260 -3244 -118 -168 -219 -306 -224 -307 -4 0 -6 19 -4 43 3 34 185 362 964
1737 529 932 1001 1766 1049 1853 48 86 90 157 93 157 3 0 41 -21 86 -46z
m-3906 -1774 c1153 -1949 1250 -2116 1236 -2130 -6 -6 -147 182 -349 463 -480
669 -1866 2597 -2020 2811 l-129 179 44 39 c25 22 99 80 164 129 l119 90 70
-118 c38 -65 428 -723 865 -1463z m4360 1473 c129 -95 240 -185 241 -194 1 -3
-495 -577 -1100 -1275 -1711 -1971 -1810 -2083 -1786 -2021 3 7 281 405 618
883 785 1114 1430 2031 1689 2401 113 161 209 293 213 293 5 0 61 -39 125 -87z
m-5502 -385 c81 -112 396 -543 699 -958 303 -415 715 -980 916 -1255 537 -736
743 -1025 735 -1032 -8 -9 75 -100 -787 862 -979 1093 -1974 2202 -2013 2243
l-31 34 158 154 c87 85 162 154 166 154 5 0 75 -91 157 -202z m5905 48 c108
-99 199 -195 199 -209 0 -5 -106 -104 -1115 -1047 -2037 -1903 -2118 -1977
-2123 -1962 -2 7 2 20 10 29 7 10 549 627 1203 1373 655 745 1303 1484 1440
1642 138 158 253 287 256 288 3 0 62 -51 130 -114z m-5550 -1106 c436 -487
928 -1036 1094 -1220 866 -964 898 -1001 830 -939 -22 20 -485 438 -1030 930
-1670 1507 -2013 1818 -2019 1827 -6 9 62 96 189 242 l88 101 27 -28 c15 -15
384 -426 821 -913z m5876 768 c130 -151 225 -276 219 -287 -4 -5 -167 -129
-364 -275 -376 -280 -753 -561 -1929 -1436 -1087 -810 -1243 -922 -1261 -915
-13 5 -7 15 29 49 24 24 627 581 1339 1238 712 657 1423 1314 1580 1460 157
147 288 267 292 267 3 1 46 -45 95 -101z m-5910 -1180 c604 -546 1285 -1161
1513 -1367 442 -398 494 -447 470 -439 -9 3 -488 344 -1065 759 -987 707
-1225 878 -1987 1424 -169 121 -307 225 -308 231 0 11 181 283 232 347 16 20
34 37 39 37 4 0 502 -446 1106 -992z m6207 800 c60 -86 196 -299 196 -309 0
-5 -188 -120 -417 -257 -230 -137 -943 -562 -1586 -945 l-1167 -696 -45 20
c-25 11 -45 23 -45 27 1 4 197 151 438 327 639 468 1845 1353 2237 1643 187
138 341 251 342 252 1 0 22 -28 47 -62z m-7203 -494 c775 -555 1047 -750 1494
-1070 253 -182 685 -491 960 -688 275 -197 505 -363 510 -369 17 -17 -12 0
-1385 788 -740 424 -1532 879 -1762 1010 l-416 239 49 97 c77 155 149 271 164
266 7 -3 181 -126 386 -273z m7497 19 c64 -117 154 -304 150 -309 -3 -2 -689
-317 -1503 -689 -159 -73 -560 -256 -890 -408 -330 -151 -662 -303 -737 -337
l-137 -63 -67 32 c-37 17 -65 33 -63 35 2 1 150 89 329 193 515 301 1954 1146
2420 1421 234 138 428 247 431 244 4 -4 34 -57 67 -119z m-6342 -1132 c962
-552 1754 -1008 1759 -1013 13 -12 5 -8 -1145 497 -547 240 -1344 590 -1770
777 -426 188 -777 342 -779 344 -10 9 166 407 179 402 3 -2 794 -455 1756
-1007z m6554 684 c63 -153 114 -305 104 -315 -5 -4 -153 -58 -329 -118 -325
-112 -1186 -410 -2308 -798 l-618 -214 -76 39 c-42 21 -72 40 -67 43 5 3 335
152 734 331 1116 500 2294 1031 2420 1090 41 20 81 35 89 34 7 -1 30 -42 51
-92z m-7730 -430 c410 -180 873 -384 1030 -452 157 -69 566 -249 910 -400 344
-152 713 -313 820 -360 192 -84 219 -98 208 -108 -4 -4 -942 297 -1913 615
-132 43 -325 106 -430 140 -104 34 -298 97 -430 140 -132 43 -429 140 -660
215 -231 75 -423 140 -428 144 -4 4 13 72 39 152 66 204 84 251 97 246 7 -3
347 -152 757 -332z m7904 -65 c58 -202 86 -331 73 -335 -7 -2 -347 -81 -757
-175 -410 -94 -1289 -297 -1955 -450 -1423 -327 -1405 -323 -1410 -318 -2 1
97 50 218 107 197 92 231 105 300 112 68 8 82 7 117 -11 21 -11 44 -20 50 -20
6 0 25 30 43 67 l32 67 395 132 c695 232 2089 703 2705 914 77 26 143 45 146
41 4 -3 23 -62 43 -131z m-8417 -146 c213 -69 483 -156 598 -194 116 -38 398
-129 628 -204 229 -75 603 -196 830 -270 226 -74 624 -204 884 -288 260 -84
469 -154 465 -156 -6 -2 -1686 344 -2952 608 -129 27 -392 81 -585 121 -192
39 -351 73 -353 74 -8 7 84 435 93 435 3 0 179 -57 392 -126z m3835 -498 c-7
-39 -10 -2 -9 154 l0 205 9 -154 c5 -94 5 -174 0 -205z m4687 202 c13 -74 47
-302 55 -370 l5 -46 -37 -6 c-38 -6 -2899 -302 -3641 -376 -222 -23 -410 -40
-418 -38 -9 2 760 175 1708 386 948 211 1848 412 1999 446 151 35 285 64 296
65 19 1 23 -7 33 -61z m-8569 -122 c201 -41 997 -206 1770 -366 773 -160 1474
-305 1559 -322 85 -18 150 -33 145 -35 -6 -2 -573 53 -1260 122 -687 69 -1577
159 -1977 199 -400 41 -730 76 -732 78 -8 8 40 390 51 409 2 4 21 3 41 -1 21
-5 202 -42 403 -84z m3891 -408 c-7 -27 -9 -16 -10 58 -1 50 2 113 7 140 6 42
7 33 10 -58 1 -59 -2 -122 -7 -140z m809 207 c0 -3 -13 -32 -29 -64 l-30 -58
-226 -133 c-124 -73 -229 -130 -232 -126 -9 9 -13 6 257 205 229 168 260 189
260 176z m24 -151 c32 -14 55 -28 53 -30 -2 -3 -127 -60 -278 -128 -243 -110
-275 -122 -286 -108 -13 16 -8 20 382 249 39 23 71 42 71 42 1 1 27 -11 58
-25z m-3512 -164 c2156 -216 2280 -229 2286 -234 2 -3 2 -13 -2 -22 -6 -15
-33 -16 -314 -10 -169 3 -914 8 -1657 11 -742 3 -1507 8 -1698 11 l-348 7 6
141 c8 192 15 266 25 266 5 0 771 -76 1702 -170z m7422 147 c3 -13 8 -98 12
-190 l7 -167 -69 0 c-38 0 -251 -5 -474 -10 -223 -6 -1096 -26 -1940 -45 -844
-19 -1615 -37 -1712 -40 l-178 -7 0 30 c0 19 6 32 18 37 9 3 251 29 537 56
1860 176 2896 275 3275 313 534 54 516 53 524 23z m-4728 -125 c-12 -11 -16 6
-9 39 l8 34 3 -33 c2 -19 1 -36 -2 -40z m-233 -22 c3 -11 1 -18 -4 -14 -5 3
-9 12 -9 20 0 20 7 17 13 -6z m4977 -349 c0 -70 -3 -155 -6 -187 l-6 -60 -67
4 c-36 1 -892 43 -1901 92 -1009 49 -1936 94 -2060 100 -124 6 -249 13 -278
16 -51 5 -53 7 -50 32 l3 27 1380 32 c1470 34 2925 69 2963 72 22 1 22 0 22
-128z m-6267 72 c609 -3 1105 -8 1102 -11 -3 -3 -108 -16 -233 -28 -125 -13
-1006 -102 -1959 -198 -953 -97 -1743 -176 -1756 -176 -34 0 -36 14 -44 239
l-6 194 894 -6 c492 -4 1392 -10 2002 -14z m1097 -53 c0 -24 39 -14 -435 -110
-351 -71 -392 -77 -416 -65 -24 13 -27 12 -36 -7 -9 -20 -138 -48 -1499 -325
-819 -166 -1496 -303 -1505 -303 -11 0 -19 12 -23 33 -9 46 -43 271 -51 338
l-6 57 48 6 c26 3 586 60 1243 127 657 66 1515 153 1905 193 391 41 725 74
743 75 26 1 32 -3 32 -19z m0 -49 c0 -5 -12 -12 -27 -16 -14 -3 -141 -49 -280
-101 -292 -108 -326 -113 -423 -68 -48 23 -53 27 -35 35 18 9 722 156 753 158
6 1 12 -3 12 -8z m1435 -51 c336 -16 1299 -63 2141 -105 843 -41 1543 -75
1557 -75 25 0 25 -1 21 -57 -8 -87 -54 -435 -59 -443 -2 -4 -42 -1 -87 7 -46
7 -582 94 -1193 194 -610 99 -1384 225 -1720 280 -1039 170 -1283 209 -1294
209 -6 0 -11 5 -11 10 0 13 -61 15 645 -20z m-175 -80 c239 -39 930 -152 1535
-251 605 -98 1368 -223 1695 -276 327 -53 597 -97 599 -99 9 -7 -109 -497
-124 -512 -2 -2 -82 19 -177 47 -95 28 -330 96 -523 151 -453 131 -944 272
-1265 365 -140 41 -694 200 -1230 355 -536 155 -979 286 -985 291 -7 7 -2 9
15 5 14 -3 221 -37 460 -76z m205 -149 c861 -247 1610 -463 1910 -550 132 -38
539 -156 905 -261 366 -105 668 -195 672 -199 15 -13 -144 -451 -163 -451 -8
0 -298 117 -1839 742 -217 89 -514 209 -660 268 -146 59 -362 147 -480 195
-118 48 -370 150 -560 227 -519 211 -490 198 -483 214 3 8 13 12 22 10 9 -3
313 -90 676 -195z m124 -182 c1010 -410 2074 -842 2326 -944 325 -132 829
-336 852 -346 22 -8 22 -9 6 -46 -28 -69 -133 -287 -159 -330 l-25 -43 -62 31
c-34 18 -694 368 -1467 779 -773 411 -1603 852 -1845 980 -423 224 -469 250
-451 250 5 0 376 -149 825 -331z m-1534 302 c3 -5 -124 -101 -282 -213 -159
-113 -506 -359 -773 -549 -1670 -1186 -2196 -1558 -2200 -1559 -16 0 -223 351
-213 361 24 24 2895 1659 2912 1659 10 0 25 9 32 19 15 21 484 291 505 291 7
0 15 -4 19 -9z m964 -132 c685 -365 964 -513 2216 -1179 737 -392 1342 -714
1343 -716 10 -8 -224 -384 -240 -384 -9 0 -246 158 -2073 1383 -1720 1154
-1548 1037 -1525 1037 7 0 133 -64 279 -141z m-1944 81 c-9 -18 -15 -33 -13
-35 2 -1 27 -15 57 -30 39 -20 51 -29 40 -35 -8 -4 -273 -91 -589 -193 -316
-102 -717 -231 -890 -287 -173 -56 -511 -165 -750 -242 -239 -77 -496 -159
-570 -184 -74 -24 -138 -40 -141 -36 -18 18 -127 458 -116 468 2 3 202 45 443
94 242 49 862 175 1379 280 517 104 990 201 1050 213 61 13 111 22 113 21 2
-1 -4 -16 -13 -34z m3570 -1250 c528 -354 1123 -753 1323 -887 l363 -244 -47
-67 c-46 -65 -185 -244 -241 -310 l-29 -33 -139 118 c-227 192 -1398 1188
-1685 1433 -256 218 -1471 1251 -1479 1256 -1 1 0 8 4 13 4 7 196 -116 488
-312 265 -178 914 -613 1442 -967z m-2586 1256 c-8 -7 -437 -373 -954 -812
-517 -439 -1196 -1016 -1509 -1283 -454 -385 -573 -482 -585 -474 -20 13 -202
265 -198 276 3 11 3251 2315 3256 2310 3 -2 -2 -10 -10 -17z m-150 9 c-12 -11
-354 -204 -357 -200 -2 2 4 17 12 34 15 28 15 31 -1 40 -10 5 -16 12 -13 14 5
5 339 114 354 116 5 1 7 -1 5 -4z m1651 -740 c1983 -1686 2359 -2006 2400
-2043 l43 -38 -115 -124 c-64 -69 -135 -143 -158 -165 l-42 -40 -61 65 c-33
36 -266 279 -517 540 -250 261 -710 741 -1020 1065 -310 325 -751 785 -980
1023 -370 387 -466 491 -405 442 11 -8 395 -335 855 -725z m-1645 545 c-99
-98 -742 -735 -1430 -1414 -1196 -1181 -1251 -1234 -1269 -1218 -16 15 -138
157 -174 204 -11 14 80 95 790 699 442 376 920 783 1063 905 909 774 1181
1004 1190 1004 5 0 -71 -81 -170 -180z m831 98 c37 -40 262 -275 499 -523 237
-247 838 -875 1335 -1395 498 -520 946 -988 997 -1041 51 -53 93 -100 92 -105
-1 -23 -378 -328 -390 -316 -7 7 -685 893 -1654 2162 -313 410 -660 864 -772
1009 -111 146 -200 269 -197 273 10 16 23 7 90 -64z m-632 50 c-7 -11 -2550
-3066 -2575 -3092 -9 -10 -93 66 -225 204 l-73 76 612 604 c337 332 979 968
1428 1412 712 704 867 853 833 796z m1673 -1503 c1391 -1819 1423 -1861 1457
-1906 l27 -37 -78 -54 c-136 -95 -276 -179 -284 -171 -24 25 -2299 3640 -2299
3653 0 11 23 19 31 11 4 -3 519 -676 1146 -1496z m-2044 883 c-1248 -1880
-1836 -2764 -1844 -2772 -10 -11 -93 51 -251 186 -104 89 -106 92 -90 112 18
22 1963 2356 2350 2819 123 148 226 266 229 263 3 -3 -174 -277 -394 -608z
m441 583 c3 -4 -201 -404 -453 -887 -252 -483 -675 -1295 -940 -1804 -265
-509 -486 -929 -491 -934 -16 -16 -396 233 -388 254 11 31 2245 3380 2255
3380 6 0 14 -4 17 -9z m840 -684 c994 -1602 1295 -2086 1563 -2516 156 -250
283 -457 283 -462 0 -12 -187 -113 -353 -192 l-57 -27 -119 243 c-65 133 -389
793 -721 1467 -850 1728 -979 1994 -1011 2089 -16 47 -29 86 -29 88 0 22 78
-99 444 -690z m-540 666 c3 -10 85 -673 181 -1473 97 -800 211 -1750 255
-2110 43 -360 77 -656 75 -659 -3 -2 -113 -6 -245 -9 l-240 -5 0 49 c0 27 -7
389 -15 804 -8 415 -24 1257 -34 1870 -11 613 -23 1213 -26 1333 l-6 217 25 0
c15 0 27 -7 30 -17z m103 -76 c23 -51 143 -393 266 -762 300 -892 738 -2192
931 -2759 86 -253 155 -460 154 -461 -16 -12 -439 -117 -445 -111 -4 4 7 -42
-488 2031 -341 1430 -479 2018 -500 2123 -6 29 -4 32 17 32 19 -1 30 -15 65
-93z m-540 -333 c-91 -220 -337 -813 -547 -1319 -210 -506 -483 -1165 -606
-1465 -123 -300 -231 -560 -239 -578 l-15 -34 -133 70 c-72 38 -146 78 -164
88 l-31 20 849 1629 c468 897 893 1712 945 1813 53 101 98 181 100 179 3 -2
-69 -184 -159 -403z m203 401 c0 -2 -117 -426 -259 -942 -142 -516 -391 -1415
-552 -1998 -160 -583 -293 -1061 -294 -1063 -7 -9 -457 176 -478 197 -10 10
102 285 728 1791 598 1439 783 1886 826 1998 7 19 29 32 29 17z m203 -2077
c21 -1146 38 -2103 37 -2127 l0 -44 -137 7 c-148 8 -260 19 -268 27 -5 5 31
544 189 2841 52 746 97 1361 101 1367 3 6 14 11 23 11 16 0 20 -138 55 -2082z
m-140 2052 c-5 -33 -713 -4066 -718 -4086 l-5 -22 -77 19 c-43 11 -140 38
-216 61 -111 33 -136 44 -133 57 3 9 219 790 480 1736 261 946 507 1837 546
1980 40 143 74 264 77 268 9 14 48 3 46 -13z m37 3 c0 -10 -47 -704 -105
-1543 -58 -839 -122 -1776 -143 -2082 -21 -307 -41 -560 -44 -563 -13 -13
-438 63 -444 80 -3 6 87 532 200 1170 112 638 275 1564 362 2058 136 773 174
965 174 880z m-1095 -24 c14 -18 22 -35 18 -40 -9 -8 -255 -117 -1458 -644
-999 -438 -1428 -626 -1438 -632 -4 -2 -18 19 -31 49 -33 71 -122 336 -116
341 11 11 2947 955 2972 956 18 1 35 -9 53 -30z m174 -73 l44 -23 -44 -25
c-24 -13 -672 -383 -1439 -822 -767 -439 -1400 -800 -1406 -803 -7 -2 -24 16
-39 42 -44 74 -166 346 -163 362 2 8 239 117 558 257 909 398 1561 684 1970
865 424 187 437 190 519 147z m1416 -1441 c168 -731 372 -1616 454 -1965 81
-349 145 -639 141 -643 -8 -9 -329 -57 -385 -57 l-40 0 -154 1268 c-134 1105
-310 2568 -325 2702 -3 25 -3 41 -1 35 2 -5 142 -608 310 -1340z m463 -5 c324
-674 707 -1468 851 -1764 144 -297 260 -540 259 -542 -23 -21 -429 -167 -438
-157 -4 4 -220 625 -480 1378 -260 754 -549 1590 -641 1858 -93 269 -169 492
-169 495 1 12 22 -30 618 -1268z m-6283 -147 c-6 -427 -9 -493 -23 -493 -5 0
-31 91 -60 203 -29 111 -79 307 -112 435 -33 129 -60 237 -60 242 0 11 142 38
208 39 l53 1 -6 -427z m220 415 c2 -2 -25 -112 -60 -244 -36 -131 -84 -310
-107 -397 -22 -86 -43 -155 -46 -153 -2 3 -1 186 3 407 l7 402 99 -5 c55 -3
101 -7 104 -10z m-371 -487 c115 -447 129 -520 94 -509 -7 3 -121 193 -254
424 -274 474 -259 423 -144 477 67 31 157 65 175 66 6 1 63 -206 129 -458z
m689 388 c34 -17 63 -32 65 -34 2 -2 -262 -453 -272 -462 -4 -5 117 480 129
515 6 17 7 16 78 -19z m271 -182 l48 -43 -303 -297 c-167 -163 -305 -295 -307
-293 -1 2 11 59 28 127 31 123 33 127 187 386 l155 263 72 -50 c39 -28 93 -70
120 -93z m-1115 -321 c133 -230 239 -421 236 -424 -3 -4 -164 152 -358 347
l-352 353 54 50 c83 76 153 121 167 105 6 -6 120 -200 253 -431z m-124 -92
c313 -319 346 -357 333 -371 -13 -12 -20 -13 -38 -3 -58 31 -806 472 -814 480
-6 6 -2 24 10 45 25 47 143 205 153 205 4 0 164 -160 356 -356z m1358 289 c79
-100 120 -164 111 -172 -21 -19 -817 -461 -822 -456 -3 3 0 23 7 44 9 33 68
95 324 345 171 168 315 306 319 306 4 0 31 -30 61 -67z m167 -265 c39 -85 77
-195 69 -201 -2 -2 -215 -58 -474 -124 -326 -83 -472 -117 -477 -109 -4 6 -8
18 -8 27 0 10 144 96 418 251 229 130 421 236 425 237 5 1 26 -36 47 -81z
m-1796 -80 c495 -290 577 -340 573 -351 -5 -16 2 -18 -352 79 -170 47 -368
101 -440 121 -72 19 -134 39 -138 43 -10 9 10 81 53 184 24 58 36 76 48 71 8
-3 123 -69 256 -147z m51 -237 c204 -56 401 -111 438 -122 134 -40 96 -44
-416 -47 l-477 -2 0 42 c0 42 14 155 26 211 5 25 10 28 33 24 14 -2 193 -50
396 -106z m1835 47 c6 -29 14 -87 17 -129 l6 -76 -239 -6 c-132 -4 -355 -10
-496 -13 l-258 -7 0 22 c0 11 1 21 3 21 1 1 209 54 462 120 253 65 468 119
477 119 12 1 19 -13 28 -51z m19 -300 c-1 -46 -6 -112 -13 -148 -10 -57 -14
-65 -31 -62 -57 10 -946 230 -952 236 -4 3 0 13 8 20 14 14 53 15 912 34 l77
2 -1 -82z m-1357 36 c2 -19 2 -37 -1 -39 -9 -5 -891 -255 -900 -255 -11 0 -39
149 -47 253 l-7 77 475 0 476 0 4 -36z m843 -144 c259 -62 473 -116 478 -120
15 -13 -85 -285 -103 -278 -3 2 -201 109 -438 238 -286 156 -432 240 -432 251
0 17 9 30 19 25 3 -2 217 -54 476 -116z m-827 78 c-5 -14 -785 -487 -804 -488
-15 0 -123 236 -112 245 2 2 158 46 348 100 190 53 388 109 440 125 108 32
133 35 128 18z m754 -245 c238 -130 436 -239 441 -243 9 -8 -100 -175 -137
-209 l-25 -24 -193 185 c-106 102 -267 256 -358 342 -143 136 -187 186 -166
186 2 0 199 -106 438 -237z m-725 211 c3 -9 -639 -685 -657 -692 -10 -4 -88
90 -135 161 -32 48 -36 60 -25 68 8 4 191 114 405 243 215 129 394 234 399
232 6 -1 11 -7 13 -12z m630 -345 c197 -187 359 -345 361 -350 5 -13 -84 -96
-163 -151 l-70 -49 -15 22 c-33 48 -510 832 -510 838 0 9 22 31 31 31 5 0 169
-153 366 -341z m-593 322 c3 -5 -95 -191 -217 -412 -123 -222 -229 -414 -236
-427 l-12 -23 -57 40 c-74 53 -164 131 -160 141 6 14 660 690 669 690 4 0 10
-4 13 -9z m50 -28 c-37 -159 -235 -947 -238 -950 -3 -3 -22 1 -43 7 -46 15
-223 97 -223 103 0 4 245 450 436 795 23 41 41 62 54 62 12 0 17 -6 14 -17z
m50 -450 c4 -258 8 -486 9 -508 l2 -40 -70 3 c-61 3 -203 27 -212 36 -1 1 52
222 118 489 81 326 125 487 134 487 10 0 14 -98 19 -467z m328 56 c136 -222
254 -416 263 -431 l16 -27 -58 -29 c-63 -32 -211 -87 -217 -81 -3 3 -72 239
-244 829 -39 132 -42 155 -19 147 7 -2 123 -186 259 -408z m-277 344 c9 -32
73 -249 141 -482 68 -233 124 -427 124 -430 0 -10 -106 -29 -206 -37 l-82 -7
-6 164 c-3 90 -8 318 -12 507 -5 303 -4 342 9 342 10 0 21 -20 32 -57z"/>
</g>
</svg>
