<?xml version="1.0" standalone="no"?>
<!DOCTYPE svg PUBLIC "-//W3C//DTD SVG 20010904//EN"
 "http://www.w3.org/TR/2001/REC-SVG-20010904/DTD/svg10.dtd">
<svg version="1.0" xmlns="http://www.w3.org/2000/svg"
 width="1280.000000pt" height="774.000000pt" viewBox="0 0 1280.000000 774.000000"
 preserveAspectRatio="xMidYMid meet">
<metadata>
Created by potrace 1.15, written by Peter Selinger 2001-2017
</metadata>
<g transform="translate(0.000000,774.000000) scale(0.100000,-0.100000)"
fill="#000000" stroke="none">
<path d="M8779 7726 c-207 -44 -426 -134 -684 -282 l-111 -63 -76 6 c-74 6
-77 5 -136 -31 -33 -20 -64 -36 -69 -36 -5 0 -22 14 -38 30 -16 17 -32 30 -36
30 -4 0 -43 -34 -87 -75 -44 -41 -86 -73 -93 -70 -8 2 -27 -6 -42 -19 -23 -18
-29 -33 -34 -79 -6 -55 -7 -57 -78 -118 -63 -53 -74 -67 -79 -103 -6 -36 -24
-58 -163 -198 l-156 -156 73 -84 c40 -46 76 -84 80 -86 3 -1 77 72 163 162
134 140 164 166 195 172 27 5 60 28 120 82 79 72 84 74 122 69 37 -5 43 -2 65
28 14 18 23 39 20 48 -4 8 -1 18 6 22 11 8 180 7 187 0 9 -9 -21 -41 -103
-107 -84 -70 -92 -79 -166 -211 l-77 -138 19 -87 c10 -47 19 -90 19 -94 0 -4
7 -8 15 -8 12 0 15 13 15 55 0 49 9 73 80 214 l79 159 79 30 c45 17 121 59
176 97 84 58 104 78 165 164 50 72 66 102 58 110 -12 12 71 13 182 2 l63 -6
-34 -50 c-19 -27 -58 -82 -86 -121 -76 -103 -93 -159 -93 -307 -1 -151 15
-226 88 -412 68 -172 82 -214 189 -590 l87 -300 -22 -74 c-30 -103 -86 -214
-130 -259 -73 -73 -417 -257 -732 -390 -196 -83 -511 -200 -734 -272 -172 -56
-917 -272 -921 -267 -2 1 91 69 207 151 115 82 209 155 209 163 0 8 43 34 100
60 55 25 100 50 100 55 0 16 -132 318 -139 318 -3 0 -102 -45 -218 -100 -391
-184 -682 -300 -812 -322 -67 -11 -72 -11 -143 17 -133 51 -340 161 -603 319
-437 264 -531 305 -920 412 -328 90 -459 141 -584 227 -259 177 -580 705 -912
1500 -44 104 -82 199 -85 213 -3 13 -10 24 -15 24 -5 0 -83 -30 -174 -67 -158
-65 -164 -69 -158 -93 3 -14 28 -92 54 -173 47 -141 49 -154 49 -258 0 -606
286 -1214 745 -1582 55 -44 102 -84 103 -89 2 -4 -38 -119 -90 -254 l-93 -246
-40 7 c-22 4 -47 7 -55 7 -8 1 -19 4 -25 8 -15 12 -124 32 -139 27 -8 -3 -18
-1 -24 5 -6 6 -45 12 -87 14 -41 2 -80 6 -85 9 -14 8 -309 4 -390 -6 -153 -18
-247 -36 -255 -49 -3 -5 -12 -7 -19 -4 -13 5 -112 -20 -146 -36 -8 -4 -48 -18
-88 -30 -39 -13 -72 -27 -72 -32 0 -4 -9 -8 -20 -8 -22 0 -270 -124 -285 -143
-5 -7 -21 -17 -35 -23 -38 -17 -230 -163 -237 -179 -3 -8 -10 -15 -17 -15 -14
0 -152 -139 -227 -230 -70 -83 -113 -140 -106 -140 3 0 -7 -13 -21 -29 -15
-16 -38 -50 -52 -77 -14 -27 -28 -51 -31 -54 -6 -5 -35 -61 -94 -177 -21 -43
-108 -271 -106 -280 0 -2 -1 -8 -4 -15 -15 -46 -35 -140 -30 -148 3 -5 1 -11
-4 -14 -13 -8 -25 -90 -41 -281 -9 -102 -4 -360 7 -378 2 -4 6 -33 8 -65 1
-31 7 -75 13 -97 6 -22 16 -67 22 -100 7 -32 16 -66 20 -75 4 -8 13 -37 19
-65 7 -27 18 -63 25 -80 7 -16 26 -63 41 -102 16 -40 32 -73 37 -73 4 0 8 -7
8 -15 0 -14 41 -98 72 -150 7 -11 26 -42 42 -68 16 -27 34 -54 41 -60 6 -7 14
-19 17 -27 8 -22 160 -210 194 -241 16 -15 36 -35 45 -45 41 -49 210 -197 216
-190 2 2 18 -11 36 -28 18 -17 51 -40 73 -51 21 -11 44 -25 49 -32 15 -18 114
-73 130 -73 8 0 15 -4 15 -8 0 -10 114 -65 135 -65 8 0 15 -4 15 -8 0 -10 140
-60 151 -53 5 3 9 1 9 -4 0 -9 96 -42 134 -46 12 -1 26 -5 32 -8 5 -4 38 -11
74 -18 36 -6 85 -16 110 -21 146 -31 608 -30 646 2 7 6 18 8 23 5 9 -6 68 4
141 23 19 5 64 17 100 26 36 10 71 22 77 27 7 6 13 8 13 4 0 -6 120 37 143 51
7 4 17 8 22 9 32 6 264 128 280 147 6 7 17 13 25 15 29 7 250 176 250 193 0 5
6 9 14 9 17 0 226 217 226 236 0 8 4 14 10 14 14 0 100 112 94 122 -3 4 -1 8
5 8 12 0 90 119 91 138 0 6 4 12 8 12 11 0 146 280 138 287 -3 4 0 13 8 22 17
20 46 107 46 137 0 13 4 25 9 29 8 5 26 74 37 140 2 11 8 38 13 60 5 22 13 69
17 105 9 70 12 479 4 519 -5 22 26 47 310 251 l315 228 115 17 c63 9 174 25
245 35 72 10 247 24 390 30 l260 12 830 365 830 366 255 57 c336 76 536 124
940 226 184 46 339 83 346 80 6 -2 17 -25 24 -50 10 -35 10 -52 1 -74 -10 -23
-8 -36 10 -77 14 -31 18 -50 11 -53 -6 -2 -29 -16 -51 -33 -23 -16 -44 -29
-48 -29 -13 -1 -177 -121 -240 -175 -119 -104 -133 -118 -133 -131 0 -8 -6
-14 -13 -14 -11 0 -107 -101 -107 -113 0 -2 -18 -23 -40 -47 -22 -24 -45 -56
-52 -71 -7 -16 -16 -29 -20 -29 -3 0 -23 -28 -45 -63 -21 -34 -44 -72 -51 -82
-23 -36 -131 -260 -135 -280 -2 -11 -14 -41 -26 -67 -11 -25 -24 -61 -27 -80
-3 -18 -10 -42 -15 -53 -15 -33 -39 -137 -34 -146 3 -4 1 -10 -4 -13 -5 -3
-12 -32 -16 -63 -4 -32 -10 -71 -12 -88 -2 -16 -6 -65 -8 -109 -2 -43 -6 -81
-10 -84 -9 -10 -5 -141 5 -147 6 -4 7 -11 4 -17 -9 -14 -5 -138 4 -153 3 -5 5
-19 4 -31 -3 -23 45 -269 57 -293 5 -9 11 -33 15 -54 4 -21 17 -59 28 -85 12
-26 20 -51 19 -55 -2 -12 108 -249 141 -302 7 -11 26 -42 42 -68 16 -27 34
-54 41 -60 6 -7 14 -19 17 -27 13 -36 174 -223 274 -320 128 -124 313 -267
328 -253 3 3 6 1 6 -5 0 -13 114 -82 136 -82 7 0 14 -4 14 -8 0 -11 187 -97
265 -122 22 -7 47 -16 55 -20 34 -16 133 -41 146 -36 8 3 14 1 14 -4 0 -9 87
-30 144 -34 18 -2 38 -6 43 -9 45 -28 589 -26 641 2 11 6 22 8 25 5 7 -8 129
17 145 29 7 5 15 7 18 4 6 -6 125 26 146 39 7 4 21 9 33 10 11 1 47 14 80 30
33 15 65 28 71 29 28 7 134 59 134 66 0 5 7 9 15 9 21 0 126 60 131 75 3 6 10
12 17 12 16 0 127 74 127 84 0 5 5 9 11 9 17 0 118 83 119 98 0 6 6 12 13 12
13 0 189 178 257 260 53 63 170 239 170 256 0 8 4 14 9 14 11 0 71 113 71 133
0 8 4 17 8 19 19 8 126 291 114 303 -3 3 -2 9 4 13 12 8 48 142 40 150 -3 3
-2 10 3 16 5 6 13 40 19 76 13 83 13 80 17 178 2 46 6 87 9 90 8 7 8 137 0
145 -3 3 -7 43 -9 89 -2 46 -4 92 -4 103 -2 32 -22 139 -28 148 -3 5 -7 26 -8
46 -4 40 -61 245 -78 276 -6 11 -12 25 -13 30 -8 42 -120 276 -137 287 -6 3
-12 13 -13 21 -3 22 -72 127 -84 127 -5 0 -9 4 -7 9 3 12 -83 131 -94 131 -5
0 -9 6 -9 13 -1 26 -287 306 -338 330 -13 6 -38 25 -56 41 -18 17 -50 40 -72
51 -21 11 -43 25 -49 32 -20 24 -253 143 -280 143 -7 0 -16 4 -20 9 -6 10
-110 53 -135 55 -9 1 -21 5 -28 10 -21 13 -140 45 -146 39 -3 -3 -11 -1 -18 4
-16 12 -138 36 -146 29 -3 -3 -11 -1 -18 5 -7 6 -46 12 -86 14 -41 2 -82 7
-92 11 -25 9 -388 -2 -451 -15 -27 -5 -79 -15 -115 -21 -36 -7 -70 -16 -76
-21 -6 -5 -13 -6 -17 -3 -7 7 -127 -25 -145 -39 -18 -14 -25 -3 -51 83 -13 41
-25 82 -28 91 -4 13 25 24 154 58 87 24 203 56 258 71 55 15 170 47 255 70 85
24 334 94 552 156 362 103 443 131 788 267 193 75 337 232 398 432 5 18 15 30
25 29 10 0 111 -1 226 -2 l209 -2 127 -155 c70 -85 132 -156 138 -156 7 -1 29
-1 50 0 28 2 37 -1 37 -13 0 -22 12 -20 70 9 45 23 50 29 49 58 0 17 3 56 7
85 l7 53 -45 42 c-60 57 -110 142 -116 197 -8 75 -53 107 -192 136 -71 14 -91
15 -136 4 -39 -10 -100 -11 -221 -7 -208 9 -213 10 -213 52 0 18 -7 49 -15 69
-8 19 -14 39 -13 43 1 5 -8 27 -20 49 -11 23 -18 44 -15 48 4 3 2 6 -4 6 -5 0
-20 20 -32 46 -13 25 -58 81 -100 124 -64 66 -92 86 -162 119 -195 90 -376 96
-589 19 -312 -113 -1041 -492 -1790 -931 -80 -47 -146 -83 -148 -82 -15 14
-95 287 -102 350 -10 79 -39 247 -59 335 -51 226 -65 338 -65 505 0 135 3 179
17 213 12 31 55 81 155 180 121 119 144 147 177 215 27 54 40 95 43 135 2 38
15 81 39 130 90 186 57 321 -99 401 -59 30 -77 34 -160 37 -54 2 -121 -2 -159
-10z m204 -16 c37 -6 85 -19 106 -30 52 -26 119 -104 127 -147 11 -57 -1 -135
-30 -198 l-27 -60 -18 50 c-25 71 -66 132 -100 150 -73 37 -253 8 -435 -71
-78 -33 -83 -34 -205 -33 -69 1 -180 4 -246 8 l-119 6 109 60 c296 162 522
245 730 269 17 1 32 4 35 4 3 1 36 -3 73 -8z m47 -255 c29 -15 91 -126 104
-186 6 -29 -9 -53 -184 -296 -47 -65 -103 -151 -126 -191 -31 -54 -62 -90
-120 -140 -44 -36 -87 -76 -96 -87 -16 -20 -16 -20 -26 5 -20 54 -34 165 -29
224 8 82 25 120 96 210 50 62 68 77 102 86 97 26 144 137 103 239 -23 57 -66
75 -161 68 -40 -3 -73 -4 -73 -3 0 2 27 13 59 25 159 58 294 76 351 46z m-433
-91 c-3 -3 -12 -4 -19 -1 -8 3 -5 6 6 6 11 1 17 -2 13 -5z m-528 -174 l56 -1
-28 -24 c-24 -21 -38 -25 -96 -25 -38 0 -83 -3 -100 -6 -23 -5 -31 -3 -31 8 0
21 80 58 114 53 16 -3 54 -5 85 -5z m1065 -37 c-20 -109 -112 -242 -248 -356
-47 -39 -48 -40 -33 -12 8 17 52 82 97 145 45 63 104 148 133 188 28 39 53 72
55 72 1 0 0 -17 -4 -37z m-383 -550 c-32 -146 -22 -284 50 -652 28 -139 48
-255 47 -257 -2 -2 -27 79 -56 179 -29 100 -85 285 -124 412 l-71 229 78 73
c44 40 81 71 83 68 2 -2 -1 -26 -7 -52z m2456 -339 c-3 -3 -12 -4 -19 -1 -8 3
-5 6 6 6 11 1 17 -2 13 -5z m268 -54 c3 -6 -1 -7 -9 -4 -18 7 -21 14 -7 14 6
0 13 -4 16 -10z m-590 -30 c-3 -5 -10 -10 -16 -10 -5 0 -9 5 -9 10 0 6 7 10
16 10 8 0 12 -4 9 -10z m675 -10 c8 -5 12 -11 10 -14 -3 -2 -14 2 -24 10 -22
15 -10 19 14 4z m-342 -12 c-3 -7 -12 -14 -21 -16 -12 -2 -15 1 -11 12 7 19
38 22 32 4z m-408 -17 c0 -14 -6 -17 -27 -13 -25 5 -25 6 -8 18 25 19 35 17
35 -5z m460 3 c0 -14 -3 -14 -15 -4 -8 7 -15 14 -15 16 0 2 7 4 15 4 8 0 15
-7 15 -16z m-520 -40 c0 -22 -4 -25 -27 -22 -16 1 -27 -2 -26 -7 0 -6 3 -19 5
-30 2 -16 -3 -21 -30 -23 -29 -3 -32 -6 -26 -25 11 -39 10 -42 -23 -45 -38 -4
-38 -5 -18 -36 14 -22 14 -25 0 -40 -9 -9 -25 -16 -36 -16 -23 0 -24 -8 -4
-34 18 -24 19 -46 3 -46 -7 0 -19 -4 -27 -9 -11 -7 -11 -13 3 -32 23 -34 20
-58 -9 -65 -30 -7 -31 -15 -5 -34 26 -19 25 -37 -2 -60 l-23 -18 28 -13 c15
-7 27 -18 27 -25 0 -7 -35 -26 -77 -42 -194 -73 -1387 -492 -1404 -492 -4 0
-23 47 -42 103 l-34 104 176 103 c406 238 821 467 1116 617 169 86 436 213
448 213 4 0 7 -12 7 -26z m680 -4 c0 -5 -4 -10 -9 -10 -6 0 -13 5 -16 10 -3 6
1 10 9 10 9 0 16 -4 16 -10z m-482 -21 c-2 -6 -7 -10 -11 -10 -4 1 -15 1 -24
1 -15 0 -16 2 -3 10 20 13 43 13 38 -1z m561 -20 c-16 -10 -39 0 -39 17 0 11
5 11 25 2 17 -8 22 -14 14 -19z m-619 -10 c0 -16 -5 -20 -27 -17 -24 2 -28 -1
-27 -19 1 -16 -4 -23 -17 -23 -28 0 -23 14 16 49 42 36 55 39 55 10z m407 -79
c23 -47 43 -88 43 -92 0 -12 -51 -34 -106 -47 -43 -10 -57 -10 -88 3 -20 8
-39 22 -42 30 -3 8 16 56 42 106 46 86 50 91 78 88 27 -3 35 -12 73 -88z m268
60 c18 -19 17 -20 -2 -20 -12 0 -23 8 -26 20 -3 11 -2 20 2 20 5 0 16 -9 26
-20z m55 -83 c0 -5 -7 -4 -15 3 -8 7 -15 20 -15 29 1 13 3 13 15 -3 8 -11 15
-24 15 -29z m-666 -22 c4 -12 -3 -15 -29 -15 -33 0 -43 8 -28 23 12 13 51 7
57 -8z m564 -37 c3 -15 0 -16 -27 -7 -17 6 -28 15 -25 21 9 15 48 5 52 -14z
m-794 -35 c5 -11 1 -22 -10 -30 -22 -16 -27 -12 -18 21 7 30 19 34 28 9z m994
-49 c-10 -9 -41 24 -33 35 5 9 11 7 22 -9 8 -12 13 -23 11 -26z m-817 -16 c43
-45 95 -116 88 -121 -2 -2 -55 -22 -118 -44 l-114 -41 5 66 c3 37 13 93 23
125 17 51 21 57 46 57 20 0 41 -13 70 -42z m726 -37 c8 -18 12 -35 9 -38 -7
-8 -166 9 -166 17 0 5 26 24 57 43 65 40 76 37 100 -22z m-927 14 c0 -7 -7
-15 -15 -19 -16 -6 -19 3 -9 28 7 18 24 12 24 -9z m1036 -22 c-11 -12 -27 13
-20 32 7 17 8 17 17 -3 6 -12 7 -25 3 -29z m-1057 -64 c-15 -29 -26 -23 -21
11 3 24 7 28 18 19 10 -8 11 -16 3 -30z m-12 -86 c-16 -16 -17 -15 -17 17 0
32 1 33 17 17 16 -16 16 -18 0 -34z m919 -163 c20 0 6 -28 -18 -36 -12 -3 -27
1 -39 12 -28 25 -23 37 12 30 17 -3 38 -6 45 -6z m114 -37 c0 -5 -5 -15 -10
-23 -8 -12 -10 -11 -10 8 0 12 5 22 10 22 6 0 10 -3 10 -7z m-383 -33 c12 0
-11 -56 -49 -120 -37 -62 -45 -70 -73 -70 -27 0 -34 7 -63 59 l-33 60 73 49
c72 49 74 50 107 36 18 -8 36 -14 38 -14z m-2595 -98 c10 -31 18 -60 18 -63 0
-7 -134 -119 -142 -119 -2 0 13 35 34 77 20 42 43 99 49 125 7 26 15 45 18 42
3 -2 13 -30 23 -62z m2786 46 c-8 -24 -35 -33 -54 -17 -16 13 -15 14 12 20 44
10 46 10 42 -3z m252 -53 c0 -8 -4 -15 -10 -15 -5 0 -7 7 -4 15 4 8 8 15 10
15 2 0 4 -7 4 -15z m-200 -45 c0 -5 -5 -10 -11 -10 -5 0 -7 5 -4 10 3 6 8 10
11 10 2 0 4 -4 4 -10z m1034 -27 c16 -20 23 -33 15 -28 -23 13 -59 48 -59 57
0 17 16 7 44 -29z m-890 -7 c-3 -9 -10 -16 -15 -16 -6 0 -5 9 1 21 13 24 24
20 14 -5z m-2939 -51 c5 -28 1 -33 -52 -64 -66 -39 -424 -260 -587 -362 -96
-60 -134 -77 -323 -140 -118 -39 -216 -69 -218 -67 -3 2 26 15 63 28 313 109
686 305 833 438 30 26 83 69 119 94 36 25 83 62 105 81 43 38 52 37 60 -8z
m2168 23 c9 -32 3 -32 -29 -4 l-29 25 26 1 c19 0 28 -6 32 -22z m564 5 c-9 -9
-19 -14 -23 -11 -10 10 6 28 24 28 15 0 15 -1 -1 -17z m-502 -34 c10 -15 -1
-22 -24 -14 -12 3 -19 11 -16 16 8 12 32 11 40 -2z m441 -4 c-21 -16 -32 -13
-21 4 3 6 14 11 23 11 15 -1 15 -2 -2 -15z m-649 -25 c0 -14 1 -28 2 -32 1 -4
12 -3 26 2 36 14 55 3 55 -32 0 -20 4 -29 13 -25 51 19 55 18 66 -13 10 -30
11 -31 33 -16 31 22 36 21 57 -14 18 -30 18 -30 36 -10 24 27 39 25 65 -7 l21
-27 15 22 c8 12 23 22 33 22 23 0 47 -28 35 -40 -33 -32 -470 -165 -1184 -360
-85 -24 -216 -59 -290 -80 -323 -90 -333 -92 -345 -78 -21 22 -134 238 -127
242 6 3 758 252 1267 420 187 61 219 65 222 26z m853 26 c0 -3 -4 -8 -10 -11
-5 -3 -10 -1 -10 4 0 6 5 11 10 11 6 0 10 -2 10 -4z m-255 -16 c4 -6 -5 -10
-20 -10 -15 0 -24 4 -20 10 3 6 12 10 20 10 8 0 17 -4 20 -10z m-155 -30 c0
-5 -11 -10 -25 -10 -14 0 -25 5 -25 10 0 6 11 10 25 10 14 0 25 -4 25 -10z
m336 -15 c-11 -8 -22 -12 -25 -9 -6 6 19 24 34 24 6 -1 1 -7 -9 -15z m-2748
-71 c20 -51 26 -77 19 -80 -61 -22 -663 -221 -665 -219 -1 1 102 67 230 146
320 197 372 229 379 229 4 0 20 -34 37 -76z m2587 -4 c-3 -5 -14 -10 -23 -10
-15 0 -15 2 -2 10 20 13 33 13 25 0z m-85 -20 c11 -7 9 -11 -13 -19 -38 -15
-39 -14 -25 9 14 23 17 23 38 10z m-2965 -70 c-11 -18 -195 -121 -329 -185
-195 -93 -439 -187 -739 -286 -147 -49 -273 -89 -280 -88 -7 0 103 39 243 88
411 141 806 308 1020 430 97 56 93 54 85 41z m-5062 -180 c55 -23 264 -97 465
-165 487 -164 541 -187 896 -400 188 -112 310 -176 411 -215 81 -32 84 -36 28
-44 -50 -8 -365 -104 -663 -204 -96 -32 -181 -57 -189 -54 -8 3 -20 -3 -26
-11 -7 -9 -70 -41 -141 -70 l-130 -54 -24 28 c-14 15 -33 42 -43 60 -10 19
-35 54 -57 78 -22 25 -40 47 -40 50 0 9 -187 200 -244 249 -54 47 -106 86
-106 79 0 -2 -15 10 -33 27 -18 17 -51 40 -73 51 -21 11 -43 25 -49 31 -16 18
-114 74 -129 74 -7 0 -19 6 -25 14 -10 12 -98 54 -126 61 -5 1 -32 12 -58 24
-37 17 -47 26 -42 39 18 46 140 364 157 410 l19 52 62 -34 c34 -19 106 -53
160 -76z m5751 -294 c20 -54 36 -105 36 -111 0 -7 -21 -17 -47 -23 -27 -5
-201 -49 -388 -96 -187 -47 -410 -102 -495 -122 -336 -79 -404 -94 -406 -91
-2 1 88 42 199 90 111 48 393 172 627 276 234 103 428 185 431 182 4 -3 23
-51 43 -105z m-2257 -182 c-3 -3 -12 -4 -19 -1 -8 3 -5 6 6 6 11 1 17 -2 13
-5z m-38 -8 c-2 -3 -168 -55 -369 -116 -201 -61 -376 -115 -389 -121 -41 -17
-33 -3 21 34 47 31 88 44 338 106 157 39 305 77 330 85 45 15 77 20 69 12z
m-4609 -645 l0 -578 -52 -6 c-28 -4 -53 -5 -55 -3 -8 8 -223 1111 -219 1122 4
11 144 31 261 37 33 2 61 4 63 5 1 1 2 -258 2 -577z m307 549 c125 -24 193
-43 193 -53 0 -6 -91 -248 -202 -538 l-202 -527 -38 -4 -38 -4 0 576 0 575
114 -7 c63 -3 141 -11 173 -18z m-657 -15 c0 -9 200 -1017 210 -1062 6 -23 10
-48 10 -55 0 -15 -189 -54 -201 -41 -4 4 -123 208 -264 453 -141 245 -265 459
-276 476 l-19 31 67 36 c110 57 258 113 386 147 83 21 87 22 87 15z m1072
-108 c94 -42 178 -86 178 -93 0 -10 -504 -879 -515 -886 -5 -4 -38 -8 -73 -8
-61 0 -63 1 -56 23 13 42 103 283 214 572 61 160 123 320 137 358 14 37 29 67
34 67 4 0 41 -15 81 -33z m7308 -838 c0 -473 -4 -778 -9 -774 -22 13 -48 128
-181 804 -110 554 -138 716 -128 722 7 4 42 11 78 14 36 4 70 8 75 10 6 2 45
4 88 4 l77 1 0 -781z m351 751 c122 -25 210 -49 223 -61 5 -5 0 -32 -12 -66
-11 -32 -125 -364 -252 -738 -127 -374 -233 -686 -235 -693 -3 -7 -15 -12 -27
-10 l-23 3 -3 799 -2 799 114 -6 c62 -3 160 -16 217 -27z m-566 -686 c74 -373
133 -679 131 -681 -6 -6 -94 210 -171 417 -117 315 -193 507 -255 640 -51 109
-100 224 -100 234 0 7 250 75 258 70 2 -1 63 -307 137 -680z m-8440 192 c152
-263 273 -482 268 -486 -4 -4 -31 -14 -59 -22 l-51 -15 -349 399 c-192 220
-350 403 -352 408 -2 4 16 24 40 43 48 40 220 158 224 154 1 -1 127 -217 279
-481z m1720 366 c81 -62 220 -187 245 -222 l20 -28 -267 -233 -267 -234 -200
-22 c-110 -12 -202 -20 -204 -18 -3 2 57 111 133 242 76 131 189 327 252 435
l114 197 57 -36 c31 -20 84 -57 117 -81z m2010 78 c21 -5 26 -9 15 -13 -8 -4
-154 -47 -325 -96 -255 -73 -339 -102 -476 -164 l-167 -74 -16 35 c-10 19 -13
38 -9 42 4 4 130 46 278 94 149 48 312 101 362 118 94 30 251 66 288 66 11 0
34 -4 50 -8z m235 -30 c0 -3 -42 -17 -93 -31 -447 -127 -935 -273 -994 -298
-77 -33 -97 -37 -91 -20 2 6 73 43 158 82 125 56 223 90 505 173 330 97 355
103 432 101 46 -1 83 -4 83 -7z m5358 -10 c29 -11 94 -41 143 -66 71 -35 89
-49 84 -61 -22 -58 -791 -1371 -798 -1364 -6 6 35 140 98 323 59 172 171 502
250 733 161 472 155 455 164 455 3 0 30 -9 59 -20z m-9537 -528 c189 -216 345
-397 347 -401 1 -4 -30 -23 -70 -41 -39 -19 -88 -47 -109 -62 l-37 -27 -418
241 c-231 133 -421 243 -423 245 -6 4 53 96 117 181 63 85 231 264 242 260 4
-2 162 -180 351 -396z m8021 310 c37 -64 433 -920 455 -982 3 -9 -3 -6 -14 6
-137 154 -759 867 -761 874 -6 17 242 193 263 187 6 -2 31 -40 57 -85z m1857
39 c136 -91 353 -281 350 -308 0 -4 -270 -243 -599 -530 -584 -509 -599 -521
-616 -502 -17 19 -17 21 2 53 10 18 188 326 394 684 206 358 380 651 386 652
5 0 43 -22 83 -49z m-6944 -108 c8 -20 14 -37 12 -39 -13 -13 -245 -110 -255
-106 -7 2 -11 7 -8 10 3 2 -2 18 -11 33 -9 16 -15 30 -12 32 6 5 243 105 251
106 4 1 15 -15 23 -36z m-655 -92 c33 -44 60 -82 60 -85 0 -11 -36 -10 -45 1
-16 21 -78 -3 -72 -28 3 -11 -2 -23 -11 -28 -15 -8 -13 -11 9 -20 15 -5 29
-20 33 -34 3 -14 9 -32 12 -41 5 -12 -13 -25 -77 -54 -77 -35 -98 -40 -249
-56 -91 -9 -183 -20 -205 -23 -38 -6 -25 7 220 220 143 125 261 227 262 227 1
0 29 -36 63 -79z m5849 -461 c241 -275 382 -444 401 -480 24 -49 57 -166 48
-175 -1 -1 -282 159 -623 356 -341 197 -624 360 -630 362 -25 10 201 307 306
401 l51 46 38 -42 c20 -24 205 -234 409 -468z m-5166 470 c-11 -10 -233 -100
-246 -100 -20 0 4 13 120 66 64 29 121 50 126 47 5 -3 5 -9 0 -13z m-579 -157
c25 -40 24 -47 -12 -58 -19 -5 -25 -1 -41 37 -13 30 -15 45 -7 50 22 15 36 8
60 -29z m7993 -145 c37 -54 65 -99 62 -101 -10 -9 -1381 -797 -1385 -797 -26
0 80 98 596 549 l595 520 33 -37 c18 -20 62 -81 99 -134z m-10681 -155 c228
-131 413 -240 413 -243 0 -3 -23 -30 -52 -61 l-52 -56 -430 148 c-236 81 -431
148 -432 148 -10 3 124 301 135 301 3 0 191 -107 418 -237z m3889 108 c-6 -4
-145 -27 -310 -50 -359 -50 -365 -51 -387 -57 -11 -3 -18 0 -18 8 0 20 373 90
520 98 187 10 205 11 195 1z m-1506 -15 c-3 -3 -577 -240 -646 -267 -13 -5
-23 -7 -23 -5 0 3 173 155 241 213 11 9 91 23 210 37 231 28 223 27 218 22z
m1411 -54 c-13 -9 -138 -99 -277 -199 -140 -101 -255 -183 -258 -183 -2 0 -7
20 -11 45 -3 25 -10 48 -15 50 -4 3 -6 12 -3 19 5 13 -21 131 -34 151 -3 5 -7
17 -7 27 -2 19 -11 17 365 72 281 40 271 39 240 18z m-1880 -16 c-93 -88 -273
-236 -292 -240 -13 -3 -59 -10 -103 -16 -44 -6 -90 -13 -102 -16 -20 -4 -14
11 48 118 40 68 73 125 75 127 3 3 179 26 389 50 5 0 -2 -10 -15 -23z m6345
-356 c347 -200 633 -368 637 -374 4 -6 8 -19 8 -28 0 -14 -68 6 -382 113 -211
72 -531 181 -713 243 -286 97 -330 115 -327 131 5 26 88 213 112 253 11 18 24
31 28 29 4 -2 291 -168 637 -367z m2539 292 c51 -103 102 -237 132 -350 15
-56 25 -104 23 -105 -8 -6 -1560 -310 -1563 -306 -2 2 -6 13 -10 24 -5 18 70
65 681 417 378 218 691 394 695 392 5 -3 24 -36 42 -72z m-9284 33 c0 -2 -31
-57 -68 -121 -61 -105 -73 -119 -107 -131 -21 -7 -40 -12 -42 -10 -1 2 16 60
40 130 l42 126 45 4 c25 2 55 4 68 5 12 1 22 0 22 -3z m-370 -128 c0 -100 -2
-117 -20 -137 -12 -14 -24 -20 -29 -14 -8 8 -51 209 -51 239 0 12 19 18 83 23
15 2 17 -9 17 -111z m80 110 c0 -2 -13 -39 -30 -83 l-29 -79 -1 83 0 82 30 0
c17 0 30 -1 30 -3z m-194 -54 c3 -21 14 -77 24 -125 18 -90 14 -122 -13 -100
-12 10 -16 9 -21 -4 -3 -9 -13 -14 -20 -11 -8 3 -16 1 -18 -5 -3 -7 -37 46
-77 116 -40 70 -72 129 -70 131 6 5 141 33 166 34 18 1 23 -6 29 -36z m-1160
-148 c235 -80 430 -147 432 -149 2 -2 -4 -18 -12 -35 -15 -28 -36 -109 -50
-193 l-7 -38 -446 0 -446 0 7 98 c4 53 11 129 17 167 15 98 64 295 74 295 1 0
195 -65 431 -145z m1015 18 c45 -79 68 -128 61 -131 -7 -2 -12 -10 -12 -18 0
-8 -4 -14 -9 -14 -10 0 -221 239 -221 250 0 5 78 36 101 39 4 1 39 -56 80
-126z m2008 45 c37 -143 48 -128 -119 -160 -80 -16 -394 -78 -697 -138 -304
-60 -560 -107 -568 -104 -11 5 -12 11 -4 25 7 15 6 19 -6 19 -16 0 -20 27 -6
49 5 7 247 89 537 182 421 135 551 172 639 185 61 9 112 18 114 20 2 2 23 4
46 4 l42 0 22 -82z m-2099 -95 c79 -90 107 -129 96 -131 -9 -2 -16 -12 -16
-23 0 -11 -7 -19 -16 -19 -10 0 -14 -6 -10 -15 3 -8 1 -15 -4 -15 -7 0 -366
205 -379 216 -11 10 176 114 204 114 7 0 64 -57 125 -127z m-162 -105 c97 -56
180 -107 184 -112 12 -18 9 -33 -8 -40 -16 -6 -464 141 -464 153 0 12 87 101
99 101 7 0 92 -46 189 -102z m851 88 c-10 -10 -129 -54 -129 -48 1 20 22 36
56 42 46 9 79 12 73 6z m6607 -216 c878 -299 823 -278 840 -311 7 -15 14 -30
14 -34 0 -3 -353 -5 -785 -5 l-785 0 0 33 c0 78 32 292 60 402 16 66 30 121
30 123 0 4 10 1 626 -208z m-6750 185 c-22 -17 -46 -20 -46 -6 0 10 22 18 50
20 11 0 10 -4 -4 -14z m1603 -93 c20 -156 18 -162 -39 -205 l-49 -37 -666 0
c-390 0 -664 4 -661 9 3 5 -2 12 -11 15 -11 5 -13 10 -6 17 8 8 1353 283 1409
288 7 1 16 -34 23 -87z m-2361 -69 c122 -41 222 -79 222 -84 0 -5 -5 -9 -10
-9 -6 0 -8 -10 -4 -24 3 -13 1 -27 -5 -31 -6 -3 -9 -11 -6 -16 4 -5 -96 -9
-254 -9 l-261 0 0 28 c0 36 25 139 46 191 13 32 21 41 33 36 9 -4 116 -41 239
-82z m10385 -80 c12 -77 29 -260 26 -277 -4 -15 -61 -17 -798 -16 -437 0 -797
2 -799 5 -3 3 -3 7 0 10 4 4 1484 302 1559 314 4 1 9 -16 12 -36z m-8003 -78
c0 -10 -10 -15 -27 -15 -26 0 -26 1 -7 15 25 19 34 19 34 0z m-2730 -117 l0
-83 -425 -84 c-234 -46 -428 -82 -430 -79 -7 7 -24 133 -31 231 l-7 97 447 0
446 0 0 -82z m544 67 c-4 -8 -1 -15 6 -15 6 0 10 -5 8 -12 -5 -13 -516 -120
-530 -111 -5 2 -8 38 -8 79 l0 74 265 0 c231 0 264 -2 259 -15z m2036 11 c0
-2 -51 -41 -112 -87 -227 -167 -334 -245 -363 -266 l-30 -20 -387 132 c-444
152 -427 146 -411 152 9 3 10 10 3 23 -8 14 -6 21 6 28 11 6 13 11 5 16 -6 4
-11 11 -11 17 0 5 251 9 650 9 358 0 650 -2 650 -4z m144 -83 c-12 -179 -72
-473 -98 -473 -19 0 -496 165 -496 172 0 3 24 23 53 44 101 74 323 238 392
290 58 44 77 53 113 54 l42 0 -6 -87z m-2154 2 c10 -12 10 -19 2 -27 -8 -8 -7
-14 5 -23 11 -8 13 -17 6 -29 -5 -9 -103 -71 -219 -137 l-209 -121 -33 38
c-40 46 -81 131 -84 175 l-3 33 255 52 c140 28 258 52 261 53 4 1 12 -6 19
-14z m1096 -170 c203 -69 375 -128 383 -131 11 -3 8 -9 -10 -21 -13 -9 -56
-41 -96 -70 l-72 -54 -308 177 c-287 166 -322 188 -323 206 0 6 22 14 46 17 6
0 177 -55 380 -124z m-1652 38 c8 -53 47 -133 86 -177 18 -21 29 -41 24 -45
-20 -17 -764 -441 -774 -441 -28 0 -175 368 -195 487 l-6 41 58 12 c54 12 781
157 794 159 4 1 9 -16 13 -36z m601 18 c-4 -13 -1 -21 9 -23 14 -3 -107 -115
-271 -251 l-33 -29 -49 18 c-53 19 -102 53 -86 60 6 2 102 58 215 123 113 66
209 120 213 120 5 1 6 -8 2 -18z m940 -171 c154 -89 283 -165 287 -168 7 -7
-52 -53 -208 -165 l-51 -37 -69 82 c-58 67 -69 86 -66 112 2 17 -5 60 -14 95
-14 50 -29 75 -68 119 -51 55 -111 91 -153 92 -13 0 -23 5 -23 10 0 6 7 10 15
10 8 0 15 9 15 20 0 26 -24 38 335 -170z m7185 157 c0 -9 -229 -58 -772 -165
-425 -84 -778 -153 -785 -152 -6 0 -14 17 -17 38 -11 67 -26 216 -26 255 l0
37 800 0 c645 0 800 -2 800 -13z m2016 -79 c-9 -123 -32 -265 -58 -363 -24
-91 -35 -118 -47 -110 -5 3 -335 116 -732 251 -398 136 -734 250 -745 255 -16
6 -20 14 -17 33 l5 26 800 0 801 0 -7 -92z m-10116 -8 c-6 -4 -10 -16 -8 -27
1 -11 -3 -27 -10 -35 -10 -12 -10 -27 -2 -61 5 -25 7 -53 4 -61 -7 -18 -64
-22 -64 -6 0 14 -52 1 -66 -16 -12 -15 -80 -17 -123 -5 -22 6 -11 18 125 138
137 120 149 129 152 105 2 -13 -2 -28 -8 -32z m8120 16 c-1 -6 -206 -129 -458
-274 -251 -144 -562 -323 -689 -397 l-233 -134 -26 44 c-60 102 -191 472 -173
489 2 2 348 72 769 155 421 84 770 153 775 155 11 4 35 -22 35 -38z m1150
-246 c410 -139 746 -254 748 -255 5 -4 -80 -201 -109 -252 l-30 -52 -263 152
c-145 84 -455 262 -689 397 -235 135 -426 251 -427 259 0 7 6 11 13 9 6 -3
347 -119 757 -258z m-1130 210 c0 -12 -1184 -1050 -1198 -1050 -16 0 -199 257
-189 266 9 10 1372 794 1380 794 4 0 7 -4 7 -10z m1046 -390 c373 -215 680
-392 682 -395 2 -2 -29 -52 -69 -110 -65 -97 -269 -325 -289 -325 -5 0 -243
268 -530 595 -474 541 -520 596 -510 615 6 12 18 19 25 16 8 -3 319 -181 691
-396z m-999 332 c-4 -19 -773 -1352 -787 -1365 -10 -11 -98 45 -205 128 -82
65 -242 221 -234 229 2 2 272 238 599 524 511 448 597 519 613 510 11 -5 17
-17 14 -26z m782 -582 c287 -327 521 -597 521 -600 -2 -21 -259 -195 -270
-184 -20 20 -797 1374 -792 1379 3 3 9 4 13 3 4 -2 242 -271 528 -598z m-888
124 c-281 -828 -360 -1056 -364 -1061 -12 -11 -297 120 -297 136 0 22 794
1381 802 1373 5 -5 -56 -197 -141 -448z m728 -238 c215 -373 391 -682 391
-686 0 -13 -137 -80 -164 -80 -29 0 -135 89 -129 107 9 27 -77 57 -92 32 -9
-14 14 -69 29 -69 13 0 96 -84 96 -98 0 -18 -24 -30 -110 -55 -129 -39 -157
-43 -163 -20 -3 10 -72 351 -152 758 -80 407 -149 750 -152 762 -4 18 0 25 18
32 13 5 27 6 30 2 3 -3 182 -311 398 -685z m-509 -126 l0 -800 -47 0 c-149 0
-513 71 -513 99 0 5 58 179 129 387 71 209 184 539 250 734 67 195 123 361
126 368 2 6 16 12 30 12 l25 0 0 -800z m44 783 c5 -19 306 -1537 306 -1546 0
-8 -119 -26 -227 -33 l-103 -7 0 802 c0 733 4 852 24 784z m-6612 -79 l257
-87 -16 -41 c-8 -23 -39 -92 -69 -153 l-53 -113 -183 106 c-101 59 -231 134
-290 168 -59 33 -108 64 -108 68 0 4 36 32 80 63 44 31 82 60 85 65 11 18 39
11 297 -76z m-2152 9 l76 -38 -370 -322 c-203 -178 -372 -323 -376 -323 -8 0
-128 159 -165 218 -14 24 -24 47 -20 50 7 7 767 450 775 451 2 1 38 -16 80
-36z m610 -19 c0 -20 -61 -15 -68 5 -3 8 0 11 7 7 6 -4 19 -3 28 3 21 11 33 6
33 -15z m-338 -51 c21 -19 50 -23 66 -10 7 5 14 8 16 6 3 -4 -553 -972 -566
-985 -8 -7 -137 78 -223 147 -33 26 -96 84 -140 128 -70 71 -78 83 -65 95 8 8
177 157 375 330 l360 315 80 -6 c48 -3 87 -11 97 -20z m322 17 c18 -6 26 -17
26 -34 0 -30 23 -50 50 -41 19 6 20 3 20 -94 0 -56 -4 -103 -10 -106 -5 -3
-10 -26 -10 -51 0 -24 5 -44 10 -44 7 0 10 -155 10 -446 l0 -447 -97 7 c-152
11 -411 60 -453 86 -12 7 4 64 89 312 56 167 143 422 193 568 49 146 94 267
99 268 5 2 9 10 9 18 0 16 28 18 64 4z m176 0 c12 -8 11 -10 -7 -10 -12 0 -25
5 -28 10 -8 13 15 13 35 0z m-280 -29 c0 -4 -18 -58 -39 -121 -21 -63 -107
-315 -190 -559 -83 -245 -153 -447 -155 -449 -6 -5 -186 72 -249 106 -32 17
-47 31 -44 42 3 12 472 829 548 956 18 29 23 31 74 32 30 0 55 -3 55 -7z m290
0 c20 -6 26 -16 36 -63 l11 -56 -46 -39 c-75 -64 -71 -67 -71 56 0 122 0 122
70 102z m1187 -166 l292 -168 -24 -41 c-49 -82 -149 -209 -237 -302 -50 -52
-94 -94 -99 -94 -9 0 -497 553 -501 569 -3 10 262 211 272 206 3 -1 137 -78
297 -170z m-1103 140 c3 -8 16 -15 28 -15 21 -1 20 -3 -12 -29 -19 -16 -36
-29 -37 -27 -1 1 -6 21 -11 44 -9 37 -8 42 8 42 10 0 20 -7 24 -15z m420 -79
l66 -74 -71 -52 c-39 -28 -72 -50 -74 -48 -1 2 -24 39 -49 82 -43 72 -45 81
-30 89 10 6 34 25 53 43 20 18 37 34 37 34 1 0 31 -33 68 -74z m-155 55 c11
-7 9 -11 -9 -21 -24 -13 -48 0 -36 19 9 13 26 14 45 2z m-59 -30 c0 -6 -4 -13
-10 -16 -5 -3 -10 1 -10 9 0 9 5 16 10 16 6 0 10 -4 10 -9z m73 -131 c26 -46
44 -86 39 -89 -123 -86 -122 -85 -122 -67 0 9 11 18 25 22 28 7 32 28 9 51 -9
9 -12 22 -8 32 17 42 16 51 -9 60 -30 12 -43 68 -18 74 29 8 35 1 84 -83z
m488 -290 l250 -285 -43 -38 c-24 -21 -83 -65 -132 -98 -72 -49 -91 -58 -101
-47 -11 11 -374 638 -378 652 -3 7 137 106 146 103 4 -1 120 -130 258 -287z
m-231 -153 c102 -177 186 -326 188 -332 5 -18 -151 -89 -177 -80 -30 9 -118
88 -114 102 9 27 -77 57 -92 32 -8 -12 14 -69 27 -69 20 0 88 -74 88 -96 0
-20 -11 -27 -93 -53 -51 -16 -111 -31 -132 -33 l-39 -3 -68 340 c-37 187 -65
350 -62 363 3 17 11 22 33 22 34 0 115 41 186 93 28 20 55 36 60 36 6 0 93
-145 195 -322z m-610 219 c36 -25 75 -46 87 -46 18 0 23 -9 32 -52 6 -29 36
-181 67 -338 30 -157 58 -295 60 -306 5 -20 0 -22 -73 -32 -43 -7 -117 -14
-165 -18 l-88 -7 1 439 c0 242 3 431 7 422 4 -9 36 -37 72 -62z"/>
</g>
</svg>
