<?xml version="1.0" standalone="no"?>
<!DOCTYPE svg PUBLIC "-//W3C//DTD SVG 20010904//EN"
 "http://www.w3.org/TR/2001/REC-SVG-20010904/DTD/svg10.dtd">
<svg version="1.0" xmlns="http://www.w3.org/2000/svg"
 width="1280.000000pt" height="784.000000pt" viewBox="0 0 1280.000000 784.000000"
 preserveAspectRatio="xMidYMid meet">
<metadata>
Created by potrace 1.15, written by Peter Selinger 2001-2017
</metadata>
<g transform="translate(0.000000,784.000000) scale(0.100000,-0.100000)"
fill="#000000" stroke="none">
<path d="M2612 7827 c-82 -26 -162 -135 -162 -220 0 -60 44 -144 97 -184 58
-43 116 -53 317 -53 l173 0 148 -327 c82 -181 204 -452 273 -603 68 -151 126
-284 127 -295 2 -12 53 -132 114 -269 62 -136 111 -253 109 -260 -2 -7 -103
-211 -226 -454 l-223 -442 -41 21 c-149 76 -435 162 -648 196 -158 24 -473 24
-625 -1 -292 -47 -557 -137 -788 -267 -675 -379 -1109 -1029 -1234 -1846 -26
-169 -23 -536 5 -718 161 -1032 884 -1836 1845 -2049 189 -42 279 -51 502 -50
224 1 334 15 548 69 455 115 916 414 1226 794 139 170 297 444 380 656 109
277 181 622 181 862 l0 83 98 0 99 0 31 -83 c35 -91 107 -194 175 -250 238
-195 541 -182 758 33 41 41 89 100 106 130 127 225 92 494 -88 683 l-58 60 57
62 c173 188 2366 2485 2372 2485 4 0 155 -228 336 -507 180 -280 339 -525 352
-546 l25 -37 -68 -63 c-171 -156 -291 -294 -407 -472 -550 -837 -571 -1901
-55 -2760 378 -630 1007 -1042 1737 -1135 119 -16 397 -16 510 -1 377 51 705
173 1010 376 587 391 963 1001 1077 1752 20 135 23 515 5 653 -41 308 -124
580 -258 850 -375 753 -1084 1245 -1904 1321 -300 28 -660 -20 -947 -127 -114
-42 -320 -138 -405 -190 -50 -31 -62 -34 -72 -23 -7 8 -218 332 -470 722
l-456 707 2 391 3 392 80 50 c290 180 649 367 802 417 l102 33 36 -27 c20 -15
60 -60 89 -99 215 -289 313 -714 216 -934 -26 -60 -102 -137 -163 -166 -79
-37 -183 -57 -299 -57 -90 0 -149 7 -343 36 l-41 6 -18 -107 c-10 -58 -16
-108 -14 -111 9 -8 166 -34 284 -46 344 -34 616 62 751 265 118 177 140 410
67 700 -61 246 -212 529 -351 658 -103 95 -177 120 -288 94 -194 -45 -531
-213 -979 -488 -81 -50 -150 -97 -153 -104 -3 -7 -13 -13 -22 -13 -15 0 -16
-35 -13 -405 2 -321 0 -406 -10 -409 -7 -3 -645 -10 -1418 -16 -773 -7 -1704
-16 -2070 -19 -448 -4 -669 -3 -676 4 -6 5 -91 188 -189 405 -98 217 -220 487
-271 600 l-93 205 322 5 c282 4 327 7 362 23 55 25 93 63 121 122 44 92 25
183 -52 257 -73 70 -54 68 -763 67 -415 -1 -647 -5 -669 -12z m5492 -1983 c21
-30 36 -59 34 -64 -2 -5 -565 -599 -1251 -1320 l-1249 -1311 -41 8 c-79 15
-227 8 -286 -15 -30 -12 -56 -21 -57 -19 -1 1 -145 319 -320 707 -174 388
-451 1002 -615 1365 -164 362 -296 661 -294 663 4 5 3078 38 3731 41 l311 1
37 -56z m-3754 -1409 c642 -1424 670 -1485 670 -1500 0 -8 -5 -17 -11 -21 -21
-13 -87 -164 -99 -228 l-12 -66 -93 0 -92 0 -16 140 c-89 752 -483 1418 -1068
1803 -43 29 -79 56 -79 61 0 5 84 175 188 377 l187 368 16 -32 c9 -18 193
-423 409 -902z m6337 230 c355 -50 706 -204 986 -433 106 -87 282 -275 357
-380 205 -290 334 -604 396 -962 25 -148 30 -458 10 -618 -71 -555 -340 -1063
-741 -1400 -408 -343 -947 -515 -1443 -461 -684 74 -1278 490 -1590 1114 -67
133 -77 158 -129 310 -79 232 -113 447 -113 706 0 501 154 960 456 1359 87
114 280 309 293 295 4 -6 223 -343 486 -749 l477 -739 -24 -46 c-19 -39 -23
-61 -23 -141 0 -81 4 -103 24 -145 79 -161 268 -250 422 -200 215 71 320 291
232 485 -38 82 -100 145 -183 184 -54 25 -79 30 -142 31 l-78 2 -484 749 -484
748 56 35 c143 87 399 189 567 226 204 46 477 58 672 30z m-8146 -45 c192 -20
434 -85 599 -161 l70 -32 -312 -619 -313 -620 -3 95 -3 95 -51 11 c-28 6 -53
10 -55 7 -2 -2 -20 -46 -39 -97 -19 -52 -37 -101 -40 -109 -3 -8 -21 34 -40
95 -19 60 -37 111 -39 113 -2 3 -29 1 -59 -2 l-55 -7 -3 -121 -3 -121 -69 97
c-39 53 -72 96 -74 96 -2 0 -25 -12 -51 -27 l-48 -26 34 -105 c19 -57 32 -106
29 -109 -2 -3 -45 24 -95 58 l-91 63 -41 -41 -41 -41 70 -93 c39 -52 70 -95
68 -96 -1 -1 -47 11 -101 27 -55 16 -107 30 -115 30 -8 0 -25 -22 -37 -49
l-21 -49 94 -64 c51 -35 93 -66 94 -69 0 -4 -49 -8 -109 -11 -60 -2 -112 -6
-115 -9 -4 -3 -7 -30 -9 -59 l-2 -53 114 -31 114 -32 -112 -43 c-61 -24 -111
-48 -111 -52 0 -4 5 -30 12 -58 l11 -50 76 5 c42 2 95 7 119 9 23 3 42 3 42 1
0 -2 -40 -38 -89 -80 l-89 -77 30 -49 c26 -42 33 -48 52 -40 11 4 59 24 105
44 47 20 86 34 88 32 2 -1 -22 -47 -54 -101 l-57 -98 44 -38 45 -38 30 27
c109 100 137 123 141 119 3 -3 -4 -53 -16 -112 -11 -60 -19 -109 -18 -110 7
-4 94 -35 100 -35 4 0 33 46 65 102 l58 103 12 -85 c24 -164 16 -148 79 -152
31 -1 57 -1 59 2 1 3 11 53 21 113 10 59 21 107 24 107 3 0 28 -45 55 -100 27
-55 52 -100 55 -100 4 0 30 7 58 15 48 15 51 17 47 43 -18 98 -31 202 -26 202
3 0 42 -36 86 -79 l80 -80 47 35 47 35 -56 106 c-31 59 -50 104 -42 101 8 -4
57 -26 110 -51 l95 -45 33 47 32 46 -87 84 -86 84 53 -6 c30 -3 84 -9 120 -13
l66 -6 15 53 15 54 -41 22 -41 22 644 1 644 0 -6 -122 c-13 -295 -91 -587
-232 -873 -315 -638 -906 -1057 -1600 -1135 -481 -53 -1009 107 -1415 430
-274 218 -500 529 -639 878 -271 679 -194 1448 207 2062 408 625 1130 982
1843 910z m946 -358 c494 -346 816 -918 888 -1579 l7 -63 -595 0 -596 0 -3 38
-3 37 -65 7 c-36 4 -89 10 -119 14 l-53 6 98 60 c55 33 100 61 102 63 6 5 -34
98 -43 102 -6 2 -58 -8 -115 -21 -58 -14 -106 -23 -108 -22 -1 2 29 41 68 87
38 46 70 89 70 94 -1 6 -16 27 -35 48 l-35 37 -96 -60 c-52 -33 -97 -60 -99
-60 -3 0 3 15 13 33 10 17 155 303 322 635 167 331 306 602 309 602 3 -1 43
-27 88 -58z"/>
</g>
</svg>
