<?xml version="1.0" standalone="no"?>
<!DOCTYPE svg PUBLIC "-//W3C//DTD SVG 20010904//EN"
 "http://www.w3.org/TR/2001/REC-SVG-20010904/DTD/svg10.dtd">
<svg version="1.0" xmlns="http://www.w3.org/2000/svg"
 width="1280.000000pt" height="1186.000000pt" viewBox="0 0 1280.000000 1186.000000"
 preserveAspectRatio="xMidYMid meet">
<metadata>
Created by potrace 1.15, written by Peter Selinger 2001-2017
</metadata>
<g transform="translate(0.000000,1186.000000) scale(0.100000,-0.100000)"
fill="#000000" stroke="none">
<path d="M7485 11850 c-92 -14 -179 -42 -290 -95 -105 -49 -117 -58 -231 -171
-123 -122 -207 -232 -249 -328 -69 -155 -89 -356 -46 -451 12 -27 26 -69 32
-93 22 -98 -39 -259 -107 -288 -40 -17 -133 -18 -279 -3 -222 22 -511 -27
-715 -121 -58 -26 -145 -66 -193 -89 -50 -23 -110 -60 -139 -86 -28 -25 -62
-48 -77 -51 -14 -3 -33 -10 -41 -15 -8 -5 -28 -17 -44 -27 -16 -9 -48 -34 -71
-54 -23 -21 -47 -38 -52 -38 -10 0 -108 -76 -303 -235 -221 -180 -438 -393
-586 -575 -90 -111 -200 -262 -222 -306 -11 -22 -34 -52 -51 -68 -17 -16 -38
-52 -47 -80 -9 -28 -56 -130 -104 -226 -151 -300 -195 -494 -207 -896 -7 -244
0 -309 56 -502 21 -73 35 -134 32 -136 -3 -2 -25 -7 -48 -11 -65 -10 -144 -63
-173 -115 -35 -63 -34 -155 4 -269 26 -75 36 -91 93 -146 78 -77 190 -139 236
-132 18 2 82 16 142 31 169 40 174 39 240 -41 31 -38 78 -111 105 -163 27 -52
68 -117 91 -145 23 -27 48 -64 55 -80 7 -17 22 -39 35 -50 12 -11 30 -38 40
-60 l18 -39 -30 -40 c-16 -22 -29 -43 -29 -48 0 -7 -17 -34 -92 -145 -15 -23
-28 -46 -28 -52 0 -6 -22 -36 -50 -66 -27 -30 -50 -64 -50 -75 0 -11 -13 -39
-29 -62 -33 -51 -96 -148 -126 -198 -12 -19 -38 -61 -58 -92 -20 -32 -37 -60
-37 -64 0 -3 -20 -28 -44 -55 -24 -27 -47 -61 -51 -76 -8 -34 -66 -122 -80
-123 -6 0 -21 7 -33 16 -12 8 -78 37 -145 64 -67 26 -149 60 -182 75 -33 15
-96 35 -140 45 -44 10 -100 26 -125 35 -64 23 -212 53 -322 65 -149 16 -524
12 -647 -6 -206 -30 -470 -108 -628 -187 -37 -18 -104 -48 -148 -66 -62 -24
-122 -63 -270 -174 -104 -78 -234 -185 -289 -237 -98 -94 -308 -346 -339 -406
-9 -17 -23 -37 -32 -44 -48 -40 -112 -160 -155 -290 -24 -74 -54 -151 -66
-170 -52 -81 -98 -246 -140 -510 -24 -152 -26 -182 -22 -385 7 -324 50 -564
139 -773 23 -54 63 -155 90 -226 31 -84 58 -140 78 -160 38 -40 96 -126 119
-179 11 -23 29 -51 41 -61 11 -11 21 -25 21 -32 0 -16 231 -275 312 -349 85
-78 267 -213 375 -279 115 -70 357 -183 508 -236 88 -31 150 -46 233 -56 62
-7 172 -27 244 -45 l131 -32 216 6 c244 6 356 24 606 98 254 74 298 91 475
180 187 95 316 182 456 310 107 97 298 298 356 374 25 34 53 67 61 73 12 11
63 -12 293 -129 154 -78 285 -147 293 -153 8 -6 38 -60 66 -121 l52 -110 257
-64 c141 -35 258 -62 260 -60 2 2 20 38 41 79 51 102 59 110 114 110 69 1 218
37 266 65 25 14 49 39 59 59 15 31 15 39 3 69 -19 44 -93 106 -197 164 -93 52
-172 121 -245 213 l-46 60 28 11 c45 17 194 59 209 59 51 0 236 132 341 243
129 136 173 261 176 492 2 121 -1 152 -22 225 -13 47 -35 109 -47 138 l-24 54
83 86 c45 48 245 263 443 477 428 464 1723 1870 1844 2002 l85 92 18 -62 c10
-34 47 -138 83 -230 69 -177 94 -251 94 -279 0 -9 -57 -59 -137 -119 -162
-120 -349 -303 -450 -439 -101 -136 -239 -369 -283 -480 -21 -52 -50 -120 -64
-150 -14 -30 -33 -89 -42 -130 -9 -41 -27 -105 -40 -142 -13 -37 -36 -129 -51
-205 -27 -131 -28 -152 -28 -408 0 -218 4 -287 18 -360 26 -134 115 -451 144
-520 14 -32 41 -97 59 -143 39 -100 173 -330 226 -389 21 -24 38 -47 38 -53 0
-17 172 -210 281 -316 189 -183 357 -296 619 -417 291 -134 383 -166 524 -183
66 -8 175 -29 241 -46 l120 -30 220 5 c198 5 238 9 401 40 100 19 202 44 227
55 26 11 81 30 124 42 128 35 375 157 597 295 33 20 42 28 201 158 164 134
349 347 460 531 22 37 57 94 78 127 58 93 93 167 117 249 12 41 33 97 47 123
13 27 31 81 38 120 8 40 25 101 39 137 13 36 38 134 55 219 28 139 31 173 31
333 0 98 -5 220 -10 271 -14 122 -72 398 -98 467 -11 30 -30 85 -41 121 -27
88 -187 415 -248 509 -27 41 -57 87 -66 102 -32 51 -205 244 -304 338 -110
105 -280 232 -448 336 -134 83 -460 224 -516 224 -10 0 -65 15 -121 34 -187
63 -254 70 -613 71 -347 0 -379 -4 -610 -64 -60 -16 -113 -27 -116 -25 -3 2
-38 68 -77 148 -80 161 -126 213 -208 237 -26 8 -54 24 -64 36 -9 12 -45 118
-80 235 -35 117 -112 361 -172 541 -59 180 -108 332 -108 338 0 8 67 10 218 8
l219 -4 42 -30 c142 -102 164 -114 219 -126 67 -15 214 -17 293 -6 l56 9 22
-52 c38 -88 54 -186 42 -254 -12 -70 -40 -108 -127 -179 -99 -81 -195 -117
-363 -137 -47 -6 -101 -13 -118 -16 l-33 -5 0 -107 c0 -59 4 -113 8 -120 6 -9
55 -13 188 -15 204 -2 219 1 387 85 133 66 245 172 300 282 66 132 78 179 83
311 7 159 7 161 54 185 49 25 102 26 123 2 21 -23 52 -150 66 -268 11 -92 40
-198 68 -245 38 -64 157 -87 208 -39 44 41 35 77 -38 156 l-64 69 -6 120 c-12
251 -86 527 -178 663 -46 68 -58 96 -74 170 -7 37 -21 90 -31 118 -24 71 -100
233 -131 277 -30 44 -129 125 -188 154 -106 53 -265 60 -409 18 -159 -46 -228
-85 -323 -179 l-84 -84 -112 52 c-62 29 -128 58 -147 66 -19 7 -51 27 -70 45
-19 17 -74 64 -122 103 -48 40 -159 139 -246 220 -87 81 -225 208 -307 282
-279 250 -355 347 -461 582 -26 57 -69 153 -96 213 -27 61 -58 133 -68 160 -9
28 -36 93 -59 146 -22 53 -41 104 -41 114 0 10 -42 106 -94 214 -52 108 -99
214 -105 236 -28 104 -2 185 66 204 61 17 139 13 183 -9 114 -58 266 -62 340
-9 44 32 57 56 91 169 13 41 33 88 46 103 13 16 23 37 23 47 0 10 12 33 28 51
15 18 38 55 52 83 23 48 29 52 90 73 102 34 108 56 60 218 -35 117 -37 157
-11 194 26 35 56 130 71 221 14 88 27 111 81 147 57 37 93 102 84 151 -13 71
-81 194 -156 280 -60 69 -85 90 -149 122 -42 21 -94 53 -116 72 -22 18 -58 41
-80 50 -21 9 -88 38 -147 63 -187 80 -310 99 -472 75z m-738 -3240 c18 -10 39
-34 49 -51 63 -123 443 -588 664 -813 276 -282 481 -462 655 -576 83 -55 168
-115 191 -134 23 -20 45 -36 49 -36 13 0 179 -112 188 -127 4 -7 29 -25 55
-40 26 -15 81 -50 122 -77 l75 -51 -45 -3 c-154 -9 -243 -44 -285 -114 -30
-50 -26 -174 10 -303 15 -55 38 -143 50 -195 l22 -95 -420 -3 c-231 -1 -422 0
-425 3 -3 3 9 36 27 74 44 96 56 172 41 260 -12 72 -67 198 -119 275 -15 22
-40 60 -55 84 -38 61 -195 232 -212 232 -8 0 -36 20 -62 44 -26 24 -58 47 -72
51 -14 4 -43 24 -65 45 -64 61 -525 284 -760 368 -128 46 -235 91 -540 230
-170 77 -235 143 -235 239 0 86 41 179 102 233 62 55 86 69 115 70 13 0 47 22
78 50 30 28 60 50 67 50 6 0 25 10 42 23 57 43 159 100 366 204 225 113 263
122 327 83z m3233 -1415 c97 -20 132 -38 188 -100 85 -92 142 -235 142 -355 0
-76 -49 -260 -70 -259 -8 0 -51 10 -95 22 l-80 22 -8 64 c-16 130 -137 329
-243 400 -37 24 -59 29 -174 41 -72 7 -133 17 -135 21 -8 12 83 89 128 108 24
10 63 22 87 26 24 4 60 13 80 20 37 14 71 12 180 -10z m-3855 -1016 c187 -7
341 -13 343 -15 6 -4 -20 -46 -66 -105 -33 -43 -53 -60 -76 -64 -17 -3 -179
-4 -360 -3 l-330 3 -21 104 -22 104 96 -6 c53 -4 249 -12 436 -18z m-15 -495
c0 -3 -51 -71 -112 -151 -62 -79 -132 -173 -155 -208 -23 -35 -46 -65 -51 -69
-7 -4 -92 390 -92 427 0 4 92 7 205 7 113 0 205 -3 205 -6z m2599 -88 c38 -85
42 -97 29 -115 -16 -23 -309 -353 -1242 -1396 -187 -209 -439 -492 -560 -628
l-221 -249 -103 109 c-275 289 -368 402 -409 496 -7 16 -30 48 -51 73 -81 91
-126 287 -86 367 58 113 420 513 933 1030 l404 407 631 0 631 0 44 -94z
m-4109 -221 c12 -24 41 -66 64 -92 24 -27 78 -115 121 -198 43 -82 93 -167
112 -188 18 -20 33 -43 33 -50 0 -6 14 -41 30 -75 51 -107 50 -121 -14 -258
-31 -66 -65 -158 -76 -204 -11 -47 -33 -128 -50 -180 -45 -146 -77 -271 -105
-414 -15 -72 -29 -139 -31 -148 -8 -27 -22 -21 -29 12 -8 35 -111 195 -145
225 -12 11 -31 38 -43 60 -37 73 -214 279 -345 403 -72 67 -136 122 -143 122
-8 0 -26 11 -41 25 -26 22 -27 26 -15 57 15 40 177 286 206 312 12 11 21 23
21 28 0 14 130 208 162 243 15 17 28 34 28 38 0 7 153 241 205 313 17 24 32
16 55 -31z m4666 -622 c63 -46 64 -47 42 -60 -46 -25 -62 -17 -90 47 -14 33
-24 60 -21 60 3 0 34 -21 69 -47z m-6666 -53 c144 -6 233 -15 270 -26 30 -9
125 -35 210 -58 105 -29 201 -64 298 -108 218 -101 218 -101 152 -172 -22 -24
-40 -46 -40 -50 0 -7 -52 -89 -102 -163 -15 -23 -28 -45 -28 -49 0 -4 -11 -21
-24 -38 -12 -17 -31 -47 -41 -66 -9 -19 -25 -44 -35 -55 -9 -11 -20 -33 -24
-49 -4 -16 -27 -52 -52 -79 -24 -27 -44 -54 -44 -59 0 -5 -13 -28 -28 -51 -68
-100 -102 -154 -102 -161 0 -4 -11 -22 -24 -39 -13 -18 -29 -48 -35 -68 -6
-20 -25 -49 -41 -64 -17 -16 -44 -52 -60 -80 -17 -27 -36 -59 -42 -70 -41 -66
-85 -135 -110 -172 -15 -23 -28 -45 -28 -50 0 -5 -13 -24 -30 -43 -16 -19 -29
-45 -30 -56 0 -12 -9 -32 -19 -45 -19 -23 -25 -24 -185 -28 l-166 -3 -45 -52
c-72 -81 -96 -194 -72 -332 8 -45 23 -99 33 -120 18 -39 84 -111 117 -129 12
-7 27 -41 43 -104 34 -132 130 -354 176 -406 53 -60 153 -100 304 -120 66 -9
182 -28 259 -42 77 -13 196 -29 265 -34 153 -11 399 -39 750 -84 146 -19 280
-35 298 -35 17 0 32 -4 32 -8 0 -5 -13 -27 -29 -49 -16 -22 -38 -58 -49 -79
-26 -50 -162 -213 -267 -318 -44 -46 -135 -125 -201 -178 -65 -52 -125 -102
-133 -111 -7 -9 -20 -17 -28 -17 -8 0 -24 -11 -37 -25 -13 -13 -83 -54 -157
-91 -222 -110 -425 -177 -669 -221 -140 -24 -154 -25 -410 -19 -212 5 -281 11
-345 26 -44 11 -124 29 -178 40 -54 11 -129 31 -165 44 -79 29 -307 126 -372
159 -67 33 -218 145 -376 278 -157 132 -208 183 -258 261 -19 29 -48 66 -65
82 -17 17 -31 34 -31 39 0 5 -17 29 -37 52 -114 129 -223 364 -294 633 -86
329 -94 388 -86 671 7 229 18 319 52 431 13 41 29 102 35 135 19 100 49 182
125 345 133 283 228 416 459 644 88 87 177 165 196 173 19 8 54 33 77 54 24
22 49 39 57 39 9 0 39 21 68 47 59 53 228 137 353 177 44 14 136 43 205 66
154 50 246 69 330 71 36 0 76 5 90 9 34 11 89 11 340 0z m8035 -11 c127 -11
157 -18 281 -64 50 -18 118 -38 151 -44 60 -11 371 -153 421 -192 13 -10 42
-27 65 -38 137 -68 448 -356 584 -541 35 -47 79 -106 98 -132 19 -25 57 -97
84 -160 26 -62 73 -160 103 -218 45 -86 62 -132 92 -258 20 -84 43 -197 51
-250 18 -115 20 -480 5 -630 -14 -137 -80 -371 -146 -520 -30 -68 -54 -127
-54 -132 0 -5 -21 -53 -46 -106 -114 -237 -485 -651 -714 -796 -30 -19 -61
-42 -69 -51 -20 -25 -319 -170 -436 -212 -111 -40 -243 -75 -385 -102 -78 -15
-142 -18 -350 -17 -297 2 -396 12 -580 60 -158 41 -530 195 -623 259 -33 22
-75 50 -92 62 -62 42 -281 225 -349 291 -37 37 -82 87 -99 112 -17 25 -46 64
-66 86 -115 132 -166 214 -246 390 -65 143 -145 395 -187 589 -46 213 -33 569
31 880 44 211 59 260 106 355 18 36 54 116 80 178 26 61 51 115 56 118 5 3 19
24 31 47 27 54 141 209 210 284 80 89 290 284 318 296 14 6 44 26 67 45 l43
33 14 -33 c9 -18 27 -62 42 -98 65 -160 104 -249 132 -305 16 -33 44 -94 62
-135 67 -155 237 -479 287 -546 13 -17 23 -34 23 -38 0 -4 13 -26 28 -49 53
-78 99 -152 140 -222 46 -79 137 -210 197 -281 39 -46 40 -50 46 -140 8 -116
33 -164 116 -221 97 -66 164 -78 257 -47 61 21 160 112 177 162 19 58 15 151
-9 197 -31 59 -50 78 -121 121 l-65 39 -103 -2 -104 -2 -59 75 c-33 41 -60 80
-60 85 0 5 -17 28 -38 52 -97 107 -369 649 -501 997 -22 58 -65 159 -96 225
-73 158 -111 279 -96 311 12 28 55 50 186 97 271 97 387 129 520 142 137 15
388 12 590 -6z m-6712 -528 c118 -102 317 -303 317 -319 0 -7 16 -29 35 -50
19 -21 43 -58 55 -83 11 -24 39 -71 63 -104 42 -60 166 -324 193 -413 17 -57
18 -133 2 -274 -8 -76 -15 -109 -25 -113 -8 -3 -151 -9 -316 -15 -166 -5 -441
-14 -612 -20 -536 -17 -817 -18 -844 -1 -19 12 1 70 35 102 15 13 35 42 45 64
22 45 133 213 176 263 15 19 39 53 53 76 67 112 108 173 143 211 20 23 37 46
37 50 0 12 150 235 181 270 14 17 33 42 40 57 27 51 134 210 172 253 20 23 37
48 37 54 0 7 16 32 36 57 44 53 38 55 177 -65z m1856 -1044 l88 -22 -42 -125
-41 -125 -59 -6 c-74 -8 -235 -11 -235 -4 0 18 54 204 66 227 8 15 14 32 14
38 0 6 6 26 14 45 l15 34 46 -20 c26 -12 86 -31 134 -42z m481 -162 c36 -13
89 -32 118 -43 l53 -19 -117 -132 c-64 -72 -119 -131 -121 -131 -9 0 -148 102
-160 117 -9 12 -6 30 14 87 32 90 59 143 75 149 18 8 61 -1 138 -28z m-554
-337 c4 -5 -89 -273 -114 -331 -28 -63 -59 -74 -168 -57 -74 12 -84 16 -84 34
0 12 18 96 41 188 l41 167 56 4 c58 5 222 0 228 -5z m-1136 -129 c0 -68 -4
-108 -10 -104 -5 3 -87 19 -182 35 -95 17 -225 41 -288 55 -64 14 -187 34
-275 44 -150 18 -281 44 -297 59 -4 4 140 6 320 4 200 -2 337 1 352 7 14 5
105 10 203 10 l177 1 0 -111z m1395 -23 c26 -32 34 -49 28 -60 -18 -33 -198
-207 -201 -196 -3 7 21 62 52 124 31 61 59 126 62 144 4 17 10 32 15 32 4 0
24 -20 44 -44z m-2993 -22 c288 -66 603 -133 873 -183 227 -43 609 -121 706
-146 33 -8 36 -26 44 -235 6 -140 6 -146 -17 -180 -13 -19 -37 -62 -54 -95
l-31 -60 -79 3 c-98 3 -277 19 -929 83 -400 39 -513 53 -527 66 -10 9 -53 77
-95 152 l-78 136 -3 234 c-2 128 -1 239 2 247 7 19 15 19 188 -22z m3116 -446
l-3 -163 -40 -83 c-33 -70 -49 -92 -103 -137 -35 -29 -86 -65 -112 -79 -51
-28 -299 -90 -323 -80 -18 7 -97 139 -143 239 -43 93 -64 165 -64 218 0 34 2
37 28 37 58 0 126 -28 144 -60 9 -16 38 -43 64 -60 60 -38 142 -42 205 -10 51
27 164 135 259 249 41 49 79 90 83 90 5 1 7 -72 5 -161z"/>
</g>
</svg>
