<?xml version="1.0" standalone="no"?>
<!DOCTYPE svg PUBLIC "-//W3C//DTD SVG 20010904//EN"
 "http://www.w3.org/TR/2001/REC-SVG-20010904/DTD/svg10.dtd">
<svg version="1.0" xmlns="http://www.w3.org/2000/svg"
 width="1280.000000pt" height="788.000000pt" viewBox="0 0 1280.000000 788.000000"
 preserveAspectRatio="xMidYMid meet">
<metadata>
Created by potrace 1.15, written by Peter Selinger 2001-2017
</metadata>
<g transform="translate(0.000000,788.000000) scale(0.100000,-0.100000)"
fill="#000000" stroke="none">
<path d="M3829 7820 c-163 -111 -199 -176 -199 -360 l0 -108 -52 -26 c-87 -43
-154 -31 -226 43 l-40 41 -16 -25 c-9 -13 -16 -35 -16 -48 0 -24 -53 -117 -67
-117 -5 0 -25 -16 -45 -35 -34 -31 -38 -39 -38 -85 0 -60 17 -97 62 -135 18
-15 39 -42 46 -59 20 -48 52 -76 94 -82 21 -4 38 -12 38 -18 0 -7 -18 -113
-40 -236 -38 -206 -40 -230 -29 -282 15 -72 8 -120 -32 -242 -23 -71 -41 -107
-71 -141 -29 -33 -53 -79 -84 -162 -56 -148 -79 -240 -94 -383 -16 -150 -40
-225 -85 -269 -53 -52 -61 -94 -40 -223 10 -61 15 -128 12 -155 -7 -61 -61
-228 -87 -270 -24 -39 -31 -40 -165 -13 -583 114 -1216 -38 -1745 -418 -127
-92 -350 -312 -443 -437 -136 -184 -252 -407 -332 -635 -52 -151 -72 -234
-102 -420 -36 -227 -39 -352 -14 -504 11 -66 27 -168 36 -226 41 -278 148
-552 313 -798 289 -428 673 -728 1123 -876 257 -85 460 -116 748 -116 190 0
235 3 357 26 416 76 794 250 1104 510 389 325 654 826 747 1416 27 171 25 521
-4 683 -68 372 -221 701 -473 1014 -205 254 -380 398 -690 566 -69 37 -135 74
-147 81 l-21 13 32 104 c50 158 67 186 167 278 50 45 99 99 109 119 19 36 45
136 91 335 12 55 27 106 32 113 14 17 62 15 153 -8 264 -67 447 -209 509 -394
42 -128 105 -407 105 -468 0 -46 7 -83 25 -126 37 -91 69 -225 105 -437 70
-415 180 -720 327 -900 31 -38 79 -106 106 -150 195 -315 458 -491 822 -551
126 -20 367 -14 570 16 77 11 244 32 370 46 127 14 275 34 330 45 173 33 251
22 404 -55 85 -43 293 -116 330 -116 28 0 36 15 80 138 23 62 45 121 51 132
15 29 57 47 125 55 72 8 319 44 356 51 l26 5 6 -238 c11 -430 73 -704 232
-1028 192 -391 413 -652 734 -866 549 -366 1205 -482 1821 -324 566 145 1057
510 1351 1003 194 326 319 751 319 1084 0 216 -58 583 -125 797 -135 428 -427
829 -809 1110 -285 211 -599 339 -971 396 -149 23 -424 31 -566 16 -513 -53
-984 -290 -1369 -687 -132 -136 -222 -253 -311 -404 -111 -187 -104 -178 -151
-184 -73 -10 -382 -35 -386 -31 -2 2 23 80 57 173 36 102 74 233 95 333 61
282 104 470 109 476 3 2 58 -14 122 -36 65 -23 123 -41 130 -41 17 0 68 136
61 163 -4 16 -32 36 -98 70 -123 62 -157 90 -142 114 10 16 30 19 161 23 141
5 153 7 209 35 33 17 281 203 552 414 537 418 523 405 500 488 -25 90 -104
125 -281 124 -114 0 -225 -27 -432 -105 -268 -101 -418 -131 -665 -130 -244 1
-319 15 -710 139 -353 112 -545 111 -704 -2 -93 -66 -176 -190 -176 -263 0
-37 35 -55 230 -124 107 -37 330 -117 495 -178 165 -60 326 -119 358 -131 32
-11 70 -32 85 -46 48 -47 132 -161 132 -179 0 -10 -26 -63 -59 -118 -45 -76
-66 -102 -89 -110 -24 -9 -33 -21 -42 -52 -18 -70 -68 -177 -147 -320 -89
-161 -99 -182 -168 -372 -86 -236 -125 -326 -149 -349 -20 -18 -80 -31 -424
-86 -780 -125 -1165 -175 -1347 -175 -60 0 -200 7 -310 15 -110 8 -208 15
-217 15 -25 0 -76 47 -98 90 -30 58 -226 735 -385 1325 -113 419 -175 575
-306 770 -58 87 -97 128 -227 239 -56 49 -114 108 -127 131 -26 44 -228 732
-219 746 3 5 24 8 48 7 24 -1 50 3 59 10 8 7 27 47 42 89 24 64 27 82 18 113
l-10 37 48 20 c48 21 104 83 115 129 6 25 -20 82 -69 145 -18 25 -37 62 -40
83 -7 45 -29 73 -74 91 -34 14 -39 31 -24 84 6 21 9 19 44 -32 136 -197 348
-263 546 -170 73 35 170 131 204 205 76 161 58 344 -47 472 -18 23 -48 66 -68
96 -84 133 -189 188 -365 193 -71 3 -99 9 -146 30 -50 24 -70 27 -155 26 l-97
0 -86 -59z m66 -1844 c57 -185 105 -367 105 -393 0 -38 -45 -29 -193 38 l-135
62 17 41 c10 23 28 79 40 126 13 46 33 107 45 135 22 47 74 120 82 112 2 -2
20 -56 39 -121z m-1470 -2459 c44 -7 79 -17 78 -22 -4 -18 -235 -580 -242
-587 -3 -4 -38 11 -76 34 -128 75 -354 329 -371 416 -23 114 318 203 611 159z
m8001 -12 c52 -21 59 -62 34 -186 -32 -158 -38 -176 -71 -203 -73 -62 -240 4
-286 112 -7 18 -34 62 -59 99 -25 36 -44 73 -42 82 4 21 30 33 183 79 135 42
173 44 241 17z m647 -66 c191 -64 366 -193 498 -369 48 -63 116 -198 125 -247
8 -42 -15 -80 -59 -98 -48 -20 -213 -38 -313 -34 -111 5 -135 20 -189 118 -26
49 -68 101 -132 164 -51 50 -100 106 -108 124 -17 36 -22 265 -6 306 24 62 76
72 184 36z m-1135 -171 c23 -50 41 -92 39 -94 -6 -6 -277 30 -276 36 1 9 173
149 184 149 6 0 29 -41 53 -91z m-7078 47 c0 -16 -74 -135 -84 -135 -22 0 -24
9 -10 68 15 66 44 98 75 82 10 -6 19 -13 19 -15z m5644 -184 c3 -4 -5 -18 -18
-30 -18 -17 -55 -28 -152 -46 -156 -30 -181 -30 -217 -6 l-28 18 27 22 c15 11
36 21 48 22 11 0 77 6 146 14 158 16 188 17 194 6z m-7036 -26 c63 -53 162
-341 177 -512 7 -77 6 -85 -19 -127 -14 -24 -47 -60 -73 -79 -86 -62 -436
-227 -483 -227 -33 0 -75 26 -88 55 -17 36 -15 161 3 274 34 205 116 380 259
545 28 33 64 67 81 78 44 27 107 24 143 -7z m8364 10 c62 -9 146 -25 187 -36
76 -20 181 -65 181 -77 0 -4 -32 -42 -70 -84 -83 -90 -112 -103 -214 -95 -90
7 -285 69 -325 103 -37 31 -40 68 -12 130 36 79 62 85 253 59z m-6554 -138
c99 -92 202 -304 237 -490 24 -129 17 -325 -17 -434 -12 -41 -52 -73 -89 -73
-31 0 -125 55 -289 168 -184 128 -232 189 -233 298 -1 55 5 75 52 171 73 150
186 337 224 369 36 30 76 27 115 -9z m6306 -596 c236 -115 243 -120 273 -167
61 -97 73 -200 35 -307 -25 -69 -104 -204 -177 -303 -87 -116 -130 -120 -208
-19 -87 115 -161 271 -192 405 -22 96 -22 262 -1 397 9 57 16 105 16 108 0 10
16 3 254 -114z m2220 -104 c19 -26 21 -42 21 -165 0 -103 -5 -155 -19 -207
-46 -172 -131 -321 -255 -448 -82 -86 -114 -107 -159 -107 -43 0 -64 31 -125
185 -105 263 -127 384 -88 470 28 63 112 130 236 191 242 118 345 139 389 81z
m-10234 -483 c262 -5 360 -149 376 -554 5 -134 4 -147 -15 -177 -28 -45 -71
-51 -163 -23 -269 81 -482 260 -616 517 -86 166 -56 198 218 236 52 8 99 11
105 8 5 -3 48 -6 95 -7z m1361 -114 c307 -70 334 -83 334 -164 0 -33 -9 -54
-46 -106 -71 -99 -133 -164 -221 -230 -150 -113 -372 -201 -515 -204 -62 -1
-75 2 -96 22 -14 13 -28 35 -31 48 -6 24 59 277 108 422 49 144 92 189 209
223 85 24 106 23 258 -11z m7634 -87 c61 -20 191 -142 311 -292 104 -129 120
-162 103 -202 -20 -49 -84 -73 -325 -124 l-122 -25 -75 30 c-41 16 -93 30
-116 30 -71 0 -144 20 -238 67 -96 46 -153 97 -153 135 0 51 88 138 285 280
163 119 225 137 330 101z"/>
</g>
</svg>
